<?xml version="1.0" encoding="UTF-8"?><svg id="Layer_1" xmlns="http://www.w3.org/2000/svg" viewBox="0 0 19 25"><defs><style>.cls-1{fill:#6b7280;}</style></defs><polygon class="cls-1" points="10.58 8.33 9.5 4.99 8.42 8.33 5.05 8.33 7.79 10.52 6.75 13.92 9.5 11.82 12.24 13.92 11.2 10.52 13.95 8.33 10.58 8.33"/><path class="cls-1" d="M9.5,0C4.25,0,0,4.26,0,9.52,0,11.94.9,14.13,2.38,15.81v9.19l7.12-2.38,7.12,2.38v-9.19c1.47-1.68,2.38-3.87,2.38-6.29C19,4.26,14.75,0,9.5,0ZM9.5,16.67c-3.93,0-7.12-3.2-7.12-7.14s3.19-7.14,7.12-7.14,7.12,3.2,7.12,7.14-3.19,7.14-7.12,7.14Z"/></svg>