<?xml version="1.0" encoding="UTF-8"?><svg id="Layer_1" xmlns="http://www.w3.org/2000/svg" viewBox="0 0 25 25"><defs><style>.cls-1{fill:#007f73;}.cls-2{fill:#d7fc19;}</style></defs><path class="cls-1" d="M12.5,0h0c6.9,0,12.5,5.6,12.5,12.5h0c0,6.9-5.6,12.5-12.5,12.5h0C5.6,25,0,19.4,0,12.5h0C0,5.6,5.6,0,12.5,0Z"/><path class="cls-2" d="M9.11,9.37c.58,0,1.04-.46,1.04-1.04s-.46-1.04-1.04-1.04-1.04.46-1.04,1.04.46,1.04,1.04,1.04Z"/><circle class="cls-2" cx="12.73" cy="11.46" r=".78"/><path class="cls-2" d="M15.58,9.37c.58,0,1.04-.46,1.04-1.04s-.46-1.04-1.04-1.04-1.04.46-1.04,1.04.46,1.04,1.04,1.04Z"/><path class="cls-2" d="M16.6,10.61c-.15-.43-.54-.71-.98-.71h-.06c-.45,0-.85.29-.98.71l-.45,1.34c.56.31.94.9.94,1.59v4.17h1.55v-3.12h1.3l-1.32-3.97Z"/><path class="cls-2" d="M9.88,9.9h-1.55c-.57,0-1.04.47-1.04,1.04v3.12h.78v3.65h2.07v-3.65h.78v-3.12c0-.57-.47-1.04-1.04-1.04Z"/><path class="cls-2" d="M13.25,12.76h-1.04c-.42,0-.78.35-.78.78v2.08h.52v2.08h1.55v-2.08h.52v-2.08c0-.43-.35-.78-.78-.78Z"/></svg>