<?xml version="1.0" encoding="UTF-8"?><svg id="Layer_1" xmlns="http://www.w3.org/2000/svg" viewBox="0 0 25 20"><defs><style>.cls-1{fill:#6b7280;}</style></defs><path class="cls-1" d="M17.73.96c-1.3-1.28-3.43-1.28-4.73,0l-.44.44-.47-.44c-1.3-1.28-3.43-1.28-4.73,0-1.3,1.28-1.3,3.38,0,4.66l5.17,5.09,5.2-5.09c1.3-1.28,1.3-3.38,0-4.66Z"/><path class="cls-1" d="M24.94.84c0-.09-.09-.17-.18-.17-1.36.03-2.54,1.05-2.66,2.42l-.38,3.76-.18.64c.59.06,1.12.29,1.54.7l.24.23-2.78,2.77c-.12.12-.33.12-.44,0-.12-.12-.12-.32,0-.44l2.3-2.3c-.33-.2-.68-.32-1.09-.32,0,0-1.3.09-1.77.55l-1.65,1.66s-4.61.93-4.58,6.06l.15,3.58,5.08-.03v-1.66c0-.58.21-1.14.62-1.57l5.26-5.65c.38-.41.59-.96.59-1.51l-.06-8.71Z"/><path class="cls-1" d="M7.12,10.33h0s-1.65-1.66-1.65-1.66c-.47-.49-1.77-.55-1.77-.55-.38,0-.77.12-1.09.32l2.3,2.3c.12.12.12.32,0,.44-.12.12-.33.12-.44,0l-2.78-2.77.24-.23c.41-.41.98-.67,1.54-.7l-.18-.64-.38-3.76C2.75,1.72,1.6.7.21.7.12.7.03.79.03.87L0,9.55C0,10.1.21,10.65.59,11.06l5.26,5.68c.41.44.62.99.62,1.57v1.66l5.08.03.15-3.61c.03-5.12-4.58-6.05-4.58-6.05Z"/></svg>