<svg width="63" height="60" viewBox="0 0 63 60" fill="none" xmlns="http://www.w3.org/2000/svg">
<g clip-path="url(#clip0_72_730)">
<path d="M35.0612 60H27.9388C26.8977 60 26.0555 59.1641 26.0555 58.1308V42.6174C26.0555 42.0184 26.082 41.4326 26.1351 40.8403L25.2796 38.8394C24.7822 37.6744 24.0726 36.6279 23.1774 35.7328C21.3272 33.8964 18.8668 32.8763 16.2474 32.8763H14.4966V35.7525C14.5099 36.391 14.1319 37.0031 13.5417 37.2927C12.9647 37.5889 12.2618 37.5362 11.7246 37.1413L1.03453 29.4866C0.384632 29.0259 0 28.2756 0 27.4792C0 26.6828 0.391263 25.9324 1.04116 25.4717L11.7313 17.8039C12.2419 17.4221 12.9581 17.3629 13.5417 17.6591C14.1385 17.9618 14.5033 18.5542 14.4966 19.2124V22.0821H16.2474C19.6958 22.0821 23.0646 22.9509 26.0555 24.5502V14.4011H23.1641C22.5009 14.4011 21.9107 14.0325 21.6123 13.4533C21.3139 12.8806 21.3603 12.1896 21.7449 11.6564L29.4707 1.02677C29.9416 0.381746 30.6976 0 31.5 0C32.3024 0 33.0584 0.381746 33.5293 1.02677L41.2551 11.6498C41.6397 12.1896 41.6861 12.8806 41.3877 13.4599C41.0959 14.0325 40.5057 14.3945 39.8492 14.4011H36.9512V24.5305C39.9287 22.9311 43.2777 22.0821 46.7593 22.0755H48.51V19.1992C48.51 18.5476 48.8681 17.9552 49.4583 17.6525C50.0485 17.3563 50.7581 17.4221 51.282 17.8104L61.9655 25.4651C62.6154 25.9258 63 26.6762 63 27.4726C63 28.269 62.6087 29.0193 61.9588 29.48L51.2687 37.1479C50.7448 37.5296 50.022 37.5823 49.4384 37.2795C48.8681 36.9965 48.4901 36.3844 48.5034 35.7262V32.8763H46.7526C44.1332 32.8763 41.6728 33.8964 39.8226 35.7328C37.9724 37.5691 36.9512 40.0175 36.9445 42.6108V58.1176C36.9445 59.1509 36.1023 59.9868 35.0612 59.9868V60ZM28.0449 58.0255H34.9551V42.6174C34.9551 39.491 36.1885 36.5555 38.4167 34.344C40.6449 32.1325 43.6026 30.9149 46.7526 30.9083H50.4928V35.272L60.7983 27.8872C60.9309 27.7885 61.0105 27.6371 61.0105 27.4792C61.0105 27.3212 60.9309 27.1632 60.7983 27.0711L50.4928 19.6797V24.05H46.7526C41.7591 24.05 37.0639 25.9917 33.5359 29.4932C30.0013 32.9947 28.0582 37.6613 28.0449 42.6174V58.0189V58.0255ZM12.5072 30.9083H16.2474C19.3974 30.9083 22.3617 32.1325 24.5833 34.344C25.0541 34.8113 25.4785 35.3181 25.8632 35.8512C26.6324 33.5147 27.8062 31.3098 29.3182 29.3616C25.8499 25.9785 21.1282 24.0566 16.2474 24.0566H12.5072V19.6863L2.20168 27.0711C2.06905 27.1698 1.98947 27.3212 1.98947 27.4792C1.98947 27.6371 2.06905 27.7951 2.20168 27.8872L12.5072 35.2852V30.9149V30.9083ZM12.5072 35.7657C12.5072 35.7657 12.5072 35.7723 12.5072 35.7789V35.7657ZM28.0449 24.2343C29.2851 25.0176 30.4456 25.9258 31.5 26.946C32.5611 25.9324 33.7149 25.0241 34.9551 24.2343V12.4265H39.3584L31.9112 2.18517C31.7188 1.9219 31.2745 1.9219 31.0822 2.18517L23.6349 12.4133H28.0383V24.2343H28.0449ZM12.9117 19.3901H12.9051C12.9051 19.3901 12.9051 19.3901 12.9117 19.3901Z" fill="#00FFAB"/>
</g>
<defs>
<clipPath id="clip0_72_730">
<rect width="63" height="60" fill="white"/>
</clipPath>
</defs>
</svg>
