<?xml version="1.0" encoding="UTF-8"?>
<svg id="Layer_1" data-name="Layer 1" xmlns="http://www.w3.org/2000/svg" viewBox="0 0 20 19.14">
  <defs>
    <style>
      .cls-1 {
        fill: #007f73;
      }

      .cls-2 {
        fill: #d7fc19;
      }
    </style>
  </defs>
  <path class="cls-1" d="M19.67,9.6C21.23,4.57,17.16-.69,9.91.07,4.56.64-1.02,3.93.16,9.6c1.07,5.16,4.59,9.79,9.75,9.53,5.91-.3,8.04-4.01,9.75-9.53"/>
  <path class="cls-2" d="M5.17,7.78s-.02.06-.02.09c0,.07.03.14.07.18,0-.1-.03-.19-.06-.27"/>
  <path class="cls-2" d="M4.85,11.05c.09-.06.19-.05.28-.03.09-.12.15-.27.19-.44-.02.03-.05.06-.1.09-.07.05-.16.09-.25.1-.14.02-.24-.02-.33-.05-.08-.03-.14-.06-.22-.04-.13.03-.21.15-.24.21-.08.13-.09.27-.08.57,0,.02,0,.04,0,.05.22-.03.41-.07.57-.14.03-.13.07-.25.18-.31"/>
  <path class="cls-2" d="M4.9,11.13c-.06.04-.1.11-.12.19.11-.06.21-.13.28-.21-.06,0-.11,0-.16.03"/>
  <path class="cls-2" d="M4.47,7.29c.05.06.07.1.11.11.05,0,.08-.04.14-.12,0,0,.01-.02.02-.02-.13-.08-.29-.14-.47-.17.1.07.15.14.2.21"/>
  <path class="cls-2" d="M2.16,10.52c-.09,0-.15.07-.15.15s.07.15.15.15.15-.07.15-.15c0-.09-.07-.15-.15-.15"/>
  <path class="cls-2" d="M4.31,8s-.05.07-.09.07c0,0-.01,0-.02,0-.05,0-.08-.06-.07-.11,0-.05.06-.08.11-.07.05,0,.08.06.07.11M4.2,7.71c-.15,0-.27.12-.27.27s.12.27.27.27.27-.12.27-.27c0-.15-.12-.27-.27-.27"/>
  <path class="cls-2" d="M3.06,10.52c-.09,0-.15.07-.15.15s.07.15.15.15.15-.07.15-.15c0-.09-.07-.15-.15-.15"/>
  <path class="cls-2" d="M2.7,8.19l-.2-.46.45-.14-.12-.4s0-.05.03-.06c.02,0,.05,0,.06.03,0,0,0,0,0,0l.15.49-.44.14.2.46-.41.12.06.28s0,.05-.03.05c0,0,0,0,0,0h0s-.04-.02-.04-.04l-.08-.37.4-.11ZM4.76,8.35s.02-.04.05-.04c.02,0,.04.02.04.04v.41s-.02.05-.05.05c-.03,0-.05-.02-.05-.05v-.41ZM2.87,11.49h0c-.08,0-.17,0-.25,0-.05,0-.1,0-.14,0-.02,0-.04-.02-.04-.05h0s.02-.04.05-.04c.05,0,.09,0,.14,0,.08,0,.17,0,.25,0,.02,0,.04.02.04.05,0,.02-.02.04-.04.04M2.16,10.92c-.14,0-.25-.11-.24-.25,0-.14.11-.25.25-.24.14,0,.25.11.25.25,0,.14-.11.24-.25.25M1.97,9.24c.11.03.22.03.33,0,.13-.03.2-.08.26-.14s.13-.11.25-.11c.22-.02.4.14.48.21.09.07.16.16.21.26.01.02,0,.05-.02.06,0,0-.01,0-.02,0h0s-.03-.01-.04-.03c-.05-.09-.11-.17-.19-.24-.08-.07-.24-.2-.42-.19-.09,0-.13.04-.19.09-.07.05-.15.12-.3.15-.12.03-.25.03-.37,0-.07-.02-.13-.05-.19-.08v.44s.04.04.06.06c.08.09.16.17.3.2.14.03.3,0,.47-.1.11-.06.17-.12.22-.18.06-.06.1-.11.19-.12.08,0,.16.02.25.09h.22c.31,0,.41.12.41.44,0,.34-.11.48-.38.48h-.24s.04.09.04.14c0,.14-.11.24-.25.25-.14,0-.25-.11-.25-.25s.11-.25.25-.25c.05,0,.09.01.13.04v-.78c-.06-.05-.12-.07-.17-.07-.05,0-.08.04-.14.09-.07.08-.15.15-.25.2-.19.1-.37.14-.53.1-.16-.03-.26-.13-.34-.21v.9h0c0,.54.25.83.74.83h.97c-.01-.14-.05-.23-.05-.24,0-.02,0-.05.03-.06.02,0,.05,0,.06.03,0,.01.04.12.06.27h.06c.14,0,.27,0,.4-.02,0-.02,0-.04,0-.06,0-.28,0-.46.1-.62.04-.06.13-.21.3-.25.11-.02.19,0,.27.04.08.03.16.07.28.05.07-.01.15-.04.21-.08.06-.05.09-.09.12-.14.02-.03.03-.05.05-.07,0-.05,0-.1,0-.15,0-.16-.02-.3-.06-.43-.16.1-.35.15-.55.15h0s-.02,0-.02,0c-.51-.01-.8-.4-.86-.47-.17-.24-.2-.49-.2-.66-.06.05-.14.08-.26.08h-.22v-.86h.18c.07-.09.18-.15.3-.14.02,0,.04.02.04.05,0,.02-.02.04-.05.04-.06,0-.11.02-.15.05.18.03.27.16.27.4,0,.09-.01.17-.03.24,0,0,.01.02.01.03,0,0,0,0,0,0-.01.12-.02.42.17.7.05.07.32.43.78.44.19,0,.38-.05.54-.15-.06-.14-.14-.26-.25-.36-.09.03-.18.05-.27.05h0s-.02,0-.02,0c-.29,0-.48-.19-.53-.24-.02-.02-.01-.05,0-.06.02-.02.04-.01.06,0,.04.05.21.2.47.21.07,0,.14,0,.21-.03-.1-.08-.23-.14-.37-.18.44-.12.67-.41.67-.92-.07-.04-.13-.11-.15-.19-.01,0-.02,0-.03,0-.09-.04-.19-.05-.29-.04-.06,0-.11.02-.17.04,0,0-.01,0-.02,0h0s0,0-.01,0c0,.19-.16.35-.36.35-.2,0-.36-.16-.36-.36s.16-.36.36-.36c.17,0,.32.12.35.28,0,0,0,0,0,0,.06-.02.13-.04.19-.05.11-.01.22,0,.32.04,0,0,0-.01,0-.02,0-.07.02-.14.06-.2-.07-.15-.17-.27-.31-.36,0,0-.01.02-.02.03-.05.07-.11.16-.2.16h0s-.01,0-.02,0c-.08,0-.13-.07-.18-.14-.05-.08-.12-.17-.25-.22-.05-.02-.1-.04-.16-.04-.23.01-.36.37-.37.38,0,.02-.03.04-.06.03-.02,0-.04-.03-.03-.06,0,0,0,0,0,0,.01-.03.11-.27.28-.38h-1.32s-.01,0-.02,0l.1.39-.35.16.18.43-.42.15.11.47s0,.05-.03.05c0,0,0,0-.01,0h0,0s-.04-.01-.04-.03l-.13-.55.41-.15-.18-.42.36-.17-.08-.33s0,0,0,0c-.41.04-.62.32-.62.82v1.26c.06.04.13.08.21.1"/>
  <path class="cls-2" d="M6.07,10.05c-.08.06-.15.12-.21.19-.06.07-.13.14-.18.22l-.13.44c0,.09.04.19.09.29.01.02,0,.05-.02.06,0,0-.01,0-.02,0h0s-.03,0-.04-.02c-.02-.05-.05-.1-.06-.14l-.02.06c-.04.1.28.46.78.46.29,0,.53-.14.67-.51-.02-.06-.02-.13-.01-.21.02-.2.15-.34.19-.39.05-.06.12-.11.19-.15.05-.03.09-.05.12-.12.03-.05.03-.08.02-.14,0-.07,0-.14.02-.21.01-.05.03-.15.08-.25h-.35l.14-.62s-.05,0-.08-.01c-.09-.02-.15-.03-.22.02-.12.07-.14.26-.16.42-.01.09,0,.18,0,.26.01.07.02.14,0,.24-.03.09-.06.13-.18.27-.04.04-.09.09-.14.16-.34.39-.4.5-.4.61,0,.08.03.17.08.25.01.02,0,.05-.01.06,0,0,0,0,0,0,0,0-.02,0-.03,0h0s-.03,0-.04-.02c-.07-.1-.1-.2-.1-.3,0-.14.06-.26.42-.67.06-.07.11-.12.15-.16.12-.14.14-.16.16-.23.02-.08.02-.14,0-.2-.02-.1-.02-.19,0-.29.02-.17.05-.39.2-.49.1-.06.19-.04.29-.03.03,0,.05,0,.08.01l.1-.46s-.05.06-.1.09c-.07.05-.16.09-.25.1-.14.02-.24-.02-.33-.05-.08-.03-.14-.06-.22-.04-.13.03-.21.15-.24.21-.08.13-.09.27-.08.57,0,.1,0,.19.02.29,0,.09.01.15-.02.23-.04.1-.09.14-.16.19"/>
  <path class="cls-2" d="M7.68,7.31c.06-.1.1-.2.12-.3-.08,0-.17-.01-.27-.01-.42,0-.67.06-.82.17.05.01.1.02.15.02.17,0,.34-.06.47-.17.02-.02.05-.01.06,0,.02.02.02.05,0,.06-.14.12-.32.19-.51.19h0s-.02,0-.02,0c-.08,0-.16-.02-.22-.04-.04.05-.07.11-.09.17l-.07.23c.11.05.23.09.38.09.34,0,.65-.16.83-.43"/>
  <path class="cls-2" d="M9.15,10.15c.04.12.1.19.18.25.02.02.05.04.07.07l-.57-1.92s0,.01-.01.01c-.05.03-.31.2-.3.41,0,.16.16.3.3.42.05.04.1.08.15.12.05.03.09.06.13.12.06.11.05.2.04.28,0,.07-.02.14,0,.23"/>
  <path class="cls-2" d="M8.56,7.65l-.07-.23c-.02-.06-.04-.12-.08-.17.03.16.09.3.15.4"/>
  <path class="cls-2" d="M8.83,10.25c0,.13-.1.23-.23.23-.13,0-.23-.1-.23-.23s.1-.23.23-.23c.13,0,.23.1.23.23h0ZM8.36,9.85s0-.05.02-.06c.13-.07.28-.07.41,0,.02.01.03.04.02.06,0,.02-.02.02-.04.02,0,0-.01,0-.02,0-.1-.05-.22-.05-.32,0-.02.01-.05,0-.06-.02M8.24,10.8s-.02.05-.05.05c-.03,0-.05-.02-.05-.05v-.41s.02-.04.05-.04c.02,0,.04.02.04.04v.41ZM8.1,9.86s-.02.02-.04.02c0,0-.01,0-.02,0-.1-.05-.22-.05-.32,0-.02.01-.05,0-.06-.02-.01-.02,0-.05.02-.06,0,0,0,0,0,0,.13-.07.28-.07.41,0,.02.01.03.04.02.06M8.01,10.29s0,0,0,0c-.01.02-.08.09-.18.09h0c-.09,0-.17-.05-.21-.14,0-.02,0-.05.02-.06.02,0,.05,0,.06.02.02.05.07.08.13.09.04,0,.08-.02.11-.06.01-.02.04-.03.06-.01.02.01.03.04.01.06M8.81,11.59c.49,0,.83-.35.78-.47l-.07-.23c-.02.12-.07.24-.16.38,0,.01-.02.02-.04.02h0s-.02,0-.02,0c-.02-.01-.03-.04-.01-.06,0,0,0,0,0,0,.14-.22.18-.4.13-.55-.03-.1-.09-.15-.16-.21-.08-.07-.16-.14-.21-.29-.03-.11-.02-.19-.01-.27.01-.08.02-.14-.03-.22-.03-.05-.05-.06-.1-.09-.06-.04-.11-.08-.17-.12-.15-.14-.33-.29-.33-.49-.01-.27.28-.46.34-.5.01,0,.03,0,.04,0l-.17-.57s-.02,0-.03-.02c-.05-.07-.26-.35-.3-.74-.09-.06-.23-.11-.42-.13-.02.11-.06.22-.13.33-.18.3-.52.48-.88.48h0s-.02,0-.02,0c-.15,0-.29-.04-.4-.1l-.71,2.5s.04-.04.06-.06c.07-.07.14-.14.22-.2.07-.05.1-.08.13-.15.03-.06.02-.1.01-.19-.01-.1-.02-.2-.02-.3,0-.28,0-.46.1-.62.04-.06.13-.21.3-.25.11-.02.19,0,.27.04.08.03.16.07.28.05.07-.01.15-.04.21-.08.06-.05.09-.09.12-.14.03-.05.06-.09.1-.13.09-.09.23-.14.39-.15.02,0,.05.02.05.04s-.02.05-.04.05c-.15,0-.26.05-.34.12-.02.02-.05.05-.06.08l.11.5c.07-.04.12-.1.16-.14.06-.06.11-.13.14-.21.04-.07.07-.13.14-.17.1-.05.24-.04.41.05.02.01.03.04.02.06-.01.02-.04.03-.06.02-.14-.07-.25-.08-.32-.05-.05.02-.07.07-.1.13-.04.08-.09.16-.16.23-.05.06-.12.13-.21.18l.1.44s0,0,.01,0c.09-.05.2-.07.3-.05.02,0,.04.03.04.05,0,.02-.03.04-.05.04-.08-.01-.17,0-.24.04-.01,0-.03.01-.04.02l.03.14h-.15c-.06.1-.08.21-.09.27-.01.06-.02.13-.01.19,0,.06,0,.11-.04.18-.05.08-.1.12-.16.15-.06.03-.12.08-.17.13-.02.02-.06.07-.1.13h.93l.03.21c.05.19.13.35.23.47.02,0,.05-.01.07-.02.12-.05.22-.16.26-.29,0-.02.03-.04.06-.03.02,0,.04.03.03.06-.05.15-.16.28-.31.34-.01,0-.02,0-.03.01.09.08.21.14.36.15.04-.06.06-.13.08-.21,0-.02.03-.04.05-.04.02,0,.04.03.04.05-.01.07-.04.13-.07.2"/>
  <path class="cls-2" d="M8.61,10.12c-.08,0-.14.06-.14.14,0,.08.06.14.14.14s.14-.06.14-.14h0c0-.08-.06-.14-.14-.14"/>
  <path class="cls-2" d="M13.44,9.82s-.03,0-.04,0c-.07.01-.12.06-.12.11,0,.02.02.04.04.05.03.01.07.02.1,0,.03,0,.05-.02.07-.03v-.12s0,0,0,0c-.02,0-.04-.01-.06-.01"/>
  <path class="cls-2" d="M10.15,10.97c-.04-.3-.14-.59-.3-.85v.75h0c0,.31.1.52.29.62.03-.17.03-.35.01-.53"/>
  <path class="cls-2" d="M12.11,10.25c0-.1-.13-.18-.27-.18-.11,0-.21.05-.25.11l.15.24s.07.01.11.01c.15,0,.27-.08.27-.18"/>
  <path class="cls-2" d="M9.89,8.76h0s-.03,0-.03-.02h0s0,.46,0,.46l.59-.14-.32-.51.6-.05-.23-.51h.56l-.14-.6.25.02-.05-.09s-.05-.07-.07-.11h0s-.68,0-.68,0l.23.47-.56.05.18.65-.36.04v.15l.08.09s.01.05,0,.06c0,0-.02.01-.03.01"/>
  <path class="cls-2" d="M12.79,7.01s-.05.06-.05.1c0,.08.06.14.14.14s.14-.06.14-.14c0-.04-.02-.07-.04-.1-.02,0-.04,0-.06,0h-.12Z"/>
  <path class="cls-2" d="M10.4,7.01c-.34,0-.55.23-.55.68v.67l.24-.02-.18-.65.54-.05-.24-.48h.69s-.03-.07-.03-.07c-.09-.05-.2-.08-.34-.08h-.12Z"/>
  <path class="cls-2" d="M11.88,9.71s-.02.05-.05.05h0s-.05-.02-.05-.04v-.5s.02-.04.05-.04c.02,0,.04.02.04.04v.5ZM11.55,9.2s-.02,0-.03,0c0,0,0,0,0,0h0s0,0,0,0c-.01,0-.03,0-.04-.02l-.26-.34-.24.32s-.04.03-.06.01c-.02-.01-.03-.04-.01-.06,0,0,0,0,0,0l.31-.41.33.44s.01.05,0,.06M13.49,11.09c-.06-.03-.11-.06-.16-.1-.02-.01-.03-.04-.01-.06.01-.02.04-.03.06-.01,0,0,0,0,0,0,.04.03.08.05.12.08,0-.04,0-.08,0-.12v-.29c-.05-.05-.09-.12-.12-.18,0-.02,0-.05.02-.06.02,0,.05,0,.06.02,0,.02.02.04.03.07v-.38s-.04.01-.06.02c-.02,0-.04,0-.06,0h0s-.07,0-.1-.02c-.05-.02-.08-.06-.09-.11-.02-.1.06-.19.19-.21.04,0,.08,0,.12,0v-.26c-.13.04-.26.06-.4.06h0c-.08,0-.15,0-.23-.02-.02,0-.04-.03-.04-.05,0-.02.03-.04.05-.04.1.02.35.05.61-.05v-.26s-.09.02-.14.02h0,0c-.06,0-.12-.01-.18-.03-.02,0-.04-.03-.03-.06,0-.02.03-.04.06-.03,0,0,0,0,0,0,.1.04.2.03.29,0v-.47c-.07.02-.14.02-.21.02h0,0,0c-.17,0-.34-.05-.49-.15-.27-.19-.32-.5-.34-.62,0-.03.02-.05.04-.05.02,0,.04.02.05.04,0,.09.06.38.3.56.18.13.41.16.64.11v-.35c-.05.01-.1.02-.16.02h0c-.05,0-.11,0-.16-.02-.12-.03-.22-.1-.3-.2-.02-.02-.01-.05,0-.06.02-.02.05-.01.06,0,.06.08.15.14.25.17.1.03.2.02.29,0v-.32c0-.2-.04-.36-.12-.47v.29s-.02.05-.05.05-.05-.02-.05-.05v-.39c-.06-.05-.12-.08-.2-.1,0,.02.01.05.01.08,0,.13-.1.23-.23.23s-.23-.1-.23-.23c0-.03,0-.07.02-.1-.33.04-.5.27-.5.68v1.28l.2-.26.33.44s.01.05,0,.06c0,0-.02,0-.03,0h0,0s-.03,0-.04-.02l-.26-.34-.24.32s-.04.03-.06.01c-.02-.01-.03-.04-.01-.06,0,0,0,0,0,0l.07-.09-.91-1.5-.19-.02.14.59h-.53l.23.5-.58.04.31.49-.57.13.25.21s.02.05,0,.06c0,.01-.02.02-.03.02h0,0s-.02,0-.03-.01l-.36-.31v.82s0,0,0,0c.02-.01.05,0,.06.01.18.27.29.58.33.9.02.19.02.38-.02.57.07.02.14.03.22.03h.12c.39,0,.62-.24.62-.69-.31-.2-.43-.55-.49-.71-.06-.17-.09-.34-.09-.52,0-.03.02-.05.04-.05h0s.05.02.05.04c0,.17.03.33.09.49.05.15.16.43.4.62v-1.22l.35.55c.07-.07.18-.12.3-.12.2,0,.36.12.36.27s-.16.27-.36.27c-.01,0-.03,0-.04,0l.25.4c.23-.06.44-.19.58-.38.06-.09.11-.19.13-.3,0-.02.03-.04.05-.03.02,0,.04.03.03.05-.02.12-.07.23-.14.33-.14.2-.36.34-.6.4l.15.24c.1.16.2.26.35.3.12-.11.22-.27.29-.48,0-.02.03-.04.06-.03.02,0,.04.03.03.06-.07.2-.16.36-.27.47.04,0,.08,0,.13,0h.12c.28,0,.48-.15.54-.48"/>
  <path class="cls-2" d="M15.07,8.2s-.02,0-.03,0c-.05.02-.07.07-.06.11.02.05.07.07.11.06s.07-.07.06-.11c-.01-.04-.05-.06-.08-.06"/>
  <path class="cls-2" d="M17.88,11.12l-.1-.34c-.05.16-.08.37-.04.58.11-.09.16-.19.14-.24"/>
  <path class="cls-2" d="M16.2,7.08s.03-.03.04-.05c-.12-.02-.26-.03-.43-.03-.41,0-.66.06-.81.16.09.08.2.15.34.19.32.09.66-.02.87-.27"/>
  <path class="cls-2" d="M16.65,9.27s.04.02.04.05c0,.14-.09.26-.21.31-.04.02-.08.03-.13.03h0s-.09,0-.13-.02c-.02,0-.03-.04-.03-.06,0-.02.04-.03.06-.03.06.02.13.02.19,0,.09-.04.15-.13.15-.23,0-.02.02-.04.05-.04M16.45,10.36h0s-.02,0-.02,0c-.02,0-.03,0-.04-.02l-.36-.55s0-.05.01-.06c.02-.01.05,0,.06.01l.36.55s0,.05-.01.06M15.72,10.13s-.1.05-.16.05c-.06,0-.12-.02-.16-.05-.02-.01-.03-.04-.01-.06.01-.02.04-.03.06-.01.08.06.2.04.26-.04.03-.04.04-.09.03-.14,0-.02.01-.05.04-.05.02,0,.05.01.05.04.02.1-.02.21-.11.27M14.43,10.64l-.41.41s-.02.01-.03.01h0s-.02,0-.03-.01c-.02-.02-.02-.05,0-.06l.41-.41s.05-.02.06,0c.02.02.02.05,0,.06M15.12,8.46s-.04,0-.06,0c-.1,0-.18-.08-.18-.18,0-.1.08-.18.18-.18.1,0,.18.08.18.18,0,.08-.05.15-.12.17M15.15,8.93c-.09.07-.2.12-.32.14-.04,0-.09.01-.14.01h0,0,0s-.09,0-.14-.01c-.02,0-.04-.03-.04-.05,0-.02.03-.04.05-.04,0,0,0,0,0,0,.18.03.37-.01.52-.12.02-.01.05,0,.06.01.01.02,0,.05,0,.06M14.69,8.3s.05.01.05.03l.09.43s-.01.05-.04.05c0,0,0,0,0,0h0s-.04-.02-.04-.04l-.09-.43s.01-.05.04-.05M15.56,7.48h0c-.09,0-.17-.01-.25-.03-.16-.05-.29-.13-.38-.22-.06.06-.09.12-.11.2l-.12.43c.11-.07.22-.16.31-.26.02-.02.05-.02.06,0,.02.02.02.05,0,.06-.09.1-.19.19-.31.26-.03.02-.07.04-.1.06l-.12.44c.04.05.04.12.01.18-.02.04-.05.06-.08.08l-.18.65s.04.03.06.05c.05.03.18.14.35.12.13-.01.21-.09.3-.19.1-.11.21-.23.43-.3.05-.02.1-.03.15-.04.02,0,.04,0,.06-.01l.15-.7.09.43s.02-.09.02-.14c0-.02.02-.04.05-.04h0s.04.02.04.05c0,.12-.03.22-.08.3l.07.32c.05-.02.1-.04.15-.06.09-.05.37-.2.39-.46.02-.25-.21-.43-.26-.46-.02-.02-.02-.04,0-.06.01-.02.04-.02.06,0,.05.04.31.25.29.54-.01.2-.16.39-.43.54-.05.03-.11.05-.17.07l.08.38h-.6s0-.04,0-.04c0,0,0,.01,0,.02-.03.07-.07.13-.11.19-.16.22-.43.36-.8.43,0,0,0,0,0,0h0s-.05-.02-.05-.04c0-.02.02-.04.04-.05.35-.06.6-.19.75-.39.04-.06.08-.12.11-.18.04-.08.07-.15.14-.22l.07-.3s0,0-.01,0c-.05,0-.1.02-.14.04-.2.07-.3.18-.39.28-.1.11-.19.2-.36.22-.02,0-.03,0-.04,0h0c-.18,0-.32-.1-.37-.14-.01,0-.02-.02-.03-.03l-.49,1.72s.04.14.15.24c.14-.03.27-.08.4-.16.02-.01.05,0,.06.01.01.02,0,.05-.01.06-.11.07-.22.12-.35.15.1.06.22.11.36.14.37-.19.57-.49.65-.62.01-.02.04-.03.06-.02.02.01.03.04.02.06,0,0,0,0,0,0-.07.13-.25.39-.57.59,0,0,0,0,0,0,.33,0,.6-.19.72-.69l.04-.23h.99v.06c.13,0,.24-.05.32-.13.09-.11.09-.24.08-.29,0-.02.02-.05.04-.05.02,0,.05.01.05.04h0c0,.06,0,.22-.1.35-.09.11-.22.17-.36.17v.06c.09.26.2.48.38.6.07-.06.13-.12.19-.2.24-.34.2-.75.17-.92-.02-.2-.08-.4-.18-.58-.01-.02,0-.05.02-.06.02-.01.05,0,.06.02.1.19.16.4.19.61.02.19.08.62-.19.99-.05.07-.11.13-.18.19.08.04.18.06.29.06.23,0,.44-.08.58-.17-.06-.31,0-.59.08-.79l-.15-.51c.03.2,0,.42-.07.66-.02.08-.06.16-.09.23,0,.02-.02.03-.04.03h0s-.01,0-.02,0c-.02-.01-.03-.04-.02-.06h0c.04-.07.07-.14.09-.22.11-.37.1-.69-.04-.92-.02-.04-.05-.07-.09-.1-.05-.04-.12-.1-.27-.26-.3-.32-.33-.44-.33-.53,0-.13.04-.27.15-.4.02-.02.04-.02.06,0,.02.02.02.04,0,.06-.09.11-.13.22-.13.33,0,.05,0,.15.31.47.14.16.21.21.26.25.04.03.08.07.11.12.02.03.03.05.04.08l-.59-1.96c-.26-.17-.52-.23-.6-.24-.02,0-.04-.03-.04-.05,0-.02.03-.04.05-.04.07.01.3.06.54.2l-.11-.37c-.04-.17-.15-.3-.44-.37-.02.03-.04.06-.06.09-.17.21-.43.34-.71.34"/>
</svg>