<?xml version="1.0" encoding="UTF-8"?>
<svg xmlns="http://www.w3.org/2000/svg" version="1.1" viewBox="0 0 120 43.2">
  <!-- Generator: Adobe Illustrator 29.2.1, SVG Export Plug-In . SVG Version: 2.1.0 Build 116)  -->
  <defs>
    <style>
      .st0 {
        fill: #fff;
      }

      .st0, .st1 {
        fill-rule: evenodd;
      }

      .st1 {
        fill: #f29400;
      }

      .st2 {
        fill: #54ab3a;
      }
    </style>
  </defs>
  <g id="Layer_2">
    <path class="st2" d="M107.4,0c.9.2,1.8.3,2.7.5,4.4,1.2,8,4.7,9.3,9s.4,1.8.6,2.6v31H13.5c-7.3-.2-13.1-5.7-13.5-13V0h107.4Z"/>
  </g>
  <g id="Layer_1">
    <g>
      <path class="st0" d="M20,29.7c-1.5,0-2.3-.5-2.3-2.3V9.4s-5.5,0-5.5,0v19c0,4.7,2.5,6.8,5.5,6.8s3.6-.8,3.6-3.2v-2.4s-1.2,0-1.2,0"/>
      <path class="st0" d="M22.8,17.3h-.9c-1.4,0-2.1-1.1-2.3-3l-.5-4.9h4.3l-.6,7.9"/>
      <path class="st1" d="M96.1,11c0,1.9-1.3,3.4-3,3.4s-3-1.5-3-3.4,1.3-3.4,3-3.4,3,1.5,3,3.4"/>
      <path class="st0" d="M28.7,28.9c0-1.3.8-2,3-2h1.1v3.7s0,.2-1.9.2-2.2-.6-2.2-1.9ZM30.6,14.9c-4.7,0-6.8,2.4-6.7,4.8v2.4h.2c1.1-1.3,2.3-2.2,5.3-2.2s3.5.5,3.5,2.1v.8s-1,0-1,0c-5.9,0-8.5,2.2-8.5,6.6,0,4.5,3.9,6.2,7.1,6.2h.3c4.8,0,7.4-1.3,7.4-1.3v-10.8c0-5.8-3-8.5-7.5-8.5h0Z"/>
      <path class="st0" d="M52.6,15.4h-2.6c-.5,4.4-1.9,10-2.9,12.3-2.1-5.7-3.3-12.3-3.3-12.3h-5.4c.7,5.7,3,13,5.2,17.1.9,1.8,1.8,2.8,3.6,2.8h2c1.9-2.6,3.9-9.3,4.9-13,.4-1.4.7-2.9.7-4.3,0-1.6-.9-2.7-2.3-2.7"/>
      <path class="st0" d="M63.2,19.9c-1.9,0-2.7,1.5-2.9,3.4h2.1c2.6,0,3.1-.5,3.1-1.4,0-1-.7-2.1-2.3-2.1ZM62.9,27.7h-2.4c.3,2,1.6,2.9,3.9,2.9s4.1-.5,5-1.2h.2v1.6c0,2.5-1.6,4.7-6.1,4.7s-8.4-4.6-8.5-10c0-5.9,3.2-10.8,8.1-10.8s7.4,2.9,7.5,7.9c0,3.9-2.4,5-7.7,5h0Z"/>
      <path class="st0" d="M80,14.9c-.1,0-.2,0-.4,0-.4,0-.7,0-1.1,0-3.2.4-6.5,2-6.5,2v18.1h5.5v-14.1c1.2-.4,2-.6,2.3-.6,1.9,0,2.6,1.2,2.6,3.8v6.8c0,3,.9,4.1,3.3,4.1h2.2v-10.7c0-5.8-2.4-9.5-8-9.5"/>
      <path class="st0" d="M95.9,15.4h-5.5s0,14.8,0,14.8c0,0,0,.7,0,1.3,0,1.7.3,3.6,3.3,3.6h2.2V15.4"/>
      <path class="st0" d="M103.8,14.8c-2.8,0-5.6,2-5.6,2v18.2s5.3,0,5.3,0v-11.7c0-2.4.9-3.2,2.2-3.2s1.2,0,1.9.4h.2v-2.5c0-1.8-1.3-3.2-4.1-3.2"/>
    </g>
  </g>
</svg>