<svg xmlns="http://www.w3.org/2000/svg" viewBox="0 0 390.79 125.81"><defs><style>.cls-1{fill:#4570b4;}.cls-2{fill:#b1b1b0;}</style></defs><title>baseline_CMYK</title><g id="Calque_2" data-name="Calque 2"><path class="cls-1" d="M26,34.25c1.14-.16,2.43-.3,3.86-.41s2.92-.19,4.44-.24,3-.1,4.44-.12,2.73,0,3.87,0a35.35,35.35,0,0,1,12.94,2.12,22,22,0,0,1,8.71,5.94,23.89,23.89,0,0,1,4.89,9.12,41.46,41.46,0,0,1,1.55,11.65,42.06,42.06,0,0,1-1.47,11.15,25.32,25.32,0,0,1-4.88,9.53,24.43,24.43,0,0,1-9,6.67,33.33,33.33,0,0,1-13.8,2.53c-.87,0-2,0-3.46-.08l-4.48-.21-4.44-.24c-1.41-.08-2.47-.18-3.17-.28Zm17.5,9.12c-1.19,0-2.4,0-3.62.08a21.35,21.35,0,0,0-2.73.24V81.88a7.48,7.48,0,0,0,1.1.12l1.67.08,1.71.09,1.22,0a16.63,16.63,0,0,0,7.86-1.67,13.35,13.35,0,0,0,5-4.44,17.81,17.81,0,0,0,2.57-6.39A37.42,37.42,0,0,0,59,62.26a35.74,35.74,0,0,0-.65-6.72,16.79,16.79,0,0,0-2.4-6.07,13.62,13.62,0,0,0-4.76-4.39A15.37,15.37,0,0,0,43.52,43.37Z"/><path class="cls-1" d="M79.83,34.25H91v57H79.83Z"/><path class="cls-1" d="M122,61.53h21.25v25.4a21.46,21.46,0,0,1-8.18,4.15,35.5,35.5,0,0,1-9.41,1.3,29.31,29.31,0,0,1-10.13-1.71,20.76,20.76,0,0,1-8.1-5.33,25.51,25.51,0,0,1-5.38-9.24,40.86,40.86,0,0,1-2-13.35A36.08,36.08,0,0,1,102.43,49a25.75,25.75,0,0,1,6.1-9.2A23,23,0,0,1,117,34.7a29.93,29.93,0,0,1,9.61-1.59,44.54,44.54,0,0,1,8.59.73,40.16,40.16,0,0,1,5.9,1.55l-2.28,9.36a23.29,23.29,0,0,0-4.55-1.26,37.88,37.88,0,0,0-6.44-.45,18.94,18.94,0,0,0-6.43,1.06,12.54,12.54,0,0,0-5.09,3.46A16.46,16.46,0,0,0,113,53.71a30.84,30.84,0,0,0-1.18,9.12A30.2,30.2,0,0,0,113,71.66a17.06,17.06,0,0,0,3.18,6.11,12.46,12.46,0,0,0,4.76,3.54,15,15,0,0,0,5.82,1.14,16.65,16.65,0,0,0,4.16-.53,9.49,9.49,0,0,0,3.42-1.59V69.59L122,68.28Z"/><path class="cls-1" d="M152.62,34.25h11.16v57H152.62Z"/><path class="cls-1" d="M215.15,44.18H198.54V91.24H187.39V44.18H170.7V34.25h44.45Z"/><path class="cls-1" d="M291,90.1A23.71,23.71,0,0,1,283.43,89a13.51,13.51,0,0,1-5.28-3.11,12,12,0,0,1-3-4.83,18.44,18.44,0,0,1-.91-5.9A26.25,26.25,0,0,1,274.4,72c.13-1.07.32-2.18.57-3.35l7.11-33.36h12L287,69.14a21.4,21.4,0,0,0-.56,4.3c0,1.93.46,3.28,1.36,4a7.31,7.31,0,0,0,4.58,1.19,7.7,7.7,0,0,0,5.92-2.17c1.45-1.54,2.57-4.13,3.36-7.71l7.11-33.43h11.51L313,70a39.72,39.72,0,0,1-3,9.21,20.49,20.49,0,0,1-4.54,6.29,16,16,0,0,1-6.36,3.54A29.09,29.09,0,0,1,291,90.1Z"/><path class="cls-1" d="M318.77,36.58l-7,33.18a38.53,38.53,0,0,1-2.86,8.92,19.21,19.21,0,0,1-4.26,5.91,14.69,14.69,0,0,1-5.87,3.27,27.76,27.76,0,0,1-7.79,1,22.73,22.73,0,0,1-7.19-1A12.33,12.33,0,0,1,279,85a10.71,10.71,0,0,1-2.71-4.33,16.88,16.88,0,0,1-.85-5.5,26,26,0,0,1,.18-3c.13-1,.31-2.11.56-3.23l6.9-32.38h9.47l-6.76,32.3a23.13,23.13,0,0,0-.58,4.56c0,2.34.61,4,1.83,5a8.41,8.41,0,0,0,5.36,1.47,9,9,0,0,0,6.83-2.57c1.61-1.72,2.84-4.48,3.67-8.3l6.9-32.45h8.95m3.09-2.5H307.79l-.42,2-6.9,32.45c-.73,3.34-1.75,5.73-3,7.1a6.51,6.51,0,0,1-5,1.78,6.24,6.24,0,0,1-3.79-.92c-.75-.59-.9-2-.9-3a21.08,21.08,0,0,1,.53-4L295,37.09l.63-3H281.07l-.42,2-6.9,32.37c-.26,1.19-.46,2.35-.59,3.46a28.94,28.94,0,0,0-.2,3.31,19.64,19.64,0,0,0,1,6.31,13.19,13.19,0,0,0,3.33,5.31A14.84,14.84,0,0,0,283,90.23a25,25,0,0,0,8,1.12,30.05,30.05,0,0,0,8.49-1.09,17.23,17.23,0,0,0,6.86-3.82,21.73,21.73,0,0,0,4.82-6.66,41.21,41.21,0,0,0,3.06-9.51l7-33.17.64-3Z"/><path class="cls-1" d="M318.4,90.15l11.37-53.63.83-.16c2.06-.39,4.33-.71,6.74-.94s4.79-.34,7.18-.34a28.79,28.79,0,0,1,7.32.89,18,18,0,0,1,6.05,2.83,13.36,13.36,0,0,1,4.13,5A16.54,16.54,0,0,1,363.47,51a22.19,22.19,0,0,1-2.14,10.21,18.88,18.88,0,0,1-5.66,6.72,22.18,22.18,0,0,1-8,3.61,38.75,38.75,0,0,1-8.87,1h-1.15c-.54,0-1.1,0-1.69,0l-1.68-.11h0L330.6,90.15Zm18.83-28.83c.4,0,.77,0,1.11,0h.86a19.41,19.41,0,0,0,4.55-.53,10.78,10.78,0,0,0,3.68-1.59,7.74,7.74,0,0,0,2.46-2.79,9.16,9.16,0,0,0,.92-4.31,6.81,6.81,0,0,0-.57-3,4.2,4.2,0,0,0-1.45-1.7,6.42,6.42,0,0,0-2.32-.89,17.29,17.29,0,0,0-3.13-.27c-.85,0-1.66,0-2.44.1-.4,0-.76.07-1.09.12l-3.1,14.79Z"/><path class="cls-1" d="M344.52,36.34a27.68,27.68,0,0,1,7,.85,16.37,16.37,0,0,1,5.62,2.63,11.93,11.93,0,0,1,3.74,4.54A15.08,15.08,0,0,1,362.21,51a20.75,20.75,0,0,1-2,9.63,17.48,17.48,0,0,1-5.29,6.28,20.57,20.57,0,0,1-7.51,3.4,37.41,37.41,0,0,1-8.58,1h-1.15c-.52,0-1.06,0-1.63,0s-1.11-.06-1.63-.11-.9-.1-1.14-.15l-3.71,17.91H320L330.83,37.6c2.08-.39,4.28-.7,6.63-.92s4.7-.34,7.06-.34m-6.18,26.28h.86a20.82,20.82,0,0,0,4.84-.56,12.15,12.15,0,0,0,4.11-1.78A9.14,9.14,0,0,0,351,57a10.2,10.2,0,0,0,1.07-4.9,8,8,0,0,0-.7-3.57,5.49,5.49,0,0,0-1.89-2.19,7.5,7.5,0,0,0-2.77-1.08,18.21,18.21,0,0,0-3.37-.3q-1.33,0-2.55.12c-.82.07-1.5.16-2,.25l-3.55,17q.3.07.81.15c.35.05.73.09,1.15.11s.81,0,1.18,0m6.18-28.8c-2.43,0-4.88.12-7.3.35s-4.73.55-6.86.95l-1.65.32-.34,1.64L317.49,88.37l-.65,3h14.79l.42-2,3.23-15.68.66,0c.6,0,1.18,0,1.74,0h1.15A39.68,39.68,0,0,0,348,72.73a23.15,23.15,0,0,0,8.42-3.81,20.33,20.33,0,0,0,6-7.16A23.45,23.45,0,0,0,364.74,51a17.69,17.69,0,0,0-1.59-7.71,14.49,14.49,0,0,0-4.51-5.47,19,19,0,0,0-6.48-3,29.9,29.9,0,0,0-7.64-.93Zm-3.67,13.82H341c.74-.07,1.52-.1,2.33-.1a15.93,15.93,0,0,1,2.91.25,5.08,5.08,0,0,1,1.84.7,3,3,0,0,1,1,1.22,5.57,5.57,0,0,1,.44,2.44,7.92,7.92,0,0,1-.77,3.71,6.55,6.55,0,0,1-2.06,2.35,9.65,9.65,0,0,1-3.26,1.41,18.67,18.67,0,0,1-4.26.48h-1l2.61-12.45Z"/><path class="cls-2" d="M0,34.08H7.74V98.92c-.13,5.13,5.7,10.86,18.89,10.86H151.1l-125,15.72c-6.91,0-14.88-2.21-19.27-6.62Q0,112.55,0,100.6V34.08Z"/><path class="cls-2" d="M390.79,91.41h-7.74V26.58c.13-5.13-5.7-10.86-18.89-10.86H239.69L364.74,0c6.91,0,14.88,2.21,19.27,6.62q6.78,6.31,6.78,18.28V91.41Z"/><path class="cls-2" d="M225.59,91.9,253.11,63,225.59,34.15S263.05,52.67,263.05,63,225.59,91.9,225.59,91.9Z"/><path class="cls-2" d="M237,117.61c0,6.42-4.13,7.92-7.61,7.92h-3.79V109.87h3.36C233,109.87,237,111.12,237,117.61Zm-9.36-6.14V124h1.92c2.6,0,5.23-1.09,5.23-6.35s-2.75-6.14-5.4-6.14Z"/><path class="cls-2" d="M253.33,117.73c0,5.16-2.75,8.08-6.83,8.08s-6.82-2.83-6.82-8.06,2.79-8.15,6.82-8.15S253.33,112.44,253.33,117.73Zm-11.47,0c0,4.55,1.89,6.42,4.64,6.42s4.65-1.87,4.65-6.44-1.78-6.49-4.65-6.49S241.86,113.15,241.86,117.75Z"/><path class="cls-2" d="M274.3,121.09c0,3.26-2.58,4.44-6.32,4.44H263.5V109.87h3.79c4,0,6.28,1.23,6.28,3.94a3.48,3.48,0,0,1-3,3.44C272.46,117.54,274.3,118.43,274.3,121.09Zm-8.76-9.65v5.12h2.65c1.87,0,3.27-.91,3.27-2.61,0-2-1.47-2.51-4-2.51Zm6.58,9.65c0-2.23-1.7-3-3.72-3h-2.86v5.85H268C270.42,123.94,272.12,123.39,272.12,121.09Z"/><path class="cls-2" d="M286.32,111.47H279.9v5.28h5.57v1.59H279.9v5.6h6.83v1.59h-8.87V109.87h8.7Z"/><path class="cls-2" d="M299.65,111.56h-4.58v14h-2v-14h-4.69v-1.69h11.54Z"/><path class="cls-2" d="M311.78,111.56h-4.57v14h-2v-14h-4.69v-1.69H312Z"/><path class="cls-2" d="M323.16,111.47h-6.42v5.28h5.57v1.59h-5.57v5.6h6.82v1.59H314.7V109.87h8.7Z"/><path class="cls-2" d="M332,118.8h-2.7v6.73h-2V109.87h4.2c4,0,6.11,1.5,6.11,4.4,0,2.23-1.23,3.52-3.55,4.18l4.4,7.08H336Zm-.31-1.53c2.35,0,3.7-.84,3.7-3,0-2-1.18-2.85-4-2.85H329.3v5.85Z"/><path class="cls-2" d="M360.89,125.53h-2.63l-3.12-13.36L352,125.53h-2.55L346,109.87h2l2.73,13.93,3.25-13.93h2.2l3.32,13.93,2.82-13.93h1.89Z"/><path class="cls-2" d="M375.81,111.47h-6.43v5.28H375v1.59h-5.57v5.6h6.83v1.59h-8.86V109.87H376Z"/><path class="cls-2" d="M390.71,121.09c0,3.26-2.58,4.44-6.32,4.44h-4.48V109.87h3.79c4,0,6.28,1.23,6.28,3.94a3.48,3.48,0,0,1-3,3.44C388.87,117.54,390.71,118.43,390.71,121.09ZM382,111.44v5.12h2.65c1.87,0,3.27-.91,3.27-2.61,0-2-1.47-2.51-4-2.51Zm6.58,9.65c0-2.23-1.7-3-3.72-3H382v5.85h2.44C386.83,123.94,388.53,123.39,388.53,121.09Z"/></g></svg>