<svg xml:space="preserve" style="max-height: 500px" viewBox="0 2.97489539748954 73.884 45.75313807531381" y="0px" x="0px" xmlns:xlink="http://www.w3.org/1999/xlink" xmlns="http://www.w3.org/2000/svg" id="Calque_1" version="1.1" width="73.884" height="45.75313807531381">
<style type="text/css">
	.st0{fill:#14233A;}
	.st1{fill:#051F3A;}
	.st2{fill:#FFFFFF;}
	.st3{fill:#E1001A;}
</style>
<metadata>
	
		
		
	
</metadata>
<rect height="26.95" width="4.34" class="st0" y="12.75" x="81.72"/>
<g>
	<g>
		<polygon points="38.74,40.06 4.48,43.1 1.05,3.76 35.33,0.7" class="st1"/>
	</g>
</g>
<path d="M32.89,20.64c-0.39-4.43-2-7.96-4.64-10.17c-2.41-2.02-5.64-2.9-9.31-2.58l-11.47,1l2.44,27.99&#10;&#9;c0.91-0.07,11.47-1,11.47-1c2.09-0.19,3.92-0.72,5.5-1.58c1.51-0.81,2.76-1.93,3.71-3.3C32.47,28.36,33.26,24.77,32.89,20.64z&#10;&#9; M25.28,28.3c-1.11,1.46-2.79,2.37-4.69,2.55l-5.06,0.42l-1.55-17.85l3.92-0.35c2.74-0.26,4.78,0.21,6.22,1.42&#10;&#9;c1.55,1.3,2.44,3.46,2.74,6.8C27.11,24.16,26.56,26.6,25.28,28.3z" class="st2"/>
<g>
	<rect height="39.48" width="34.4" class="st2" y="5.46" x="37.51"/>
</g>
<path d="M43.41,11.12h6.22v10.7h10.17v-10.7h6.22V39.3h-6.22V27.18H49.63V39.3h-6.22V11.12z" class="st3"/>
<g>
	<path d="M99.71,27.16c-0.81-0.67-1.83-1.11-2.9-1.11c-0.81,0-1.88,0.46-1.88,1.42c0,0.97,1.18,1.37,1.95,1.6l1.11,0.32&#10;&#9;&#9;c2.34,0.7,4.15,1.88,4.15,4.6c0,1.67-0.39,3.39-1.74,4.53c-1.32,1.11-3.09,1.58-4.78,1.58c-2.11,0-4.2-0.72-5.92-1.93l1.88-3.53&#10;&#9;&#9;c1.09,0.95,2.39,1.74,3.9,1.74c1.02,0,2.11-0.51,2.11-1.69c0-1.23-1.72-1.65-2.67-1.93c-2.74-0.79-4.55-1.51-4.55-4.76&#10;&#9;&#9;c0-3.41,2.44-5.66,5.8-5.66c1.69,0,3.78,0.53,5.27,1.39L99.71,27.16z" class="st2"/>
	<path d="M104.24,22.82h6.71c3.62,0,6.13,1.67,6.13,5.55c0,3.97-2.14,5.71-5.96,5.71h-2.48v5.59h-4.39L104.24,22.82&#10;&#9;&#9;L104.24,22.82z M108.62,30.55h0.74c1.58,0,3.16,0,3.16-2.07c0-2.11-1.46-2.14-3.16-2.14h-0.74V30.55z" class="st2"/>
	<path d="M136.8,30.94c0,5.45-3.9,9.31-9.31,9.31s-9.31-3.85-9.31-9.31c0-5.11,4.48-8.68,9.31-8.68&#10;&#9;&#9;C132.32,22.26,136.8,25.83,136.8,30.94z M122.71,30.96c0,2.9,2.14,5.04,4.76,5.04s4.76-2.11,4.76-5.04c0-2.32-2.14-4.46-4.76-4.46&#10;&#9;&#9;S122.71,28.64,122.71,30.96z" class="st2"/>
	<path d="M152.83,39.67h-5.45l-4.13-6.48h-0.05v6.48h-4.39V22.82h6.54c3.32,0,5.85,1.58,5.85,5.18&#10;&#9;&#9;c0,2.32-1.3,4.34-3.69,4.76L152.83,39.67z M143.2,30.38h0.42c1.44,0,3.04-0.28,3.04-2.09c0-1.83-1.6-2.11-3.04-2.11h-0.42V30.38z" class="st2"/>
	<path d="M160.73,39.67h-4.39V26.53h-3.62v-3.71h11.63v3.71h-3.62V39.67z" class="st2"/>
	<path d="M175.18,27.16c-0.81-0.67-1.83-1.11-2.9-1.11c-0.81,0-1.88,0.46-1.88,1.42c0,0.97,1.18,1.37,1.95,1.6&#10;&#9;&#9;l1.11,0.32c2.34,0.7,4.15,1.88,4.15,4.6c0,1.67-0.39,3.39-1.74,4.53c-1.32,1.11-3.09,1.58-4.78,1.58c-2.11,0-4.2-0.72-5.92-1.93&#10;&#9;&#9;l1.88-3.53c1.09,0.95,2.39,1.74,3.9,1.74c1.02,0,2.11-0.51,2.11-1.69c0-1.23-1.72-1.65-2.67-1.93c-2.74-0.79-4.55-1.51-4.55-4.76&#10;&#9;&#9;c0-3.41,2.44-5.66,5.8-5.66c1.69,0,3.78,0.53,5.27,1.39L175.18,27.16z" class="st2"/>
</g>
<polygon points="182.52,17.62 182.52,14.21 179.01,14.21 179.01,17.62 175.51,17.62 175.51,21.12 179.01,21.12 &#10;&#9;179.01,24.51 182.52,24.51 182.52,21.12 186,21.12 186,17.62" class="st0"/>
<g>
	<path d="M93.37,18.69h2.34v1.65h-4.29v-7.5h1.95V18.69z" class="st2"/>
	<path d="M98.29,14.49v1.25h2.2v1.65h-2.2v1.3h2.32v1.65h-4.27v-7.5h4.27v1.65L98.29,14.49L98.29,14.49z" class="st2"/>
	<path d="M105.95,14.76c-0.35-0.3-0.81-0.49-1.3-0.49c-0.35,0-0.84,0.21-0.84,0.63c0,0.44,0.53,0.6,0.86,0.72l0.49,0.14&#10;&#9;&#9;c1.04,0.3,1.86,0.84,1.86,2.04c0,0.74-0.19,1.51-0.77,2.02c-0.58,0.49-1.37,0.7-2.14,0.7c-0.95,0-1.88-0.32-2.65-0.86l0.84-1.58&#10;&#9;&#9;c0.49,0.42,1.07,0.77,1.74,0.77c0.46,0,0.95-0.23,0.95-0.77c0-0.56-0.77-0.74-1.18-0.86c-1.23-0.35-2.02-0.67-2.02-2.11&#10;&#9;&#9;c0-1.53,1.09-2.53,2.6-2.53c0.77,0,1.67,0.23,2.34,0.63L105.95,14.76z" class="st2"/>
</g>
</svg>