<svg xmlns="http://www.w3.org/2000/svg" viewBox="0 0 380.3 61.7"><defs><style>.cls-1{fill:#004b93;}.cls-2{fill:#fff;}.cls-3{fill:#00888a;}</style></defs><g id="Calque_2" data-name="Calque 2"><g id="Calque_1-2" data-name="Calque 1"><polygon class="cls-1" points="80.64 6.12 80.64 14.98 88.2 14.98 88.2 54.72 97.85 54.72 97.85 14.98 105.48 14.98 105.48 6.12 80.64 6.12 80.64 6.12"/><polygon class="cls-1" points="109.3 6.12 109.3 54.72 128.74 54.72 128.74 45.79 118.87 45.79 118.87 34.85 127.44 34.85 127.44 25.7 118.87 25.7 118.87 15.12 128.66 15.12 128.66 6.12 109.3 6.12 109.3 6.12"/><polygon class="cls-1" points="135.22 6.12 135.22 54.72 154.94 54.72 154.94 45.58 144.79 45.58 144.79 6.12 135.22 6.12 135.22 6.12"/><polygon class="cls-1" points="159.26 6.12 159.26 54.72 178.78 54.72 178.78 45.79 168.84 45.79 168.84 34.85 177.41 34.85 177.41 25.7 168.84 25.7 168.84 15.12 178.63 15.12 178.63 6.12 159.26 6.12 159.26 6.12"/><path class="cls-1" d="M205.2,7.85a15.76,15.76,0,0,0-8.57-2.45A11.74,11.74,0,0,0,187,10,16.15,16.15,0,0,0,184,19.8c0,6.05,2.09,10.8,9.36,14.4,4.9,2.38,5.11,5.11,5.11,6.91,0,3.24-2.08,5.4-5.54,5.4-2.45,0-4.32-.72-7.13-2.66h0v9.21h0a14.54,14.54,0,0,0,8.43,2.52,12.87,12.87,0,0,0,10-4.39A15.19,15.19,0,0,0,208,40.68a14.34,14.34,0,0,0-2.23-8.06c-1.23-1.73-11.81-7.92-12.39-13.9-.21-2.81,2-4.68,4.83-4.68,2.3,0,4.1.79,7,3.17h0V7.85Z"/><polygon class="cls-1" points="221.4 6.12 210.1 54.72 219.67 54.72 221.4 46.58 231.12 46.58 232.85 54.72 243 54.72 231.41 6.12 221.4 6.12 221.4 6.12"/><path class="cls-2" d="M229.68,39h-6.84s2.81-15.55,3.17-20.37c.5,5.11,3.67,20.37,3.67,20.37Z"/><path class="cls-1" d="M249.7,6.12l-4.4,48.6h10.37l1.51-34.92,6.41,34.92h7.35s5.4-30.6,5.83-34.92h0l2.37,34.92H289l-5.19-48.6H270.94l-4,28.73L262.3,6.12Z"/><path class="cls-1" d="M294.34,6.12v48.6h10.22c4.75,0,8.86-1.51,11.52-4a13.48,13.48,0,0,0,3.67-9.51c0-3,0-8.13-6.05-11.37,3.82-2.88,5.19-5.55,5.19-10a14.22,14.22,0,0,0-3.24-9.07c-2.09-2.67-5.55-4.61-10.95-4.61H294.34Z"/><path class="cls-2" d="M304.06,26.14V14h0c3.74.07,5.61,2,5.61,6,0,3.74-1.8,5.83-5.61,6.12Z"/><path class="cls-2" d="M304.06,46.44V33.55h0c4,.07,6.12,2.45,6.12,6.48s-2.24,6.41-6.12,6.41Z"/><path class="cls-1" d="M326.09,6.12v48.6h9.65V32.33l8.64,22.39h10.08L346,32.62h0c4.82-3,7-6.77,7-12.32,0-3.09-1-8.06-5.11-11.16-2.52-1.8-6.12-3-11.23-3H326.09Z"/><path class="cls-2" d="M335.74,27V13.75h0c7.92-.72,7.84,3.6,7.84,6.55,0,4.4-2.08,6.63-7.84,6.7Z"/><polygon class="cls-1" points="360.72 6.12 360.72 54.72 380.3 54.72 380.3 45.79 370.37 45.79 370.37 34.85 378.86 34.85 378.86 25.7 370.37 25.7 370.37 15.12 380.02 15.12 380.02 6.12 360.72 6.12 360.72 6.12"/><path class="cls-3" d="M74.74,54.65H40c6.12-1.51,16-4.75,20.81-7.85h6.91V13.1H31.1s6.27-6.4,43.64-7.27h0V54.65Z"/><path class="cls-3" d="M7.27,46.8V13.1H10S14,8.57,27.43,5H0V54.5H0a166,166,0,0,0,38.52-7.7H7.27Z"/><path class="cls-1" d="M0,61.7c12.46-2.44,34.78-5.9,50-11.44a56.81,56.81,0,0,0,9.72-4.54C63,43.56,65,41.11,64.94,38.45c-.14-3-2.37-5.26-5.68-7.13-7.56-4.18-20.88-6.41-29.16-9.07C25.78,21,23,19.44,23,17.86c0-2.45,1.8-4.54,5.83-6.48C36.29,7.78,50.54,5.18,75,3.46h0L75.1,0h0C54.36,1.22,38,3.6,26.28,7.06a51.09,51.09,0,0,0-10.87,4.32C11.59,13.46,9.5,15.84,9.5,18.5c0,2.38,2.45,4.25,6.12,5.91,8,3.53,21.68,6.05,29.16,9.36,3.46,1.58,5.55,3.24,5.4,5.18-.28,2.74-2.23,5-5.9,7.13C36.65,50.33,22.46,53.42,0,57.6H0v4.1Z"/></g></g></svg>