<?xml version="1.0" encoding="UTF-8" standalone="no"?><!DOCTYPE svg PUBLIC "-//W3C//DTD SVG 1.1//EN" "http://www.w3.org/Graphics/SVG/1.1/DTD/svg11.dtd"><svg width="500px" height="147px" version="1.1" xmlns="http://www.w3.org/2000/svg" xmlns:xlink="http://www.w3.org/1999/xlink" xml:space="preserve" xmlns:serif="http://www.serif.com/" style="fill-rule:evenodd;clip-rule:evenodd;stroke-linejoin:round;stroke-miterlimit:2;"><g transform="matrix(4.30391,0,0,4.30391,0.0273238,-0.0110288)"><path d="M107.761,16.517C103.106,16.517 99.356,20.437 99.356,25.245C99.356,30.08 103.131,33.974 107.761,33.974C112.417,33.974 116.167,30.054 116.167,25.245C116.167,20.437 112.417,16.517 107.761,16.517ZM107.761,29.949C105.27,29.949 103.232,27.859 103.232,25.245C103.232,22.658 105.245,20.541 107.761,20.541C110.253,20.541 112.291,22.632 112.291,25.245C112.291,27.859 110.253,29.949 107.761,29.949Z" style="fill:rgb(254,202,13);fill-rule:nonzero;"/><path d="M59.669,10.297L54.661,10.297C54.46,10.297 54.283,10.245 54.158,10.114C54.032,9.983 53.956,9.826 53.956,9.643L53.956,6.324L59.619,6.324C59.82,6.324 60.021,6.298 60.223,6.115C60.399,5.959 60.474,5.723 60.474,5.488C60.474,5.253 60.399,5.018 60.223,4.861C60.047,4.678 59.845,4.6 59.619,4.6L53.981,4.6L53.981,3.371C53.981,3.136 53.906,2.927 53.73,2.744C53.554,2.561 53.352,2.483 53.126,2.483C52.899,2.483 52.673,2.561 52.522,2.744C52.346,2.927 52.27,3.136 52.27,3.397L52.27,10.401C52.27,11.525 52.799,12.074 53.856,12.074L59.669,12.074C59.896,12.074 60.097,11.996 60.273,11.813C60.449,11.63 60.525,11.421 60.525,11.185C60.525,10.95 60.449,10.741 60.273,10.558C60.122,10.375 59.921,10.297 59.669,10.297Z" style="fill-rule:nonzero;"/><path d="M69.081,4.573L65.029,4.573C64.828,4.573 64.602,4.6 64.425,4.782C64.249,4.965 64.174,5.174 64.174,5.41C64.174,5.645 64.249,5.88 64.425,6.037C64.602,6.22 64.803,6.298 65.029,6.298L68.276,6.298C68.477,6.298 68.628,6.35 68.754,6.481C68.88,6.612 68.93,6.769 68.93,6.978L68.93,9.643C68.93,9.852 68.88,10.009 68.754,10.114C68.628,10.244 68.452,10.297 68.251,10.297L64.174,10.297C63.972,10.297 63.796,10.244 63.67,10.114C63.545,9.983 63.494,9.852 63.494,9.643L63.494,3.345C63.494,3.11 63.419,2.901 63.243,2.718C63.092,2.535 62.89,2.457 62.639,2.457C62.412,2.457 62.186,2.561 62.035,2.718C61.858,2.901 61.783,3.11 61.783,3.345L61.783,10.349C61.783,11.473 62.337,12.048 63.419,12.048L69.081,12.048C70.163,12.048 70.717,11.473 70.717,10.375L70.717,6.194C70.692,5.122 70.163,4.573 69.081,4.573Z" style="fill-rule:nonzero;"/><path d="M50.307,4.547L45.45,4.547C45.324,4.547 45.249,4.495 45.173,4.391C45.022,4.155 44.67,4.077 44.418,4.077C44.167,4.077 43.915,4.181 43.739,4.391C43.588,4.573 43.537,4.783 43.537,5.018L43.537,11.159C43.537,11.394 43.613,11.603 43.789,11.786C43.965,11.969 44.167,12.048 44.393,12.048C44.62,12.048 44.821,11.969 44.997,11.786C45.173,11.603 45.249,11.394 45.249,11.159L45.249,6.978C45.249,6.769 45.324,6.586 45.45,6.481C45.576,6.377 45.727,6.298 45.953,6.298L50.332,6.298C50.584,6.298 50.76,6.22 50.936,6.063C51.112,5.88 51.188,5.671 51.188,5.436C51.188,5.201 51.087,4.965 50.936,4.809C50.76,4.626 50.559,4.547 50.307,4.547Z" style="fill-rule:nonzero;"/><path d="M79.877,4.521L73.536,4.521C72.479,4.547 71.95,5.096 71.95,6.168C71.95,6.194 71.925,8.493 71.925,8.833L71.925,11.211C71.925,11.447 72,11.656 72.177,11.839C72.353,12.022 72.554,12.1 72.781,12.1C73.007,12.1 73.234,12.022 73.385,11.839C73.561,11.656 73.636,11.447 73.636,11.211L73.636,6.716C73.636,6.429 73.762,6.272 74.039,6.272L79.903,6.272C80.104,6.272 80.33,6.246 80.507,6.063C80.683,5.88 80.758,5.671 80.758,5.436C80.758,5.201 80.683,4.965 80.507,4.809C80.305,4.6 80.104,4.521 79.877,4.521Z" style="fill-rule:nonzero;"/><path d="M78.367,8.023C78.191,7.84 77.94,7.762 77.688,7.762L76.027,7.762C75.75,7.762 75.524,7.866 75.347,8.023C75.146,8.206 75.045,8.441 75.045,8.703C75.045,8.964 75.146,9.199 75.347,9.382C75.524,9.565 75.775,9.643 76.027,9.643L77.688,9.643C77.965,9.643 78.191,9.565 78.367,9.382C78.569,9.199 78.669,8.964 78.669,8.703C78.644,8.441 78.544,8.206 78.367,8.023Z" style="fill-rule:nonzero;"/><path d="M59.241,16.517L59.241,26.735C59.241,29.009 59.996,30.812 61.481,32.066C62.991,33.347 64.803,34 66.892,34C68.98,34 70.818,33.347 72.302,32.066C73.787,30.812 74.542,29.009 74.542,26.735L74.542,16.517L70.365,16.517L70.365,26.735C70.365,27.728 70.012,28.538 69.333,29.087C68.653,29.636 67.823,29.897 66.892,29.897C65.935,29.897 65.13,29.636 64.451,29.087C63.746,28.538 63.419,27.754 63.419,26.735L63.419,16.517L59.241,16.517Z" style="fill:rgb(254,202,13);fill-rule:nonzero;"/><path d="M79.827,29.793L76.43,16.517L80.733,16.517L83.375,26.761L85.993,16.517L90.246,16.517L86.823,29.793C86.446,31.282 86.043,32.354 85.64,33.007C85.238,33.66 84.432,34 83.25,34C82.193,34 81.463,33.634 81.01,32.876C80.532,32.145 80.154,31.125 79.827,29.793Z" style="fill:rgb(254,202,13);fill-rule:nonzero;"/><path d="M52.623,16.517L52.623,17.876C51.414,17.092 50.005,16.595 48.495,16.517C48.369,16.517 48.244,16.491 48.118,16.491C43.462,16.491 39.712,20.411 39.712,25.219C39.712,30.054 43.487,33.948 48.118,33.948C49.779,33.948 51.314,33.451 52.623,32.589L52.623,33.922L56.548,33.922L56.548,16.517L52.623,16.517ZM52.623,25.271C52.623,27.859 50.609,29.976 48.093,29.976C45.601,29.976 43.563,27.885 43.563,25.271C43.563,22.684 45.576,20.567 48.093,20.567C50.609,20.567 52.623,22.658 52.623,25.271Z" style="fill:rgb(254,202,13);fill-rule:nonzero;"/><path d="M27.154,5.044C27.205,5.148 27.356,5.384 27.406,5.488C23.379,5.357 18.673,6.769 14.32,9.748C9.588,12.936 6.417,17.379 5.084,21.587C4.731,21.195 4.555,20.985 4.329,20.593C3.196,18.581 3.07,15.916 4.001,13.354C5.386,10.846 7.902,7.892 11.828,5.41C14.018,4.025 16.282,2.77 18.522,2.169C22.222,1.673 25.544,2.457 27.154,5.044Z" style="fill-rule:nonzero;"/><path d="M36.616,5.096C33.42,0 26.575,-1.359 18.924,1.412C22.85,0.837 26.323,1.934 28.034,4.652C30.853,9.173 27.254,16.674 20.635,21.195C14.017,25.716 6.366,25.716 3.522,21.195C2.214,19.104 2.163,16.386 3.17,13.642C-0.253,19.052 -1.083,24.88 1.534,29.035C5.687,35.647 16.886,35.647 26.575,29.035C36.263,22.423 40.743,11.708 36.616,5.096Z" style="fill:rgb(254,202,13);fill-rule:nonzero;"/><rect x="92.284" y="16.517" width="4.58" height="17.484" style="fill:rgb(254,202,13);fill-rule:nonzero;"/></g></svg>