<?xml version="1.0" encoding="UTF-8"?>
<svg id="Layer_1" xmlns="http://www.w3.org/2000/svg" version="1.1" viewBox="0 0 380.3 61.7">
  <!-- Generator: Adobe Illustrator 29.3.1, SVG Export Plug-In . SVG Version: 2.1.0 Build 151)  -->
  <defs>
    <style>
      .st0 {
        fill: #00888a;
      }

      .st1 {
        fill: #004b93;
      }
    </style>
  </defs>
  <g id="Calque_2">
    <g id="Calque_1-2">
      <polygon class="st1" points="80.6 6.1 80.6 15 88.2 15 88.2 54.7 97.8 54.7 97.8 15 105.5 15 105.5 6.1 80.6 6.1 80.6 6.1"/>
      <polygon class="st1" points="109.3 6.1 109.3 54.7 128.7 54.7 128.7 45.8 118.9 45.8 118.9 34.8 127.4 34.8 127.4 25.7 118.9 25.7 118.9 15.1 128.7 15.1 128.7 6.1 109.3 6.1 109.3 6.1"/>
      <polygon class="st1" points="135.2 6.1 135.2 54.7 154.9 54.7 154.9 45.6 144.8 45.6 144.8 6.1 135.2 6.1 135.2 6.1"/>
      <polygon class="st1" points="159.3 6.1 159.3 54.7 178.8 54.7 178.8 45.8 168.8 45.8 168.8 34.8 177.4 34.8 177.4 25.7 168.8 25.7 168.8 15.1 178.6 15.1 178.6 6.1 159.3 6.1 159.3 6.1"/>
      <path class="st1" d="M205.2,7.8c-2.6-1.6-5.5-2.5-8.6-2.5-3.8,0-7.3,1.6-9.6,4.6-2,2.9-3.1,6.3-3,9.8,0,6,2.1,10.8,9.4,14.4,4.9,2.4,5.1,5.1,5.1,6.9,0,3.2-2.1,5.4-5.5,5.4s-4.3-.7-7.1-2.7h0v9.2h0c2.5,1.7,5.4,2.6,8.4,2.5,3.8,0,7.5-1.5,10-4.4,2.5-2.9,3.9-6.7,3.8-10.5,0-2.8-.7-5.7-2.2-8.1-1.2-1.7-11.8-7.9-12.4-13.9-.2-2.8,2-4.7,4.8-4.7s4.1.8,7,3.2h0V7.8h0Z"/>
      <path class="st1" d="M231.4,6.1h-10l-11.3,48.6h9.6l1.7-8.1h9.7l1.7,8.1h10.1l-11.6-48.6ZM222.8,39s2.8-15.6,3.2-20.4c.5,5.1,3.7,20.4,3.7,20.4h-6.8Z"/>
      <path class="st1" d="M249.7,6.1l-4.4,48.6h10.4l1.5-34.9,6.4,34.9h7.4s5.4-30.6,5.8-34.9h0l2.4,34.9h9.9l-5.2-48.6h-12.9l-4,28.7-4.6-28.7h-12.6Z"/>
      <path class="st1" d="M313.7,29.8c3.8-2.9,5.2-5.5,5.2-10,0-3.3-1.1-6.5-3.2-9.1-2.1-2.7-5.5-4.6-11-4.6h-10.4v48.6h10.2c4.8,0,8.9-1.5,11.5-4,2.4-2.6,3.7-6,3.7-9.5,0-3,0-8.1-6-11.4ZM304.1,14c3.7,0,5.6,2,5.6,6s-1.8,5.8-5.6,6.1v-12.1ZM304.1,46.4v-12.9c4,0,6.1,2.5,6.1,6.5s-2.2,6.4-6.1,6.4Z"/>
      <path class="st1" d="M346,32.6c4.8-3,7-6.8,7-12.3s-1-8.1-5.1-11.2c-2.5-1.8-6.1-3-11.2-3h-10.6v48.6h9.6v-22.4l8.6,22.4h10.1l-8.5-22.1ZM335.7,27v-13.2c7.9-.7,7.8,3.6,7.8,6.5,0,4.4-2.1,6.6-7.8,6.7Z"/>
      <polygon class="st1" points="360.7 6.1 360.7 54.7 380.3 54.7 380.3 45.8 370.4 45.8 370.4 34.8 378.9 34.8 378.9 25.7 370.4 25.7 370.4 15.1 380 15.1 380 6.1 360.7 6.1 360.7 6.1"/>
      <path class="st0" d="M74.7,54.7h-34.7c6.1-1.5,16-4.8,20.8-7.8h6.9V13.1H31.1s6.3-6.4,43.6-7.3h0v48.8Z"/>
      <path class="st0" d="M7.3,46.8V13.1h2.7s4-4.5,17.4-8.1H0v49.5h0c13.1-1,26-3.6,38.5-7.7H7.3Z"/>
      <path class="st1" d="M0,61.7c12.5-2.4,34.8-5.9,50-11.4,3.4-1.2,6.6-2.7,9.7-4.5,3.3-2.2,5.3-4.6,5.2-7.3-.1-3-2.4-5.3-5.7-7.1-7.6-4.2-20.9-6.4-29.2-9.1-4.3-1.2-7.1-2.8-7.1-4.4,0-2.4,1.8-4.5,5.8-6.5,7.5-3.6,21.7-6.2,46.2-7.9h0V0h0c-20.7,1.2-37.1,3.6-48.8,7.1-3.8,1-7.4,2.5-10.9,4.3-3.8,2.1-5.9,4.5-5.9,7.1s2.4,4.2,6.1,5.9c8,3.5,21.7,6,29.2,9.4,3.5,1.6,5.5,3.2,5.4,5.2-.3,2.7-2.2,5-5.9,7.1-7.6,4.2-21.8,7.3-44.3,11.5h0v4.1Z"/>
    </g>
  </g>
</svg>