<?xml version="1.0" encoding="UTF-8"?>
<svg id="Layer_1" data-name="Layer 1" xmlns="http://www.w3.org/2000/svg" viewBox="0 0 11.69 10">
  <defs>
    <style>
      .cls-1 {
        fill: #00ffab;
      }
    </style>
  </defs>
  <path class="cls-1" d="M9.25,6.54c-.46,0-.83-.37-.83-.83s.37-.83.83-.83.83.37.83.83-.37.83-.83.83M5.41,3.61h-2.62c-.12,0-.24,0-.36.02.15-.54.33-1.2.48-1.69.23-.81.63-.81.81-.81h4.22c.19,0,.58,0,.81.81.14.5.32,1.15.48,1.69-.12-.01-.24-.02-.36-.02h-3.46ZM2.54,6.54c-.46,0-.83-.37-.83-.83s.37-.83.83-.83.83.37.83.83-.37.83-.83.83M10.53,4.09c-.14-.52-.47-1.68-.69-2.46-.38-1.35-1.25-1.63-1.91-1.63H3.71c-.66,0-1.52.29-1.9,1.63-.23.78-.53,1.94-.67,2.46-.83.53-1.14,1.45-1.14,2.52v1.29h1.06v1.24c0,.48.38.86.87.86s.87-.38.87-.86v-1.24h6.11v1.24c0,.48.38.86.87.86s.87-.38.87-.86v-1.24h1.06v-1.29c0-1.07-.33-1.98-1.16-2.52"/>
</svg>