<?xml version="1.0" encoding="UTF-8"?>
<svg id="Layer_1" xmlns="http://www.w3.org/2000/svg" version="1.1" viewBox="0 0 25 22.5">
  <!-- Generator: Adobe Illustrator 29.6.1, SVG Export Plug-In . SVG Version: 2.1.1 Build 9)  -->
  <defs>
    <style>
      .st0 {
        fill: #d7fc19;
      }
    </style>
  </defs>
  <path class="st0" d="M22.5,0H2.5C1.1,0,0,1.1,0,2.5v15c0,1.4,1.1,2.5,2.5,2.5h5v2.5h10v-2.5h5c1.4,0,2.5-1.1,2.5-2.5V2.5c0-1.4-1.1-2.5-2.5-2.5ZM22.5,17.5H2.5V2.5h20v15Z"/>
  <rect class="st0" x="5" y="6.6" width="10" height="1.9"/>
  <polygon class="st0" points="18.1 8.4 20 8.4 20 6.6 18.1 6.6 18.1 5 16.2 5 16.2 10 18.1 10 18.1 8.4"/>
  <rect class="st0" x="10" y="11.6" width="10" height="1.9"/>
  <polygon class="st0" points="6.9 15 8.8 15 8.8 10 6.9 10 6.9 11.6 5 11.6 5 13.4 6.9 13.4 6.9 15"/>
</svg>