<svg width="655" height="709" viewBox="0 0 655 709" fill="none" xmlns="http://www.w3.org/2000/svg">
<path d="M467.688 79.0504C474.224 58.0057 457.207 36.0583 426.919 39.2176C404.537 41.5744 381.236 55.3312 386.167 79.0504C390.647 100.597 405.339 119.97 426.919 118.867C451.608 117.613 460.517 102.101 467.671 79.0504" fill="#E1FB41"/>
<path d="M428.731 79.5176C429.97 78.4309 430.963 77.0868 431.644 75.5765C432.325 74.0663 432.677 72.4252 432.677 70.7647C432.677 67.6445 431.454 64.6521 429.278 62.4458C427.101 60.2395 424.149 59 421.071 59C417.992 59 415.04 60.2395 412.864 62.4458C410.687 64.6521 409.464 67.6445 409.464 70.7647C409.464 72.4252 409.816 74.0663 410.497 75.5765C411.178 77.0868 412.172 78.4309 413.41 79.5176C410.161 81.0091 407.404 83.4177 405.469 86.4554C403.534 89.4931 402.503 93.0313 402.5 96.6471C402.5 97.2711 402.745 97.8696 403.18 98.3108C403.615 98.7521 404.206 99 404.821 99C405.437 99 406.027 98.7521 406.463 98.3108C406.898 97.8696 407.143 97.2711 407.143 96.6471C407.143 92.9028 408.61 89.3119 411.222 86.6644C413.834 84.0168 417.377 82.5294 421.071 82.5294C424.765 82.5294 428.307 84.0168 430.919 86.6644C433.531 89.3119 434.999 92.9028 434.999 96.6471C434.999 97.2711 435.243 97.8696 435.679 98.3108C436.114 98.7521 436.704 99 437.32 99C437.936 99 438.526 98.7521 438.961 98.3108C439.397 97.8696 439.641 97.2711 439.641 96.6471C439.638 93.0313 438.607 89.4931 436.672 86.4554C434.738 83.4177 431.981 81.0091 428.731 79.5176V79.5176ZM421.071 77.8235C419.693 77.8235 418.347 77.4095 417.202 76.6339C416.056 75.8583 415.164 74.7558 414.637 73.466C414.11 72.1762 413.972 70.7569 414.24 69.3876C414.509 68.0183 415.172 66.7606 416.146 65.7734C417.12 64.7862 418.361 64.1139 419.712 63.8415C421.063 63.5692 422.463 63.7089 423.736 64.2432C425.008 64.7775 426.096 65.6822 426.861 66.843C427.626 68.0039 428.035 69.3686 428.035 70.7647C428.035 72.6368 427.301 74.4323 425.995 75.756C424.689 77.0798 422.918 77.8235 421.071 77.8235ZM443.68 78.5765C445.166 76.8808 446.136 74.786 446.475 72.5443C446.813 70.3026 446.505 68.0096 445.588 65.9412C444.671 63.8728 443.183 62.1172 441.305 60.8857C439.426 59.6542 437.236 58.9994 434.999 59C434.383 59 433.793 59.2479 433.357 59.6892C432.922 60.1304 432.677 60.7289 432.677 61.3529C432.677 61.977 432.922 62.5755 433.357 63.0167C433.793 63.458 434.383 63.7059 434.999 63.7059C436.846 63.7059 438.617 64.4496 439.923 65.7734C441.229 67.0972 441.963 68.8926 441.963 70.7647C441.959 72.0006 441.636 73.2139 441.025 74.2833C440.414 75.3528 439.537 76.2409 438.481 76.8588C438.137 77.06 437.849 77.3474 437.646 77.6935C437.443 78.0396 437.33 78.4327 437.32 78.8353C437.31 79.2347 437.401 79.6301 437.584 79.9841C437.767 80.3382 438.035 80.6392 438.365 80.8588L439.27 81.4706L439.572 81.6353C442.37 82.9805 444.73 85.1082 446.375 87.7678C448.021 90.4274 448.882 93.5081 448.857 96.6471C448.857 97.2711 449.102 97.8696 449.537 98.3108C449.972 98.7521 450.563 99 451.178 99C451.794 99 452.384 98.7521 452.82 98.3108C453.255 97.8696 453.5 97.2711 453.5 96.6471C453.519 93.0363 452.626 89.4806 450.908 86.3178C449.189 83.155 446.701 80.4901 443.68 78.5765V78.5765Z" fill="black"/>
<path d="M392.913 145.168C391.329 145.168 389.873 144.8 388.545 144.064C387.233 143.328 386.185 142.304 385.401 140.992C384.633 139.664 384.249 138.176 384.249 136.528C384.249 134.88 384.633 133.4 385.401 132.088C386.185 130.776 387.233 129.752 388.545 129.016C389.873 128.28 391.329 127.912 392.913 127.912C394.497 127.912 395.945 128.28 397.257 129.016C398.585 129.752 399.625 130.776 400.377 132.088C401.145 133.4 401.529 134.88 401.529 136.528C401.529 138.176 401.145 139.664 400.377 140.992C399.609 142.304 398.569 143.328 397.257 144.064C395.945 144.8 394.497 145.168 392.913 145.168ZM392.913 141.424C394.257 141.424 395.329 140.976 396.129 140.08C396.945 139.184 397.353 138 397.353 136.528C397.353 135.04 396.945 133.856 396.129 132.976C395.329 132.08 394.257 131.632 392.913 131.632C391.553 131.632 390.465 132.072 389.649 132.952C388.849 133.832 388.449 135.024 388.449 136.528C388.449 138.016 388.849 139.208 389.649 140.104C390.465 140.984 391.553 141.424 392.913 141.424ZM411.972 131.464C413.54 131.464 414.788 131.976 415.716 133C416.66 134.008 417.132 135.4 417.132 137.176V145H413.052V137.728C413.052 136.832 412.82 136.136 412.356 135.64C411.892 135.144 411.268 134.896 410.484 134.896C409.7 134.896 409.076 135.144 408.612 135.64C408.148 136.136 407.916 136.832 407.916 137.728V145H403.812V131.608H407.916V133.384C408.332 132.792 408.892 132.328 409.596 131.992C410.3 131.64 411.092 131.464 411.972 131.464ZM431.79 135.016H429.582V145H425.478V135.016H423.99V131.608H425.478V131.224C425.478 129.576 425.95 128.328 426.894 127.48C427.838 126.616 429.222 126.184 431.046 126.184C431.35 126.184 431.574 126.192 431.718 126.208V129.688C430.934 129.64 430.382 129.752 430.062 130.024C429.742 130.296 429.582 130.784 429.582 131.488V131.608H431.79V135.016ZM439.814 145.192C438.502 145.192 437.318 144.912 436.262 144.352C435.222 143.792 434.398 142.992 433.79 141.952C433.198 140.912 432.902 139.696 432.902 138.304C432.902 136.928 433.206 135.72 433.814 134.68C434.422 133.624 435.254 132.816 436.31 132.256C437.366 131.696 438.55 131.416 439.862 131.416C441.174 131.416 442.358 131.696 443.414 132.256C444.47 132.816 445.302 133.624 445.91 134.68C446.518 135.72 446.822 136.928 446.822 138.304C446.822 139.68 446.51 140.896 445.886 141.952C445.278 142.992 444.438 143.792 443.366 144.352C442.31 144.912 441.126 145.192 439.814 145.192ZM439.814 141.64C440.598 141.64 441.262 141.352 441.806 140.776C442.366 140.2 442.646 139.376 442.646 138.304C442.646 137.232 442.374 136.408 441.83 135.832C441.302 135.256 440.646 134.968 439.862 134.968C439.062 134.968 438.398 135.256 437.87 135.832C437.342 136.392 437.078 137.216 437.078 138.304C437.078 139.376 437.334 140.2 437.846 140.776C438.374 141.352 439.03 141.64 439.814 141.64ZM455.096 145.192C453.784 145.192 452.6 144.912 451.544 144.352C450.504 143.792 449.68 142.992 449.072 141.952C448.48 140.912 448.184 139.696 448.184 138.304C448.184 136.928 448.488 135.72 449.096 134.68C449.704 133.624 450.536 132.816 451.592 132.256C452.648 131.696 453.832 131.416 455.144 131.416C456.456 131.416 457.64 131.696 458.696 132.256C459.752 132.816 460.584 133.624 461.192 134.68C461.8 135.72 462.104 136.928 462.104 138.304C462.104 139.68 461.792 140.896 461.168 141.952C460.56 142.992 459.72 143.792 458.648 144.352C457.592 144.912 456.408 145.192 455.096 145.192ZM455.096 141.64C455.88 141.64 456.544 141.352 457.088 140.776C457.648 140.2 457.928 139.376 457.928 138.304C457.928 137.232 457.656 136.408 457.112 135.832C456.584 135.256 455.928 134.968 455.144 134.968C454.344 134.968 453.68 135.256 453.152 135.832C452.624 136.392 452.36 137.216 452.36 138.304C452.36 139.376 452.616 140.2 453.128 140.776C453.656 141.352 454.312 141.64 455.096 141.64ZM471.745 141.52V145H469.657C468.169 145 467.009 144.64 466.177 143.92C465.345 143.184 464.929 141.992 464.929 140.344V135.016H463.297V131.608H464.929V128.344H469.033V131.608H471.721V135.016H469.033V140.392C469.033 140.792 469.129 141.08 469.321 141.256C469.513 141.432 469.833 141.52 470.281 141.52H471.745Z" fill="black"/>
<path d="M577.188 254.138C583.724 233.093 566.707 211.146 536.419 214.305C514.037 216.662 490.736 230.419 495.667 254.138C500.147 275.684 514.839 295.057 536.419 293.954C561.108 292.7 570.017 277.188 577.171 254.138" fill="#E1FB41"/>
<path d="M520.851 234.553C521.098 234.059 521.698 233.859 522.192 234.106L522.999 234.509H526.833C527.385 234.509 527.833 234.957 527.833 235.509C527.833 236.061 527.385 236.509 526.833 236.509H525.738L529.589 246.642C529.628 246.628 529.668 246.617 529.709 246.609L548.771 242.481L545.767 235.926C545.625 235.617 545.651 235.256 545.834 234.97C546.017 234.684 546.334 234.51 546.674 234.509L555.575 234.491C557.274 234.487 558.869 235.657 558.869 237.586C558.869 239.296 557.497 241.065 555.582 241.065H553.799C553.247 241.065 552.799 240.617 552.799 240.065C552.799 239.513 553.247 239.065 553.799 239.065H555.582C556.193 239.065 556.869 238.403 556.869 237.586C556.869 236.986 556.41 236.489 555.579 236.491L548.232 236.505L550.98 242.502C551.128 242.662 551.225 242.867 551.248 243.085L552.855 246.591C554.415 246.005 556.105 245.684 557.869 245.684C565.737 245.684 572.115 252.062 572.115 259.93L572.111 260.297C571.916 267.995 565.614 274.175 557.869 274.175C550.124 274.175 543.823 267.995 543.628 260.297L543.623 259.93C543.623 254.538 546.619 249.845 551.037 247.426L549.982 245.125L537.69 260.56C537.099 260.176 536.401 259.942 535.65 259.91L547.722 244.753L530.374 248.509L530.316 248.557L534.67 260.011C534.932 259.958 535.204 259.93 535.482 259.93C537.385 259.93 538.983 261.236 539.429 263H540.57C541.122 263 541.57 263.448 541.57 264C541.57 264.553 541.123 265 540.57 265H539.43C538.984 266.765 537.385 268.071 535.482 268.071L535.273 268.065C533.192 267.959 531.522 266.291 531.417 264.209L531.412 264C531.412 262.75 531.975 261.632 532.862 260.885L528.695 249.919L526.689 251.604C528.379 253.946 529.377 256.821 529.377 259.93L529.373 260.297C529.367 260.544 529.354 260.79 529.335 261.033L532.243 261.507C531.829 262.049 531.549 262.698 531.449 263.405L529.042 263.012C527.633 269.398 521.94 274.175 515.131 274.175C507.386 274.175 501.085 267.995 500.89 260.297L500.885 259.93C500.885 252.062 507.263 245.684 515.131 245.684C519.171 245.684 522.818 247.366 525.41 250.068L527.943 247.94L523.6 236.509H522.763C522.608 236.509 522.454 236.473 522.315 236.404L521.298 235.895C520.804 235.648 520.604 235.047 520.851 234.553ZM515.131 247.684C508.367 247.684 502.885 253.167 502.885 259.93C502.885 266.693 508.368 272.175 515.131 272.175C520.945 272.175 525.812 268.123 527.063 262.69L515.247 260.766C514.403 260.628 514.11 259.563 514.765 259.013L523.874 251.359C521.652 249.092 518.556 247.684 515.131 247.684ZM557.869 247.684C556.402 247.684 554.995 247.942 553.691 248.415L558.778 259.514C559.008 260.016 558.788 260.609 558.286 260.839C557.784 261.069 557.19 260.849 556.96 260.347L551.874 249.252C548.144 251.351 545.623 255.345 545.623 259.93C545.623 266.693 551.106 272.175 557.869 272.175C564.633 272.175 570.115 266.693 570.115 259.93C570.115 253.167 564.633 247.684 557.869 247.684ZM535.482 261.93C534.339 261.93 533.412 262.857 533.412 264C533.412 265.143 534.339 266.071 535.482 266.071C536.263 266.071 536.942 265.638 537.295 265H535.482C534.93 265 534.482 264.553 534.482 264C534.483 263.448 534.93 263 535.482 263H537.295C536.942 262.362 536.263 261.93 535.482 261.93ZM517.719 259.142L527.351 260.71C527.367 260.452 527.377 260.192 527.377 259.93C527.377 257.311 526.551 254.887 525.151 252.896L517.719 259.142Z" fill="black"/>
<path fill-rule="evenodd" clip-rule="evenodd" d="M520.851 234.553L519.956 234.106L519.956 234.106L520.851 234.553ZM522.192 234.106L522.64 233.211L522.64 233.211L522.192 234.106ZM522.999 234.509L522.552 235.404L522.763 235.509H522.999V234.509ZM526.833 234.509L526.833 233.509H526.833V234.509ZM527.833 235.509L528.833 235.509V235.509L527.833 235.509ZM526.833 236.509V237.509H526.833L526.833 236.509ZM525.738 236.509V235.509H524.288L524.804 236.864L525.738 236.509ZM529.589 246.642L528.654 246.997L529 247.907L529.919 247.586L529.589 246.642ZM529.709 246.609L529.497 245.631L529.497 245.631L529.709 246.609ZM548.771 242.481L548.982 243.458L550.198 243.195L549.68 242.064L548.771 242.481ZM545.767 235.926L544.857 236.342L544.858 236.343L545.767 235.926ZM545.834 234.97L544.992 234.43L544.992 234.431L545.834 234.97ZM546.674 234.509L546.672 233.509L546.672 233.509L546.674 234.509ZM555.575 234.491L555.577 235.491L555.577 235.491L555.575 234.491ZM558.869 237.586H559.869V237.586L558.869 237.586ZM553.799 241.065L553.799 242.065H553.799V241.065ZM552.799 240.065L551.799 240.064V240.065L552.799 240.065ZM553.799 239.065V238.065H553.799L553.799 239.065ZM556.869 237.586H557.869V237.586L556.869 237.586ZM555.579 236.491L555.581 237.491L555.581 237.491L555.579 236.491ZM548.232 236.505L548.23 235.505L546.676 235.508L547.323 236.922L548.232 236.505ZM550.98 242.502L550.071 242.919L550.138 243.063L550.245 243.18L550.98 242.502ZM551.248 243.085L550.254 243.191L550.271 243.354L550.339 243.502L551.248 243.085ZM552.855 246.591L551.946 247.008L552.335 247.855L553.207 247.527L552.855 246.591ZM557.869 245.684V244.684H557.869L557.869 245.684ZM572.115 259.93L573.115 259.941V259.93L572.115 259.93ZM572.111 260.297L573.111 260.322L573.111 260.315L573.111 260.308L572.111 260.297ZM557.869 274.175L557.869 275.175H557.869V274.175ZM543.628 260.297L542.628 260.31L542.628 260.322L543.628 260.297ZM543.623 259.93L542.623 259.93L542.623 259.943L543.623 259.93ZM551.037 247.426L551.517 248.303L552.334 247.856L551.946 247.009L551.037 247.426ZM549.982 245.125L550.891 244.709L550.214 243.23L549.2 244.502L549.982 245.125ZM537.69 260.56L537.146 261.399L537.907 261.893L538.473 261.183L537.69 260.56ZM535.65 259.91L534.868 259.287L533.641 260.828L535.609 260.91L535.65 259.91ZM547.722 244.753L548.504 245.376L550.251 243.182L547.51 243.776L547.722 244.753ZM530.374 248.509L530.162 247.532L529.923 247.583L529.735 247.74L530.374 248.509ZM530.316 248.557L529.678 247.788L529.128 248.244L529.382 248.912L530.316 248.557ZM534.67 260.011L533.735 260.366L534.037 261.16L534.868 260.991L534.67 260.011ZM535.482 259.93L535.482 258.93H535.482L535.482 259.93ZM539.429 263L538.459 263.245L538.65 264H539.429V263ZM541.57 264H542.57V264L541.57 264ZM539.43 265V264H538.651L538.46 264.755L539.43 265ZM535.482 268.071L535.454 269.07L535.468 269.071H535.482L535.482 268.071ZM535.273 268.065L535.223 269.063L535.234 269.064L535.245 269.064L535.273 268.065ZM531.417 264.209L530.417 264.233L530.418 264.246L530.418 264.26L531.417 264.209ZM531.412 264L530.412 264V264.012L530.412 264.024L531.412 264ZM532.862 260.885L533.506 261.65L534.049 261.193L533.797 260.53L532.862 260.885ZM528.695 249.919L529.63 249.564L529.13 248.248L528.052 249.153L528.695 249.919ZM526.689 251.604L526.046 250.838L525.335 251.436L525.879 252.189L526.689 251.604ZM529.377 259.93L530.377 259.941V259.93L529.377 259.93ZM529.373 260.297L530.373 260.322L530.373 260.315L530.373 260.308L529.373 260.297ZM529.335 261.033L528.338 260.957L528.268 261.873L529.174 262.02L529.335 261.033ZM532.243 261.507L533.038 262.114L534.051 260.788L532.404 260.52L532.243 261.507ZM531.449 263.405L531.288 264.392L532.297 264.556L532.439 263.544L531.449 263.405ZM529.042 263.012L529.203 262.025L528.269 261.873L528.065 262.797L529.042 263.012ZM515.131 274.175L515.131 275.175H515.131L515.131 274.175ZM500.89 260.297L499.89 260.31L499.89 260.322L500.89 260.297ZM500.885 259.93L499.885 259.93L499.885 259.943L500.885 259.93ZM515.131 245.684L515.131 244.684H515.131L515.131 245.684ZM525.41 250.068L524.689 250.76L525.337 251.435L526.053 250.833L525.41 250.068ZM527.943 247.94L528.587 248.705L529.13 248.249L528.878 247.585L527.943 247.94ZM523.6 236.509L524.534 236.154L524.289 235.509H523.6V236.509ZM522.763 236.509L522.763 237.509H522.763V236.509ZM522.315 236.404L521.868 237.298L521.868 237.298L522.315 236.404ZM521.298 235.895L521.745 235V235L521.298 235.895ZM515.131 247.684L515.131 246.684H515.131L515.131 247.684ZM502.885 259.93L501.885 259.93V259.93L502.885 259.93ZM515.131 272.175L515.131 273.175H515.131L515.131 272.175ZM527.063 262.69L528.038 262.914L528.278 261.874L527.224 261.703L527.063 262.69ZM515.247 260.766L515.086 261.753L515.086 261.753L515.247 260.766ZM514.765 259.013L514.121 258.247L514.121 258.247L514.765 259.013ZM523.874 251.359L524.517 252.124L525.344 251.43L524.588 250.659L523.874 251.359ZM557.869 247.684V246.684H557.869L557.869 247.684ZM553.691 248.415L553.35 247.475L552.33 247.846L552.782 248.832L553.691 248.415ZM558.778 259.514L559.687 259.097L559.687 259.097L558.778 259.514ZM558.286 260.839L558.703 261.748L558.703 261.748L558.286 260.839ZM556.96 260.347L557.869 259.93L557.869 259.93L556.96 260.347ZM551.874 249.252L552.783 248.836L552.33 247.848L551.384 248.381L551.874 249.252ZM545.623 259.93L544.623 259.93V259.93L545.623 259.93ZM557.869 272.175L557.869 273.175H557.869V272.175ZM570.115 259.93L571.115 259.93V259.93L570.115 259.93ZM535.482 261.93L535.482 260.93H535.482L535.482 261.93ZM533.412 264L532.412 264V264L533.412 264ZM535.482 266.071L535.482 267.071H535.482L535.482 266.071ZM537.295 265L538.17 265.484L538.99 264H537.295V265ZM535.482 265L535.482 266H535.482V265ZM534.482 264L533.482 264V264H534.482ZM535.482 263V262H535.482L535.482 263ZM537.295 263V264H538.991L538.17 262.516L537.295 263ZM517.719 259.142L517.075 258.376L515.407 259.779L517.558 260.129L517.719 259.142ZM527.351 260.71L527.19 261.697L528.279 261.875L528.349 260.773L527.351 260.71ZM527.377 259.93L528.377 259.93V259.93L527.377 259.93ZM525.151 252.896L525.969 252.321L525.342 251.429L524.508 252.13L525.151 252.896ZM520.851 234.553L521.745 235L521.745 235L522.192 234.106L522.64 233.211C521.652 232.717 520.45 233.118 519.956 234.106L520.851 234.553ZM522.192 234.106L521.745 235L522.552 235.404L522.999 234.509L523.446 233.615L522.64 233.211L522.192 234.106ZM522.999 234.509V235.509H526.833V234.509V233.509H522.999V234.509ZM526.833 234.509L526.833 235.509L526.833 235.509L527.833 235.509L528.833 235.509C528.833 234.404 527.937 233.509 526.833 233.509L526.833 234.509ZM527.833 235.509L526.833 235.509L526.833 235.509L526.833 236.509L526.833 237.509C527.937 237.509 528.833 236.614 528.833 235.509L527.833 235.509ZM526.833 236.509V235.509H525.738V236.509V237.509H526.833V236.509ZM525.738 236.509L524.804 236.864L528.654 246.997L529.589 246.642L530.524 246.287L526.673 236.154L525.738 236.509ZM529.589 246.642L529.919 247.586C529.914 247.588 529.912 247.588 529.912 247.588C529.913 247.588 529.916 247.587 529.921 247.586L529.709 246.609L529.497 245.631C529.427 245.647 529.346 245.668 529.259 245.698L529.589 246.642ZM529.709 246.609L529.921 247.586L548.982 243.458L548.771 242.481L548.559 241.503L529.497 245.631L529.709 246.609ZM548.771 242.481L549.68 242.064L546.676 235.509L545.767 235.926L544.858 236.343L547.861 242.897L548.771 242.481ZM545.767 235.926L546.676 235.51L546.676 235.509L545.834 234.97L544.992 234.431C544.625 235.003 544.574 235.723 544.857 236.342L545.767 235.926ZM545.834 234.97L546.676 235.51L546.676 235.509L546.674 234.509L546.672 233.509C545.991 233.511 545.358 233.859 544.992 234.43L545.834 234.97ZM546.674 234.509L546.676 235.509L555.577 235.491L555.575 234.491L555.573 233.491L546.672 233.509L546.674 234.509ZM555.575 234.491L555.577 235.491C556.854 235.488 557.869 236.332 557.869 237.586L558.869 237.586L559.869 237.586C559.869 234.982 557.695 233.486 555.573 233.491L555.575 234.491ZM558.869 237.586H557.869C557.869 238.859 556.837 240.065 555.582 240.065V241.065V242.065C558.158 242.065 559.869 239.733 559.869 237.586H558.869ZM555.582 241.065V240.065H553.799V241.065V242.065H555.582V241.065ZM553.799 241.065L553.799 240.065L553.799 240.065L552.799 240.065L551.799 240.065C551.799 241.169 552.694 242.065 553.799 242.065L553.799 241.065ZM552.799 240.065L553.799 240.065L553.799 240.065L553.799 239.065L553.799 238.065C552.694 238.065 551.799 238.96 551.799 240.064L552.799 240.065ZM553.799 239.065V240.065H555.582V239.065V238.065H553.799V239.065ZM555.582 239.065V240.065C556.237 240.065 556.809 239.725 557.192 239.307C557.586 238.877 557.869 238.273 557.869 237.586H556.869H555.869C555.869 237.716 555.814 237.851 555.718 237.956C555.609 238.074 555.538 238.065 555.582 238.065V239.065ZM556.869 237.586L557.869 237.586C557.869 237.022 557.648 236.473 557.209 236.073C556.772 235.676 556.193 235.489 555.577 235.491L555.579 236.491L555.581 237.491C555.795 237.49 555.861 237.551 555.862 237.552C555.863 237.553 555.864 237.554 555.864 237.554C555.864 237.554 555.865 237.555 555.865 237.555C555.865 237.555 555.865 237.555 555.865 237.555C555.865 237.555 555.865 237.555 555.865 237.555C555.865 237.555 555.865 237.555 555.865 237.555C555.865 237.555 555.865 237.555 555.865 237.555C555.865 237.555 555.865 237.555 555.865 237.555C555.865 237.556 555.869 237.565 555.869 237.587L556.869 237.586ZM555.579 236.491L555.577 235.491L548.23 235.505L548.232 236.505L548.234 237.505L555.581 237.491L555.579 236.491ZM548.232 236.505L547.323 236.922L550.071 242.919L550.98 242.502L551.89 242.086L549.142 236.089L548.232 236.505ZM550.98 242.502L550.245 243.18C550.249 243.184 550.252 243.189 550.253 243.192C550.255 243.194 550.254 243.194 550.254 243.191L551.248 243.085L552.242 242.979C552.195 242.537 552.001 242.134 551.716 241.824L550.98 242.502ZM551.248 243.085L550.339 243.502L551.946 247.008L552.855 246.591L553.764 246.174L552.157 242.668L551.248 243.085ZM552.855 246.591L553.207 247.527C554.656 246.982 556.227 246.684 557.869 246.684L557.869 245.684L557.869 244.684C555.983 244.684 554.174 245.027 552.503 245.655L552.855 246.591ZM557.869 245.684V246.684C565.185 246.684 571.115 252.615 571.115 259.93L572.115 259.93L573.115 259.93C573.115 251.51 566.289 244.684 557.869 244.684V245.684ZM572.115 259.93L571.115 259.919L571.111 260.287L572.111 260.297L573.111 260.308L573.115 259.941L572.115 259.93ZM572.111 260.297L571.112 260.272C570.93 267.429 565.071 273.175 557.869 273.175V274.175V275.175C566.158 275.175 572.902 268.561 573.111 260.322L572.111 260.297ZM557.869 274.175L557.869 273.175C550.668 273.175 544.809 267.429 544.628 260.272L543.628 260.297L542.628 260.322C542.837 268.561 549.58 275.175 557.869 275.175L557.869 274.175ZM543.628 260.297L544.628 260.284L544.623 259.917L543.623 259.93L542.623 259.943L542.628 260.31L543.628 260.297ZM543.623 259.93L544.623 259.93C544.623 254.918 547.407 250.554 551.517 248.303L551.037 247.426L550.557 246.549C545.831 249.137 542.623 254.158 542.623 259.93L543.623 259.93ZM551.037 247.426L551.946 247.009L550.891 244.709L549.982 245.125L549.073 245.542L550.128 247.843L551.037 247.426ZM549.982 245.125L549.2 244.502L536.908 259.937L537.69 260.56L538.473 261.183L550.765 245.748L549.982 245.125ZM537.69 260.56L538.235 259.721C537.497 259.243 536.626 258.95 535.692 258.911L535.65 259.91L535.609 260.91C536.175 260.933 536.7 261.11 537.146 261.399L537.69 260.56ZM535.65 259.91L536.433 260.533L548.504 245.376L547.722 244.753L546.939 244.13L534.868 259.287L535.65 259.91ZM547.722 244.753L547.51 243.776L530.162 247.532L530.374 248.509L530.586 249.486L547.933 245.731L547.722 244.753ZM530.374 248.509L529.735 247.74L529.678 247.788L530.316 248.557L530.955 249.326L531.013 249.278L530.374 248.509ZM530.316 248.557L529.382 248.912L533.735 260.366L534.67 260.011L535.605 259.656L531.251 248.202L530.316 248.557ZM534.67 260.011L534.868 260.991C535.066 260.951 535.271 260.93 535.482 260.93L535.482 259.93L535.482 258.93C535.137 258.93 534.799 258.965 534.471 259.031L534.67 260.011ZM535.482 259.93L535.482 260.93C536.916 260.93 538.123 261.914 538.459 263.245L539.429 263L540.398 262.755C539.843 260.558 537.854 258.93 535.482 258.93L535.482 259.93ZM539.429 263V264H540.57V263V262H539.429V263ZM540.57 263V264V264.001L541.57 264L542.57 264C542.57 262.896 541.675 262 540.57 262V263ZM541.57 264H540.57V265V266C541.675 266 542.57 265.105 542.57 264H541.57ZM540.57 265V264H539.43V265V266H540.57V265ZM539.43 265L538.46 264.755C538.124 266.086 536.917 267.071 535.482 267.071L535.482 268.071L535.482 269.071C537.854 269.071 539.844 267.443 540.399 265.245L539.43 265ZM535.482 268.071L535.51 267.071L535.301 267.065L535.273 268.065L535.245 269.064L535.454 269.07L535.482 268.071ZM535.273 268.065L535.324 267.066C533.755 266.987 532.495 265.727 532.416 264.159L531.417 264.209L530.418 264.26C530.55 266.854 532.629 268.932 535.223 269.063L535.273 268.065ZM531.417 264.209L532.417 264.186L532.412 263.977L531.412 264L530.412 264.024L530.417 264.233L531.417 264.209ZM531.412 264L532.412 264C532.412 263.058 532.836 262.215 533.506 261.65L532.862 260.885L532.218 260.12C531.115 261.049 530.412 262.443 530.412 264L531.412 264ZM532.862 260.885L533.797 260.53L529.63 249.564L528.695 249.919L527.761 250.274L531.928 261.24L532.862 260.885ZM528.695 249.919L528.052 249.153L526.046 250.838L526.689 251.604L527.333 252.37L529.338 250.685L528.695 249.919ZM526.689 251.604L525.879 252.189C527.45 254.367 528.377 257.039 528.377 259.93L529.377 259.93L530.377 259.93C530.377 256.604 529.309 253.525 527.5 251.019L526.689 251.604ZM529.377 259.93L528.377 259.919L528.373 260.287L529.373 260.297L530.373 260.308L530.377 259.941L529.377 259.93ZM529.373 260.297L528.373 260.272C528.368 260.5 528.355 260.729 528.338 260.957L529.335 261.033L530.332 261.11C530.352 260.851 530.366 260.588 530.373 260.322L529.373 260.297ZM529.335 261.033L529.174 262.02L532.082 262.494L532.243 261.507L532.404 260.52L529.496 260.046L529.335 261.033ZM532.243 261.507L531.449 260.9C530.933 261.575 530.583 262.384 530.459 263.265L531.449 263.405L532.439 263.544C532.514 263.011 532.725 262.523 533.038 262.114L532.243 261.507ZM531.449 263.405L531.61 262.418L529.203 262.025L529.042 263.012L528.881 263.999L531.288 264.392L531.449 263.405ZM529.042 263.012L528.065 262.797C526.756 268.734 521.461 273.175 515.131 273.175L515.131 274.175L515.131 275.175C522.419 275.175 528.511 270.061 530.019 263.227L529.042 263.012ZM515.131 274.175L515.131 273.175C507.93 273.175 502.071 267.429 501.889 260.272L500.89 260.297L499.89 260.322C500.099 268.561 506.842 275.175 515.131 275.175L515.131 274.175ZM500.89 260.297L501.89 260.284L501.885 259.917L500.885 259.93L499.885 259.943L499.89 260.31L500.89 260.297ZM500.885 259.93L501.885 259.93C501.885 252.615 507.815 246.684 515.131 246.684L515.131 245.684L515.131 244.684C506.711 244.684 499.885 251.51 499.885 259.93L500.885 259.93ZM515.131 245.684L515.131 246.684C518.887 246.684 522.277 248.247 524.689 250.76L525.41 250.068L526.132 249.375C523.358 246.485 519.454 244.684 515.131 244.684L515.131 245.684ZM525.41 250.068L526.053 250.833L528.587 248.705L527.943 247.94L527.3 247.174L524.767 249.302L525.41 250.068ZM527.943 247.94L528.878 247.585L524.534 236.154L523.6 236.509L522.665 236.864L527.009 248.295L527.943 247.94ZM523.6 236.509V235.509H522.763V236.509V237.509H523.6V236.509ZM522.763 236.509L522.763 235.509L522.762 235.509L522.315 236.404L521.868 237.298C522.146 237.437 522.453 237.509 522.763 237.509L522.763 236.509ZM522.315 236.404L522.763 235.509L521.745 235L521.298 235.895L520.851 236.789L521.868 237.298L522.315 236.404ZM521.298 235.895L521.745 235L521.745 235L520.851 234.553L519.956 234.106C519.462 235.094 519.863 236.295 520.851 236.789L521.298 235.895ZM515.131 247.684L515.131 246.684C507.815 246.684 501.885 252.615 501.885 259.93L502.885 259.93L503.885 259.93C503.885 253.719 508.92 248.684 515.131 248.684L515.131 247.684ZM502.885 259.93L501.885 259.93C501.885 267.245 507.815 273.175 515.131 273.175L515.131 272.175L515.131 271.175C508.92 271.175 503.885 266.14 503.885 259.93L502.885 259.93ZM515.131 272.175L515.131 273.175C521.421 273.175 526.684 268.792 528.038 262.914L527.063 262.69L526.089 262.465C524.939 267.455 520.469 271.175 515.131 271.175L515.131 272.175ZM527.063 262.69L527.224 261.703L515.408 259.779L515.247 260.766L515.086 261.753L526.903 263.677L527.063 262.69ZM515.247 260.766L515.408 259.779L515.408 259.779L514.765 259.013L514.121 258.247C512.812 259.348 513.398 261.478 515.086 261.753L515.247 260.766ZM514.765 259.013L515.408 259.779L524.517 252.124L523.874 251.359L523.231 250.593L514.121 258.247L514.765 259.013ZM523.874 251.359L524.588 250.659C522.186 248.208 518.836 246.684 515.131 246.684L515.131 247.684L515.131 248.684C518.276 248.684 521.118 249.976 523.16 252.059L523.874 251.359ZM557.869 247.684L557.869 246.684C556.284 246.684 554.762 246.963 553.35 247.475L553.691 248.415L554.033 249.355C555.229 248.921 556.52 248.684 557.869 248.684L557.869 247.684ZM553.691 248.415L552.782 248.832L557.869 259.931L558.778 259.514L559.687 259.097L554.6 247.999L553.691 248.415ZM558.778 259.514L557.869 259.931L557.869 259.93L558.286 260.839L558.703 261.748C559.706 261.288 560.148 260.102 559.687 259.097L558.778 259.514ZM558.286 260.839L557.869 259.93L557.869 259.93L556.96 260.347L556.051 260.764C556.511 261.768 557.699 262.208 558.703 261.748L558.286 260.839ZM556.96 260.347L557.869 259.93L552.783 248.836L551.874 249.252L550.965 249.669L556.051 260.764L556.96 260.347ZM551.874 249.252L551.384 248.381C547.352 250.649 544.623 254.969 544.623 259.93L545.623 259.93L546.623 259.93C546.623 255.721 548.936 252.053 552.364 250.124L551.874 249.252ZM545.623 259.93L544.623 259.93C544.623 267.245 550.554 273.175 557.869 273.175L557.869 272.175L557.869 271.175C551.658 271.175 546.623 266.14 546.623 259.93L545.623 259.93ZM557.869 272.175V273.175C565.185 273.175 571.115 267.245 571.115 259.93L570.115 259.93L569.115 259.93C569.115 266.14 564.08 271.175 557.869 271.175V272.175ZM570.115 259.93L571.115 259.93C571.115 252.615 565.185 246.684 557.869 246.684V247.684V248.684C564.08 248.684 569.115 253.719 569.115 259.93L570.115 259.93ZM535.482 261.93L535.482 260.93C533.787 260.93 532.412 262.305 532.412 264L533.412 264L534.412 264C534.412 263.409 534.892 262.93 535.482 262.93L535.482 261.93ZM533.412 264L532.412 264C532.412 265.696 533.787 267.071 535.482 267.071L535.482 266.071L535.482 265.071C534.891 265.071 534.412 264.591 534.412 264L533.412 264ZM535.482 266.071L535.482 267.071C536.642 267.071 537.649 266.427 538.17 265.484L537.295 265L536.42 264.517C536.236 264.849 535.884 265.071 535.482 265.071L535.482 266.071ZM537.295 265V264H535.482V265V266H537.295V265ZM535.482 265L535.482 264H535.482H534.482H533.482C533.482 265.105 534.378 266 535.482 266L535.482 265ZM534.482 264L535.482 264.001L535.482 264L535.482 263L535.482 262C534.378 262 533.483 262.896 533.482 264L534.482 264ZM535.482 263V264H537.295V263V262H535.482V263ZM537.295 263L538.17 262.516C537.649 261.574 536.642 260.93 535.482 260.93L535.482 261.93L535.482 262.93C535.884 262.93 536.236 263.151 536.42 263.484L537.295 263ZM517.719 259.142L517.558 260.129L527.19 261.697L527.351 260.71L527.511 259.723L517.879 258.155L517.719 259.142ZM527.351 260.71L528.349 260.773C528.366 260.499 528.377 260.218 528.377 259.93L527.377 259.93L526.377 259.93C526.377 260.167 526.368 260.405 526.353 260.647L527.351 260.71ZM527.377 259.93L528.377 259.93C528.377 257.098 527.483 254.473 525.969 252.321L525.151 252.896L524.333 253.471C525.62 255.3 526.377 257.525 526.377 259.93L527.377 259.93ZM525.151 252.896L524.508 252.13L517.075 258.376L517.719 259.142L518.362 259.907L525.795 253.661L525.151 252.896Z" fill="black"/>
<path d="M503.657 311.36C504.633 311.568 505.417 312.056 506.009 312.824C506.601 313.576 506.897 314.44 506.897 315.416C506.897 316.824 506.401 317.944 505.409 318.776C504.433 319.592 503.065 320 501.305 320H493.457V303.152H501.041C502.753 303.152 504.089 303.544 505.049 304.328C506.025 305.112 506.513 306.176 506.513 307.52C506.513 308.512 506.249 309.336 505.721 309.992C505.209 310.648 504.521 311.104 503.657 311.36ZM497.561 309.968H500.249C500.921 309.968 501.433 309.824 501.785 309.536C502.153 309.232 502.337 308.792 502.337 308.216C502.337 307.64 502.153 307.2 501.785 306.896C501.433 306.592 500.921 306.44 500.249 306.44H497.561V309.968ZM500.585 316.688C501.273 316.688 501.801 316.536 502.169 316.232C502.553 315.912 502.745 315.456 502.745 314.864C502.745 314.272 502.545 313.808 502.145 313.472C501.761 313.136 501.225 312.968 500.537 312.968H497.561V316.688H500.585ZM522.957 306.608L514.557 326.36H510.141L513.213 319.544L507.765 306.608H512.349L515.445 314.984L518.517 306.608H522.957ZM533.631 308.504C534.015 307.88 534.567 307.376 535.287 306.992C536.007 306.608 536.831 306.416 537.759 306.416C538.863 306.416 539.863 306.696 540.759 307.256C541.655 307.816 542.359 308.616 542.871 309.656C543.399 310.696 543.663 311.904 543.663 313.28C543.663 314.656 543.399 315.872 542.871 316.928C542.359 317.968 541.655 318.776 540.759 319.352C539.863 319.912 538.863 320.192 537.759 320.192C536.815 320.192 535.991 320.008 535.287 319.64C534.583 319.256 534.031 318.752 533.631 318.128V320H529.527V302.24H533.631V308.504ZM539.487 313.28C539.487 312.256 539.199 311.456 538.623 310.88C538.063 310.288 537.367 309.992 536.535 309.992C535.719 309.992 535.023 310.288 534.447 310.88C533.887 311.472 533.607 312.28 533.607 313.304C533.607 314.328 533.887 315.136 534.447 315.728C535.023 316.32 535.719 316.616 536.535 316.616C537.351 316.616 538.047 316.32 538.623 315.728C539.199 315.12 539.487 314.304 539.487 313.28ZM547.88 305.216C547.16 305.216 546.568 305.008 546.104 304.592C545.656 304.16 545.432 303.632 545.432 303.008C545.432 302.368 545.656 301.84 546.104 301.424C546.568 300.992 547.16 300.776 547.88 300.776C548.584 300.776 549.16 300.992 549.608 301.424C550.072 301.84 550.304 302.368 550.304 303.008C550.304 303.632 550.072 304.16 549.608 304.592C549.16 305.008 548.584 305.216 547.88 305.216ZM549.92 306.608V320H545.816V306.608H549.92ZM561.078 320L556.998 314.384V320H552.894V302.24H556.998V312.056L561.054 306.608H566.118L560.55 313.328L566.166 320H561.078ZM580.354 313.088C580.354 313.472 580.33 313.872 580.282 314.288H570.994C571.058 315.12 571.322 315.76 571.786 316.208C572.266 316.64 572.85 316.856 573.538 316.856C574.562 316.856 575.274 316.424 575.674 315.56H580.042C579.818 316.44 579.41 317.232 578.818 317.936C578.242 318.64 577.514 319.192 576.634 319.592C575.754 319.992 574.77 320.192 573.682 320.192C572.37 320.192 571.202 319.912 570.178 319.352C569.154 318.792 568.354 317.992 567.778 316.952C567.202 315.912 566.914 314.696 566.914 313.304C566.914 311.912 567.194 310.696 567.754 309.656C568.33 308.616 569.13 307.816 570.154 307.256C571.178 306.696 572.354 306.416 573.682 306.416C574.978 306.416 576.13 306.688 577.138 307.232C578.146 307.776 578.93 308.552 579.49 309.56C580.066 310.568 580.354 311.744 580.354 313.088ZM576.154 312.008C576.154 311.304 575.914 310.744 575.434 310.328C574.954 309.912 574.354 309.704 573.634 309.704C572.946 309.704 572.362 309.904 571.882 310.304C571.418 310.704 571.13 311.272 571.018 312.008H576.154Z" fill="black"/>
<path d="M238.188 346.138C244.724 325.093 227.707 303.146 197.419 306.305C175.037 308.662 151.736 322.419 156.667 346.138C161.147 367.684 175.839 387.057 197.419 385.954C222.108 384.7 231.017 369.188 238.171 346.138" fill="#E1FB41"/>
<path d="M210 326H186C184.409 326 182.883 326.632 181.757 327.757C180.632 328.883 180 330.409 180 332V356C180.003 357.238 180.39 358.444 181.106 359.454C181.822 360.464 182.833 361.227 184 361.64V364C184 364.53 184.211 365.039 184.586 365.414C184.961 365.789 185.47 366 186 366C186.53 366 187.039 365.789 187.414 365.414C187.789 365.039 188 364.53 188 364V362H208V364C208 364.53 208.211 365.039 208.586 365.414C208.961 365.789 209.47 366 210 366C210.53 366 211.039 365.789 211.414 365.414C211.789 365.039 212 364.53 212 364V361.64C213.167 361.227 214.178 360.464 214.894 359.454C215.61 358.444 215.997 357.238 216 356V332C216 330.409 215.368 328.883 214.243 327.757C213.117 326.632 211.591 326 210 326ZM184 338H196V346H184V338ZM212 356C212 356.53 211.789 357.039 211.414 357.414C211.039 357.789 210.53 358 210 358H186C185.47 358 184.961 357.789 184.586 357.414C184.211 357.039 184 356.53 184 356V350H212V356ZM212 346H200V338H212V346ZM212 334H184V332C184 331.47 184.211 330.961 184.586 330.586C184.961 330.211 185.47 330 186 330H210C210.53 330 211.039 330.211 211.414 330.586C211.789 330.961 212 331.47 212 332V334ZM205.24 355.84C205.48 355.942 205.739 355.997 206 356C206.53 356 207.039 355.789 207.414 355.414C207.789 355.039 208 354.53 208 354C208.01 353.867 208.01 353.733 208 353.6C207.978 353.475 207.938 353.353 207.88 353.24C207.836 353.113 207.776 352.991 207.7 352.88C207.626 352.775 207.546 352.675 207.46 352.58L207.16 352.34C207.049 352.264 206.927 352.204 206.8 352.16C206.677 352.084 206.541 352.03 206.4 352C206.076 351.932 205.74 351.946 205.422 352.04C205.104 352.135 204.815 352.306 204.58 352.54C204.494 352.635 204.414 352.735 204.34 352.84C204.264 352.951 204.204 353.073 204.16 353.2C204.102 353.313 204.062 353.435 204.04 353.56C204.03 353.693 204.03 353.827 204.04 353.96C204.042 354.485 204.251 354.987 204.62 355.36C204.793 355.559 205.004 355.722 205.24 355.84ZM189.24 355.84C189.48 355.942 189.739 355.997 190 356C190.53 356 191.039 355.789 191.414 355.414C191.789 355.039 192 354.53 192 354C192.01 353.867 192.01 353.733 192 353.6C191.978 353.475 191.938 353.353 191.88 353.24C191.836 353.113 191.776 352.991 191.7 352.88C191.626 352.775 191.546 352.675 191.46 352.58L191.16 352.34L190.8 352.16L190.4 352C190.076 351.932 189.74 351.946 189.422 352.04C189.104 352.135 188.815 352.306 188.58 352.54C188.494 352.635 188.414 352.735 188.34 352.84C188.264 352.951 188.204 353.073 188.16 353.2C188.102 353.313 188.062 353.435 188.04 353.56C188.03 353.693 188.03 353.827 188.04 353.96C188.042 354.485 188.251 354.987 188.62 355.36C188.793 355.559 189.004 355.722 189.24 355.84V355.84Z" fill="black"/>
<path d="M174.266 400.576C174.266 401.552 174.042 402.448 173.594 403.264C173.146 404.064 172.458 404.712 171.53 405.208C170.602 405.704 169.45 405.952 168.074 405.952H165.53V412H161.426V395.152H168.074C169.418 395.152 170.554 395.384 171.482 395.848C172.41 396.312 173.106 396.952 173.57 397.768C174.034 398.584 174.266 399.52 174.266 400.576ZM167.762 402.688C168.546 402.688 169.13 402.504 169.514 402.136C169.898 401.768 170.09 401.248 170.09 400.576C170.09 399.904 169.898 399.384 169.514 399.016C169.13 398.648 168.546 398.464 167.762 398.464H165.53V402.688H167.762ZM189.626 398.608V412H185.522V410.176C185.106 410.768 184.538 411.248 183.818 411.616C183.114 411.968 182.33 412.144 181.466 412.144C180.442 412.144 179.538 411.92 178.754 411.472C177.97 411.008 177.362 410.344 176.93 409.48C176.498 408.616 176.282 407.6 176.282 406.432V398.608H180.362V405.88C180.362 406.776 180.594 407.472 181.058 407.968C181.522 408.464 182.146 408.712 182.93 408.712C183.73 408.712 184.362 408.464 184.826 407.968C185.29 407.472 185.522 406.776 185.522 405.88V398.608H189.626ZM196.678 400.504C197.062 399.88 197.614 399.376 198.334 398.992C199.054 398.608 199.878 398.416 200.806 398.416C201.91 398.416 202.91 398.696 203.806 399.256C204.702 399.816 205.406 400.616 205.918 401.656C206.446 402.696 206.71 403.904 206.71 405.28C206.71 406.656 206.446 407.872 205.918 408.928C205.406 409.968 204.702 410.776 203.806 411.352C202.91 411.912 201.91 412.192 200.806 412.192C199.862 412.192 199.038 412.008 198.334 411.64C197.63 411.256 197.078 410.752 196.678 410.128V412H192.574V394.24H196.678V400.504ZM202.534 405.28C202.534 404.256 202.246 403.456 201.67 402.88C201.11 402.288 200.414 401.992 199.582 401.992C198.766 401.992 198.07 402.288 197.494 402.88C196.934 403.472 196.654 404.28 196.654 405.304C196.654 406.328 196.934 407.136 197.494 407.728C198.07 408.32 198.766 408.616 199.582 408.616C200.398 408.616 201.094 408.32 201.67 407.728C202.246 407.12 202.534 406.304 202.534 405.28ZM212.967 394.24V412H208.863V394.24H212.967ZM218.005 397.216C217.285 397.216 216.693 397.008 216.229 396.592C215.781 396.16 215.557 395.632 215.557 395.008C215.557 394.368 215.781 393.84 216.229 393.424C216.693 392.992 217.285 392.776 218.005 392.776C218.709 392.776 219.285 392.992 219.733 393.424C220.197 393.84 220.429 394.368 220.429 395.008C220.429 395.632 220.197 396.16 219.733 396.592C219.285 397.008 218.709 397.216 218.005 397.216ZM220.045 398.608V412H215.941V398.608H220.045ZM222.203 405.304C222.203 403.912 222.483 402.696 223.043 401.656C223.619 400.616 224.411 399.816 225.419 399.256C226.443 398.696 227.611 398.416 228.923 398.416C230.603 398.416 232.003 398.856 233.123 399.736C234.259 400.616 235.003 401.856 235.355 403.456H230.987C230.619 402.432 229.907 401.92 228.851 401.92C228.099 401.92 227.499 402.216 227.051 402.808C226.603 403.384 226.379 404.216 226.379 405.304C226.379 406.392 226.603 407.232 227.051 407.824C227.499 408.4 228.099 408.688 228.851 408.688C229.907 408.688 230.619 408.176 230.987 407.152H235.355C235.003 408.72 234.259 409.952 233.123 410.848C231.987 411.744 230.587 412.192 228.923 412.192C227.611 412.192 226.443 411.912 225.419 411.352C224.411 410.792 223.619 409.992 223.043 408.952C222.483 407.912 222.203 406.696 222.203 405.304ZM148.229 444.52V448H146.141C144.653 448 143.493 447.64 142.661 446.92C141.829 446.184 141.413 444.992 141.413 443.344V438.016H139.781V434.608H141.413V431.344H145.517V434.608H148.205V438.016H145.517V443.392C145.517 443.792 145.613 444.08 145.805 444.256C145.997 444.432 146.317 444.52 146.765 444.52H148.229ZM154.619 436.84C155.099 436.104 155.699 435.528 156.419 435.112C157.139 434.68 157.939 434.464 158.819 434.464V438.808H157.691C156.667 438.808 155.899 439.032 155.387 439.48C154.875 439.912 154.619 440.68 154.619 441.784V448H150.515V434.608H154.619V436.84ZM159.965 441.28C159.965 439.904 160.221 438.696 160.733 437.656C161.261 436.616 161.973 435.816 162.869 435.256C163.765 434.696 164.765 434.416 165.869 434.416C166.813 434.416 167.637 434.608 168.341 434.992C169.061 435.376 169.613 435.88 169.997 436.504V434.608H174.101V448H169.997V446.104C169.597 446.728 169.037 447.232 168.317 447.616C167.613 448 166.789 448.192 165.845 448.192C164.757 448.192 163.765 447.912 162.869 447.352C161.973 446.776 161.261 445.968 160.733 444.928C160.221 443.872 159.965 442.656 159.965 441.28ZM169.997 441.304C169.997 440.28 169.709 439.472 169.133 438.88C168.573 438.288 167.885 437.992 167.069 437.992C166.253 437.992 165.557 438.288 164.981 438.88C164.421 439.456 164.141 440.256 164.141 441.28C164.141 442.304 164.421 443.12 164.981 443.728C165.557 444.32 166.253 444.616 167.069 444.616C167.885 444.616 168.573 444.32 169.133 443.728C169.709 443.136 169.997 442.328 169.997 441.304ZM185.23 434.464C186.798 434.464 188.046 434.976 188.974 436C189.918 437.008 190.39 438.4 190.39 440.176V448H186.31V440.728C186.31 439.832 186.078 439.136 185.614 438.64C185.15 438.144 184.526 437.896 183.742 437.896C182.958 437.896 182.334 438.144 181.87 438.64C181.406 439.136 181.174 439.832 181.174 440.728V448H177.07V434.608H181.174V436.384C181.59 435.792 182.15 435.328 182.854 434.992C183.558 434.64 184.35 434.464 185.23 434.464ZM198.69 448.192C197.522 448.192 196.482 447.992 195.57 447.592C194.658 447.192 193.938 446.648 193.41 445.96C192.882 445.256 192.586 444.472 192.522 443.608H196.578C196.626 444.072 196.842 444.448 197.226 444.736C197.61 445.024 198.082 445.168 198.642 445.168C199.154 445.168 199.546 445.072 199.818 444.88C200.106 444.672 200.25 444.408 200.25 444.088C200.25 443.704 200.05 443.424 199.65 443.248C199.25 443.056 198.602 442.848 197.706 442.624C196.746 442.4 195.946 442.168 195.306 441.928C194.666 441.672 194.114 441.28 193.65 440.752C193.186 440.208 192.954 439.48 192.954 438.568C192.954 437.8 193.162 437.104 193.578 436.48C194.01 435.84 194.634 435.336 195.45 434.968C196.282 434.6 197.266 434.416 198.402 434.416C200.082 434.416 201.402 434.832 202.362 435.664C203.338 436.496 203.898 437.6 204.042 438.976H200.25C200.186 438.512 199.978 438.144 199.626 437.872C199.29 437.6 198.842 437.464 198.282 437.464C197.802 437.464 197.434 437.56 197.178 437.752C196.922 437.928 196.794 438.176 196.794 438.496C196.794 438.88 196.994 439.168 197.394 439.36C197.81 439.552 198.45 439.744 199.314 439.936C200.306 440.192 201.114 440.448 201.738 440.704C202.362 440.944 202.906 441.344 203.37 441.904C203.85 442.448 204.098 443.184 204.114 444.112C204.114 444.896 203.89 445.6 203.442 446.224C203.01 446.832 202.378 447.312 201.546 447.664C200.73 448.016 199.778 448.192 198.69 448.192ZM210.729 436.504C211.129 435.88 211.681 435.376 212.385 434.992C213.089 434.608 213.913 434.416 214.857 434.416C215.961 434.416 216.961 434.696 217.857 435.256C218.753 435.816 219.457 436.616 219.969 437.656C220.497 438.696 220.761 439.904 220.761 441.28C220.761 442.656 220.497 443.872 219.969 444.928C219.457 445.968 218.753 446.776 217.857 447.352C216.961 447.912 215.961 448.192 214.857 448.192C213.929 448.192 213.105 448 212.385 447.616C211.681 447.232 211.129 446.736 210.729 446.128V454.384H206.625V434.608H210.729V436.504ZM216.585 441.28C216.585 440.256 216.297 439.456 215.721 438.88C215.161 438.288 214.465 437.992 213.633 437.992C212.817 437.992 212.121 438.288 211.545 438.88C210.985 439.472 210.705 440.28 210.705 441.304C210.705 442.328 210.985 443.136 211.545 443.728C212.121 444.32 212.817 444.616 213.633 444.616C214.449 444.616 215.145 444.32 215.721 443.728C216.297 443.12 216.585 442.304 216.585 441.28ZM229.01 448.192C227.698 448.192 226.514 447.912 225.458 447.352C224.418 446.792 223.594 445.992 222.986 444.952C222.394 443.912 222.098 442.696 222.098 441.304C222.098 439.928 222.402 438.72 223.01 437.68C223.618 436.624 224.45 435.816 225.506 435.256C226.562 434.696 227.746 434.416 229.058 434.416C230.37 434.416 231.554 434.696 232.61 435.256C233.666 435.816 234.498 436.624 235.106 437.68C235.714 438.72 236.018 439.928 236.018 441.304C236.018 442.68 235.706 443.896 235.082 444.952C234.474 445.992 233.634 446.792 232.562 447.352C231.506 447.912 230.322 448.192 229.01 448.192ZM229.01 444.64C229.794 444.64 230.458 444.352 231.002 443.776C231.562 443.2 231.842 442.376 231.842 441.304C231.842 440.232 231.57 439.408 231.026 438.832C230.498 438.256 229.842 437.968 229.058 437.968C228.258 437.968 227.594 438.256 227.066 438.832C226.538 439.392 226.274 440.216 226.274 441.304C226.274 442.376 226.53 443.2 227.042 443.776C227.57 444.352 228.226 444.64 229.01 444.64ZM242.299 436.84C242.779 436.104 243.379 435.528 244.099 435.112C244.819 434.68 245.619 434.464 246.499 434.464V438.808H245.371C244.347 438.808 243.579 439.032 243.067 439.48C242.555 439.912 242.299 440.68 242.299 441.784V448H238.195V434.608H242.299V436.84ZM255.925 444.52V448H253.837C252.349 448 251.189 447.64 250.357 446.92C249.525 446.184 249.109 444.992 249.109 443.344V438.016H247.477V434.608H249.109V431.344H253.213V434.608H255.901V438.016H253.213V443.392C253.213 443.792 253.309 444.08 253.501 444.256C253.693 444.432 254.013 444.52 254.461 444.52H255.925Z" fill="black"/>
<path d="M336.188 585.138C342.724 564.093 325.707 542.146 295.419 545.305C273.037 547.662 249.736 561.419 254.667 585.138C259.147 606.684 273.839 626.057 295.419 624.954C320.108 623.7 329.017 608.188 336.171 585.138" fill="#E1FB41"/>
<path d="M313.85 582.333H313.034L309.847 574.013C309.277 572.534 308.298 571.266 307.035 570.373C305.772 569.48 304.282 569.002 302.757 569H287.457C285.686 568.995 283.968 569.633 282.596 570.805C281.224 571.977 280.283 573.61 279.935 575.427L278.609 582.333H278.15C276.121 582.333 274.175 583.176 272.741 584.676C271.306 586.177 270.5 588.212 270.5 590.333V598.333C270.5 599.041 270.769 599.719 271.247 600.219C271.725 600.719 272.374 601 273.05 601H275.6C275.6 603.122 276.406 605.157 277.841 606.657C279.275 608.157 281.221 609 283.25 609C285.279 609 287.225 608.157 288.659 606.657C290.094 605.157 290.9 603.122 290.9 601H301.1C301.1 603.122 301.906 605.157 303.341 606.657C304.775 608.157 306.721 609 308.75 609C310.779 609 312.725 608.157 314.159 606.657C315.594 605.157 316.4 603.122 316.4 601H318.95C319.626 601 320.275 600.719 320.753 600.219C321.231 599.719 321.5 599.041 321.5 598.333V590.333C321.5 588.212 320.694 586.177 319.259 584.676C317.825 583.176 315.879 582.333 313.85 582.333V582.333ZM298.55 574.333H302.757C303.264 574.338 303.757 574.5 304.175 574.8C304.593 575.099 304.916 575.521 305.103 576.013L307.526 582.333H298.55V574.333ZM284.933 576.467C285.052 575.855 285.373 575.307 285.839 574.917C286.305 574.527 286.886 574.321 287.483 574.333H293.45V582.333H283.811L284.933 576.467ZM283.25 603.667C282.746 603.667 282.253 603.51 281.833 603.217C281.414 602.924 281.087 602.508 280.894 602.02C280.701 601.533 280.651 600.997 280.749 600.48C280.847 599.962 281.09 599.487 281.447 599.114C281.804 598.741 282.258 598.487 282.753 598.385C283.247 598.282 283.76 598.334 284.226 598.536C284.692 598.738 285.09 599.08 285.37 599.518C285.65 599.957 285.8 600.473 285.8 601C285.8 601.707 285.531 602.386 285.053 602.886C284.575 603.386 283.926 603.667 283.25 603.667ZM308.75 603.667C308.246 603.667 307.753 603.51 307.333 603.217C306.914 602.924 306.587 602.508 306.394 602.02C306.201 601.533 306.151 600.997 306.249 600.48C306.347 599.962 306.59 599.487 306.947 599.114C307.303 598.741 307.758 598.487 308.253 598.385C308.747 598.282 309.26 598.334 309.726 598.536C310.192 598.738 310.59 599.08 310.87 599.518C311.15 599.957 311.3 600.473 311.3 601C311.3 601.707 311.031 602.386 310.553 602.886C310.075 603.386 309.426 603.667 308.75 603.667ZM316.4 595.667H314.411C313.694 594.842 312.82 594.183 311.845 593.732C310.87 593.281 309.816 593.048 308.75 593.048C307.684 593.048 306.63 593.281 305.655 593.732C304.68 594.183 303.806 594.842 303.089 595.667H288.911C288.194 594.842 287.32 594.183 286.345 593.732C285.37 593.281 284.316 593.048 283.25 593.048C282.184 593.048 281.13 593.281 280.155 593.732C279.18 594.183 278.306 594.842 277.589 595.667H275.6V590.333C275.6 589.626 275.869 588.948 276.347 588.448C276.825 587.948 277.474 587.667 278.15 587.667H313.85C314.526 587.667 315.175 587.948 315.653 588.448C316.131 588.948 316.4 589.626 316.4 590.333V595.667Z" fill="black"/>
<path d="M227.64 646.552C227.64 644.888 228 643.408 228.72 642.112C229.44 640.8 230.44 639.784 231.72 639.064C233.016 638.328 234.48 637.96 236.112 637.96C238.112 637.96 239.824 638.488 241.248 639.544C242.672 640.6 243.624 642.04 244.104 643.864H239.592C239.256 643.16 238.776 642.624 238.152 642.256C237.544 641.888 236.848 641.704 236.064 641.704C234.8 641.704 233.776 642.144 232.992 643.024C232.208 643.904 231.816 645.08 231.816 646.552C231.816 648.024 232.208 649.2 232.992 650.08C233.776 650.96 234.8 651.4 236.064 651.4C236.848 651.4 237.544 651.216 238.152 650.848C238.776 650.48 239.256 649.944 239.592 649.24H244.104C243.624 651.064 242.672 652.504 241.248 653.56C239.824 654.6 238.112 655.12 236.112 655.12C234.48 655.12 233.016 654.76 231.72 654.04C230.44 653.304 229.44 652.288 228.72 650.992C228 649.696 227.64 648.216 227.64 646.552ZM245.801 648.28C245.801 646.904 246.057 645.696 246.569 644.656C247.097 643.616 247.809 642.816 248.705 642.256C249.601 641.696 250.601 641.416 251.705 641.416C252.649 641.416 253.473 641.608 254.177 641.992C254.897 642.376 255.449 642.88 255.833 643.504V641.608H259.937V655H255.833V653.104C255.433 653.728 254.873 654.232 254.153 654.616C253.449 655 252.625 655.192 251.681 655.192C250.593 655.192 249.601 654.912 248.705 654.352C247.809 653.776 247.097 652.968 246.569 651.928C246.057 650.872 245.801 649.656 245.801 648.28ZM255.833 648.304C255.833 647.28 255.545 646.472 254.969 645.88C254.409 645.288 253.721 644.992 252.905 644.992C252.089 644.992 251.393 645.288 250.817 645.88C250.257 646.456 249.977 647.256 249.977 648.28C249.977 649.304 250.257 650.12 250.817 650.728C251.393 651.32 252.089 651.616 252.905 651.616C253.721 651.616 254.409 651.32 254.969 650.728C255.545 650.136 255.833 649.328 255.833 648.304ZM267.01 643.84C267.49 643.104 268.09 642.528 268.81 642.112C269.53 641.68 270.33 641.464 271.21 641.464V645.808H270.082C269.058 645.808 268.29 646.032 267.778 646.48C267.266 646.912 267.01 647.68 267.01 648.784V655H262.906V641.608H267.01V643.84ZM277.276 643.504C277.676 642.88 278.228 642.376 278.932 641.992C279.636 641.608 280.46 641.416 281.404 641.416C282.508 641.416 283.508 641.696 284.404 642.256C285.3 642.816 286.004 643.616 286.516 644.656C287.044 645.696 287.308 646.904 287.308 648.28C287.308 649.656 287.044 650.872 286.516 651.928C286.004 652.968 285.3 653.776 284.404 654.352C283.508 654.912 282.508 655.192 281.404 655.192C280.476 655.192 279.652 655 278.932 654.616C278.228 654.232 277.676 653.736 277.276 653.128V661.384H273.172V641.608H277.276V643.504ZM283.132 648.28C283.132 647.256 282.844 646.456 282.268 645.88C281.708 645.288 281.012 644.992 280.18 644.992C279.364 644.992 278.668 645.288 278.092 645.88C277.532 646.472 277.252 647.28 277.252 648.304C277.252 649.328 277.532 650.136 278.092 650.728C278.668 651.32 279.364 651.616 280.18 651.616C280.996 651.616 281.692 651.32 282.268 650.728C282.844 650.12 283.132 649.304 283.132 648.28ZM295.557 655.192C294.245 655.192 293.061 654.912 292.005 654.352C290.965 653.792 290.141 652.992 289.533 651.952C288.941 650.912 288.645 649.696 288.645 648.304C288.645 646.928 288.949 645.72 289.557 644.68C290.165 643.624 290.997 642.816 292.053 642.256C293.109 641.696 294.293 641.416 295.605 641.416C296.917 641.416 298.101 641.696 299.157 642.256C300.213 642.816 301.045 643.624 301.653 644.68C302.261 645.72 302.565 646.928 302.565 648.304C302.565 649.68 302.253 650.896 301.629 651.952C301.021 652.992 300.181 653.792 299.109 654.352C298.053 654.912 296.869 655.192 295.557 655.192ZM295.557 651.64C296.341 651.64 297.005 651.352 297.549 650.776C298.109 650.2 298.389 649.376 298.389 648.304C298.389 647.232 298.117 646.408 297.573 645.832C297.045 645.256 296.389 644.968 295.605 644.968C294.805 644.968 294.141 645.256 293.613 645.832C293.085 646.392 292.821 647.216 292.821 648.304C292.821 649.376 293.077 650.2 293.589 650.776C294.117 651.352 294.773 651.64 295.557 651.64ZM310.838 655.192C309.526 655.192 308.342 654.912 307.286 654.352C306.246 653.792 305.422 652.992 304.814 651.952C304.222 650.912 303.926 649.696 303.926 648.304C303.926 646.928 304.23 645.72 304.838 644.68C305.446 643.624 306.278 642.816 307.334 642.256C308.39 641.696 309.574 641.416 310.886 641.416C312.198 641.416 313.382 641.696 314.438 642.256C315.494 642.816 316.326 643.624 316.934 644.68C317.542 645.72 317.846 646.928 317.846 648.304C317.846 649.68 317.534 650.896 316.91 651.952C316.302 652.992 315.462 653.792 314.39 654.352C313.334 654.912 312.15 655.192 310.838 655.192ZM310.838 651.64C311.622 651.64 312.286 651.352 312.83 650.776C313.39 650.2 313.67 649.376 313.67 648.304C313.67 647.232 313.398 646.408 312.854 645.832C312.326 645.256 311.67 644.968 310.886 644.968C310.086 644.968 309.422 645.256 308.894 645.832C308.366 646.392 308.102 647.216 308.102 648.304C308.102 649.376 308.358 650.2 308.87 650.776C309.398 651.352 310.054 651.64 310.838 651.64ZM324.127 637.24V655H320.023V637.24H324.127ZM329.165 640.216C328.445 640.216 327.853 640.008 327.389 639.592C326.941 639.16 326.717 638.632 326.717 638.008C326.717 637.368 326.941 636.84 327.389 636.424C327.853 635.992 328.445 635.776 329.165 635.776C329.869 635.776 330.445 635.992 330.893 636.424C331.357 636.84 331.589 637.368 331.589 638.008C331.589 638.632 331.357 639.16 330.893 639.592C330.445 640.008 329.869 640.216 329.165 640.216ZM331.205 641.608V655H327.101V641.608H331.205ZM342.339 641.464C343.907 641.464 345.155 641.976 346.083 643C347.027 644.008 347.499 645.4 347.499 647.176V655H343.419V647.728C343.419 646.832 343.187 646.136 342.723 645.64C342.259 645.144 341.635 644.896 340.851 644.896C340.067 644.896 339.443 645.144 338.979 645.64C338.515 646.136 338.283 646.832 338.283 647.728V655H334.179V641.608H338.283V643.384C338.699 642.792 339.259 642.328 339.963 641.992C340.667 641.64 341.459 641.464 342.339 641.464ZM355.439 641.416C356.383 641.416 357.207 641.608 357.911 641.992C358.631 642.376 359.183 642.88 359.567 643.504V641.608H363.671V654.976C363.671 656.208 363.423 657.32 362.927 658.312C362.447 659.32 361.703 660.12 360.695 660.712C359.703 661.304 358.463 661.6 356.975 661.6C354.991 661.6 353.383 661.128 352.151 660.184C350.919 659.256 350.215 657.992 350.039 656.392H354.095C354.223 656.904 354.527 657.304 355.007 657.592C355.487 657.896 356.079 658.048 356.783 658.048C357.631 658.048 358.303 657.8 358.799 657.304C359.311 656.824 359.567 656.048 359.567 654.976V653.08C359.167 653.704 358.615 654.216 357.911 654.616C357.207 655 356.383 655.192 355.439 655.192C354.335 655.192 353.335 654.912 352.439 654.352C351.543 653.776 350.831 652.968 350.303 651.928C349.791 650.872 349.535 649.656 349.535 648.28C349.535 646.904 349.791 645.696 350.303 644.656C350.831 643.616 351.543 642.816 352.439 642.256C353.335 641.696 354.335 641.416 355.439 641.416ZM359.567 648.304C359.567 647.28 359.279 646.472 358.703 645.88C358.143 645.288 357.455 644.992 356.639 644.992C355.823 644.992 355.127 645.288 354.551 645.88C353.991 646.456 353.711 647.256 353.711 648.28C353.711 649.304 353.991 650.12 354.551 650.728C355.127 651.32 355.823 651.616 356.639 651.616C357.455 651.616 358.143 651.32 358.703 650.728C359.279 650.136 359.567 649.328 359.567 648.304Z" fill="black"/>
<path d="M23 607C10.2843 607 0 617.016 0 629.4C0 646.2 23 671 23 671C23 671 46 646.2 46 629.4C46 617.016 35.7157 607 23 607ZM23 637.4C18.4657 637.4 14.7857 633.816 14.7857 629.4C14.7857 624.984 18.4657 621.4 23 621.4C27.5343 621.4 31.2143 624.984 31.2143 629.4C31.2143 633.816 27.5343 637.4 23 637.4Z" fill="#007F73"/>
<path d="M603 33C575.667 46.5 514.7 87.7 489.5 144.5C458 215.5 252.5 635 55.5 635" stroke="#007F73" stroke-width="3" stroke-linecap="round" stroke-dasharray="12 12"/>
<path d="M632 0C619.284 0 609 10.016 609 22.4C609 39.2 632 64 632 64C632 64 655 39.2 655 22.4C655 10.016 644.716 0 632 0ZM632 30.4C627.466 30.4 623.786 26.816 623.786 22.4C623.786 17.984 627.466 14.4 632 14.4C636.534 14.4 640.214 17.984 640.214 22.4C640.214 26.816 636.534 30.4 632 30.4Z" fill="#007F73"/>
</svg>
