<svg width="75" height="60" viewBox="0 0 75 60" fill="none" xmlns="http://www.w3.org/2000/svg">
<g clip-path="url(#clip0_72_705)">
<path d="M22.8094 3.26263C18.5414 7.65908 18.5414 14.6394 22.8094 19.0359L35.8764 31.5388C36.7811 32.418 38.2192 32.418 39.1239 31.5388L52.1909 19.005C56.428 14.6086 56.428 7.65908 52.1909 3.26263C50.3893 1.41149 47.9074 0.370228 45.3172 0.385654C42.4486 0.408793 39.6806 1.43463 37.5002 3.29348C35.0491 1.10297 32.7218 0 30.5414 0C27.6264 0 24.8352 1.17239 22.8094 3.26263ZM38.3507 5.63054C40.1677 3.78712 42.6419 2.73043 45.2321 2.69958C47.2038 2.68415 49.0904 3.47088 50.4666 4.88238C53.8146 8.3764 53.8146 13.8758 50.4666 17.3698L37.5002 29.9036L24.5027 17.393C21.1239 13.899 21.1239 8.3764 24.5027 4.88238C26.0955 3.23949 28.2914 2.31392 30.5878 2.32164C32.2965 2.32164 34.3842 3.47088 36.6264 5.64597C37.1213 6.12418 37.9022 6.11647 38.3893 5.63054H38.3507Z" fill="#00FFAB"/>
<path d="M3.26313 38.681C3.51055 39.8149 4.19096 40.8098 5.15746 41.45L19.3379 50.8214L20.9384 59.0436C21.0389 59.5758 21.4951 59.9691 22.0363 59.9923C22.1136 60 22.191 60 22.2683 59.9923L34.4306 57.4932C35.0569 57.3621 35.459 56.7528 35.3353 56.128C35.3353 56.1049 35.3276 56.0894 35.3198 56.0663L30.6807 38.5499C30.4332 37.6629 29.9152 36.8762 29.1961 36.2977L19.593 28.0447C18.0776 26.7798 15.843 26.8646 14.4203 28.2375C13.0363 29.6722 12.9667 31.9167 14.2657 33.4284L18.1703 37.8943L16.3379 38.6116L10.2451 33.521L7.65488 22.4759C7.16777 20.4011 5.08787 19.1207 3.00797 19.6066C2.99251 19.6066 2.98478 19.6066 2.96931 19.6143C0.935808 20.0694 -0.355429 22.0748 0.0852928 24.111L3.26313 38.681ZM3.54148 21.8588C3.65746 21.8357 3.78117 21.8203 3.89715 21.8203C4.61622 21.8203 5.24251 22.3139 5.40488 23.0081L8.1188 34.4311C8.17292 34.678 8.3121 34.8939 8.5054 35.0559L15.3868 40.7944C15.7116 41.0644 16.16 41.1415 16.5544 40.9872L20.5672 39.4446C21.1626 39.2132 21.4564 38.5422 21.2245 37.9483C21.1781 37.8249 21.1008 37.7015 21.0157 37.6012L15.9899 31.9167C15.4796 31.3305 15.4951 30.4589 16.0363 29.8958C16.5853 29.3405 17.4745 29.3019 18.0698 29.811L27.7116 38.064C28.0595 38.3417 28.3147 38.7196 28.4384 39.1438L32.7992 55.4493L22.9874 57.4624L21.5183 49.919C21.4642 49.6028 21.2863 49.3251 21.0234 49.1477L6.44096 39.5218C5.97705 39.2132 5.64457 38.735 5.52859 38.1874L2.35076 23.6174C2.18839 22.8152 2.70643 22.0285 3.51828 21.8588H3.53375H3.54148Z" fill="#00FFAB"/>
<path d="M71.969 19.5989C69.8891 19.1207 67.8169 20.401 67.3298 22.4759L64.7473 33.521L58.6545 38.6116L56.8298 37.8943L60.7576 33.4438C62.0798 31.9398 62.0102 29.6722 60.603 28.2529C59.1803 26.88 56.9458 26.7952 55.4303 28.0601L45.8272 36.2437C45.0772 36.8299 44.536 37.6398 44.2808 38.5576L39.6417 56.0586C39.4793 56.6756 39.8504 57.3081 40.469 57.4701C40.4922 57.4701 40.5076 57.4778 40.5308 57.4855L52.6932 59.9845C52.7705 59.9922 52.8478 59.9922 52.9252 59.9845C53.4819 59.9845 53.9535 59.5912 54.0618 59.0513L55.6623 50.8214L69.8427 41.45C70.8092 40.8098 71.4896 39.8148 71.737 38.681L74.9148 24.111C75.3556 22.0593 74.0411 20.0385 71.9767 19.5989C71.9767 19.5989 71.9767 19.5989 71.969 19.5989ZM72.6494 23.6174L69.4715 38.1874C69.3556 38.735 69.0231 39.2132 68.5592 39.5217L53.9767 49.1785C53.7138 49.3559 53.536 49.6336 53.4819 49.9498L52.0128 57.4932L42.2009 55.4492L46.5463 39.1515C46.6777 38.7042 46.9484 38.3108 47.3195 38.0331L56.9149 29.8033C57.5102 29.3019 58.3994 29.3328 58.9484 29.8881C59.4896 30.4512 59.5051 31.3228 58.9948 31.9089L53.969 37.5935C53.5437 38.0717 53.5901 38.8044 54.0695 39.2287C54.17 39.3212 54.286 39.3906 54.4174 39.4369L58.4303 40.9795C58.8324 41.1415 59.2808 41.0721 59.6133 40.7944L66.5257 35.0173C66.719 34.8553 66.8582 34.6394 66.9123 34.3926L69.603 22.9695C69.8195 22.1442 70.6623 21.6506 71.4896 21.8665C71.4973 21.8665 71.5128 21.8665 71.5205 21.8742C72.3092 22.0439 72.8195 22.8229 72.6494 23.6174Z" fill="#00FFAB"/>
</g>
<defs>
<clipPath id="clip0_72_705">
<rect width="75" height="60" fill="white"/>
</clipPath>
</defs>
</svg>
