<?xml version="1.0" encoding="UTF-8"?>
<svg id="Layer_2" data-name="Layer 2" xmlns="http://www.w3.org/2000/svg" viewBox="0 0 10 10">
  <defs>
    <style>
      .cls-1 {
        fill: #fff;
      }
    </style>
  </defs>
  <path class="cls-1" d="M9.14,9.53c0,.26-.22.47-.48.47h-2.14v-1.87c0-.84-.68-1.52-1.52-1.52s-1.52.68-1.52,1.52v1.87H1.34c-.26,0-.48-.21-.48-.47-.02-1.57.06-2.88.25-3.97,1.29.29,2.6.44,3.89.44s2.6-.15,3.89-.44c.19,1.09.27,2.4.25,3.97h0ZM7.46,4.51s-.04.01-.06.01c-.05,0-.1-.03-.12-.07-.33-.7-.72-1.3-1.17-1.76-.05-.05-.05-.13,0-.18.05-.05.13-.05.18,0,.46.49.87,1.11,1.22,1.83.03.07,0,.14-.06.17ZM6.29,4.77s-.03,0-.05,0c-.05,0-.1-.03-.12-.08-.21-.52-.47-.98-.74-1.32-.04-.06-.03-.14.02-.18.06-.04.14-.03.18.02.28.37.55.84.77,1.38.03.07,0,.14-.07.17h0ZM4.61,3.37c-.27.35-.52.8-.74,1.32-.02.05-.07.08-.12.08-.02,0-.03,0-.05,0-.07-.03-.1-.1-.07-.17.22-.54.49-1.02.77-1.38.04-.06.13-.07.18-.02.06.04.07.13.02.18h0ZM2.59,4.52s-.04,0-.06-.01c-.07-.03-.09-.11-.06-.17.34-.73.75-1.34,1.22-1.83.05-.05.13-.05.18,0,.05.05.05.13,0,.18-.45.47-.84,1.06-1.17,1.76-.02.05-.07.07-.12.07ZM9.42,4.54c-.58-1.04-1.87-2.85-4.03-3.7l.69-.23c.07-.02.11-.1.08-.16-.02-.07-.1-.11-.17-.08l-.87.29V.13c0-.07-.06-.13-.13-.13s-.13.06-.13.13v.51l-.87-.29c-.07-.02-.14.01-.17.08-.02.07.01.14.08.16l.69.23C2.44,1.69,1.16,3.5.58,4.54c-.07.13-.08.29-.02.43.06.14.18.24.32.27,1.37.33,2.74.5,4.12.5s2.75-.17,4.12-.5c.15-.04.26-.13.32-.27.06-.14.05-.29-.02-.43h0Z"/>
</svg>