<svg width="85" height="80" viewBox="0 0 85 80" fill="none" xmlns="http://www.w3.org/2000/svg">
<path d="M84.5 29C83 3 58 0 47.5 0C21.5 0 0 13 0 32.5C4.8 77.7 36 82.3333 51 79C69 74 84.5 52 84.5 29Z" fill="#E1FB41"/>
<rect x="16" y="14" width="51" height="51" rx="25.5" fill="#1FAB89"/>
<g clip-path="url(#clip0_62_818)">
<path d="M43.6249 32.5231H24.7753C22.924 32.5231 21.4399 34.0225 21.4399 35.8585V46.4002C21.4399 48.2362 22.924 49.7203 24.76 49.7203H27.3916V53.4535C27.3916 54.9683 28.1872 55.2436 29.1511 54.0808L32.7925 49.705H43.6249C45.4609 49.705 46.945 48.2362 46.9603 46.4002V35.8585C46.9603 34.0225 45.4762 32.5231 43.6249 32.5231ZM27.6976 42.8965C26.7643 42.8965 25.9993 42.1315 25.9993 41.1982C25.9993 40.2649 26.7643 39.4999 27.6976 39.4999C28.6309 39.4999 29.3959 40.2649 29.3959 41.1982C29.3959 42.1315 28.6309 42.8965 27.6976 42.8965ZM34.2001 42.8965C33.2668 42.8965 32.5018 42.1315 32.5018 41.1982C32.5018 40.2649 33.2668 39.4999 34.2001 39.4999C35.1334 39.4999 35.8984 40.2649 35.8984 41.1982C35.8984 42.1315 35.1334 42.8965 34.2001 42.8965ZM40.7026 42.8965C39.7693 42.8965 39.0043 42.1315 39.0043 41.1982C39.0043 40.2649 39.7693 39.4999 40.7026 39.4999C41.6359 39.4999 42.4009 40.2649 42.4009 41.1982C42.4009 42.1315 41.6359 42.8965 40.7026 42.8965Z" fill="#00FFAB"/>
<path d="M56.4769 24.2H38.3923C35.5618 24.2 33.2056 26.495 33.2056 29.3255V29.9987H43.6249C46.8379 29.9987 49.4542 32.5691 49.4542 35.7821V44.197H52.4989L55.5589 47.8537C56.5228 49.0165 57.3184 48.7258 57.3184 47.2111V44.1358C59.7358 43.7227 61.6177 41.5348 61.6177 38.9797V29.3255C61.6177 26.495 59.2921 24.2 56.4616 24.2H56.4769Z" fill="#00FFAB"/>
</g>
<defs>
<clipPath id="clip0_62_818">
<rect width="40.1931" height="30.6" fill="white" transform="translate(21.4399 24.2)"/>
</clipPath>
</defs>
</svg>
