<?xml version="1.0" encoding="UTF-8"?>
<svg id="Layer_1" xmlns="http://www.w3.org/2000/svg" version="1.1" viewBox="0 0 10 10">
  <!-- Generator: Adobe Illustrator 29.2.1, SVG Export Plug-In . SVG Version: 2.1.0 Build 116)  -->
  <defs>
    <style>
      .st0 {
        fill: #00ffab;
      }

      .st1 {
        fill: #fff;
      }
    </style>
  </defs>
  <path class="st1" d="M7.2,7.7c-.2,0-.3,0-.4-.2l-2.2-2.2c0,0-.2-.2-.2-.4v-1.9c0-.3.2-.5.6-.5s.6.2.6.5v1.7l2,2c.2.2.2.6,0,.8,0,0-.2.2-.4.2"/>
  <path class="st0" d="M5.2,9.3v-.8c0-.1,0-.2-.2-.2s-.2,0-.2.2v.8c-2.2-.1-4-1.9-4.1-4.1h.8c.1,0,.2,0,.2-.2s0-.2-.2-.2h-.8C.8,2.6,2.6.8,4.8.7v.8c0,.1,0,.2.2.2s.2,0,.2-.2v-.8c2.2.1,4,1.9,4.1,4.1h-.8c-.1,0-.2,0-.2.2s0,.2.2.2h.8c-.1,2.2-1.9,4-4.1,4.1M5,0C2.2,0,0,2.2,0,5s2.2,5,5,5,5-2.2,5-5S7.8,0,5,0"/>
</svg>