<?xml version="1.0" encoding="UTF-8"?>
<svg id="Layer_1" xmlns="http://www.w3.org/2000/svg" version="1.1" viewBox="0 0 19 25">
  <!-- Generator: Adobe Illustrator 29.6.1, SVG Export Plug-In . SVG Version: 2.1.1 Build 9)  -->
  <defs>
    <style>
      .st0 {
        fill: #d7fc19;
      }
    </style>
  </defs>
  <path class="st0" d="M16.6,8.3h-1.2v-2.4c0-3.3-2.7-5.9-5.9-5.9S3.6,2.7,3.6,5.9v2.4h-1.2c-1.3,0-2.4,1.1-2.4,2.4v11.9c0,1.3,1.1,2.4,2.4,2.4h14.3c1.3,0,2.4-1.1,2.4-2.4v-11.9c0-1.3-1.1-2.4-2.4-2.4ZM9.5,19c-1.3,0-2.4-1.1-2.4-2.4s1.1-2.4,2.4-2.4,2.4,1.1,2.4,2.4-1.1,2.4-2.4,2.4ZM13.2,8.3h-7.4v-2.4c0-2,1.7-3.7,3.7-3.7s3.7,1.7,3.7,3.7v2.4Z"/>
</svg>