<?xml version="1.0" encoding="UTF-8"?><svg id="Layer_1" xmlns="http://www.w3.org/2000/svg" viewBox="0 0 25 22.5"><defs><style>.cls-1{fill:#6b7280;}</style></defs><circle class="cls-1" cx="10" cy="5" r="5"/><path class="cls-1" d="M10.44,12.51C7.03,12.39,0,14.09,0,17.5v2.5h11.92c-3.09-3.45-1.54-7.36-1.49-7.49Z"/><path class="cls-1" d="M21.79,17.52c.45-.74.71-1.6.71-2.52,0-2.76-2.24-5-5-5s-5,2.24-5,5,2.24,5,5,5c.92,0,1.79-.28,2.53-.71l3.21,3.21,1.76-1.76-3.21-3.21ZM17.5,17.5c-1.38,0-2.5-1.12-2.5-2.5s1.12-2.5,2.5-2.5,2.5,1.12,2.5,2.5-1.12,2.5-2.5,2.5Z"/></svg>