<svg width="131" height="23" viewBox="0 0 131 23" fill="none" xmlns="http://www.w3.org/2000/svg">
<g clip-path="url(#clip0_606_419)">
<path d="M20.1308 8.41964C20.0731 8.24983 19.967 8.10061 19.8255 7.99043C19.684 7.88024 19.5133 7.81389 19.3346 7.79959L14.1054 7.38408L11.8426 2.37506C11.7706 2.21373 11.6533 2.07671 11.5051 1.98052C11.3569 1.88434 11.184 1.8331 11.0073 1.83301C10.8306 1.83291 10.6577 1.88395 10.5094 1.97998C10.361 2.076 10.2437 2.2129 10.1714 2.37415L7.9086 7.38408L2.67945 7.79959C2.50376 7.8135 2.3358 7.87774 2.19566 7.98462C2.05552 8.0915 1.94914 8.23648 1.88925 8.40224C1.82935 8.56799 1.81848 8.74749 1.85793 8.91926C1.89737 9.09103 1.98547 9.2478 2.11168 9.37081L5.97599 13.1379L4.60931 19.0559C4.56782 19.235 4.58112 19.4225 4.64749 19.594C4.71386 19.7655 4.83024 19.913 4.98153 20.0175C5.13282 20.1221 5.31202 20.1787 5.4959 20.1801C5.67977 20.1815 5.85982 20.1276 6.01268 20.0254L11.007 16.6958L16.0014 20.0254C16.1576 20.1291 16.3419 20.1825 16.5294 20.1784C16.7168 20.1743 16.8986 20.1129 17.0501 20.0024C17.2017 19.8919 17.3157 19.7377 17.377 19.5604C17.4383 19.3832 17.4438 19.1914 17.3928 19.0109L15.7152 13.1406L19.8758 9.39649C20.1482 9.15067 20.2482 8.76727 20.1308 8.41964Z" fill="#007F73"/>
<path d="M47.1457 8.41964C47.0881 8.24983 46.9819 8.10061 46.8404 7.99043C46.699 7.88024 46.5283 7.81389 46.3495 7.79959L41.1204 7.38408L38.8576 2.37506C38.7855 2.21373 38.6683 2.07671 38.5201 1.98052C38.3719 1.88434 38.199 1.8331 38.0223 1.83301C37.8456 1.83291 37.6726 1.88395 37.5243 1.97998C37.376 2.076 37.2586 2.2129 37.1864 2.37415L34.9236 7.38408L29.6944 7.79959C29.5187 7.8135 29.3508 7.87774 29.2106 7.98462C29.0705 8.0915 28.9641 8.23648 28.9042 8.40224C28.8443 8.56799 28.8334 8.74749 28.8729 8.91926C28.9123 9.09103 29.0004 9.2478 29.1266 9.37081L32.9909 13.1379L31.6243 19.0559C31.5828 19.235 31.5961 19.4225 31.6624 19.594C31.7288 19.7655 31.8452 19.913 31.9965 20.0175C32.1478 20.1221 32.327 20.1787 32.5109 20.1801C32.6947 20.1815 32.8748 20.1276 33.0276 20.0254L38.022 16.6958L43.0163 20.0254C43.1726 20.1291 43.3568 20.1825 43.5443 20.1784C43.7318 20.1743 43.9135 20.1129 44.0651 20.0024C44.2166 19.8919 44.3307 19.7377 44.392 19.5604C44.4532 19.3832 44.4587 19.1914 44.4078 19.0109L42.7301 13.1406L46.8907 9.39649C47.1631 9.15067 47.2631 8.76727 47.1457 8.41964Z" fill="#007F73"/>
<path d="M74.1567 8.41964C74.099 8.24983 73.9929 8.10061 73.8514 7.99043C73.7099 7.88024 73.5393 7.81389 73.3605 7.79959L68.1314 7.38408L65.8686 2.37506C65.7965 2.21373 65.6793 2.07671 65.5311 1.98052C65.3828 1.88434 65.21 1.8331 65.0333 1.83301C64.8566 1.83291 64.6836 1.88395 64.5353 1.97998C64.387 2.076 64.2696 2.2129 64.1974 2.37415L61.9345 7.38408L56.7054 7.79959C56.5297 7.8135 56.3617 7.87774 56.2216 7.98462C56.0815 8.0915 55.9751 8.23648 55.9152 8.40224C55.8553 8.56799 55.8444 8.74749 55.8839 8.91926C55.9233 9.09103 56.0114 9.2478 56.1376 9.37081L60.0019 13.1379L58.6353 19.0559C58.5938 19.235 58.6071 19.4225 58.6734 19.594C58.7398 19.7655 58.8562 19.913 59.0075 20.0175C59.1588 20.1221 59.338 20.1787 59.5218 20.1801C59.7057 20.1815 59.8858 20.1276 60.0386 20.0254L65.033 16.6958L70.0273 20.0254C70.1835 20.1291 70.3678 20.1825 70.5553 20.1784C70.7428 20.1743 70.9245 20.1129 71.0761 20.0024C71.2276 19.8919 71.3417 19.7377 71.4029 19.5604C71.4642 19.3832 71.4697 19.1914 71.4187 19.0109L69.7411 13.1406L73.9017 9.39649C74.1741 9.15067 74.2741 8.76727 74.1567 8.41964Z" fill="#007F73"/>
<path d="M101.171 8.41964C101.113 8.24983 101.007 8.10061 100.865 7.99043C100.724 7.88024 100.553 7.81389 100.375 7.79959L95.1454 7.38408L92.8826 2.37506C92.8105 2.21373 92.6933 2.07671 92.5451 1.98052C92.3969 1.88434 92.224 1.8331 92.0473 1.83301C91.8706 1.83291 91.6977 1.88395 91.5493 1.97998C91.401 2.076 91.2836 2.2129 91.2114 2.37415L88.9486 7.38408L83.7194 7.79959C83.5437 7.8135 83.3758 7.87774 83.2356 7.98462C83.0955 8.0915 82.9891 8.23648 82.9292 8.40224C82.8693 8.56799 82.8585 8.74749 82.8979 8.91926C82.9374 9.09103 83.0255 9.2478 83.1517 9.37081L87.016 13.1379L85.6493 19.0559C85.6078 19.235 85.6211 19.4225 85.6875 19.594C85.7538 19.7655 85.8702 19.913 86.0215 20.0175C86.1728 20.1221 86.352 20.1787 86.5359 20.1801C86.7197 20.1815 86.8998 20.1276 87.0527 20.0254L92.047 16.6958L97.0413 20.0254C97.1976 20.1291 97.3818 20.1825 97.5693 20.1784C97.7568 20.1743 97.9386 20.1129 98.0901 20.0024C98.2416 19.8919 98.3557 19.7377 98.417 19.5604C98.4782 19.3832 98.4838 19.1914 98.4328 19.0109L96.7552 13.1406L100.916 9.39649C101.188 9.15067 101.288 8.76727 101.171 8.41964Z" fill="#007F73"/>
<path d="M114.032 13.1374L112.665 19.0554C112.623 19.2346 112.635 19.4224 112.702 19.5943C112.768 19.7662 112.884 19.9141 113.035 20.0188C113.187 20.1235 113.366 20.1801 113.551 20.1812C113.735 20.1823 113.915 20.1278 114.068 20.0249L119.062 16.6954L124.056 20.0249C124.212 20.1287 124.397 20.1821 124.584 20.178C124.772 20.1739 124.953 20.1124 125.105 20.0019C125.257 19.8915 125.371 19.7372 125.432 19.56C125.493 19.3827 125.499 19.191 125.448 19.0105L123.77 13.1402L127.931 9.39603C128.064 9.27605 128.159 9.11963 128.204 8.94614C128.25 8.77264 128.243 8.58967 128.186 8.41986C128.128 8.25004 128.022 8.10083 127.88 7.99067C127.739 7.88051 127.568 7.81423 127.389 7.80004L122.16 7.38362L119.897 2.3746C119.825 2.21331 119.708 2.07635 119.56 1.98025C119.412 1.88415 119.239 1.83301 119.062 1.83301C118.885 1.83301 118.712 1.88415 118.564 1.98025C118.416 2.07635 118.298 2.21331 118.226 2.3746L115.963 7.38362L110.734 7.79913C110.559 7.81305 110.391 7.87729 110.251 7.98416C110.11 8.09104 110.004 8.23602 109.944 8.40178C109.884 8.56753 109.873 8.74703 109.913 8.9188C109.952 9.09057 110.04 9.24734 110.167 9.37035L114.032 13.1374ZM116.649 9.16947C116.812 9.15658 116.97 9.09987 117.104 9.0053C117.238 8.91073 117.344 8.78179 117.412 8.63198L119.062 4.98047L120.712 8.63198C120.779 8.78179 120.886 8.91073 121.02 9.0053C121.154 9.09987 121.311 9.15658 121.475 9.16947L125.118 9.4584L122.118 12.1587C121.858 12.3936 121.754 12.7549 121.849 13.0925L122.999 17.1146L119.572 14.8297C119.421 14.7288 119.244 14.6749 119.063 14.6749C118.882 14.6749 118.705 14.7288 118.555 14.8297L114.974 17.2173L115.937 13.0475C115.972 12.8942 115.967 12.7343 115.923 12.5833C115.879 12.4323 115.796 12.2953 115.684 12.1853L112.897 9.46849L116.649 9.16947Z" fill="#007F73"/>
</g>
<defs>
<clipPath id="clip0_606_419">
<rect width="130.068" height="22.0136" fill="white"/>
</clipPath>
</defs>
</svg>
