<?xml version="1.0" encoding="UTF-8"?>
<svg id="Layer_1" xmlns="http://www.w3.org/2000/svg" version="1.1" viewBox="0 0 25 22.5">
  <!-- Generator: Adobe Illustrator 29.6.1, SVG Export Plug-In . SVG Version: 2.1.1 Build 9)  -->
  <defs>
    <style>
      .st0 {
        fill: #d7fc19;
      }
    </style>
  </defs>
  <circle class="st0" cx="10" cy="5" r="5"/>
  <path class="st0" d="M10.4,12.5c-3.4-.1-10.4,1.6-10.4,5v2.5h11.9c-3.1-3.5-1.5-7.4-1.5-7.5h0Z"/>
  <path class="st0" d="M21.8,17.5c.5-.7.7-1.6.7-2.5,0-2.8-2.2-5-5-5s-5,2.2-5,5,2.2,5,5,5,1.8-.3,2.5-.7l3.2,3.2,1.8-1.8-3.2-3.2h0ZM17.5,17.5c-1.4,0-2.5-1.1-2.5-2.5s1.1-2.5,2.5-2.5,2.5,1.1,2.5,2.5-1.1,2.5-2.5,2.5Z"/>
</svg>