<svg width="655" height="709" viewBox="0 0 655 709" fill="none" xmlns="http://www.w3.org/2000/svg">
<path d="M467.688 79.0504C474.224 58.0057 457.207 36.0583 426.919 39.2176C404.537 41.5744 381.236 55.3312 386.167 79.0504C390.647 100.597 405.339 119.97 426.919 118.867C451.608 117.613 460.517 102.101 467.671 79.0504" fill="#E1FB41"/>
<path d="M428.731 79.5176C429.97 78.4309 430.963 77.0868 431.644 75.5765C432.325 74.0663 432.677 72.4252 432.677 70.7647C432.677 67.6445 431.454 64.6521 429.278 62.4458C427.101 60.2395 424.149 59 421.071 59C417.992 59 415.04 60.2395 412.864 62.4458C410.687 64.6521 409.464 67.6445 409.464 70.7647C409.464 72.4252 409.816 74.0663 410.497 75.5765C411.178 77.0868 412.172 78.4309 413.41 79.5176C410.161 81.0091 407.404 83.4177 405.469 86.4554C403.534 89.4931 402.503 93.0313 402.5 96.6471C402.5 97.2711 402.745 97.8696 403.18 98.3108C403.615 98.7521 404.206 99 404.821 99C405.437 99 406.027 98.7521 406.463 98.3108C406.898 97.8696 407.143 97.2711 407.143 96.6471C407.143 92.9028 408.61 89.3119 411.222 86.6644C413.834 84.0168 417.377 82.5294 421.071 82.5294C424.765 82.5294 428.307 84.0168 430.919 86.6644C433.531 89.3119 434.999 92.9028 434.999 96.6471C434.999 97.2711 435.243 97.8696 435.679 98.3108C436.114 98.7521 436.704 99 437.32 99C437.936 99 438.526 98.7521 438.961 98.3108C439.397 97.8696 439.641 97.2711 439.641 96.6471C439.638 93.0313 438.607 89.4931 436.672 86.4554C434.738 83.4177 431.981 81.0091 428.731 79.5176ZM421.071 77.8235C419.693 77.8235 418.347 77.4095 417.202 76.6339C416.056 75.8583 415.164 74.7558 414.637 73.466C414.11 72.1762 413.972 70.7569 414.24 69.3876C414.509 68.0183 415.172 66.7606 416.146 65.7734C417.12 64.7862 418.361 64.1139 419.712 63.8415C421.063 63.5692 422.463 63.7089 423.736 64.2432C425.008 64.7775 426.096 65.6822 426.861 66.843C427.626 68.0039 428.035 69.3686 428.035 70.7647C428.035 72.6368 427.301 74.4323 425.995 75.7561C424.689 77.0798 422.918 77.8235 421.071 77.8235ZM443.68 78.5765C445.166 76.8808 446.136 74.786 446.475 72.5443C446.813 70.3026 446.505 68.0096 445.588 65.9412C444.671 63.8728 443.183 62.1172 441.305 60.8857C439.426 59.6542 437.236 58.9994 434.999 59C434.383 59 433.793 59.2479 433.357 59.6892C432.922 60.1304 432.677 60.7289 432.677 61.3529C432.677 61.977 432.922 62.5755 433.357 63.0167C433.793 63.458 434.383 63.7059 434.999 63.7059C436.846 63.7059 438.617 64.4496 439.923 65.7734C441.229 67.0972 441.963 68.8926 441.963 70.7647C441.959 72.0006 441.636 73.2139 441.025 74.2833C440.414 75.3528 439.537 76.2409 438.481 76.8588C438.137 77.06 437.849 77.3474 437.646 77.6935C437.443 78.0396 437.33 78.4327 437.32 78.8353C437.31 79.2347 437.401 79.6301 437.584 79.9841C437.767 80.3382 438.035 80.6392 438.365 80.8588L439.27 81.4706L439.572 81.6353C442.37 82.9805 444.73 85.1082 446.375 87.7678C448.021 90.4274 448.882 93.5081 448.857 96.6471C448.857 97.2711 449.102 97.8696 449.537 98.3108C449.972 98.7521 450.563 99 451.178 99C451.794 99 452.384 98.7521 452.82 98.3108C453.255 97.8696 453.5 97.2711 453.5 96.6471C453.519 93.0363 452.626 89.4806 450.908 86.3178C449.189 83.155 446.701 80.4901 443.68 78.5765Z" fill="black"/>
<path d="M401.363 142.024H395.075L394.067 145H389.771L395.867 128.152H400.619L406.715 145H402.371L401.363 142.024ZM400.307 138.856L398.219 132.688L396.155 138.856H400.307ZM401.027 124.36V127.192L395.243 124.768V121.576L401.027 124.36ZM417.76 133.504C418.16 132.88 418.712 132.376 419.416 131.992C420.12 131.608 420.944 131.416 421.888 131.416C422.992 131.416 423.992 131.696 424.888 132.256C425.784 132.816 426.488 133.616 427 134.656C427.528 135.696 427.792 136.904 427.792 138.28C427.792 139.656 427.528 140.872 427 141.928C426.488 142.968 425.784 143.776 424.888 144.352C423.992 144.912 422.992 145.192 421.888 145.192C420.96 145.192 420.136 145 419.416 144.616C418.712 144.232 418.16 143.736 417.76 143.128V151.384H413.656V131.608H417.76V133.504ZM423.616 138.28C423.616 137.256 423.328 136.456 422.752 135.88C422.192 135.288 421.496 134.992 420.664 134.992C419.848 134.992 419.152 135.288 418.576 135.88C418.016 136.472 417.736 137.28 417.736 138.304C417.736 139.328 418.016 140.136 418.576 140.728C419.152 141.32 419.848 141.616 420.664 141.616C421.48 141.616 422.176 141.32 422.752 140.728C423.328 140.12 423.616 139.304 423.616 138.28ZM432.009 130.216C431.289 130.216 430.697 130.008 430.233 129.592C429.785 129.16 429.561 128.632 429.561 128.008C429.561 127.368 429.785 126.84 430.233 126.424C430.697 125.992 431.289 125.776 432.009 125.776C432.713 125.776 433.289 125.992 433.737 126.424C434.201 126.84 434.433 127.368 434.433 128.008C434.433 128.632 434.201 129.16 433.737 129.592C433.289 130.008 432.713 130.216 432.009 130.216ZM434.049 131.608V145H429.945V131.608H434.049ZM449.647 138.088C449.647 138.472 449.623 138.872 449.575 139.288H440.287C440.351 140.12 440.615 140.76 441.079 141.208C441.559 141.64 442.143 141.856 442.831 141.856C443.855 141.856 444.567 141.424 444.967 140.56H449.335C449.111 141.44 448.703 142.232 448.111 142.936C447.535 143.64 446.807 144.192 445.927 144.592C445.047 144.992 444.063 145.192 442.975 145.192C441.663 145.192 440.495 144.912 439.471 144.352C438.447 143.792 437.647 142.992 437.071 141.952C436.495 140.912 436.207 139.696 436.207 138.304C436.207 136.912 436.487 135.696 437.047 134.656C437.623 133.616 438.423 132.816 439.447 132.256C440.471 131.696 441.647 131.416 442.975 131.416C444.271 131.416 445.423 131.688 446.431 132.232C447.439 132.776 448.223 133.552 448.783 134.56C449.359 135.568 449.647 136.744 449.647 138.088ZM445.447 137.008C445.447 136.304 445.207 135.744 444.727 135.328C444.247 134.912 443.647 134.704 442.927 134.704C442.239 134.704 441.655 134.904 441.175 135.304C440.711 135.704 440.423 136.272 440.311 137.008H445.447ZM450.996 138.28C450.996 136.904 451.252 135.696 451.764 134.656C452.292 133.616 453.004 132.816 453.9 132.256C454.796 131.696 455.796 131.416 456.9 131.416C457.78 131.416 458.58 131.6 459.3 131.968C460.036 132.336 460.612 132.832 461.028 133.456V127.24H465.132V145H461.028V143.08C460.644 143.72 460.092 144.232 459.372 144.616C458.668 145 457.844 145.192 456.9 145.192C455.796 145.192 454.796 144.912 453.9 144.352C453.004 143.776 452.292 142.968 451.764 141.928C451.252 140.872 450.996 139.656 450.996 138.28ZM461.028 138.304C461.028 137.28 460.74 136.472 460.164 135.88C459.604 135.288 458.916 134.992 458.1 134.992C457.284 134.992 456.588 135.288 456.012 135.88C455.452 136.456 455.172 137.256 455.172 138.28C455.172 139.304 455.452 140.12 456.012 140.728C456.588 141.32 457.284 141.616 458.1 141.616C458.916 141.616 459.604 141.32 460.164 140.728C460.74 140.136 461.028 139.328 461.028 138.304Z" fill="black"/>
<path d="M577.188 254.138C583.724 233.093 566.707 211.146 536.419 214.305C514.037 216.662 490.736 230.419 495.667 254.138C500.147 275.684 514.839 295.057 536.419 293.954C561.108 292.7 570.017 277.188 577.171 254.138" fill="#E1FB41"/>
<path fill-rule="evenodd" clip-rule="evenodd" d="M520.851 234.552C521.098 234.059 521.699 233.858 522.192 234.105L522.999 234.509H526.833C527.385 234.509 527.833 234.956 527.833 235.509C527.833 236.061 527.385 236.508 526.833 236.509H525.738L529.589 246.641C529.628 246.628 529.668 246.617 529.709 246.608L548.771 242.48L545.767 235.926C545.625 235.617 545.651 235.257 545.834 234.97C546.017 234.684 546.334 234.51 546.674 234.509L555.575 234.491C557.274 234.487 558.869 235.657 558.869 237.587C558.869 239.296 557.497 241.065 555.582 241.065H553.799C553.247 241.065 552.799 240.617 552.799 240.065C552.799 239.513 553.247 239.065 553.799 239.065H555.582C556.193 239.065 556.869 238.403 556.869 237.587C556.869 236.987 556.41 236.489 555.579 236.491L548.232 236.506L550.979 242.5C551.128 242.66 551.225 242.866 551.248 243.086L552.855 246.592C554.415 246.005 556.105 245.684 557.869 245.684C565.737 245.684 572.115 252.063 572.115 259.93L572.111 260.298C571.916 267.995 565.614 274.175 557.869 274.175C550.124 274.175 543.823 267.995 543.628 260.298L543.623 259.93C543.623 254.538 546.619 249.845 551.037 247.425L549.982 245.125L537.69 260.559C537.099 260.175 536.401 259.941 535.65 259.91L547.722 244.753L530.374 248.509L530.316 248.556L534.67 260.01C534.932 259.957 535.204 259.93 535.482 259.93C537.385 259.93 538.983 261.236 539.429 263.001H540.57C541.123 263.001 541.57 263.448 541.57 264.001C541.57 264.553 541.123 265.001 540.57 265.001H539.43C538.984 266.765 537.385 268.071 535.482 268.071L535.273 268.065C533.192 267.96 531.522 266.291 531.417 264.21L531.412 264.001C531.412 262.75 531.976 261.632 532.863 260.885L528.695 249.918L526.689 251.603C528.38 253.945 529.377 256.821 529.377 259.93L529.373 260.298C529.367 260.544 529.354 260.789 529.335 261.033L532.243 261.507C531.829 262.048 531.549 262.697 531.449 263.404L529.042 263.011C527.633 269.397 521.94 274.175 515.131 274.175C507.386 274.175 501.085 267.995 500.89 260.298L500.885 259.93C500.885 252.063 507.263 245.684 515.131 245.684C519.171 245.684 522.818 247.366 525.41 250.068L527.943 247.939L523.6 236.509H522.763C522.607 236.508 522.454 236.472 522.315 236.403L521.298 235.894C520.804 235.647 520.604 235.046 520.851 234.552ZM515.131 247.684C508.367 247.684 502.885 253.167 502.885 259.93C502.885 266.693 508.368 272.175 515.131 272.175C520.945 272.175 525.812 268.123 527.063 262.689L515.247 260.765C514.403 260.628 514.11 259.563 514.765 259.012L523.873 251.358C521.651 249.092 518.556 247.684 515.131 247.684ZM557.869 247.684C556.402 247.684 554.995 247.943 553.691 248.416L558.778 259.514C559.008 260.016 558.788 260.609 558.286 260.84C557.784 261.07 557.19 260.849 556.96 260.347L551.874 249.252C548.144 251.351 545.623 255.346 545.623 259.93C545.624 266.693 551.106 272.175 557.869 272.175C564.632 272.175 570.115 266.693 570.115 259.93C570.115 253.167 564.633 247.684 557.869 247.684ZM535.482 261.93C534.339 261.93 533.412 262.857 533.412 264.001C533.412 265.144 534.339 266.071 535.482 266.071C536.263 266.071 536.942 265.639 537.295 265.001H535.482C534.93 265.001 534.482 264.553 534.482 264.001C534.482 263.448 534.93 263.001 535.482 263.001H537.295C536.942 262.363 536.263 261.93 535.482 261.93ZM517.719 259.141L527.351 260.71C527.367 260.452 527.377 260.192 527.377 259.93C527.377 257.312 526.552 254.886 525.151 252.895L517.719 259.141Z" fill="black"/>
<path d="M520.851 234.552L519.956 234.105L519.956 234.105L520.851 234.552ZM522.192 234.105L522.64 233.211L522.64 233.211L522.192 234.105ZM522.999 234.509L522.552 235.403L522.763 235.509H522.999V234.509ZM526.833 234.509L526.833 233.509H526.833V234.509ZM527.833 235.509L528.833 235.509V235.508L527.833 235.509ZM526.833 236.509V237.509L526.833 237.509L526.833 236.509ZM525.738 236.509V235.509H524.288L524.804 236.864L525.738 236.509ZM529.589 246.641L528.654 246.997L529 247.906L529.919 247.585L529.589 246.641ZM529.709 246.608L529.497 245.631L529.497 245.631L529.709 246.608ZM548.771 242.48L548.982 243.458L550.198 243.194L549.68 242.064L548.771 242.48ZM545.767 235.926L544.857 236.343L544.858 236.343L545.767 235.926ZM545.834 234.97L544.992 234.431L544.992 234.431L545.834 234.97ZM546.674 234.509L546.672 233.509L546.672 233.509L546.674 234.509ZM555.575 234.491L555.577 235.491L555.577 235.491L555.575 234.491ZM558.869 237.587L559.869 237.587V237.587L558.869 237.587ZM553.799 241.065L553.799 242.065H553.799V241.065ZM552.799 240.065H551.799V240.066L552.799 240.065ZM553.799 239.065V238.065H553.799L553.799 239.065ZM556.869 237.587L557.869 237.587V237.586L556.869 237.587ZM555.579 236.491L555.581 237.491L555.581 237.491L555.579 236.491ZM548.232 236.506L548.23 235.506L546.676 235.509L547.323 236.922L548.232 236.506ZM550.979 242.5L550.07 242.916L550.137 243.062L550.246 243.179L550.979 242.5ZM551.248 243.086L550.254 243.191L550.271 243.354L550.339 243.502L551.248 243.086ZM552.855 246.592L551.946 247.008L552.335 247.856L553.207 247.528L552.855 246.592ZM557.869 245.684V244.684H557.869L557.869 245.684ZM572.115 259.93L573.115 259.941V259.93H572.115ZM572.111 260.298L573.111 260.323L573.111 260.316L573.111 260.308L572.111 260.298ZM557.869 274.175L557.869 275.175H557.869V274.175ZM543.628 260.298L542.628 260.311L542.628 260.323L543.628 260.298ZM543.623 259.93H542.623L542.623 259.944L543.623 259.93ZM551.037 247.425L551.517 248.303L552.334 247.855L551.946 247.009L551.037 247.425ZM549.982 245.125L550.891 244.708L550.214 243.229L549.2 244.502L549.982 245.125ZM537.69 260.559L537.146 261.398L537.907 261.892L538.473 261.182L537.69 260.559ZM535.65 259.91L534.868 259.287L533.641 260.827L535.609 260.909L535.65 259.91ZM547.722 244.753L548.504 245.376L550.251 243.182L547.51 243.775L547.722 244.753ZM530.374 248.509L530.162 247.531L529.923 247.583L529.735 247.739L530.374 248.509ZM530.316 248.556L529.678 247.787L529.128 248.244L529.382 248.912L530.316 248.556ZM534.67 260.01L533.735 260.366L534.037 261.159L534.868 260.991L534.67 260.01ZM535.482 259.93L535.482 258.93H535.482L535.482 259.93ZM539.429 263.001L538.459 263.246L538.65 264.001H539.429V263.001ZM541.57 264.001L542.57 264.001V264.001H541.57ZM539.43 265.001V264.001H538.651L538.46 264.756L539.43 265.001ZM535.482 268.071L535.454 269.071L535.468 269.071H535.482L535.482 268.071ZM535.273 268.065L535.223 269.064L535.234 269.064L535.245 269.065L535.273 268.065ZM531.417 264.21L530.417 264.233L530.418 264.247L530.418 264.26L531.417 264.21ZM531.412 264.001H530.412V264.012L530.412 264.024L531.412 264.001ZM532.863 260.885L533.507 261.651L534.05 261.194L533.798 260.53L532.863 260.885ZM528.695 249.918L529.63 249.562L529.13 248.246L528.052 249.152L528.695 249.918ZM526.689 251.603L526.046 250.838L525.335 251.435L525.879 252.188L526.689 251.603ZM529.377 259.93L530.377 259.941V259.93H529.377ZM529.373 260.298L530.373 260.323L530.373 260.316L530.373 260.308L529.373 260.298ZM529.335 261.033L528.338 260.957L528.268 261.872L529.174 262.02L529.335 261.033ZM532.243 261.507L533.038 262.114L534.051 260.788L532.404 260.52L532.243 261.507ZM531.449 263.404L531.288 264.391L532.297 264.555L532.439 263.543L531.449 263.404ZM529.042 263.011L529.203 262.024L528.269 261.872L528.065 262.796L529.042 263.011ZM515.131 274.175L515.131 275.175H515.131L515.131 274.175ZM500.89 260.298L499.89 260.311L499.89 260.323L500.89 260.298ZM500.885 259.93H499.885L499.885 259.944L500.885 259.93ZM515.131 245.684L515.131 244.684H515.131L515.131 245.684ZM525.41 250.068L524.689 250.76L525.337 251.436L526.054 250.834L525.41 250.068ZM527.943 247.939L528.587 248.705L529.13 248.248L528.878 247.584L527.943 247.939ZM523.6 236.509L524.534 236.153L524.289 235.509H523.6V236.509ZM522.763 236.509L522.763 237.509H522.763V236.509ZM522.315 236.403L521.868 237.297L521.868 237.297L522.315 236.403ZM521.298 235.894L520.851 236.789L520.851 236.789L521.298 235.894ZM515.131 247.684L515.131 246.684H515.131L515.131 247.684ZM502.885 259.93H501.885V259.93L502.885 259.93ZM515.131 272.175L515.131 273.175H515.131L515.131 272.175ZM527.063 262.689L528.038 262.914L528.278 261.874L527.224 261.702L527.063 262.689ZM515.247 260.765L515.086 261.752L515.086 261.752L515.247 260.765ZM514.765 259.012L515.408 259.778L515.408 259.778L514.765 259.012ZM523.873 251.358L524.516 252.124L525.343 251.429L524.587 250.658L523.873 251.358ZM557.869 247.684V246.684H557.869L557.869 247.684ZM553.691 248.416L553.35 247.476L552.33 247.846L552.782 248.832L553.691 248.416ZM558.778 259.514L559.687 259.098L559.687 259.098L558.778 259.514ZM558.286 260.84L558.703 261.749L558.703 261.748L558.286 260.84ZM556.96 260.347L556.051 260.764L556.051 260.764L556.96 260.347ZM551.874 249.252L552.783 248.835L552.33 247.847L551.384 248.38L551.874 249.252ZM545.623 259.93H544.623V259.93L545.623 259.93ZM557.869 272.175L557.869 273.175H557.869V272.175ZM570.115 259.93L571.115 259.93V259.93H570.115ZM535.482 261.93L535.482 260.93H535.482L535.482 261.93ZM533.412 264.001H532.412V264.001L533.412 264.001ZM535.482 266.071L535.482 267.071H535.482L535.482 266.071ZM537.295 265.001L538.17 265.485L538.991 264.001H537.295V265.001ZM535.482 265.001L535.482 266.001H535.482V265.001ZM534.482 264.001H533.482V264.001L534.482 264.001ZM535.482 263.001V262.001H535.482L535.482 263.001ZM537.295 263.001V264.001H538.99L538.17 262.517L537.295 263.001ZM517.719 259.141L517.075 258.376L515.407 259.778L517.558 260.128L517.719 259.141ZM527.351 260.71L527.19 261.697L528.279 261.874L528.349 260.772L527.351 260.71ZM527.377 259.93L528.377 259.93V259.93H527.377ZM525.151 252.895L525.969 252.32L525.342 251.428L524.508 252.13L525.151 252.895ZM520.851 234.552L521.745 235L521.745 235L522.192 234.105L522.64 233.211C521.651 232.717 520.45 233.118 519.956 234.105L520.851 234.552ZM522.192 234.105L521.745 235L522.552 235.403L522.999 234.509L523.446 233.614L522.64 233.211L522.192 234.105ZM522.999 234.509V235.509H526.833V234.509V233.509H522.999V234.509ZM526.833 234.509L526.833 235.509L526.833 235.509L527.833 235.509L528.833 235.508C528.832 234.404 527.938 233.509 526.833 233.509L526.833 234.509ZM527.833 235.509L526.833 235.508L526.833 235.509L526.833 236.509L526.833 237.509C527.937 237.508 528.833 236.613 528.833 235.509L527.833 235.509ZM526.833 236.509V235.509H525.738V236.509V237.509H526.833V236.509ZM525.738 236.509L524.804 236.864L528.654 246.997L529.589 246.641L530.524 246.286L526.673 236.153L525.738 236.509ZM529.589 246.641L529.919 247.585C529.914 247.587 529.912 247.588 529.912 247.587C529.913 247.587 529.916 247.587 529.921 247.585L529.709 246.608L529.497 245.631C529.427 245.646 529.346 245.667 529.259 245.697L529.589 246.641ZM529.709 246.608L529.921 247.585L548.982 243.458L548.771 242.48L548.559 241.503L529.497 245.631L529.709 246.608ZM548.771 242.48L549.68 242.064L546.676 235.51L545.767 235.926L544.858 236.343L547.861 242.897L548.771 242.48ZM545.767 235.926L546.676 235.51L546.676 235.509L545.834 234.97L544.992 234.431C544.626 235.003 544.574 235.724 544.857 236.343L545.767 235.926ZM545.834 234.97L546.676 235.51L546.676 235.509L546.674 234.509L546.672 233.509C545.991 233.511 545.358 233.859 544.992 234.431L545.834 234.97ZM546.674 234.509L546.676 235.509L555.577 235.491L555.575 234.491L555.573 233.491L546.672 233.509L546.674 234.509ZM555.575 234.491L555.577 235.491C556.854 235.488 557.869 236.332 557.869 237.587L558.869 237.587L559.869 237.587C559.869 234.982 557.695 233.486 555.573 233.491L555.575 234.491ZM558.869 237.587L557.869 237.587C557.869 238.859 556.836 240.065 555.582 240.065V241.065V242.065C558.158 242.065 559.869 239.734 559.869 237.587L558.869 237.587ZM555.582 241.065V240.065H553.799V241.065V242.065H555.582V241.065ZM553.799 241.065L553.799 240.065L553.799 240.065L552.799 240.065L551.799 240.066C551.799 241.169 552.694 242.065 553.799 242.065L553.799 241.065ZM552.799 240.065H553.799H553.799L553.799 239.065L553.799 238.065C552.694 238.065 551.799 238.96 551.799 240.065H552.799ZM553.799 239.065V240.065H555.582V239.065V238.065H553.799V239.065ZM555.582 239.065V240.065C556.237 240.065 556.809 239.725 557.192 239.308C557.586 238.877 557.869 238.273 557.869 237.587L556.869 237.587L555.869 237.586C555.869 237.716 555.814 237.851 555.718 237.956C555.609 238.074 555.538 238.065 555.582 238.065V239.065ZM556.869 237.587L557.869 237.586C557.869 237.022 557.648 236.474 557.209 236.074C556.772 235.676 556.193 235.49 555.577 235.491L555.579 236.491L555.581 237.491C555.795 237.49 555.861 237.552 555.862 237.552C555.863 237.554 555.864 237.554 555.864 237.555C555.865 237.555 555.865 237.555 555.865 237.555C555.865 237.555 555.865 237.555 555.865 237.555C555.865 237.555 555.865 237.555 555.865 237.555C555.865 237.555 555.865 237.555 555.865 237.555C555.865 237.555 555.865 237.555 555.865 237.556C555.865 237.556 555.869 237.565 555.869 237.587L556.869 237.587ZM555.579 236.491L555.577 235.491L548.23 235.506L548.232 236.506L548.234 237.506L555.581 237.491L555.579 236.491ZM548.232 236.506L547.323 236.922L550.07 242.916L550.979 242.5L551.889 242.083L549.142 236.089L548.232 236.506ZM550.979 242.5L550.246 243.179C550.249 243.183 550.251 243.186 550.253 243.189C550.254 243.192 550.254 243.193 550.254 243.191L551.248 243.086L552.242 242.98C552.196 242.538 552.003 242.133 551.713 241.82L550.979 242.5ZM551.248 243.086L550.339 243.502L551.946 247.008L552.855 246.592L553.764 246.175L552.157 242.669L551.248 243.086ZM552.855 246.592L553.207 247.528C554.656 246.983 556.227 246.684 557.869 246.684L557.869 245.684L557.869 244.684C555.983 244.684 554.174 245.027 552.503 245.656L552.855 246.592ZM557.869 245.684V246.684C565.185 246.684 571.115 252.615 571.115 259.93H572.115H573.115C573.115 251.51 566.289 244.684 557.869 244.684V245.684ZM572.115 259.93L571.115 259.92L571.111 260.287L572.111 260.298L573.111 260.308L573.115 259.941L572.115 259.93ZM572.111 260.298L571.112 260.272C570.93 267.429 565.07 273.175 557.869 273.175V274.175V275.175C566.158 275.175 572.902 268.561 573.111 260.323L572.111 260.298ZM557.869 274.175L557.869 273.175C550.668 273.175 544.809 267.429 544.628 260.272L543.628 260.298L542.628 260.323C542.837 268.561 549.58 275.175 557.869 275.175L557.869 274.175ZM543.628 260.298L544.628 260.284L544.623 259.917L543.623 259.93L542.623 259.944L542.628 260.311L543.628 260.298ZM543.623 259.93H544.623C544.623 254.918 547.407 250.553 551.517 248.303L551.037 247.425L550.557 246.548C545.831 249.136 542.623 254.158 542.623 259.93H543.623ZM551.037 247.425L551.946 247.009L550.891 244.708L549.982 245.125L549.073 245.541L550.128 247.842L551.037 247.425ZM549.982 245.125L549.2 244.502L536.908 259.936L537.69 260.559L538.473 261.182L550.765 245.748L549.982 245.125ZM537.69 260.559L538.235 259.72C537.497 259.242 536.626 258.949 535.692 258.911L535.65 259.91L535.609 260.909C536.175 260.932 536.7 261.109 537.146 261.398L537.69 260.559ZM535.65 259.91L536.433 260.533L548.504 245.376L547.722 244.753L546.939 244.13L534.868 259.287L535.65 259.91ZM547.722 244.753L547.51 243.775L530.162 247.531L530.374 248.509L530.586 249.486L547.933 245.73L547.722 244.753ZM530.374 248.509L529.735 247.739L529.678 247.787L530.316 248.556L530.955 249.326L531.013 249.278L530.374 248.509ZM530.316 248.556L529.382 248.912L533.735 260.366L534.67 260.01L535.605 259.655L531.251 248.201L530.316 248.556ZM534.67 260.01L534.868 260.991C535.064 260.951 535.269 260.93 535.482 260.93L535.482 259.93L535.482 258.93C535.14 258.93 534.801 258.964 534.471 259.03L534.67 260.01ZM535.482 259.93L535.482 260.93C536.916 260.93 538.123 261.914 538.459 263.246L539.429 263.001L540.398 262.756C539.843 260.558 537.854 258.93 535.482 258.93L535.482 259.93ZM539.429 263.001V264.001H540.57V263.001V262.001H539.429V263.001ZM540.57 263.001V264.001H541.57H542.57C542.57 262.896 541.675 262.001 540.57 262.001V263.001ZM541.57 264.001L540.57 264.001V264.001V265.001V266.001C541.675 266.001 542.57 265.105 542.57 264.001L541.57 264.001ZM540.57 265.001V264.001H539.43V265.001V266.001H540.57V265.001ZM539.43 265.001L538.46 264.756C538.124 266.087 536.917 267.071 535.482 267.071L535.482 268.071L535.482 269.071C537.854 269.071 539.844 267.443 540.399 265.246L539.43 265.001ZM535.482 268.071L535.51 267.071L535.301 267.066L535.273 268.065L535.245 269.065L535.454 269.071L535.482 268.071ZM535.273 268.065L535.324 267.066C533.755 266.987 532.495 265.728 532.416 264.159L531.417 264.21L530.418 264.26C530.55 266.854 532.629 268.933 535.223 269.064L535.273 268.065ZM531.417 264.21L532.417 264.186L532.412 263.977L531.412 264.001L530.412 264.024L530.417 264.233L531.417 264.21ZM531.412 264.001H532.412C532.412 263.058 532.836 262.215 533.507 261.651L532.863 260.885L532.219 260.12C531.116 261.049 530.412 262.443 530.412 264.001H531.412ZM532.863 260.885L533.798 260.53L529.63 249.562L528.695 249.918L527.761 250.273L531.929 261.241L532.863 260.885ZM528.695 249.918L528.052 249.152L526.046 250.838L526.689 251.603L527.333 252.369L529.339 250.683L528.695 249.918ZM526.689 251.603L525.879 252.188C527.45 254.366 528.377 257.039 528.377 259.93H529.377H530.377C530.377 256.604 529.309 253.525 527.5 251.018L526.689 251.603ZM529.377 259.93L528.377 259.92L528.373 260.287L529.373 260.298L530.373 260.308L530.377 259.941L529.377 259.93ZM529.373 260.298L528.373 260.272C528.368 260.5 528.355 260.728 528.338 260.957L529.335 261.033L530.332 261.109C530.352 260.851 530.366 260.588 530.373 260.323L529.373 260.298ZM529.335 261.033L529.174 262.02L532.082 262.494L532.243 261.507L532.404 260.52L529.496 260.046L529.335 261.033ZM532.243 261.507L531.449 260.899C530.933 261.574 530.583 262.383 530.459 263.265L531.449 263.404L532.439 263.543C532.514 263.011 532.726 262.522 533.038 262.114L532.243 261.507ZM531.449 263.404L531.61 262.417L529.203 262.024L529.042 263.011L528.881 263.998L531.288 264.391L531.449 263.404ZM529.042 263.011L528.065 262.796C526.756 268.733 521.461 273.175 515.131 273.175L515.131 274.175L515.131 275.175C522.42 275.175 528.511 270.061 530.019 263.227L529.042 263.011ZM515.131 274.175L515.131 273.175C507.93 273.175 502.071 267.429 501.889 260.272L500.89 260.298L499.89 260.323C500.099 268.561 506.842 275.175 515.131 275.175L515.131 274.175ZM500.89 260.298L501.89 260.284L501.885 259.917L500.885 259.93L499.885 259.944L499.89 260.311L500.89 260.298ZM500.885 259.93H501.885C501.885 252.615 507.815 246.684 515.131 246.684L515.131 245.684L515.131 244.684C506.711 244.684 499.885 251.511 499.885 259.93H500.885ZM515.131 245.684L515.131 246.684C518.887 246.684 522.277 248.247 524.689 250.76L525.41 250.068L526.132 249.376C523.358 246.486 519.454 244.684 515.131 244.684L515.131 245.684ZM525.41 250.068L526.054 250.834L528.587 248.705L527.943 247.939L527.3 247.174L524.767 249.303L525.41 250.068ZM527.943 247.939L528.878 247.584L524.534 236.153L523.6 236.509L522.665 236.864L527.009 248.294L527.943 247.939ZM523.6 236.509V235.509H522.763V236.509V237.509H523.6V236.509ZM522.763 236.509L522.763 235.509L522.763 235.509L522.315 236.403L521.868 237.297C522.146 237.437 522.453 237.508 522.763 237.509L522.763 236.509ZM522.315 236.403L522.763 235.509L521.745 235L521.298 235.894L520.851 236.789L521.868 237.297L522.315 236.403ZM521.298 235.894L521.745 235L521.745 235L520.851 234.552L519.956 234.105C519.462 235.093 519.863 236.295 520.851 236.789L521.298 235.894ZM515.131 247.684L515.131 246.684C507.815 246.684 501.885 252.615 501.885 259.93H502.885H503.885C503.885 253.72 508.92 248.684 515.131 248.684L515.131 247.684ZM502.885 259.93L501.885 259.93C501.885 267.245 507.815 273.175 515.131 273.175L515.131 272.175L515.131 271.175C508.92 271.175 503.885 266.141 503.885 259.93L502.885 259.93ZM515.131 272.175L515.131 273.175C521.421 273.175 526.684 268.791 528.038 262.914L527.063 262.689L526.089 262.465C524.94 267.455 520.469 271.175 515.131 271.175L515.131 272.175ZM527.063 262.689L527.224 261.702L515.408 259.778L515.247 260.765L515.086 261.752L526.903 263.676L527.063 262.689ZM515.247 260.765L515.408 259.778L515.408 259.778L514.765 259.012L514.121 258.247C512.812 259.347 513.398 261.477 515.086 261.752L515.247 260.765ZM514.765 259.012L515.408 259.778L524.516 252.124L523.873 251.358L523.23 250.593L514.121 258.247L514.765 259.012ZM523.873 251.358L524.587 250.658C522.185 248.208 518.836 246.684 515.131 246.684L515.131 247.684L515.131 248.684C518.276 248.684 521.117 249.975 523.159 252.058L523.873 251.358ZM557.869 247.684L557.869 246.684C556.284 246.684 554.762 246.963 553.35 247.476L553.691 248.416L554.033 249.356C555.229 248.922 556.52 248.684 557.869 248.684L557.869 247.684ZM553.691 248.416L552.782 248.832L557.869 259.931L558.778 259.514L559.687 259.098L554.6 247.999L553.691 248.416ZM558.778 259.514L557.869 259.931L557.869 259.931L558.286 260.84L558.703 261.748C559.706 261.288 560.147 260.102 559.687 259.098L558.778 259.514ZM558.286 260.84L557.87 259.93L557.869 259.931L556.96 260.347L556.051 260.764C556.512 261.769 557.699 262.208 558.703 261.749L558.286 260.84ZM556.96 260.347L557.869 259.931L552.783 248.835L551.874 249.252L550.965 249.668L556.051 260.764L556.96 260.347ZM551.874 249.252L551.384 248.38C547.352 250.649 544.623 254.97 544.623 259.93H545.623H546.623C546.623 255.722 548.936 252.052 552.364 250.123L551.874 249.252ZM545.623 259.93L544.623 259.93C544.624 267.245 550.554 273.175 557.869 273.175L557.869 272.175L557.869 271.175C551.658 271.175 546.623 266.141 546.623 259.93L545.623 259.93ZM557.869 272.175V273.175C565.185 273.175 571.115 267.245 571.115 259.93L570.115 259.93L569.115 259.93C569.115 266.141 564.08 271.175 557.869 271.175V272.175ZM570.115 259.93H571.115C571.115 252.615 565.185 246.684 557.869 246.684V247.684V248.684C564.08 248.684 569.115 253.72 569.115 259.93H570.115ZM535.482 261.93L535.482 260.93C533.787 260.93 532.412 262.305 532.412 264.001H533.412H534.412C534.412 263.41 534.891 262.93 535.482 262.93L535.482 261.93ZM533.412 264.001L532.412 264.001C532.412 265.696 533.787 267.071 535.482 267.071L535.482 266.071L535.482 265.071C534.892 265.071 534.412 264.592 534.412 264.001L533.412 264.001ZM535.482 266.071L535.482 267.071C536.642 267.071 537.649 266.427 538.17 265.485L537.295 265.001L536.42 264.517C536.236 264.85 535.884 265.071 535.482 265.071L535.482 266.071ZM537.295 265.001V264.001H535.482V265.001V266.001H537.295V265.001ZM535.482 265.001L535.482 264.001L535.482 264.001L534.482 264.001L533.482 264.001C533.483 265.105 534.378 266.001 535.482 266.001L535.482 265.001ZM534.482 264.001H535.482H535.482L535.482 263.001L535.482 262.001C534.378 262.001 533.482 262.896 533.482 264.001H534.482ZM535.482 263.001V264.001H537.295V263.001V262.001H535.482V263.001ZM537.295 263.001L538.17 262.517C537.649 261.574 536.642 260.93 535.482 260.93L535.482 261.93L535.482 262.93C535.884 262.93 536.236 263.152 536.42 263.484L537.295 263.001ZM517.719 259.141L517.558 260.128L527.19 261.697L527.351 260.71L527.511 259.723L517.879 258.154L517.719 259.141ZM527.351 260.71L528.349 260.772C528.366 260.499 528.377 260.218 528.377 259.93L527.377 259.93L526.377 259.93C526.377 260.167 526.368 260.405 526.353 260.647L527.351 260.71ZM527.377 259.93H528.377C528.377 257.098 527.484 254.473 525.969 252.32L525.151 252.895L524.333 253.47C525.62 255.299 526.377 257.525 526.377 259.93H527.377ZM525.151 252.895L524.508 252.13L517.075 258.376L517.719 259.141L518.362 259.907L525.795 253.661L525.151 252.895Z" fill="black"/>
<path d="M510.999 317.024H504.711L503.703 320H499.407L505.503 303.152H510.255L516.351 320H512.007L510.999 317.024ZM509.943 313.856L507.855 307.688L505.791 313.856H509.943ZM510.663 299.36V302.192L504.879 299.768V296.576L510.663 299.36ZM529.317 316.16L532.221 306.608H536.589L531.837 320H526.773L522.021 306.608H526.413L529.317 316.16ZM550.94 313.088C550.94 313.472 550.916 313.872 550.868 314.288H541.58C541.644 315.12 541.908 315.76 542.372 316.208C542.852 316.64 543.436 316.856 544.124 316.856C545.148 316.856 545.86 316.424 546.26 315.56H550.628C550.404 316.44 549.996 317.232 549.404 317.936C548.828 318.64 548.1 319.192 547.22 319.592C546.34 319.992 545.356 320.192 544.268 320.192C542.956 320.192 541.788 319.912 540.764 319.352C539.74 318.792 538.94 317.992 538.364 316.952C537.788 315.912 537.5 314.696 537.5 313.304C537.5 311.912 537.78 310.696 538.34 309.656C538.916 308.616 539.716 307.816 540.74 307.256C541.764 306.696 542.94 306.416 544.268 306.416C545.564 306.416 546.716 306.688 547.724 307.232C548.732 307.776 549.516 308.552 550.076 309.56C550.652 310.568 550.94 311.744 550.94 313.088ZM546.74 312.008C546.74 311.304 546.5 310.744 546.02 310.328C545.54 309.912 544.94 309.704 544.22 309.704C543.532 309.704 542.948 309.904 542.468 310.304C542.004 310.704 541.716 311.272 541.604 312.008H546.74ZM547.028 303.176L541.244 305.6V302.768L547.028 299.984V303.176ZM557.209 302.24V320H553.105V302.24H557.209ZM566.279 320.192C564.967 320.192 563.783 319.912 562.727 319.352C561.687 318.792 560.863 317.992 560.255 316.952C559.663 315.912 559.367 314.696 559.367 313.304C559.367 311.928 559.671 310.72 560.279 309.68C560.887 308.624 561.719 307.816 562.775 307.256C563.831 306.696 565.015 306.416 566.327 306.416C567.639 306.416 568.823 306.696 569.879 307.256C570.935 307.816 571.767 308.624 572.375 309.68C572.983 310.72 573.287 311.928 573.287 313.304C573.287 314.68 572.975 315.896 572.351 316.952C571.743 317.992 570.903 318.792 569.831 319.352C568.775 319.912 567.591 320.192 566.279 320.192ZM566.279 316.64C567.063 316.64 567.727 316.352 568.271 315.776C568.831 315.2 569.111 314.376 569.111 313.304C569.111 312.232 568.839 311.408 568.295 310.832C567.767 310.256 567.111 309.968 566.327 309.968C565.527 309.968 564.863 310.256 564.335 310.832C563.807 311.392 563.543 312.216 563.543 313.304C563.543 314.376 563.799 315.2 564.311 315.776C564.839 316.352 565.495 316.64 566.279 316.64Z" fill="black"/>
<path d="M238.188 346.138C244.724 325.093 227.707 303.146 197.419 306.305C175.037 308.662 151.736 322.419 156.667 346.138C161.147 367.684 175.839 387.057 197.419 385.954C222.108 384.7 231.017 369.188 238.171 346.138" fill="#E1FB41"/>
<path d="M210 326H186C184.409 326 182.883 326.632 181.757 327.757C180.632 328.883 180 330.409 180 332V356C180.003 357.238 180.39 358.444 181.106 359.454C181.822 360.464 182.833 361.227 184 361.64V364C184 364.53 184.211 365.039 184.586 365.414C184.961 365.789 185.47 366 186 366C186.53 366 187.039 365.789 187.414 365.414C187.789 365.039 188 364.53 188 364V362H208V364C208 364.53 208.211 365.039 208.586 365.414C208.961 365.789 209.47 366 210 366C210.53 366 211.039 365.789 211.414 365.414C211.789 365.039 212 364.53 212 364V361.64C213.167 361.227 214.178 360.464 214.894 359.454C215.61 358.444 215.997 357.238 216 356V332C216 330.409 215.368 328.883 214.243 327.757C213.117 326.632 211.591 326 210 326ZM184 338H196V346H184V338ZM212 356C212 356.53 211.789 357.039 211.414 357.414C211.039 357.789 210.53 358 210 358H186C185.47 358 184.961 357.789 184.586 357.414C184.211 357.039 184 356.53 184 356V350H212V356ZM212 346H200V338H212V346ZM212 334H184V332C184 331.47 184.211 330.961 184.586 330.586C184.961 330.211 185.47 330 186 330H210C210.53 330 211.039 330.211 211.414 330.586C211.789 330.961 212 331.47 212 332V334ZM205.24 355.84C205.48 355.942 205.739 355.997 206 356C206.53 356 207.039 355.789 207.414 355.414C207.789 355.039 208 354.53 208 354C208.01 353.867 208.01 353.733 208 353.6C207.978 353.475 207.938 353.353 207.88 353.24C207.836 353.113 207.776 352.991 207.7 352.88C207.626 352.775 207.546 352.675 207.46 352.58L207.16 352.34C207.049 352.264 206.927 352.204 206.8 352.16C206.677 352.084 206.541 352.03 206.4 352C206.076 351.932 205.74 351.946 205.422 352.04C205.104 352.135 204.815 352.306 204.58 352.54C204.494 352.635 204.414 352.735 204.34 352.84C204.264 352.951 204.204 353.073 204.16 353.2C204.102 353.313 204.062 353.435 204.04 353.56C204.03 353.693 204.03 353.827 204.04 353.96C204.042 354.485 204.251 354.987 204.62 355.36C204.793 355.559 205.004 355.722 205.24 355.84ZM189.24 355.84C189.48 355.942 189.739 355.997 190 356C190.53 356 191.039 355.789 191.414 355.414C191.789 355.039 192 354.53 192 354C192.01 353.867 192.01 353.733 192 353.6C191.978 353.475 191.938 353.353 191.88 353.24C191.836 353.113 191.776 352.991 191.7 352.88C191.626 352.775 191.546 352.675 191.46 352.58L191.16 352.34L190.8 352.16L190.4 352C190.076 351.932 189.74 351.946 189.422 352.04C189.104 352.135 188.815 352.306 188.58 352.54C188.494 352.635 188.414 352.735 188.34 352.84C188.264 352.951 188.204 353.073 188.16 353.2C188.102 353.313 188.062 353.435 188.04 353.56C188.03 353.693 188.03 353.827 188.04 353.96C188.042 354.485 188.251 354.987 188.62 355.36C188.793 355.559 189.004 355.722 189.24 355.84Z" fill="black"/>
<path d="M143.979 395.152V398.44H139.515V412H135.411V398.44H130.947V395.152H143.979ZM150.143 400.84C150.623 400.104 151.223 399.528 151.943 399.112C152.663 398.68 153.463 398.464 154.343 398.464V402.808H153.215C152.191 402.808 151.423 403.032 150.911 403.48C150.399 403.912 150.143 404.68 150.143 405.784V412H146.039V398.608H150.143V400.84ZM155.488 405.28C155.488 403.904 155.744 402.696 156.256 401.656C156.784 400.616 157.496 399.816 158.392 399.256C159.288 398.696 160.288 398.416 161.392 398.416C162.336 398.416 163.16 398.608 163.864 398.992C164.584 399.376 165.136 399.88 165.52 400.504V398.608H169.624V412H165.52V410.104C165.12 410.728 164.56 411.232 163.84 411.616C163.136 412 162.312 412.192 161.368 412.192C160.28 412.192 159.288 411.912 158.392 411.352C157.496 410.776 156.784 409.968 156.256 408.928C155.744 407.872 155.488 406.656 155.488 405.28ZM165.52 405.304C165.52 404.28 165.232 403.472 164.656 402.88C164.096 402.288 163.408 401.992 162.592 401.992C161.776 401.992 161.08 402.288 160.504 402.88C159.944 403.456 159.664 404.256 159.664 405.28C159.664 406.304 159.944 407.12 160.504 407.728C161.08 408.32 161.776 408.616 162.592 408.616C163.408 408.616 164.096 408.32 164.656 407.728C165.232 407.136 165.52 406.328 165.52 405.304ZM180.753 398.464C182.321 398.464 183.569 398.976 184.497 400C185.441 401.008 185.913 402.4 185.913 404.176V412H181.833V404.728C181.833 403.832 181.601 403.136 181.137 402.64C180.673 402.144 180.049 401.896 179.265 401.896C178.481 401.896 177.857 402.144 177.393 402.64C176.929 403.136 176.697 403.832 176.697 404.728V412H172.593V398.608H176.697V400.384C177.113 399.792 177.673 399.328 178.377 398.992C179.081 398.64 179.873 398.464 180.753 398.464ZM194.213 412.192C193.045 412.192 192.005 411.992 191.093 411.592C190.181 411.192 189.461 410.648 188.933 409.96C188.405 409.256 188.109 408.472 188.045 407.608H192.101C192.149 408.072 192.365 408.448 192.749 408.736C193.133 409.024 193.605 409.168 194.165 409.168C194.677 409.168 195.069 409.072 195.341 408.88C195.629 408.672 195.773 408.408 195.773 408.088C195.773 407.704 195.573 407.424 195.173 407.248C194.773 407.056 194.125 406.848 193.229 406.624C192.269 406.4 191.469 406.168 190.829 405.928C190.189 405.672 189.637 405.28 189.173 404.752C188.709 404.208 188.477 403.48 188.477 402.568C188.477 401.8 188.685 401.104 189.101 400.48C189.533 399.84 190.157 399.336 190.973 398.968C191.805 398.6 192.789 398.416 193.925 398.416C195.605 398.416 196.925 398.832 197.885 399.664C198.861 400.496 199.421 401.6 199.565 402.976H195.773C195.709 402.512 195.501 402.144 195.149 401.872C194.813 401.6 194.365 401.464 193.805 401.464C193.325 401.464 192.957 401.56 192.701 401.752C192.445 401.928 192.317 402.176 192.317 402.496C192.317 402.88 192.517 403.168 192.917 403.36C193.333 403.552 193.973 403.744 194.837 403.936C195.829 404.192 196.637 404.448 197.261 404.704C197.885 404.944 198.429 405.344 198.893 405.904C199.373 406.448 199.621 407.184 199.637 408.112C199.637 408.896 199.413 409.6 198.965 410.224C198.533 410.832 197.901 411.312 197.069 411.664C196.253 412.016 195.301 412.192 194.213 412.192ZM206.252 400.504C206.652 399.88 207.204 399.376 207.908 398.992C208.612 398.608 209.436 398.416 210.38 398.416C211.484 398.416 212.484 398.696 213.38 399.256C214.276 399.816 214.98 400.616 215.492 401.656C216.02 402.696 216.284 403.904 216.284 405.28C216.284 406.656 216.02 407.872 215.492 408.928C214.98 409.968 214.276 410.776 213.38 411.352C212.484 411.912 211.484 412.192 210.38 412.192C209.452 412.192 208.628 412 207.908 411.616C207.204 411.232 206.652 410.736 206.252 410.128V418.384H202.148V398.608H206.252V400.504ZM212.108 405.28C212.108 404.256 211.82 403.456 211.244 402.88C210.684 402.288 209.988 401.992 209.156 401.992C208.34 401.992 207.644 402.288 207.068 402.88C206.508 403.472 206.228 404.28 206.228 405.304C206.228 406.328 206.508 407.136 207.068 407.728C207.644 408.32 208.34 408.616 209.156 408.616C209.972 408.616 210.668 408.32 211.244 407.728C211.82 407.12 212.108 406.304 212.108 405.28ZM224.533 412.192C223.221 412.192 222.037 411.912 220.981 411.352C219.941 410.792 219.117 409.992 218.509 408.952C217.917 407.912 217.621 406.696 217.621 405.304C217.621 403.928 217.925 402.72 218.533 401.68C219.141 400.624 219.973 399.816 221.029 399.256C222.085 398.696 223.269 398.416 224.581 398.416C225.893 398.416 227.077 398.696 228.133 399.256C229.189 399.816 230.021 400.624 230.629 401.68C231.237 402.72 231.541 403.928 231.541 405.304C231.541 406.68 231.229 407.896 230.605 408.952C229.997 409.992 229.157 410.792 228.085 411.352C227.029 411.912 225.845 412.192 224.533 412.192ZM224.533 408.64C225.317 408.64 225.981 408.352 226.525 407.776C227.085 407.2 227.365 406.376 227.365 405.304C227.365 404.232 227.093 403.408 226.549 402.832C226.021 402.256 225.365 401.968 224.581 401.968C223.781 401.968 223.117 402.256 222.589 402.832C222.061 403.392 221.797 404.216 221.797 405.304C221.797 406.376 222.053 407.2 222.565 407.776C223.093 408.352 223.749 408.64 224.533 408.64ZM237.822 400.84C238.302 400.104 238.902 399.528 239.622 399.112C240.342 398.68 241.142 398.464 242.022 398.464V402.808H240.894C239.87 402.808 239.102 403.032 238.59 403.48C238.078 403.912 237.822 404.68 237.822 405.784V412H233.718V398.608H237.822V400.84ZM251.448 408.52V412H249.36C247.872 412 246.712 411.64 245.88 410.92C245.048 410.184 244.632 408.992 244.632 407.344V402.016H243V398.608H244.632V395.344H248.736V398.608H251.424V402.016H248.736V407.392C248.736 407.792 248.832 408.08 249.024 408.256C249.216 408.432 249.536 408.52 249.984 408.52H251.448ZM259.182 412.192C258.014 412.192 256.974 411.992 256.062 411.592C255.15 411.192 254.43 410.648 253.902 409.96C253.374 409.256 253.078 408.472 253.014 407.608H257.07C257.118 408.072 257.334 408.448 257.718 408.736C258.102 409.024 258.574 409.168 259.134 409.168C259.646 409.168 260.038 409.072 260.31 408.88C260.598 408.672 260.742 408.408 260.742 408.088C260.742 407.704 260.542 407.424 260.142 407.248C259.742 407.056 259.094 406.848 258.198 406.624C257.238 406.4 256.438 406.168 255.798 405.928C255.158 405.672 254.606 405.28 254.142 404.752C253.678 404.208 253.446 403.48 253.446 402.568C253.446 401.8 253.654 401.104 254.07 400.48C254.502 399.84 255.126 399.336 255.942 398.968C256.774 398.6 257.758 398.416 258.894 398.416C260.574 398.416 261.894 398.832 262.854 399.664C263.83 400.496 264.39 401.6 264.534 402.976H260.742C260.678 402.512 260.47 402.144 260.118 401.872C259.782 401.6 259.334 401.464 258.774 401.464C258.294 401.464 257.926 401.56 257.67 401.752C257.414 401.928 257.286 402.176 257.286 402.496C257.286 402.88 257.486 403.168 257.886 403.36C258.302 403.552 258.942 403.744 259.806 403.936C260.798 404.192 261.606 404.448 262.23 404.704C262.854 404.944 263.398 405.344 263.862 405.904C264.342 406.448 264.59 407.184 264.606 408.112C264.606 408.896 264.382 409.6 263.934 410.224C263.502 410.832 262.87 411.312 262.038 411.664C261.222 412.016 260.27 412.192 259.182 412.192ZM137.604 441.088C137.604 441.472 137.58 441.872 137.532 442.288H128.244C128.308 443.12 128.572 443.76 129.036 444.208C129.516 444.64 130.1 444.856 130.788 444.856C131.812 444.856 132.524 444.424 132.924 443.56H137.292C137.068 444.44 136.66 445.232 136.068 445.936C135.492 446.64 134.764 447.192 133.884 447.592C133.004 447.992 132.02 448.192 130.932 448.192C129.62 448.192 128.452 447.912 127.428 447.352C126.404 446.792 125.604 445.992 125.028 444.952C124.452 443.912 124.164 442.696 124.164 441.304C124.164 439.912 124.444 438.696 125.004 437.656C125.58 436.616 126.38 435.816 127.404 435.256C128.428 434.696 129.604 434.416 130.932 434.416C132.228 434.416 133.38 434.688 134.388 435.232C135.396 435.776 136.18 436.552 136.74 437.56C137.316 438.568 137.604 439.744 137.604 441.088ZM133.404 440.008C133.404 439.304 133.164 438.744 132.684 438.328C132.204 437.912 131.604 437.704 130.884 437.704C130.196 437.704 129.612 437.904 129.132 438.304C128.668 438.704 128.38 439.272 128.268 440.008H133.404ZM147.929 434.464C149.497 434.464 150.745 434.976 151.673 436C152.617 437.008 153.089 438.4 153.089 440.176V448H149.009V440.728C149.009 439.832 148.777 439.136 148.313 438.64C147.849 438.144 147.225 437.896 146.441 437.896C145.657 437.896 145.033 438.144 144.569 438.64C144.105 439.136 143.873 439.832 143.873 440.728V448H139.769V434.608H143.873V436.384C144.289 435.792 144.849 435.328 145.553 434.992C146.257 434.64 147.049 434.464 147.929 434.464ZM160.211 441.304C160.211 439.912 160.491 438.696 161.051 437.656C161.627 436.616 162.419 435.816 163.427 435.256C164.451 434.696 165.619 434.416 166.931 434.416C168.611 434.416 170.011 434.856 171.131 435.736C172.267 436.616 173.011 437.856 173.363 439.456H168.995C168.627 438.432 167.915 437.92 166.859 437.92C166.107 437.92 165.507 438.216 165.059 438.808C164.611 439.384 164.387 440.216 164.387 441.304C164.387 442.392 164.611 443.232 165.059 443.824C165.507 444.4 166.107 444.688 166.859 444.688C167.915 444.688 168.627 444.176 168.995 443.152H173.363C173.011 444.72 172.267 445.952 171.131 446.848C169.995 447.744 168.595 448.192 166.931 448.192C165.619 448.192 164.451 447.912 163.427 447.352C162.419 446.792 161.627 445.992 161.051 444.952C160.491 443.912 160.211 442.696 160.211 441.304ZM181.654 448.192C180.342 448.192 179.158 447.912 178.102 447.352C177.062 446.792 176.238 445.992 175.63 444.952C175.038 443.912 174.742 442.696 174.742 441.304C174.742 439.928 175.046 438.72 175.654 437.68C176.262 436.624 177.094 435.816 178.15 435.256C179.206 434.696 180.39 434.416 181.702 434.416C183.014 434.416 184.198 434.696 185.254 435.256C186.31 435.816 187.142 436.624 187.75 437.68C188.358 438.72 188.662 439.928 188.662 441.304C188.662 442.68 188.35 443.896 187.726 444.952C187.118 445.992 186.278 446.792 185.206 447.352C184.15 447.912 182.966 448.192 181.654 448.192ZM181.654 444.64C182.438 444.64 183.102 444.352 183.646 443.776C184.206 443.2 184.486 442.376 184.486 441.304C184.486 440.232 184.214 439.408 183.67 438.832C183.142 438.256 182.486 437.968 181.702 437.968C180.902 437.968 180.238 438.256 179.71 438.832C179.182 439.392 178.918 440.216 178.918 441.304C178.918 442.376 179.174 443.2 179.686 443.776C180.214 444.352 180.87 444.64 181.654 444.64ZM207.928 434.464C209.592 434.464 210.912 434.968 211.888 435.976C212.88 436.984 213.376 438.384 213.376 440.176V448H209.296V440.728C209.296 439.864 209.064 439.2 208.6 438.736C208.152 438.256 207.528 438.016 206.728 438.016C205.928 438.016 205.296 438.256 204.832 438.736C204.384 439.2 204.16 439.864 204.16 440.728V448H200.08V440.728C200.08 439.864 199.848 439.2 199.384 438.736C198.936 438.256 198.312 438.016 197.512 438.016C196.712 438.016 196.08 438.256 195.616 438.736C195.168 439.2 194.944 439.864 194.944 440.728V448H190.84V434.608H194.944V436.288C195.36 435.728 195.904 435.288 196.576 434.968C197.248 434.632 198.008 434.464 198.856 434.464C199.864 434.464 200.76 434.68 201.544 435.112C202.344 435.544 202.968 436.16 203.416 436.96C203.88 436.224 204.512 435.624 205.312 435.16C206.112 434.696 206.984 434.464 207.928 434.464ZM233.334 434.464C234.998 434.464 236.318 434.968 237.294 435.976C238.286 436.984 238.782 438.384 238.782 440.176V448H234.702V440.728C234.702 439.864 234.47 439.2 234.006 438.736C233.558 438.256 232.934 438.016 232.134 438.016C231.334 438.016 230.702 438.256 230.238 438.736C229.79 439.2 229.566 439.864 229.566 440.728V448H225.486V440.728C225.486 439.864 225.254 439.2 224.79 438.736C224.342 438.256 223.718 438.016 222.918 438.016C222.118 438.016 221.486 438.256 221.022 438.736C220.574 439.2 220.35 439.864 220.35 440.728V448H216.246V434.608H220.35V436.288C220.766 435.728 221.31 435.288 221.982 434.968C222.654 434.632 223.414 434.464 224.262 434.464C225.27 434.464 226.166 434.68 226.95 435.112C227.75 435.544 228.374 436.16 228.822 436.96C229.286 436.224 229.918 435.624 230.718 435.16C231.518 434.696 232.39 434.464 233.334 434.464ZM254.876 434.608V448H250.772V446.176C250.356 446.768 249.788 447.248 249.068 447.616C248.364 447.968 247.58 448.144 246.716 448.144C245.692 448.144 244.788 447.92 244.004 447.472C243.22 447.008 242.612 446.344 242.18 445.48C241.748 444.616 241.532 443.6 241.532 442.432V434.608H245.612V441.88C245.612 442.776 245.844 443.472 246.308 443.968C246.772 444.464 247.396 444.712 248.18 444.712C248.98 444.712 249.612 444.464 250.076 443.968C250.54 443.472 250.772 442.776 250.772 441.88V434.608H254.876ZM265.984 434.464C267.552 434.464 268.8 434.976 269.728 436C270.672 437.008 271.144 438.4 271.144 440.176V448H267.064V440.728C267.064 439.832 266.832 439.136 266.368 438.64C265.904 438.144 265.28 437.896 264.496 437.896C263.712 437.896 263.088 438.144 262.624 438.64C262.16 439.136 261.928 439.832 261.928 440.728V448H257.824V434.608H261.928V436.384C262.344 435.792 262.904 435.328 263.608 434.992C264.312 434.64 265.104 434.464 265.984 434.464Z" fill="black"/>
<path d="M336.188 585.138C342.724 564.093 325.707 542.146 295.419 545.305C273.037 547.662 249.736 561.419 254.667 585.138C259.147 606.684 273.839 626.057 295.419 624.954C320.108 623.7 329.017 608.188 336.171 585.138" fill="#E1FB41"/>
<path d="M313.85 582.333H313.034L309.847 574.013C309.277 572.534 308.298 571.266 307.035 570.373C305.772 569.48 304.282 569.002 302.757 569H287.457C285.686 568.995 283.968 569.633 282.596 570.805C281.224 571.977 280.283 573.61 279.935 575.427L278.609 582.333H278.15C276.121 582.333 274.175 583.176 272.741 584.676C271.306 586.177 270.5 588.212 270.5 590.333V598.333C270.5 599.041 270.769 599.719 271.247 600.219C271.725 600.719 272.374 601 273.05 601H275.6C275.6 603.122 276.406 605.157 277.841 606.657C279.275 608.157 281.221 609 283.25 609C285.279 609 287.225 608.157 288.659 606.657C290.094 605.157 290.9 603.122 290.9 601H301.1C301.1 603.122 301.906 605.157 303.341 606.657C304.775 608.157 306.721 609 308.75 609C310.779 609 312.725 608.157 314.159 606.657C315.594 605.157 316.4 603.122 316.4 601H318.95C319.626 601 320.275 600.719 320.753 600.219C321.231 599.719 321.5 599.041 321.5 598.333V590.333C321.5 588.212 320.694 586.177 319.259 584.676C317.825 583.176 315.879 582.333 313.85 582.333ZM298.55 574.333H302.757C303.264 574.338 303.757 574.5 304.175 574.8C304.593 575.099 304.916 575.521 305.104 576.013L307.526 582.333H298.55V574.333ZM284.933 576.467C285.052 575.855 285.373 575.307 285.839 574.917C286.305 574.527 286.886 574.321 287.483 574.333H293.45V582.333H283.811L284.933 576.467ZM283.25 603.667C282.746 603.667 282.253 603.51 281.833 603.217C281.414 602.924 281.087 602.508 280.894 602.02C280.701 601.533 280.651 600.997 280.749 600.48C280.847 599.962 281.09 599.487 281.447 599.114C281.804 598.741 282.258 598.487 282.753 598.385C283.247 598.282 283.76 598.334 284.226 598.536C284.692 598.738 285.09 599.08 285.37 599.518C285.65 599.957 285.8 600.473 285.8 601C285.8 601.707 285.531 602.386 285.053 602.886C284.575 603.386 283.926 603.667 283.25 603.667ZM308.75 603.667C308.246 603.667 307.753 603.51 307.333 603.217C306.914 602.924 306.587 602.508 306.394 602.02C306.201 601.533 306.151 600.997 306.249 600.48C306.347 599.962 306.59 599.487 306.947 599.114C307.303 598.741 307.758 598.487 308.253 598.385C308.747 598.282 309.26 598.334 309.726 598.536C310.192 598.738 310.59 599.08 310.87 599.518C311.15 599.957 311.3 600.473 311.3 601C311.3 601.707 311.031 602.386 310.553 602.886C310.075 603.386 309.426 603.667 308.75 603.667ZM316.4 595.667H314.411C313.694 594.842 312.82 594.183 311.845 593.732C310.87 593.281 309.816 593.048 308.75 593.048C307.684 593.048 306.63 593.281 305.655 593.732C304.68 594.183 303.806 594.842 303.089 595.667H288.911C288.194 594.842 287.32 594.183 286.345 593.732C285.37 593.281 284.316 593.048 283.25 593.048C282.184 593.048 281.13 593.281 280.155 593.732C279.18 594.183 278.306 594.842 277.589 595.667H275.6V590.333C275.6 589.626 275.869 588.948 276.347 588.448C276.825 587.948 277.474 587.667 278.15 587.667H313.85C314.526 587.667 315.175 587.948 315.653 588.448C316.131 588.948 316.4 589.626 316.4 590.333V595.667Z" fill="black"/>
<path d="M219.542 646.552C219.542 644.888 219.902 643.408 220.622 642.112C221.342 640.8 222.342 639.784 223.622 639.064C224.918 638.328 226.382 637.96 228.014 637.96C230.014 637.96 231.726 638.488 233.15 639.544C234.574 640.6 235.526 642.04 236.006 643.864H231.494C231.158 643.16 230.678 642.624 230.054 642.256C229.446 641.888 228.75 641.704 227.966 641.704C226.702 641.704 225.678 642.144 224.894 643.024C224.11 643.904 223.718 645.08 223.718 646.552C223.718 648.024 224.11 649.2 224.894 650.08C225.678 650.96 226.702 651.4 227.966 651.4C228.75 651.4 229.446 651.216 230.054 650.848C230.678 650.48 231.158 649.944 231.494 649.24H236.006C235.526 651.064 234.574 652.504 233.15 653.56C231.726 654.6 230.014 655.12 228.014 655.12C226.382 655.12 224.918 654.76 223.622 654.04C222.342 653.304 221.342 652.288 220.622 650.992C219.902 649.696 219.542 648.216 219.542 646.552ZM244.615 655.192C243.303 655.192 242.119 654.912 241.063 654.352C240.023 653.792 239.199 652.992 238.591 651.952C237.999 650.912 237.703 649.696 237.703 648.304C237.703 646.928 238.007 645.72 238.615 644.68C239.223 643.624 240.055 642.816 241.111 642.256C242.167 641.696 243.351 641.416 244.663 641.416C245.975 641.416 247.159 641.696 248.215 642.256C249.271 642.816 250.103 643.624 250.711 644.68C251.319 645.72 251.623 646.928 251.623 648.304C251.623 649.68 251.311 650.896 250.687 651.952C250.079 652.992 249.239 653.792 248.167 654.352C247.111 654.912 245.927 655.192 244.615 655.192ZM244.615 651.64C245.399 651.64 246.063 651.352 246.607 650.776C247.167 650.2 247.447 649.376 247.447 648.304C247.447 647.232 247.175 646.408 246.631 645.832C246.103 645.256 245.447 644.968 244.663 644.968C243.863 644.968 243.199 645.256 242.671 645.832C242.143 646.392 241.879 647.216 241.879 648.304C241.879 649.376 242.135 650.2 242.647 650.776C243.175 651.352 243.831 651.64 244.615 651.64ZM259.825 651.16L262.729 641.608H267.097L262.345 655H257.281L252.529 641.608H256.921L259.825 651.16ZM274.92 655.192C273.608 655.192 272.424 654.912 271.368 654.352C270.328 653.792 269.504 652.992 268.896 651.952C268.304 650.912 268.008 649.696 268.008 648.304C268.008 646.928 268.312 645.72 268.92 644.68C269.528 643.624 270.36 642.816 271.416 642.256C272.472 641.696 273.656 641.416 274.968 641.416C276.28 641.416 277.464 641.696 278.52 642.256C279.576 642.816 280.408 643.624 281.016 644.68C281.624 645.72 281.928 646.928 281.928 648.304C281.928 649.68 281.616 650.896 280.992 651.952C280.384 652.992 279.544 653.792 278.472 654.352C277.416 654.912 276.232 655.192 274.92 655.192ZM274.92 651.64C275.704 651.64 276.368 651.352 276.912 650.776C277.472 650.2 277.752 649.376 277.752 648.304C277.752 647.232 277.48 646.408 276.936 645.832C276.408 645.256 275.752 644.968 274.968 644.968C274.168 644.968 273.504 645.256 272.976 645.832C272.448 646.392 272.184 647.216 272.184 648.304C272.184 649.376 272.44 650.2 272.952 650.776C273.48 651.352 274.136 651.64 274.92 651.64ZM286.169 640.216C285.449 640.216 284.857 640.008 284.393 639.592C283.945 639.16 283.721 638.632 283.721 638.008C283.721 637.368 283.945 636.84 284.393 636.424C284.857 635.992 285.449 635.776 286.169 635.776C286.873 635.776 287.449 635.992 287.897 636.424C288.361 636.84 288.593 637.368 288.593 638.008C288.593 638.632 288.361 639.16 287.897 639.592C287.449 640.008 286.873 640.216 286.169 640.216ZM288.209 641.608V655H284.105V641.608H288.209ZM298.647 651.52V655H296.559C295.071 655 293.911 654.64 293.079 653.92C292.247 653.184 291.831 651.992 291.831 650.344V645.016H290.199V641.608H291.831V638.344H295.935V641.608H298.623V645.016H295.935V650.392C295.935 650.792 296.031 651.08 296.223 651.256C296.415 651.432 296.735 651.52 297.183 651.52H298.647ZM314.157 641.608V655H310.053V653.176C309.637 653.768 309.069 654.248 308.349 654.616C307.645 654.968 306.861 655.144 305.997 655.144C304.973 655.144 304.069 654.92 303.285 654.472C302.501 654.008 301.893 653.344 301.461 652.48C301.029 651.616 300.813 650.6 300.813 649.432V641.608H304.893V648.88C304.893 649.776 305.125 650.472 305.589 650.968C306.053 651.464 306.677 651.712 307.461 651.712C308.261 651.712 308.893 651.464 309.357 650.968C309.821 650.472 310.053 649.776 310.053 648.88V641.608H314.157ZM321.209 643.84C321.689 643.104 322.289 642.528 323.009 642.112C323.729 641.68 324.529 641.464 325.409 641.464V645.808H324.281C323.257 645.808 322.489 646.032 321.977 646.48C321.465 646.912 321.209 647.68 321.209 648.784V655H317.105V641.608H321.209V643.84ZM326.555 648.28C326.555 646.904 326.811 645.696 327.323 644.656C327.851 643.616 328.563 642.816 329.459 642.256C330.355 641.696 331.355 641.416 332.459 641.416C333.403 641.416 334.227 641.608 334.931 641.992C335.651 642.376 336.203 642.88 336.587 643.504V641.608H340.691V655H336.587V653.104C336.187 653.728 335.627 654.232 334.907 654.616C334.203 655 333.379 655.192 332.435 655.192C331.347 655.192 330.355 654.912 329.459 654.352C328.563 653.776 327.851 652.968 327.323 651.928C326.811 650.872 326.555 649.656 326.555 648.28ZM336.587 648.304C336.587 647.28 336.299 646.472 335.723 645.88C335.163 645.288 334.475 644.992 333.659 644.992C332.843 644.992 332.147 645.288 331.571 645.88C331.011 646.456 330.731 647.256 330.731 648.28C330.731 649.304 331.011 650.12 331.571 650.728C332.147 651.32 332.843 651.616 333.659 651.616C334.475 651.616 335.163 651.32 335.723 650.728C336.299 650.136 336.587 649.328 336.587 648.304ZM348.748 641.416C349.692 641.416 350.516 641.608 351.22 641.992C351.94 642.376 352.492 642.88 352.876 643.504V641.608H356.98V654.976C356.98 656.208 356.732 657.32 356.236 658.312C355.756 659.32 355.012 660.12 354.004 660.712C353.012 661.304 351.772 661.6 350.284 661.6C348.3 661.6 346.692 661.128 345.46 660.184C344.228 659.256 343.524 657.992 343.348 656.392H347.404C347.532 656.904 347.836 657.304 348.316 657.592C348.796 657.896 349.388 658.048 350.092 658.048C350.94 658.048 351.612 657.8 352.108 657.304C352.62 656.824 352.876 656.048 352.876 654.976V653.08C352.476 653.704 351.924 654.216 351.22 654.616C350.516 655 349.692 655.192 348.748 655.192C347.644 655.192 346.644 654.912 345.748 654.352C344.852 653.776 344.14 652.968 343.612 651.928C343.1 650.872 342.844 649.656 342.844 648.28C342.844 646.904 343.1 645.696 343.612 644.656C344.14 643.616 344.852 642.816 345.748 642.256C346.644 641.696 347.644 641.416 348.748 641.416ZM352.876 648.304C352.876 647.28 352.588 646.472 352.012 645.88C351.452 645.288 350.764 644.992 349.948 644.992C349.132 644.992 348.436 645.288 347.86 645.88C347.3 646.456 347.02 647.256 347.02 648.28C347.02 649.304 347.3 650.12 347.86 650.728C348.436 651.32 349.132 651.616 349.948 651.616C350.764 651.616 351.452 651.32 352.012 650.728C352.588 650.136 352.876 649.328 352.876 648.304ZM372.573 648.088C372.573 648.472 372.549 648.872 372.501 649.288H363.213C363.277 650.12 363.541 650.76 364.005 651.208C364.485 651.64 365.069 651.856 365.757 651.856C366.781 651.856 367.493 651.424 367.893 650.56H372.261C372.037 651.44 371.629 652.232 371.037 652.936C370.461 653.64 369.733 654.192 368.853 654.592C367.973 654.992 366.989 655.192 365.901 655.192C364.589 655.192 363.421 654.912 362.397 654.352C361.373 653.792 360.573 652.992 359.997 651.952C359.421 650.912 359.133 649.696 359.133 648.304C359.133 646.912 359.413 645.696 359.973 644.656C360.549 643.616 361.349 642.816 362.373 642.256C363.397 641.696 364.573 641.416 365.901 641.416C367.197 641.416 368.349 641.688 369.357 642.232C370.365 642.776 371.149 643.552 371.709 644.56C372.285 645.568 372.573 646.744 372.573 648.088ZM368.373 647.008C368.373 646.304 368.133 645.744 367.653 645.328C367.173 644.912 366.573 644.704 365.853 644.704C365.165 644.704 364.581 644.904 364.101 645.304C363.637 645.704 363.349 646.272 363.237 647.008H368.373Z" fill="black"/>
<path d="M23 607C10.2843 607 0 617.016 0 629.4C0 646.2 23 671 23 671C23 671 46 646.2 46 629.4C46 617.016 35.7157 607 23 607ZM23 637.4C18.4657 637.4 14.7857 633.816 14.7857 629.4C14.7857 624.984 18.4657 621.4 23 621.4C27.5343 621.4 31.2143 624.984 31.2143 629.4C31.2143 633.816 27.5343 637.4 23 637.4Z" fill="#007F73"/>
<path d="M603 33C575.667 46.5 514.7 87.7 489.5 144.5C458 215.5 252.5 635 55.5 635" stroke="#007F73" stroke-width="3" stroke-linecap="round" stroke-dasharray="12 12"/>
<path d="M632 0C619.284 0 609 10.016 609 22.4C609 39.2 632 64 632 64C632 64 655 39.2 655 22.4C655 10.016 644.716 0 632 0ZM632 30.4C627.466 30.4 623.786 26.816 623.786 22.4C623.786 17.984 627.466 14.4 632 14.4C636.534 14.4 640.214 17.984 640.214 22.4C640.214 26.816 636.534 30.4 632 30.4Z" fill="#007F73"/>
</svg>
