<svg width="62" height="60" viewBox="0 0 62 60" fill="none" xmlns="http://www.w3.org/2000/svg">
<g clip-path="url(#clip0_72_719)">
<path fill-rule="evenodd" clip-rule="evenodd" d="M48.3173 39.8466L49.1372 39.3865L53.9806 30.2753C54.7867 28.7626 53.9049 26.9641 52.6509 25.8766C52.4925 25.7372 52.3202 25.6187 52.1342 25.5211C50.9285 24.8588 49.4266 25.2771 48.7238 26.4691L43.3086 36.9815L43.8046 36.9676C45.7268 36.9815 47.4699 38.0969 48.3105 39.8396L48.3173 39.8466ZM14.6958 52.053L12.6289 38.8776C18.5403 36.131 25.3472 36.2705 31.5135 38.6476C31.6168 38.6824 31.7271 38.7034 31.8373 38.6894L42.096 38.4385C42.1304 38.4385 42.1718 38.4385 42.2062 38.4385L43.846 38.3966C44.6865 38.3966 45.4926 38.7103 46.1195 39.275C48.3036 41.1711 47.5595 44.4615 44.9965 44.5242L32.9327 44.817C32.7398 44.817 32.5607 44.8937 32.4298 45.0331C32.2989 45.1725 32.2231 45.3538 32.23 45.549C32.2369 45.7441 32.3127 45.9254 32.4505 46.0578C32.5883 46.1903 32.7743 46.26 32.9672 46.2461L45.031 45.9533C46.0782 45.9393 47.0703 45.5002 47.7868 44.7333C48.5034 43.9595 48.8823 42.9278 48.8272 41.8752L48.7652 41.2339L54.7454 37.8599C55.5859 37.4137 56.5712 37.337 57.4668 37.6577C58.4727 37.9923 59.3408 38.6755 59.9057 39.5887C60.9874 41.3175 60.7876 43.6319 59.0652 44.6079C57.5426 45.4653 56.2611 46.2112 55.0279 46.9222C43.8873 53.3844 36.412 57.7204 20.2971 51.6347C20.2489 51.6138 20.1938 51.5929 20.1387 51.5859C18.3129 51.2025 16.4182 51.3698 14.6889 52.0599L14.6958 52.053ZM13.4557 53.2659C13.4557 53.2659 13.4419 53.2102 13.4419 53.1823L10.3209 33.2799L1.57104 34.0746L6.84851 58.2502L13.7175 54.9808L13.4488 53.2659H13.4557ZM23.3699 22.7257L20.614 30.3032L23.7902 28.6929C23.9624 28.5814 24.1829 28.5605 24.3758 28.6232C24.5687 28.6859 24.7272 28.8323 24.8098 29.0205L26.2498 32.4085L28.2822 26.8037C26.9181 27.0756 25.5677 26.2321 25.2163 24.8658L24.7616 23.0882L23.363 22.7187L23.3699 22.7257ZM44.7692 31.07L43.2259 30.2893L41.3795 34.6323C41.2623 34.9041 41.0005 35.0714 40.7112 35.0645C40.4218 35.0575 40.1669 34.8693 40.0635 34.5974L37.0803 26.3785L36.8047 26.3088L35.3579 27.7309C34.3382 28.7417 32.7123 28.7417 31.6926 27.7309L30.2389 26.3088L29.9633 26.3785L26.9732 34.5974C26.8767 34.8693 26.6149 35.0575 26.3256 35.0645C26.0362 35.0714 25.7744 34.9041 25.6573 34.6323L23.8108 30.2893L19.6564 32.3945C19.3946 32.52 19.0845 32.4782 18.871 32.283C18.6574 32.0878 18.5747 31.7811 18.678 31.5092L22.0678 22.161C21.2341 21.5127 20.8621 20.4182 21.1239 19.3865L21.5924 17.5601L20.1869 16.0962C19.1948 15.0645 19.1948 13.4193 20.1869 12.3876L21.5924 10.9236L21.1239 9.09723C20.7656 7.67513 21.6062 6.22514 23.0116 5.85568L24.7685 5.39559L25.2232 3.62494C25.5884 2.20284 27.0214 1.3454 28.4269 1.70092L30.232 2.17495L31.6788 0.752855C32.6985 -0.25795 34.3245 -0.25795 35.3441 0.752855L36.791 2.17495L38.596 1.70092C40.0015 1.33842 41.4346 2.1889 41.8066 3.61099L42.2613 5.38862L44.0113 5.84871C45.4168 6.21817 46.2642 7.66816 45.9129 9.09025L45.4444 10.9167L46.8498 12.3806C47.842 13.4123 47.842 15.0575 46.8498 16.0892L45.4444 17.5531L45.9129 19.3726C46.1747 20.4043 45.8095 21.4988 44.9759 22.1471L46.7878 27.1384L47.4837 25.7929C48.5447 23.9038 50.901 23.2067 52.8025 24.2384C53.085 24.3848 53.3468 24.566 53.5879 24.7752C55.3586 26.3158 56.3851 28.7975 55.2414 30.9376L51.4452 38.076L54.0633 36.5981C55.2414 35.9568 56.6332 35.8383 57.9009 36.2774C59.3408 36.7515 60.5534 37.7553 61.2906 39.1007C62.5996 41.4778 62.1173 44.5172 59.7611 45.8417C58.4796 46.5667 57.0879 47.3754 55.7444 48.1492C44.2662 54.8065 36.5636 59.275 19.8355 52.9592C18.9123 52.778 17.9684 52.7501 17.0452 52.8755C16.3149 52.9731 15.5984 53.1892 14.9301 53.5029L15.2057 55.2736C15.2539 55.5873 15.0954 55.894 14.813 56.0334L6.6556 59.9163C6.4558 60.0139 6.22155 60.007 6.02175 59.9024C5.82195 59.7978 5.69105 59.6026 5.64971 59.3796L0.0208634 33.5936C-0.0273642 33.3914 0.0208634 33.1753 0.144877 33.008C0.268891 32.8407 0.461801 32.7361 0.668491 32.7222L10.8652 31.795C11.2372 31.7602 11.5679 32.0251 11.623 32.3945L12.4085 37.4137C15.2746 36.1589 18.3473 35.4827 21.4752 35.42C25.0372 35.3503 28.5785 35.9777 31.9062 37.2603L41.7102 37.0233L44.7761 31.0631L44.7692 31.07ZM38.7407 26.8107C40.1118 27.0826 41.4621 26.2251 41.8135 24.8588L42.2682 23.0882L43.6668 22.7187L45.8991 28.8672L45.4237 29.7874L43.2397 28.679C43.0674 28.5744 42.8538 28.5465 42.654 28.6093C42.4542 28.672 42.2958 28.8184 42.22 29.0066L40.7801 32.3945L38.7476 26.7968L38.7407 26.8107ZM37.7486 25.0749L36.7703 24.817C36.5291 24.7542 36.2742 24.824 36.0951 24.9982L34.3589 26.6992C33.8835 27.1593 33.1394 27.1593 32.664 26.6992L30.9279 24.9982C30.7418 24.817 30.48 24.7542 30.232 24.824L28.0686 25.3956C27.421 25.5629 26.7596 25.1655 26.5874 24.5103L26.0293 22.3283C25.9604 22.0704 25.7606 21.8752 25.5126 21.8125L23.363 21.2478C22.7085 21.0735 22.3227 20.4043 22.488 19.749L23.053 17.5322C23.115 17.2882 23.053 17.0303 22.8738 16.8491L21.1928 15.0923C20.7381 14.6113 20.7381 13.8585 21.1928 13.3775L22.8738 11.6208C23.053 11.4325 23.1219 11.1607 23.0461 10.9167L22.4811 8.72776C22.3158 8.06551 22.7016 7.39628 23.3561 7.22898L25.5195 6.66432C25.7744 6.59461 25.9673 6.39245 26.0293 6.14149C26.2153 5.4165 26.4014 4.68454 26.5874 3.96652C26.7596 3.31124 27.4279 2.92086 28.0755 3.08816L28.11 3.10211L30.2527 3.66676C30.4938 3.7295 30.7487 3.66676 30.921 3.48551L32.6572 1.78457C33.1325 1.32448 33.8766 1.32448 34.352 1.78457L36.0813 3.48551C36.2673 3.66676 36.536 3.73647 36.7772 3.65979L38.9405 3.08816C39.5882 2.92086 40.2496 3.31821 40.4218 3.97349L40.9799 6.16241C41.0488 6.42033 41.2486 6.61552 41.4966 6.67826C42.2131 6.86648 42.9365 7.0547 43.6462 7.24292C44.2938 7.4172 44.6796 8.08642 44.5143 8.74867L44.5005 8.78353L43.9424 10.9515C43.8804 11.1955 43.9424 11.4465 44.1215 11.6277L45.8026 13.3844C46.2573 13.8654 46.2573 14.6183 45.8026 15.0993L44.1215 16.856C43.9424 17.0442 43.8735 17.3091 43.9493 17.5601C44.1353 18.2921 44.3282 19.0171 44.5143 19.749C44.6796 20.4043 44.2869 21.0735 43.6393 21.2478L41.4828 21.8125C41.2279 21.8752 41.035 22.0774 40.973 22.3353C40.7869 23.0603 40.6009 23.7922 40.4149 24.5103C40.2427 25.1655 39.5813 25.5559 38.9267 25.3816L37.7279 25.0679L37.7486 25.0749ZM39.099 8.59531C41.3519 10.8748 42.0271 14.3116 40.8076 17.2952C39.5882 20.2788 36.7083 22.2238 33.5184 22.2238C30.3285 22.2238 27.4555 20.2788 26.236 17.2952C25.0165 14.3116 25.6917 10.8818 27.9446 8.59531C31.0243 5.47924 36.0193 5.47924 39.099 8.59531ZM33.5184 4.82396C37.2801 4.82396 40.6767 7.11744 42.1167 10.6378C43.5566 14.1582 42.7643 18.2084 40.098 20.8992C37.4317 23.5901 33.4288 24.3987 29.9564 22.9418C26.4771 21.4848 24.2104 18.0481 24.2104 14.2419C24.2104 9.04146 28.3787 4.82396 33.5184 4.82396ZM34.0351 13.3147L33.5184 11.6905L33.0016 13.3147C32.9052 13.6145 32.6365 13.8097 32.3265 13.8097H30.6385L32.0026 14.8065C32.2507 14.9878 32.354 15.3154 32.2576 15.6082L31.7339 17.2325L33.0843 16.2356C33.3323 16.0474 33.6768 16.0404 33.9317 16.2286L35.2959 17.2325L34.7792 15.6361C34.6689 15.3363 34.7723 14.9948 35.0272 14.8065L36.3913 13.8097H34.7378C34.4209 13.8236 34.1315 13.6215 34.0282 13.3147H34.0351ZM34.1936 9.14602C34.104 8.85324 33.8284 8.65108 33.5184 8.65108C33.2083 8.65108 32.9396 8.85324 32.8432 9.14602L31.8097 12.3806H28.4958C28.1789 12.3527 27.8895 12.5409 27.7793 12.8407C27.669 13.1404 27.7724 13.4751 28.0273 13.6702L30.7487 15.664L29.7084 18.8986C29.6188 19.1913 29.7222 19.512 29.9702 19.6933C30.2182 19.8745 30.5489 19.8745 30.8038 19.6933L33.5253 17.6856L36.1984 19.6584C36.4396 19.8675 36.7909 19.8884 37.0528 19.7072C37.3146 19.5259 37.4317 19.1983 37.3352 18.8916L36.288 15.657L39.0094 13.6633C39.2574 13.482 39.3608 13.1614 39.2712 12.8686C39.1817 12.5758 38.9061 12.3736 38.6029 12.3736H35.2408L34.2073 9.14602H34.1936Z" fill="#00FFAB"/>
</g>
<defs>
<clipPath id="clip0_72_719">
<rect width="62" height="60" fill="white"/>
</clipPath>
</defs>
</svg>
