<?xml version="1.0" encoding="utf-8"?>
<svg xmlns="http://www.w3.org/2000/svg" version="1.1" style="shape-rendering:geometricPrecision;text-rendering:geometricPrecision;image-rendering:optimizeQuality;" viewBox="13.403 13.217 306.47 306.887" x="0px" y="0px" fill-rule="evenodd" clip-rule="evenodd">
  <defs>
    <style type="text/css">
   
    .fil0 {fill:black;fill-rule:nonzero}
   
  </style>
  </defs>
  <g>
    <path class="fil0" d="M 302.98 144.44 C 302.33 140.37 305.11 136.54 309.18 135.9 C 313.25 135.25 317.08 138.03 317.73 142.1 C 318.4 146.27 318.91 150.36 319.23 154.35 C 319.56 158.46 319.73 162.57 319.73 166.66 C 319.73 208.92 302.6 247.19 274.9 274.89 C 247.2 302.59 208.94 319.72 166.67 319.72 C 124.41 319.72 86.14 302.59 58.44 274.89 C 30.74 247.19 13.61 208.93 13.61 166.66 C 13.61 124.4 30.74 86.13 58.44 58.43 C 86.14 30.73 124.4 13.6 166.67 13.6 C 183.05 13.6 198.87 16.2 213.74 21.01 C 229.15 25.99 243.46 33.32 256.26 42.58 C 259.6 45.01 260.35 49.68 257.93 53.03 C 255.51 56.38 250.83 57.12 247.48 54.7 C 235.91 46.33 223 39.71 209.18 35.24 C 195.83 30.93 181.55 28.59 166.67 28.59 C 128.54 28.59 94.02 44.04 69.04 69.03 C 44.06 94.01 28.6 128.53 28.6 166.66 C 28.6 204.79 44.06 239.31 69.04 264.29 C 94.02 289.28 128.54 304.73 166.67 304.73 C 204.8 304.73 239.32 289.28 264.3 264.29 C 289.29 239.31 304.74 204.79 304.74 166.66 C 304.74 162.86 304.59 159.14 304.3 155.51 C 303.99 151.63 303.54 147.94 302.98 144.43 L 302.98 144.44 Z" style="fill: rgb(31, 171, 137);"/>
  </g>
  <g transform="matrix(1, 0, 0, 1, -0.215997, 6.617998)">
    <path d="M 239.787 222.675 L 94.025 222.675 C 80.174 222.675 68.878 211.403 68.878 197.532 L 68.878 122.554 C 68.878 108.707 80.152 97.409 94.025 97.409 L 239.751 97.409 C 253.6 97.409 264.894 108.682 264.894 122.554 L 264.894 197.532 C 264.894 211.38 253.62 222.675 239.751 222.675 L 239.787 222.675 Z M 94.025 109.455 C 86.766 109.455 80.865 115.356 80.865 122.615 L 80.865 197.592 C 80.865 204.85 86.766 210.75 94.025 210.75 L 239.751 210.75 C 247.007 210.75 252.907 204.85 252.907 197.592 L 252.907 122.615 C 252.907 115.356 247.007 109.455 239.751 109.455 L 94.025 109.455 Z" style="stroke-width: 1; transform-box: fill-box; transform-origin: 50% 50%; fill: rgb(31, 171, 137);"/>
    <path d="M 166.907 191.806 C 149.406 191.806 135.173 177.572 135.173 160.071 C 135.173 142.57 149.406 128.336 166.907 128.336 C 184.408 128.336 198.643 142.57 198.643 160.071 C 198.643 177.572 184.408 191.806 166.907 191.806 Z M 166.907 140.323 C 156.032 140.323 147.16 149.196 147.16 160.071 C 147.16 170.947 156.032 179.82 166.907 179.82 C 177.779 179.82 186.652 170.947 186.652 160.071 C 186.652 149.196 177.779 140.323 166.907 140.323 Z" style="stroke-width: 1; transform-box: fill-box; transform-origin: 50% 50%; fill: rgb(31, 171, 137);"/>
    <path d="M 223.668 180.391 C 220.366 180.391 217.675 177.699 217.675 174.397 L 217.675 145.719 C 217.675 142.417 220.366 139.726 223.668 139.726 C 226.968 139.726 229.662 142.419 229.662 145.719 L 229.662 174.397 C 229.662 177.699 226.968 180.391 223.668 180.391 Z" style="stroke-width: 1; transform-box: fill-box; transform-origin: 50% 50%; fill: rgb(31, 171, 137);"/>
    <path d="M 110.146 180.391 C 106.844 180.391 104.153 177.699 104.153 174.397 L 104.153 145.719 C 104.153 142.417 106.844 139.726 110.146 139.726 C 113.446 139.726 116.14 142.419 116.14 145.719 L 116.14 174.397 C 116.14 177.699 113.446 180.391 110.146 180.391 Z" style="stroke-width: 1; transform-box: fill-box; transform-origin: 50% 50%; fill: rgb(31, 171, 137);"/>
  </g>
</svg>