<?xml version="1.0" encoding="UTF-8"?>
<svg id="Layer_1" xmlns="http://www.w3.org/2000/svg" version="1.1" viewBox="0 0 25 25">
  <!-- Generator: Adobe Illustrator 29.6.1, SVG Export Plug-In . SVG Version: 2.1.1 Build 9)  -->
  <defs>
    <style>
      .st0 {
        fill: #d7fc19;
      }
    </style>
  </defs>
  <path class="st0" d="M12.5,0C5.6,0,0,5.6,0,12.5s5.6,12.5,12.5,12.5,12.5-5.6,12.5-12.5S19.4,0,12.5,0ZM12.5,3.8c2.1,0,3.8,1.7,3.8,3.8s-1.7,3.8-3.8,3.8-3.8-1.7-3.8-3.8,1.7-3.8,3.8-3.8ZM12.5,21.5c-3.1,0-5.9-1.6-7.5-4,0-2.5,5-3.9,7.5-3.9s7.5,1.4,7.5,3.9c-1.6,2.4-4.4,4-7.5,4Z"/>
</svg>