<svg width="70" height="56" viewBox="0 0 70 56" fill="none" xmlns="http://www.w3.org/2000/svg">
<g clip-path="url(#clip0_72_713)">
<path d="M69.3349 26.9762L59.6674 12.1888C58.4163 10.2987 55.8966 9.73875 53.9631 10.9375L50.7785 12.9325C49.8511 13.51 49.2037 14.4287 48.9675 15.4962C48.9062 15.7587 48.88 16.0212 48.8712 16.2838C46.789 17.045 45.1529 16.8175 42.572 16.4587C41.3734 16.2925 40.0173 16.1 38.3725 15.9862C34.4005 15.6975 31.7846 17.8675 29.6849 20.58C28.2501 19.8275 26.859 19.25 25.5029 18.6812C23.9893 18.0863 22.5108 17.3862 21.0847 16.59C21.1109 16.2137 21.0847 15.8375 20.9972 15.4613C20.761 14.4025 20.1136 13.475 19.1862 12.8975L16.0016 10.9025C14.0768 9.7125 11.5571 10.2725 10.306 12.1538L0.664751 26.9325C0.0698249 27.8425 -0.1314 28.9537 0.0960716 30.0125C0.332292 31.0712 0.979711 31.9987 1.9071 32.5762L5.0917 34.5712C5.74787 34.9825 6.50902 35.2012 7.28767 35.2012C7.95259 35.2012 8.60876 35.0438 9.19493 34.7463C10.8397 35.8225 11.7759 36.4788 12.6857 37.1437L11.9508 38.2988C11.1809 39.4975 11.1372 41.0112 11.8109 42.2537C12.4933 43.505 13.7969 44.275 15.2142 44.2838C15.3017 44.2838 15.3892 44.2837 15.4766 44.275C15.2667 45.78 15.9578 47.2675 17.2439 48.0725C17.8651 48.4662 18.5913 48.6675 19.3262 48.6675C19.4137 48.6675 19.4924 48.6675 19.5799 48.6588C19.2999 50.4263 20.2623 52.1587 21.9158 52.8587C23.5694 53.55 25.4766 53.0337 26.5528 51.59C27.1477 52.7362 28.2675 53.515 29.5449 53.6725C30.8222 53.83 32.0996 53.3312 32.9482 52.36L37.4277 55.2213C38.2063 55.72 39.1162 56 40.0436 56C40.2448 56 40.4548 55.9825 40.656 55.9562C41.7584 55.8338 42.747 55.2212 43.3507 54.2938C43.8056 53.5675 43.9981 52.7012 43.8756 51.8525C45.4854 52.255 47.1739 51.6075 48.1188 50.2425C48.5913 49.4987 48.775 48.6063 48.635 47.7313C50.2098 48.0725 51.8371 47.425 52.747 46.095C53.1669 45.4475 53.3769 44.6862 53.3682 43.925C54.1206 44.1613 54.908 44.1963 55.6779 44.03C56.6577 43.8462 57.5239 43.2513 58.0488 42.4113C58.5825 41.5713 58.7487 40.5387 58.5038 39.5675C58.3026 38.7013 57.8476 37.9137 57.2089 37.3013C57.7514 36.9075 58.2238 36.505 58.6787 36.1025C59.2649 35.56 59.9036 35.07 60.5773 34.65C61.2247 35.0262 61.9596 35.2275 62.712 35.2275C63.4907 35.2275 64.2518 35.0088 64.908 34.6063L68.0926 32.6113C69.0112 32.0337 69.6674 31.115 69.8949 30.0475C70.1311 28.9888 69.9298 27.8775 69.3349 26.9675V26.9762ZM6.12407 32.9263L2.93072 30.9312C2.44953 30.6337 2.11707 30.1525 1.99458 29.6013C1.8721 29.05 1.97709 28.4725 2.29205 28L11.9508 13.2125C12.362 12.5825 13.0707 12.1975 13.8231 12.2063C14.2343 12.2063 14.6455 12.32 14.9955 12.5387L18.1801 14.5338C18.6613 14.8313 19.0025 15.3125 19.1162 15.8637C19.2387 16.415 19.1337 16.9925 18.8187 17.465L9.15119 32.2525C8.48627 33.2588 7.13894 33.5563 6.11532 32.9263H6.12407ZM14.1906 42.0262C13.2894 41.4487 13.0182 40.2412 13.5956 39.34L16.5353 34.7375C16.8152 34.3 17.2527 33.9937 17.7601 33.8887C17.9001 33.8537 18.0401 33.845 18.1888 33.845C18.8975 33.845 19.5449 34.2388 19.8861 34.86C20.2273 35.4813 20.2011 36.2337 19.8249 36.8375L16.8852 41.44C16.299 42.3413 15.1004 42.6038 14.1993 42.035L14.1906 42.0262ZM18.285 46.4188C17.8476 46.1475 17.5501 45.71 17.4364 45.2113C17.3314 44.7125 17.4189 44.1962 17.6989 43.7587L22.5545 36.2687C22.922 35.7088 23.5519 35.3675 24.2256 35.3675C24.593 35.3675 24.9605 35.4725 25.2754 35.6738C26.0103 36.1375 26.3428 37.0387 26.0716 37.8613L20.9972 45.815C20.4023 46.725 19.1949 46.9875 18.2763 46.4188H18.285ZM22.3795 50.9162C21.4784 50.33 21.2072 49.1313 21.7846 48.2213L22.642 46.8737L27.4976 39.3925C27.6289 39.1912 27.7514 38.9637 27.8389 38.7363L27.8826 38.6575C28.46 37.7475 29.6674 37.485 30.5685 38.0625C31.4784 38.64 31.7409 39.8475 31.1634 40.7487L28.5213 44.8875L26.719 47.7137L25.0654 50.3125C24.7855 50.75 24.348 51.065 23.8406 51.17C23.3419 51.275 22.8082 51.1875 22.3708 50.9075L22.3795 50.9162ZM28.9587 51.45C28.0488 50.8725 27.7864 49.665 28.3638 48.7637L28.3813 48.7287L31.2947 44.1613C31.5746 43.7238 32.0121 43.4175 32.5195 43.3125C32.6595 43.2775 32.7995 43.2687 32.9482 43.2687C33.3157 43.2687 33.6744 43.3737 33.9893 43.575C34.8992 44.1525 35.1617 45.36 34.5843 46.2612L31.6446 50.8638C31.3647 51.3013 30.9272 51.6075 30.4198 51.7213C29.9211 51.835 29.3874 51.7388 28.95 51.4588L28.9587 51.45ZM56.404 41.3875C56.1416 41.7812 55.7304 42.0525 55.2579 42.14C54.5318 42.28 53.7881 42.1225 53.1757 41.72L51.3822 40.565L51.3384 40.5387L45.1704 36.5662C44.9517 36.4175 44.6892 36.365 44.4268 36.4175C44.1731 36.47 43.9456 36.6188 43.8056 36.8463C43.6656 37.065 43.6219 37.3363 43.6744 37.59C43.7356 37.8438 43.8931 38.0713 44.1206 38.2025L50.3323 42.2012C50.8397 42.5075 51.2159 42.9975 51.3822 43.575C51.5046 44.0825 51.4084 44.625 51.1197 45.0625C50.5335 45.9813 49.055 46.1388 47.8826 45.395L42.467 41.9388C42.0121 41.65 41.4084 41.7812 41.1197 42.2363C40.831 42.6912 40.9622 43.295 41.4172 43.5838L45.4067 46.13H45.4242C46.0016 46.4888 46.4303 47.04 46.6403 47.6788C46.8152 48.1863 46.7627 48.7463 46.4828 49.21C45.8966 50.1287 44.418 50.2862 43.2457 49.5425L41.7234 48.5712L41.6971 48.5538H41.6796L39.6149 47.2325C39.1599 46.9437 38.5563 47.075 38.2676 47.53C37.9788 47.985 38.1101 48.58 38.565 48.8775L40.656 50.2162C41.8021 50.96 42.2833 52.36 41.6971 53.2787C41.3997 53.725 40.9185 54.0138 40.376 54.0662C39.7024 54.145 39.0287 53.9875 38.4688 53.6113L34.0243 50.7675L36.2203 47.32C36.9727 46.1388 37.034 44.6512 36.3865 43.4088C35.7391 42.1663 34.4618 41.3787 33.062 41.335C33.7356 39.865 33.4207 38.1325 32.2833 36.9863C31.1459 35.84 29.4137 35.5163 27.9351 36.1725C27.6639 35.2975 27.0864 34.545 26.3078 34.055C24.8905 33.1712 23.062 33.2763 21.7584 34.3175C21.2072 32.9788 19.9473 32.06 18.5038 31.9375C17.0602 31.8062 15.6691 32.4975 14.8817 33.7137L13.7269 35.5163C12.8257 34.8688 11.9771 34.2738 10.7085 33.4425C10.7347 33.4075 10.7522 33.3725 10.7785 33.3375L20.446 18.55C20.446 18.55 20.4723 18.5063 20.4898 18.48C21.8721 19.2238 23.2982 19.8888 24.7592 20.4662C25.9928 20.9825 27.2614 21.5163 28.5388 22.1725C28.0926 22.8288 27.6639 23.5025 27.2439 24.1588C26.334 25.6812 25.3017 27.1338 24.1556 28.49C23.4119 29.3125 23.6131 30.5638 24.6543 31.5963C25.5729 32.655 26.8765 33.2938 28.2763 33.3638H28.4075C30.656 33.285 32.362 31.3338 33.9981 29.4438C35.2754 27.9738 36.6053 26.4425 37.7251 26.5037C38.4688 26.8188 39.1424 27.265 39.7111 27.825C40.6822 28.7087 41.7934 29.4175 42.992 29.925L55.2929 38.325L55.3279 38.3512C55.9491 38.7275 56.404 39.3312 56.579 40.04C56.7015 40.5125 56.6228 41.0025 56.3778 41.4137L56.404 41.3875ZM57.4014 34.65C56.8152 35.175 56.1941 35.665 55.5466 36.1025L48.39 31.2112C49.5186 31.3162 50.656 31.185 51.7321 30.8263C52.2308 30.6337 52.4758 30.0737 52.2833 29.575C52.0996 29.0763 51.5396 28.8225 51.0322 29.015C49.4574 29.6187 46.474 29.2775 43.9456 28.1925C43.8931 28.1663 43.8406 28.14 43.7881 28.1225C42.7907 27.7025 41.8721 27.1075 41.0672 26.39C41.0497 26.3725 39.1599 24.605 37.8476 24.5437C35.7741 24.4475 34.1381 26.3287 32.5545 28.1487C31.1809 29.7237 29.7636 31.3512 28.355 31.4037C27.4452 31.3425 26.614 30.905 26.0453 30.205C25.8966 30.065 25.7741 29.89 25.6954 29.6975C26.8852 28.28 27.9526 26.775 28.9062 25.1912C31.3997 21.2888 33.7531 17.5963 38.2501 17.92C39.8249 18.0338 41.1459 18.2175 42.3183 18.3838C44.9255 18.7512 46.894 19.0225 49.3174 18.2C49.3874 18.3312 49.4574 18.4625 49.5361 18.585L59.1424 33.285C58.53 33.705 57.9526 34.1688 57.4014 34.6588V34.65ZM67.9963 29.645C67.8739 30.1963 67.5326 30.6775 67.0602 30.975L63.8669 32.9613C62.8345 33.6 61.4959 33.3025 60.8222 32.2875L51.1634 17.5C50.8485 17.0275 50.7435 16.45 50.866 15.8988C50.9885 15.3475 51.3209 14.8663 51.8021 14.5687L54.9867 12.5737C55.3367 12.355 55.7479 12.2413 56.1591 12.2413C56.9115 12.2413 57.6114 12.6175 58.0313 13.2475L67.6989 28.035C68.0138 28.5075 68.1188 29.085 67.9963 29.645ZM34.0243 9.63375V0.97125C34.0243 0.4375 34.4618 0 34.9955 0C35.5291 0 35.9666 0.4375 35.9666 0.97125V9.63375C35.9666 10.1675 35.5291 10.605 34.9955 10.605C34.4618 10.605 34.0243 10.1675 34.0243 9.63375ZM41.5571 10.9025L45.8878 3.395C46.0103 3.1675 46.2291 3.00125 46.474 2.93125C46.7277 2.86125 46.9902 2.89625 47.2177 3.0275C47.4452 3.15875 47.6114 3.36875 47.6726 3.6225C47.7426 3.87625 47.6989 4.13875 47.5676 4.36625L43.2369 11.8737C43.1057 12.1012 42.8957 12.2675 42.642 12.3375C42.3883 12.4075 42.1258 12.3725 41.8983 12.2413C41.6709 12.11 41.5046 11.9 41.4434 11.6463C41.3822 11.3925 41.4172 11.1213 41.5484 10.9025H41.5571ZM22.537 4.795C22.4058 4.57625 22.362 4.305 22.432 4.05125C22.4933 3.7975 22.6595 3.5875 22.887 3.45625C23.1144 3.325 23.3857 3.29 23.6306 3.36C23.8843 3.43 24.0943 3.59625 24.2256 3.82375L28.5563 11.3313C28.8187 11.795 28.6612 12.39 28.1976 12.6613C27.7339 12.9237 27.1389 12.7663 26.8677 12.3025L22.537 4.795Z" fill="#00FFAB"/>
</g>
<defs>
<clipPath id="clip0_72_713">
<rect width="70" height="56" fill="white"/>
</clipPath>
</defs>
</svg>
