<?xml version="1.0" encoding="utf-8"?>
<svg xmlns="http://www.w3.org/2000/svg" version="1.1" style="shape-rendering:geometricPrecision;text-rendering:geometricPrecision;image-rendering:optimizeQuality;" viewBox="13.403 13.217 306.47 306.887" x="0px" y="0px" fill-rule="evenodd" clip-rule="evenodd">
  <defs>
    <style type="text/css">
   
    .fil0 {fill:black;fill-rule:nonzero}
   
  </style>
  </defs>
  <g transform="matrix(1, 0, 0, 1, -350.999908, 0.092402)"/>
  <path d="M 230.776 301.622 C 231.626 303.495 230.776 305.712 228.902 306.549 C 209.265 315.297 188.325 319.74 166.638 319.74 C 125.733 319.74 87.295 303.826 58.392 274.921 C 29.473 246.004 13.561 207.569 13.561 166.663 C 13.561 112.274 42.273 62.301 88.877 34.778 L 68.951 29.624 C 66.935 29.106 65.745 27.068 66.264 25.093 C 66.786 23.08 68.821 21.889 70.798 22.409 L 99.638 29.864 C 101.651 30.383 102.84 32.422 102.322 34.398 L 94.867 63.237 C 94.344 65.25 92.306 66.441 90.333 65.921 C 88.32 65.404 87.13 63.365 87.649 61.39 L 92.902 41.07 C 48.437 67.189 21.042 114.843 21.042 166.663 C 21.042 246.944 86.344 312.26 166.638 312.26 C 187.249 312.26 207.192 308.045 225.853 299.714 C 227.74 298.867 229.944 299.739 230.781 301.625 L 230.776 301.622 Z M 319.715 166.658 C 319.715 125.753 303.803 87.317 274.898 58.412 C 245.981 29.495 207.544 13.581 166.638 13.581 C 158.636 13.581 150.559 14.2 142.721 15.428 C 140.683 15.759 139.292 17.672 139.607 19.71 C 139.938 21.749 141.85 23.139 143.886 22.825 C 151.369 21.658 159.029 21.038 166.677 21.038 C 246.96 21.038 312.274 86.341 312.274 166.635 C 312.274 204.784 297.067 241.702 270.367 268.831 L 270.202 247.866 C 270.162 245.826 268.517 244.167 266.481 244.167 L 266.441 244.167 C 264.365 244.205 262.718 245.892 262.744 247.931 L 262.996 277.745 C 262.996 278.743 263.415 279.692 264.098 280.363 C 264.808 281.047 265.758 281.43 266.721 281.43 L 266.756 281.43 L 296.575 281.174 C 298.649 281.139 300.294 279.452 300.269 277.414 C 300.234 275.375 298.587 273.72 296.549 273.72 L 296.509 273.72 L 275.9 273.881 C 288.863 260.69 299.206 245.487 306.726 228.57 C 315.312 209.05 319.715 188.209 319.715 166.658 Z M 247.27 82.199 C 253.134 96.95 255.564 115.674 254.21 134.967 C 252.751 154.997 247.17 173.821 238.524 188.028 C 229.936 202.03 218.493 211.982 203.515 218.487 C 190.159 224.289 175.156 226.755 161.862 228.314 C 159.848 239.101 159.303 251.129 159.139 266.463 C 159.1 268.502 157.453 270.158 155.418 270.158 L 155.378 270.158 C 153.301 270.122 151.655 268.436 151.68 266.359 C 151.872 249.827 152.529 237.001 154.886 225.2 C 152.934 220.237 151.087 214.997 149.467 209.516 C 131.284 209.451 115.663 204.071 101.761 193.054 C 85.948 180.547 80.82 164.569 74.918 146.059 C 71.715 136.008 68.082 124.639 62.245 112.611 C 61.765 111.611 61.765 110.436 62.21 109.433 C 62.663 108.432 63.574 107.648 64.64 107.395 C 78.184 103.8 94.873 103.636 111.675 106.877 C 129.082 110.244 145.023 117.119 156.571 126.223 C 158.001 127.361 159.395 128.55 160.722 129.792 C 172.32 114.626 187.981 107.46 205.768 99.331 C 216.694 94.343 229.074 88.697 241.879 80.442 C 242.815 79.819 243.977 79.694 245.054 80.024 C 246.004 80.351 246.892 81.162 247.27 82.202 L 247.27 82.199 Z M 147.415 201.981 C 145.464 193.687 144.339 184.925 144.565 175.926 C 144.314 175.699 144.049 175.468 143.857 175.177 C 136.376 164.608 125.185 154.732 110.535 145.779 C 108.788 144.716 108.23 142.412 109.305 140.665 C 110.372 138.918 112.677 138.335 114.424 139.437 C 127.324 147.312 137.757 155.974 145.542 165.239 C 147.061 155.643 150.404 145.832 156.368 136.031 C 154.938 134.663 153.456 133.347 151.859 132.083 C 131.728 116.165 97.09 108.419 70.895 113.573 C 75.822 124.46 79.102 134.675 81.986 143.78 C 87.76 161.832 92.294 176.091 106.335 187.182 C 118.375 196.739 131.858 201.539 147.418 201.981 L 147.415 201.981 Z M 241.888 89.161 C 230.064 96.353 218.847 101.507 208.792 106.075 C 189.119 115.051 173.597 122.155 162.858 139.628 C 147.298 164.999 151.035 190.966 158.189 212.553 C 163.469 196.967 173.026 182.115 190.561 161.632 C 191.763 160.239 192.927 158.871 194.03 157.581 C 204.793 145.034 211.92 136.74 223.238 119.497 C 224.375 117.775 226.67 117.293 228.431 118.435 C 230.15 119.571 230.63 121.864 229.494 123.623 C 217.896 141.262 210.666 149.679 199.701 162.452 C 198.599 163.745 197.435 165.073 196.234 166.503 C 177.265 188.673 168.063 203.777 163.569 220.565 C 189.599 217.324 215.718 210.906 232.152 184.102 C 247.56 158.948 251.546 118.204 241.888 89.161 Z" style="fill: rgb(31, 171, 137); stroke-width: 0px; stroke-miterlimit: 6.24;"/>
</svg>