<?xml version="1.0" encoding="utf-8"?>
<svg xmlns="http://www.w3.org/2000/svg" version="1.1" style="shape-rendering:geometricPrecision;text-rendering:geometricPrecision;image-rendering:optimizeQuality;" viewBox="13.403 13.217 306.47 306.887" x="0px" y="0px" fill-rule="evenodd" clip-rule="evenodd">
  <defs>
    <style type="text/css">
   
    .fil0 {fill:black;fill-rule:nonzero}
   
  </style>
  </defs>
  <g>
    <path class="fil0" d="M302.98 144.44c-0.65,-4.07 2.13,-7.9 6.2,-8.54 4.07,-0.65 7.9,2.13 8.55,6.2 0.67,4.17 1.18,8.26 1.5,12.25 0.33,4.11 0.5,8.22 0.5,12.31 0,42.26 -17.13,80.53 -44.83,108.23 -27.7,27.7 -65.96,44.83 -108.23,44.83 -42.26,0 -80.53,-17.13 -108.23,-44.83 -27.7,-27.7 -44.83,-65.96 -44.83,-108.23 0,-42.26 17.13,-80.53 44.83,-108.23 27.7,-27.7 65.96,-44.83 108.23,-44.83 16.38,0 32.2,2.6 47.07,7.41 15.41,4.98 29.72,12.31 42.52,21.57 3.34,2.43 4.09,7.1 1.67,10.45 -2.42,3.35 -7.1,4.09 -10.45,1.67 -11.57,-8.37 -24.48,-14.99 -38.3,-19.46 -13.35,-4.31 -27.63,-6.65 -42.51,-6.65 -38.13,0 -72.65,15.45 -97.63,40.44 -24.98,24.98 -40.44,59.5 -40.44,97.63 0,38.13 15.46,72.65 40.44,97.63 24.98,24.99 59.5,40.44 97.63,40.44 38.13,0 72.65,-15.45 97.63,-40.44 24.99,-24.98 40.44,-59.5 40.44,-97.63 0,-3.8 -0.15,-7.52 -0.44,-11.15 -0.31,-3.88 -0.76,-7.57 -1.32,-11.08zm-212.96 8.05c-2.54,-3.25 -1.96,-7.94 1.29,-10.48 3.25,-2.54 7.94,-1.96 10.48,1.29l57.88 74.19 130.98 -155.84c2.65,-3.15 7.35,-3.56 10.5,-0.91 3.15,2.65 3.56,7.35 0.91,10.51l-136.67 162.61c-0.38,0.5 -0.83,0.96 -1.35,1.37 -3.25,2.54 -7.94,1.96 -10.48,-1.29l-63.54 -81.44z" style="fill: rgb(31, 171, 137);"/>
  </g>
</svg>