<svg width="655" height="709" viewBox="0 0 655 709" fill="none" xmlns="http://www.w3.org/2000/svg">
<path d="M467.688 79.0504C474.224 58.0057 457.207 36.0583 426.919 39.2176C404.537 41.5744 381.236 55.3312 386.167 79.0504C390.647 100.597 405.339 119.97 426.919 118.867C451.608 117.613 460.517 102.101 467.671 79.0504" fill="#E1FB41"/>
<path d="M428.731 79.5176C429.97 78.4309 430.963 77.0868 431.644 75.5765C432.325 74.0663 432.677 72.4252 432.677 70.7647C432.677 67.6445 431.454 64.6521 429.278 62.4458C427.101 60.2395 424.149 59 421.071 59C417.992 59 415.04 60.2395 412.864 62.4458C410.687 64.6521 409.464 67.6445 409.464 70.7647C409.464 72.4252 409.816 74.0663 410.497 75.5765C411.178 77.0868 412.172 78.4309 413.41 79.5176C410.161 81.0091 407.404 83.4177 405.469 86.4554C403.534 89.4931 402.503 93.0313 402.5 96.6471C402.5 97.2711 402.745 97.8696 403.18 98.3108C403.615 98.7521 404.206 99 404.821 99C405.437 99 406.027 98.7521 406.463 98.3108C406.898 97.8696 407.143 97.2711 407.143 96.6471C407.143 92.9028 408.61 89.3119 411.222 86.6644C413.834 84.0168 417.377 82.5294 421.071 82.5294C424.765 82.5294 428.307 84.0168 430.919 86.6644C433.531 89.3119 434.999 92.9028 434.999 96.6471C434.999 97.2711 435.243 97.8696 435.679 98.3108C436.114 98.7521 436.704 99 437.32 99C437.936 99 438.526 98.7521 438.961 98.3108C439.397 97.8696 439.641 97.2711 439.641 96.6471C439.638 93.0313 438.607 89.4931 436.672 86.4554C434.738 83.4177 431.981 81.0091 428.731 79.5176V79.5176ZM421.071 77.8235C419.693 77.8235 418.347 77.4095 417.202 76.6339C416.056 75.8583 415.164 74.7558 414.637 73.466C414.11 72.1762 413.972 70.7569 414.24 69.3876C414.509 68.0183 415.172 66.7606 416.146 65.7734C417.12 64.7862 418.361 64.1139 419.712 63.8415C421.063 63.5692 422.463 63.7089 423.736 64.2432C425.008 64.7775 426.096 65.6822 426.861 66.843C427.626 68.0039 428.035 69.3686 428.035 70.7647C428.035 72.6368 427.301 74.4323 425.995 75.756C424.689 77.0798 422.918 77.8235 421.071 77.8235ZM443.68 78.5765C445.166 76.8808 446.136 74.786 446.475 72.5443C446.813 70.3026 446.505 68.0096 445.588 65.9412C444.671 63.8728 443.183 62.1172 441.305 60.8857C439.426 59.6542 437.236 58.9994 434.999 59C434.383 59 433.793 59.2479 433.357 59.6892C432.922 60.1304 432.677 60.7289 432.677 61.3529C432.677 61.977 432.922 62.5755 433.357 63.0167C433.793 63.458 434.383 63.7059 434.999 63.7059C436.846 63.7059 438.617 64.4496 439.923 65.7734C441.229 67.0972 441.963 68.8926 441.963 70.7647C441.959 72.0006 441.636 73.2139 441.025 74.2833C440.414 75.3528 439.537 76.2409 438.481 76.8588C438.137 77.06 437.849 77.3474 437.646 77.6935C437.443 78.0396 437.33 78.4327 437.32 78.8353C437.31 79.2347 437.401 79.6301 437.584 79.9841C437.767 80.3382 438.035 80.6392 438.365 80.8588L439.27 81.4706L439.572 81.6353C442.37 82.9805 444.73 85.1082 446.375 87.7678C448.021 90.4274 448.882 93.5081 448.857 96.6471C448.857 97.2711 449.102 97.8696 449.537 98.3108C449.972 98.7521 450.563 99 451.178 99C451.794 99 452.384 98.7521 452.82 98.3108C453.255 97.8696 453.5 97.2711 453.5 96.6471C453.519 93.0363 452.626 89.4806 450.908 86.3178C449.189 83.155 446.701 80.4901 443.68 78.5765V78.5765Z" fill="black"/>
<path d="M397.159 128.152V131.44H392.695V145H388.591V131.44H384.127V128.152H397.159ZM411.842 138.088C411.842 138.472 411.818 138.872 411.77 139.288H402.482C402.546 140.12 402.81 140.76 403.274 141.208C403.754 141.64 404.338 141.856 405.026 141.856C406.05 141.856 406.762 141.424 407.162 140.56H411.53C411.306 141.44 410.898 142.232 410.306 142.936C409.73 143.64 409.002 144.192 408.122 144.592C407.242 144.992 406.258 145.192 405.17 145.192C403.858 145.192 402.69 144.912 401.666 144.352C400.642 143.792 399.842 142.992 399.266 141.952C398.69 140.912 398.402 139.696 398.402 138.304C398.402 136.912 398.682 135.696 399.242 134.656C399.818 133.616 400.618 132.816 401.642 132.256C402.666 131.696 403.842 131.416 405.17 131.416C406.466 131.416 407.618 131.688 408.626 132.232C409.634 132.776 410.418 133.552 410.978 134.56C411.554 135.568 411.842 136.744 411.842 138.088ZM407.642 137.008C407.642 136.304 407.402 135.744 406.922 135.328C406.442 134.912 405.842 134.704 405.122 134.704C404.434 134.704 403.85 134.904 403.37 135.304C402.906 135.704 402.618 136.272 402.506 137.008H407.642ZM425.117 141.16L428.021 131.608H432.389L427.637 145H422.573L417.821 131.608H422.213L425.117 141.16ZM440.213 145.192C438.901 145.192 437.717 144.912 436.661 144.352C435.621 143.792 434.797 142.992 434.189 141.952C433.597 140.912 433.301 139.696 433.301 138.304C433.301 136.928 433.605 135.72 434.213 134.68C434.821 133.624 435.653 132.816 436.709 132.256C437.765 131.696 438.949 131.416 440.261 131.416C441.573 131.416 442.757 131.696 443.813 132.256C444.869 132.816 445.701 133.624 446.309 134.68C446.917 135.72 447.221 136.928 447.221 138.304C447.221 139.68 446.909 140.896 446.285 141.952C445.677 142.992 444.837 143.792 443.765 144.352C442.709 144.912 441.525 145.192 440.213 145.192ZM440.213 141.64C440.997 141.64 441.661 141.352 442.205 140.776C442.765 140.2 443.045 139.376 443.045 138.304C443.045 137.232 442.773 136.408 442.229 135.832C441.701 135.256 441.045 134.968 440.261 134.968C439.461 134.968 438.797 135.256 438.269 135.832C437.741 136.392 437.477 137.216 437.477 138.304C437.477 139.376 437.733 140.2 438.245 140.776C438.773 141.352 439.429 141.64 440.213 141.64ZM462.022 138.088C462.022 138.472 461.998 138.872 461.95 139.288H452.662C452.726 140.12 452.99 140.76 453.454 141.208C453.934 141.64 454.518 141.856 455.206 141.856C456.23 141.856 456.942 141.424 457.342 140.56H461.71C461.486 141.44 461.078 142.232 460.486 142.936C459.91 143.64 459.182 144.192 458.302 144.592C457.422 144.992 456.438 145.192 455.35 145.192C454.038 145.192 452.87 144.912 451.846 144.352C450.822 143.792 450.022 142.992 449.446 141.952C448.87 140.912 448.582 139.696 448.582 138.304C448.582 136.912 448.862 135.696 449.422 134.656C449.998 133.616 450.798 132.816 451.822 132.256C452.846 131.696 454.022 131.416 455.35 131.416C456.646 131.416 457.798 131.688 458.806 132.232C459.814 132.776 460.598 133.552 461.158 134.56C461.734 135.568 462.022 136.744 462.022 138.088ZM457.822 137.008C457.822 136.304 457.582 135.744 457.102 135.328C456.622 134.912 456.022 134.704 455.302 134.704C454.614 134.704 454.03 134.904 453.55 135.304C453.086 135.704 452.798 136.272 452.686 137.008H457.822ZM471.651 141.52V145H469.563C468.075 145 466.915 144.64 466.083 143.92C465.251 143.184 464.835 141.992 464.835 140.344V135.016H463.203V131.608H464.835V128.344H468.939V131.608H471.627V135.016H468.939V140.392C468.939 140.792 469.035 141.08 469.227 141.256C469.419 141.432 469.739 141.52 470.187 141.52H471.651Z" fill="black"/>
<path d="M577.188 254.138C583.724 233.093 566.707 211.146 536.419 214.305C514.037 216.662 490.736 230.419 495.667 254.138C500.147 275.684 514.839 295.057 536.419 293.954C561.108 292.7 570.017 277.188 577.171 254.138" fill="#E1FB41"/>
<path d="M520.851 234.553C521.098 234.059 521.698 233.859 522.192 234.106L522.999 234.509H526.833C527.385 234.509 527.833 234.957 527.833 235.509C527.833 236.061 527.385 236.509 526.833 236.509H525.738L529.589 246.642C529.628 246.628 529.668 246.618 529.709 246.609L548.771 242.481L545.767 235.926C545.625 235.617 545.651 235.256 545.834 234.97C546.017 234.684 546.334 234.51 546.674 234.509L555.575 234.491C557.274 234.487 558.869 235.657 558.869 237.586C558.869 239.296 557.497 241.065 555.582 241.065H553.799C553.247 241.065 552.799 240.617 552.799 240.065C552.799 239.513 553.247 239.065 553.799 239.065H555.582C556.193 239.065 556.869 238.403 556.869 237.586C556.869 236.986 556.41 236.489 555.579 236.491L548.232 236.505L550.979 242.499C551.128 242.66 551.225 242.866 551.248 243.085L552.855 246.591C554.415 246.005 556.105 245.684 557.869 245.684C565.737 245.684 572.115 252.062 572.115 259.93L572.111 260.297C571.916 267.995 565.614 274.175 557.869 274.175C550.124 274.175 543.823 267.995 543.628 260.297L543.623 259.93C543.623 254.538 546.619 249.845 551.037 247.426L549.982 245.125L537.69 260.56C537.099 260.176 536.401 259.942 535.65 259.91L547.722 244.753L530.374 248.509L530.316 248.557L534.67 260.011C534.932 259.958 535.204 259.93 535.482 259.93C537.385 259.93 538.983 261.236 539.429 263H540.57C541.123 263 541.57 263.448 541.57 264C541.57 264.553 541.123 265 540.57 265H539.43C538.984 266.765 537.385 268.071 535.482 268.071L535.273 268.065C533.192 267.959 531.522 266.291 531.417 264.209L531.412 264C531.412 262.75 531.975 261.632 532.862 260.885L528.695 249.919L526.689 251.604C528.379 253.946 529.377 256.821 529.377 259.93L529.373 260.297C529.367 260.544 529.354 260.79 529.335 261.034L532.243 261.507C531.829 262.049 531.549 262.698 531.449 263.405L529.042 263.012C527.633 269.397 521.94 274.175 515.131 274.175C507.386 274.175 501.085 267.995 500.89 260.297L500.884 259.93C500.884 252.062 507.263 245.684 515.131 245.684C519.171 245.684 522.818 247.366 525.41 250.068L527.943 247.94L523.6 236.509H522.763C522.608 236.509 522.454 236.473 522.315 236.404L521.298 235.895C520.804 235.648 520.604 235.047 520.851 234.553ZM515.131 247.684C508.367 247.684 502.885 253.167 502.885 259.93C502.885 266.693 508.368 272.175 515.131 272.175C520.945 272.175 525.812 268.123 527.063 262.69L515.247 260.766C514.403 260.628 514.11 259.563 514.765 259.013L523.874 251.359C521.652 249.092 518.556 247.684 515.131 247.684ZM557.869 247.684C556.402 247.684 554.995 247.942 553.691 248.415L558.778 259.514C559.008 260.016 558.788 260.609 558.286 260.839C557.784 261.069 557.19 260.849 556.96 260.347L551.874 249.251C548.144 251.35 545.623 255.345 545.623 259.93C545.623 266.693 551.106 272.175 557.869 272.175C564.632 272.175 570.115 266.693 570.115 259.93C570.115 253.167 564.633 247.684 557.869 247.684ZM535.482 261.93C534.339 261.93 533.412 262.857 533.412 264C533.412 265.143 534.339 266.071 535.482 266.071C536.263 266.071 536.942 265.638 537.295 265H535.482C534.93 265 534.482 264.553 534.482 264C534.482 263.448 534.93 263 535.482 263H537.295C536.942 262.362 536.263 261.93 535.482 261.93ZM517.719 259.142L527.351 260.71C527.367 260.452 527.377 260.192 527.377 259.93C527.377 257.311 526.551 254.887 525.151 252.896L517.719 259.142Z" fill="black"/>
<path d="M520.851 234.553L519.956 234.106L519.956 234.106L520.851 234.553ZM522.192 234.106L522.64 233.211L522.64 233.211L522.192 234.106ZM522.999 234.509L522.552 235.404L522.763 235.509H522.999V234.509ZM526.833 234.509L526.833 233.509H526.833V234.509ZM527.833 235.509L528.833 235.509V235.509H527.833ZM526.833 236.509V237.509H526.833L526.833 236.509ZM525.738 236.509V235.509H524.288L524.804 236.864L525.738 236.509ZM529.589 246.642L528.654 246.997L529 247.907L529.919 247.586L529.589 246.642ZM529.709 246.609L529.497 245.631L529.497 245.631L529.709 246.609ZM548.771 242.481L548.982 243.458L550.198 243.195L549.68 242.064L548.771 242.481ZM545.767 235.926L544.857 236.343L544.858 236.343L545.767 235.926ZM545.834 234.97L544.992 234.43L544.992 234.431L545.834 234.97ZM546.674 234.509L546.672 233.509L546.672 233.509L546.674 234.509ZM555.575 234.491L555.577 235.491L555.577 235.491L555.575 234.491ZM558.869 237.586L559.869 237.586V237.586L558.869 237.586ZM553.799 241.065L553.799 242.065H553.799V241.065ZM552.799 240.065H551.799V240.065L552.799 240.065ZM553.799 239.065V238.065H553.799L553.799 239.065ZM556.869 237.586L557.869 237.586V237.586L556.869 237.586ZM555.579 236.491L555.581 237.491L555.581 237.491L555.579 236.491ZM548.232 236.505L548.23 235.505L546.676 235.508L547.323 236.922L548.232 236.505ZM550.979 242.499L550.07 242.916L550.137 243.062L550.246 243.179L550.979 242.499ZM551.248 243.085L550.254 243.191L550.271 243.353L550.339 243.502L551.248 243.085ZM552.855 246.591L551.946 247.008L552.335 247.855L553.207 247.527L552.855 246.591ZM557.869 245.684V244.684H557.869L557.869 245.684ZM572.115 259.93L573.115 259.941V259.93H572.115ZM572.111 260.297L573.111 260.323L573.111 260.315L573.111 260.308L572.111 260.297ZM557.869 274.175L557.869 275.175H557.869V274.175ZM543.628 260.297L542.628 260.31L542.628 260.323L543.628 260.297ZM543.623 259.93H542.623L542.623 259.943L543.623 259.93ZM551.037 247.426L551.517 248.303L552.334 247.856L551.946 247.009L551.037 247.426ZM549.982 245.125L550.891 244.709L550.214 243.23L549.2 244.502L549.982 245.125ZM537.69 260.56L537.146 261.399L537.907 261.893L538.473 261.183L537.69 260.56ZM535.65 259.91L534.868 259.287L533.641 260.828L535.609 260.91L535.65 259.91ZM547.722 244.753L548.504 245.376L550.251 243.182L547.51 243.776L547.722 244.753ZM530.374 248.509L530.162 247.532L529.923 247.584L529.735 247.74L530.374 248.509ZM530.316 248.557L529.678 247.788L529.128 248.244L529.382 248.912L530.316 248.557ZM534.67 260.011L533.735 260.366L534.037 261.16L534.868 260.991L534.67 260.011ZM535.482 259.93L535.482 258.93H535.482L535.482 259.93ZM539.429 263L538.459 263.245L538.65 264H539.429V263ZM541.57 264H542.57V264L541.57 264ZM539.43 265V264H538.651L538.46 264.755L539.43 265ZM535.482 268.071L535.454 269.07L535.468 269.071H535.482L535.482 268.071ZM535.273 268.065L535.223 269.063L535.234 269.064L535.245 269.064L535.273 268.065ZM531.417 264.209L530.417 264.233L530.418 264.246L530.418 264.26L531.417 264.209ZM531.412 264L530.412 264V264.012L530.412 264.024L531.412 264ZM532.862 260.885L533.506 261.65L534.049 261.193L533.797 260.53L532.862 260.885ZM528.695 249.919L529.63 249.564L529.13 248.248L528.052 249.153L528.695 249.919ZM526.689 251.604L526.046 250.838L525.335 251.436L525.879 252.189L526.689 251.604ZM529.377 259.93L530.377 259.941V259.93H529.377ZM529.373 260.297L530.373 260.323L530.373 260.315L530.373 260.308L529.373 260.297ZM529.335 261.034L528.338 260.957L528.268 261.873L529.174 262.021L529.335 261.034ZM532.243 261.507L533.038 262.114L534.051 260.788L532.404 260.52L532.243 261.507ZM531.449 263.405L531.288 264.392L532.297 264.556L532.439 263.544L531.449 263.405ZM529.042 263.012L529.203 262.025L528.269 261.873L528.065 262.797L529.042 263.012ZM515.131 274.175L515.131 275.175H515.131L515.131 274.175ZM500.89 260.297L499.89 260.313L499.89 260.323L500.89 260.297ZM500.884 259.93H499.884V259.938L499.884 259.946L500.884 259.93ZM515.131 245.684L515.131 244.684H515.131L515.131 245.684ZM525.41 250.068L524.689 250.76L525.337 251.435L526.053 250.833L525.41 250.068ZM527.943 247.94L528.587 248.705L529.13 248.249L528.878 247.585L527.943 247.94ZM523.6 236.509L524.534 236.154L524.289 235.509H523.6V236.509ZM522.763 236.509L522.763 237.509H522.763V236.509ZM522.315 236.404L521.868 237.298L521.869 237.298L522.315 236.404ZM521.298 235.895L521.745 235V235L521.298 235.895ZM515.131 247.684L515.131 246.684H515.131L515.131 247.684ZM502.885 259.93H501.885V259.93L502.885 259.93ZM515.131 272.175L515.131 273.175H515.131L515.131 272.175ZM527.063 262.69L528.038 262.914L528.278 261.874L527.224 261.703L527.063 262.69ZM515.247 260.766L515.086 261.753L515.086 261.753L515.247 260.766ZM514.765 259.013L514.121 258.247L514.121 258.247L514.765 259.013ZM523.874 251.359L524.517 252.124L525.344 251.43L524.588 250.659L523.874 251.359ZM557.869 247.684V246.684H557.869L557.869 247.684ZM553.691 248.415L553.35 247.475L552.33 247.846L552.782 248.832L553.691 248.415ZM558.778 259.514L559.687 259.097L559.687 259.097L558.778 259.514ZM558.286 260.839L558.703 261.748L558.703 261.748L558.286 260.839ZM556.96 260.347L557.869 259.93L557.869 259.93L556.96 260.347ZM551.874 249.251L552.783 248.835L552.33 247.847L551.384 248.38L551.874 249.251ZM545.623 259.93H544.623V259.93L545.623 259.93ZM557.869 272.175L557.869 273.175H557.869V272.175ZM570.115 259.93L571.115 259.93V259.93H570.115ZM535.482 261.93L535.482 260.93H535.482L535.482 261.93ZM533.412 264L532.412 264V264L533.412 264ZM535.482 266.071L535.482 267.071H535.482L535.482 266.071ZM537.295 265L538.17 265.484L538.991 264H537.295V265ZM535.482 265L535.482 266H535.482V265ZM534.482 264L533.482 264V264H534.482ZM535.482 263V262H535.482L535.482 263ZM537.295 263V264H538.99L538.17 262.516L537.295 263ZM517.719 259.142L517.075 258.376L515.407 259.779L517.558 260.129L517.719 259.142ZM527.351 260.71L527.19 261.697L528.279 261.875L528.349 260.773L527.351 260.71ZM527.377 259.93L528.377 259.93V259.93H527.377ZM525.151 252.896L525.969 252.321L525.342 251.429L524.508 252.13L525.151 252.896ZM520.851 234.553L521.745 235L521.745 235L522.192 234.106L522.64 233.211C521.652 232.717 520.45 233.118 519.956 234.106L520.851 234.553ZM522.192 234.106L521.745 235L522.552 235.404L522.999 234.509L523.446 233.615L522.64 233.211L522.192 234.106ZM522.999 234.509V235.509H526.833V234.509V233.509H522.999V234.509ZM526.833 234.509L526.833 235.509H526.833H527.833H528.833C528.833 234.404 527.937 233.509 526.833 233.509L526.833 234.509ZM527.833 235.509L526.833 235.509L526.833 235.509L526.833 236.509L526.833 237.509C527.938 237.509 528.833 236.613 528.833 235.509L527.833 235.509ZM526.833 236.509V235.509H525.738V236.509V237.509H526.833V236.509ZM525.738 236.509L524.804 236.864L528.654 246.997L529.589 246.642L530.524 246.287L526.673 236.154L525.738 236.509ZM529.589 246.642L529.919 247.586C529.914 247.587 529.912 247.588 529.912 247.588C529.913 247.588 529.915 247.587 529.921 247.586L529.709 246.609L529.497 245.631C529.427 245.647 529.346 245.668 529.259 245.698L529.589 246.642ZM529.709 246.609L529.921 247.586L548.982 243.458L548.771 242.481L548.559 241.503L529.497 245.631L529.709 246.609ZM548.771 242.481L549.68 242.064L546.676 235.509L545.767 235.926L544.858 236.343L547.861 242.897L548.771 242.481ZM545.767 235.926L546.676 235.51L546.676 235.509L545.834 234.97L544.992 234.431C544.626 235.003 544.574 235.723 544.857 236.343L545.767 235.926ZM545.834 234.97L546.676 235.51L546.676 235.509L546.674 234.509L546.672 233.509C545.991 233.511 545.358 233.859 544.992 234.43L545.834 234.97ZM546.674 234.509L546.676 235.509L555.577 235.491L555.575 234.491L555.573 233.491L546.672 233.509L546.674 234.509ZM555.575 234.491L555.577 235.491C556.854 235.488 557.869 236.332 557.869 237.586L558.869 237.586L559.869 237.586C559.869 234.981 557.695 233.486 555.573 233.491L555.575 234.491ZM558.869 237.586L557.869 237.586C557.869 238.859 556.837 240.065 555.582 240.065V241.065V242.065C558.158 242.065 559.869 239.733 559.869 237.586L558.869 237.586ZM555.582 241.065V240.065H553.799V241.065V242.065H555.582V241.065ZM553.799 241.065L553.799 240.065L553.799 240.065L552.799 240.065L551.799 240.065C551.799 241.169 552.694 242.065 553.799 242.065L553.799 241.065ZM552.799 240.065H553.799H553.799L553.799 239.065L553.799 238.065C552.694 238.065 551.799 238.96 551.799 240.065H552.799ZM553.799 239.065V240.065H555.582V239.065V238.065H553.799V239.065ZM555.582 239.065V240.065C556.237 240.065 556.809 239.725 557.192 239.308C557.586 238.877 557.869 238.273 557.869 237.586L556.869 237.586L555.869 237.586C555.869 237.716 555.814 237.851 555.718 237.956C555.609 238.074 555.538 238.065 555.582 238.065V239.065ZM556.869 237.586L557.869 237.586C557.869 237.022 557.648 236.473 557.209 236.073C556.772 235.676 556.193 235.489 555.577 235.491L555.579 236.491L555.581 237.491C555.795 237.49 555.861 237.551 555.862 237.552C555.863 237.553 555.864 237.554 555.864 237.554C555.865 237.554 555.865 237.555 555.865 237.555C555.865 237.555 555.865 237.555 555.865 237.555C555.865 237.555 555.865 237.555 555.865 237.555C555.865 237.555 555.865 237.555 555.865 237.555C555.865 237.555 555.865 237.555 555.865 237.555C555.865 237.556 555.869 237.565 555.869 237.587L556.869 237.586ZM555.579 236.491L555.577 235.491L548.23 235.505L548.232 236.505L548.234 237.505L555.581 237.491L555.579 236.491ZM548.232 236.505L547.323 236.922L550.07 242.916L550.979 242.499L551.889 242.083L549.142 236.089L548.232 236.505ZM550.979 242.499L550.246 243.179C550.249 243.182 550.251 243.186 550.253 243.189C550.254 243.192 550.254 243.193 550.254 243.191L551.248 243.085L552.242 242.98C552.196 242.538 552.003 242.133 551.713 241.82L550.979 242.499ZM551.248 243.085L550.339 243.502L551.946 247.008L552.855 246.591L553.764 246.174L552.157 242.668L551.248 243.085ZM552.855 246.591L553.207 247.527C554.656 246.982 556.227 246.684 557.869 246.684L557.869 245.684L557.869 244.684C555.983 244.684 554.174 245.027 552.503 245.655L552.855 246.591ZM557.869 245.684V246.684C565.185 246.684 571.115 252.615 571.115 259.93H572.115H573.115C573.115 251.51 566.289 244.684 557.869 244.684V245.684ZM572.115 259.93L571.115 259.919L571.111 260.287L572.111 260.297L573.111 260.308L573.115 259.941L572.115 259.93ZM572.111 260.297L571.112 260.272C570.93 267.429 565.07 273.175 557.869 273.175V274.175V275.175C566.158 275.175 572.902 268.561 573.111 260.323L572.111 260.297ZM557.869 274.175L557.869 273.175C550.668 273.175 544.809 267.429 544.628 260.272L543.628 260.297L542.628 260.323C542.837 268.561 549.58 275.175 557.869 275.175L557.869 274.175ZM543.628 260.297L544.628 260.284L544.623 259.917L543.623 259.93L542.623 259.943L542.628 260.31L543.628 260.297ZM543.623 259.93H544.623C544.623 254.918 547.407 250.554 551.517 248.303L551.037 247.426L550.557 246.549C545.831 249.137 542.623 254.158 542.623 259.93H543.623ZM551.037 247.426L551.946 247.009L550.891 244.709L549.982 245.125L549.073 245.542L550.128 247.843L551.037 247.426ZM549.982 245.125L549.2 244.502L536.908 259.937L537.69 260.56L538.473 261.183L550.765 245.748L549.982 245.125ZM537.69 260.56L538.235 259.721C537.497 259.243 536.626 258.95 535.692 258.911L535.65 259.91L535.609 260.91C536.175 260.933 536.7 261.109 537.146 261.399L537.69 260.56ZM535.65 259.91L536.433 260.533L548.504 245.376L547.722 244.753L546.939 244.13L534.868 259.287L535.65 259.91ZM547.722 244.753L547.51 243.776L530.162 247.532L530.374 248.509L530.586 249.486L547.933 245.731L547.722 244.753ZM530.374 248.509L529.735 247.74L529.678 247.788L530.316 248.557L530.955 249.326L531.013 249.278L530.374 248.509ZM530.316 248.557L529.382 248.912L533.735 260.366L534.67 260.011L535.605 259.656L531.251 248.202L530.316 248.557ZM534.67 260.011L534.868 260.991C535.066 260.951 535.271 260.93 535.482 260.93L535.482 259.93L535.482 258.93C535.137 258.93 534.799 258.965 534.471 259.031L534.67 260.011ZM535.482 259.93L535.482 260.93C536.916 260.93 538.123 261.914 538.459 263.245L539.429 263L540.398 262.755C539.843 260.558 537.854 258.93 535.482 258.93L535.482 259.93ZM539.429 263V264H540.57V263V262H539.429V263ZM540.57 263V264V264L541.57 264L542.57 264C542.57 262.896 541.675 262 540.57 262V263ZM541.57 264H540.57V265V266C541.675 266 542.57 265.105 542.57 264H541.57ZM540.57 265V264H539.43V265V266H540.57V265ZM539.43 265L538.46 264.755C538.124 266.086 536.917 267.071 535.482 267.071L535.482 268.071L535.482 269.071C537.854 269.071 539.844 267.443 540.399 265.245L539.43 265ZM535.482 268.071L535.51 267.071L535.301 267.065L535.273 268.065L535.245 269.064L535.454 269.07L535.482 268.071ZM535.273 268.065L535.324 267.066C533.755 266.987 532.495 265.727 532.416 264.159L531.417 264.209L530.418 264.26C530.55 266.854 532.629 268.932 535.223 269.063L535.273 268.065ZM531.417 264.209L532.417 264.186L532.412 263.977L531.412 264L530.412 264.024L530.417 264.233L531.417 264.209ZM531.412 264L532.412 264C532.412 263.058 532.836 262.215 533.506 261.65L532.862 260.885L532.218 260.12C531.115 261.049 530.412 262.443 530.412 264L531.412 264ZM532.862 260.885L533.797 260.53L529.63 249.564L528.695 249.919L527.761 250.274L531.928 261.24L532.862 260.885ZM528.695 249.919L528.052 249.153L526.046 250.838L526.689 251.604L527.333 252.37L529.338 250.685L528.695 249.919ZM526.689 251.604L525.879 252.189C527.45 254.367 528.377 257.039 528.377 259.93H529.377H530.377C530.377 256.604 529.309 253.525 527.5 251.019L526.689 251.604ZM529.377 259.93L528.377 259.919L528.373 260.287L529.373 260.297L530.373 260.308L530.377 259.941L529.377 259.93ZM529.373 260.297L528.373 260.272C528.368 260.5 528.355 260.729 528.338 260.957L529.335 261.034L530.332 261.11C530.352 260.851 530.366 260.588 530.373 260.323L529.373 260.297ZM529.335 261.034L529.174 262.021L532.082 262.494L532.243 261.507L532.404 260.52L529.496 260.047L529.335 261.034ZM532.243 261.507L531.449 260.9C530.933 261.575 530.583 262.384 530.459 263.265L531.449 263.405L532.439 263.544C532.514 263.011 532.725 262.523 533.038 262.114L532.243 261.507ZM531.449 263.405L531.61 262.418L529.203 262.025L529.042 263.012L528.881 263.999L531.288 264.392L531.449 263.405ZM529.042 263.012L528.065 262.797C526.756 268.734 521.461 273.175 515.131 273.175L515.131 274.175L515.131 275.175C522.419 275.175 528.511 270.061 530.019 263.227L529.042 263.012ZM515.131 274.175L515.131 273.175C507.93 273.175 502.071 267.429 501.889 260.272L500.89 260.297L499.89 260.323C500.099 268.561 506.842 275.175 515.131 275.175L515.131 274.175ZM500.89 260.297L501.89 260.281L501.884 259.914L500.884 259.93L499.884 259.946L499.89 260.313L500.89 260.297ZM500.884 259.93H501.884C501.884 252.615 507.815 246.684 515.131 246.684L515.131 245.684L515.131 244.684C506.711 244.684 499.884 251.51 499.884 259.93H500.884ZM515.131 245.684L515.131 246.684C518.887 246.684 522.277 248.247 524.689 250.76L525.41 250.068L526.132 249.375C523.358 246.485 519.454 244.684 515.131 244.684L515.131 245.684ZM525.41 250.068L526.053 250.833L528.587 248.705L527.943 247.94L527.3 247.174L524.767 249.302L525.41 250.068ZM527.943 247.94L528.878 247.585L524.534 236.154L523.6 236.509L522.665 236.864L527.009 248.295L527.943 247.94ZM523.6 236.509V235.509H522.763V236.509V237.509H523.6V236.509ZM522.763 236.509L522.763 235.509L522.762 235.509L522.315 236.404L521.869 237.298C522.146 237.437 522.453 237.509 522.763 237.509L522.763 236.509ZM522.315 236.404L522.763 235.509L521.745 235L521.298 235.895L520.851 236.789L521.868 237.298L522.315 236.404ZM521.298 235.895L521.745 235L521.745 235L520.851 234.553L519.956 234.106C519.462 235.094 519.863 236.295 520.851 236.789L521.298 235.895ZM515.131 247.684L515.131 246.684C507.815 246.684 501.885 252.615 501.885 259.93H502.885H503.885C503.885 253.719 508.92 248.684 515.131 248.684L515.131 247.684ZM502.885 259.93L501.885 259.93C501.885 267.245 507.815 273.175 515.131 273.175L515.131 272.175L515.131 271.175C508.92 271.175 503.885 266.14 503.885 259.93L502.885 259.93ZM515.131 272.175L515.131 273.175C521.421 273.175 526.684 268.791 528.038 262.914L527.063 262.69L526.089 262.465C524.939 267.455 520.469 271.175 515.131 271.175L515.131 272.175ZM527.063 262.69L527.224 261.703L515.408 259.779L515.247 260.766L515.086 261.753L526.903 263.677L527.063 262.69ZM515.247 260.766L515.408 259.779L515.408 259.779L514.765 259.013L514.121 258.247C512.812 259.348 513.398 261.478 515.086 261.753L515.247 260.766ZM514.765 259.013L515.408 259.779L524.517 252.124L523.874 251.359L523.231 250.593L514.121 258.247L514.765 259.013ZM523.874 251.359L524.588 250.659C522.186 248.208 518.836 246.684 515.131 246.684L515.131 247.684L515.131 248.684C518.276 248.684 521.118 249.976 523.16 252.059L523.874 251.359ZM557.869 247.684L557.869 246.684C556.284 246.684 554.762 246.963 553.35 247.475L553.691 248.415L554.033 249.355C555.229 248.921 556.52 248.684 557.869 248.684L557.869 247.684ZM553.691 248.415L552.782 248.832L557.869 259.931L558.778 259.514L559.687 259.097L554.6 247.999L553.691 248.415ZM558.778 259.514L557.869 259.931L557.869 259.93L558.286 260.839L558.703 261.748C559.706 261.288 560.148 260.102 559.687 259.097L558.778 259.514ZM558.286 260.839L557.87 259.93L557.869 259.93L556.96 260.347L556.051 260.764C556.511 261.768 557.699 262.208 558.703 261.748L558.286 260.839ZM556.96 260.347L557.869 259.93L552.783 248.835L551.874 249.251L550.965 249.668L556.051 260.764L556.96 260.347ZM551.874 249.251L551.384 248.38C547.352 250.648 544.623 254.969 544.623 259.93H545.623H546.623C546.623 255.721 548.936 252.052 552.364 250.123L551.874 249.251ZM545.623 259.93L544.623 259.93C544.623 267.245 550.554 273.175 557.869 273.175L557.869 272.175L557.869 271.175C551.658 271.175 546.623 266.14 546.623 259.93L545.623 259.93ZM557.869 272.175V273.175C565.185 273.175 571.115 267.245 571.115 259.93L570.115 259.93L569.115 259.93C569.115 266.14 564.08 271.175 557.869 271.175V272.175ZM570.115 259.93H571.115C571.115 252.615 565.185 246.684 557.869 246.684V247.684V248.684C564.08 248.684 569.115 253.719 569.115 259.93H570.115ZM535.482 261.93L535.482 260.93C533.787 260.93 532.412 262.305 532.412 264L533.412 264L534.412 264C534.412 263.409 534.891 262.93 535.482 262.93L535.482 261.93ZM533.412 264L532.412 264C532.412 265.696 533.787 267.071 535.482 267.071L535.482 266.071L535.482 265.071C534.891 265.071 534.412 264.591 534.412 264L533.412 264ZM535.482 266.071L535.482 267.071C536.642 267.071 537.649 266.427 538.17 265.484L537.295 265L536.42 264.516C536.236 264.849 535.884 265.071 535.482 265.071L535.482 266.071ZM537.295 265V264H535.482V265V266H537.295V265ZM535.482 265L535.482 264H535.482H534.482H533.482C533.482 265.105 534.378 266 535.482 266L535.482 265ZM534.482 264L535.482 264L535.482 264L535.482 263L535.482 262C534.378 262 533.482 262.896 533.482 264L534.482 264ZM535.482 263V264H537.295V263V262H535.482V263ZM537.295 263L538.17 262.516C537.649 261.573 536.642 260.93 535.482 260.93L535.482 261.93L535.482 262.93C535.884 262.93 536.236 263.151 536.42 263.484L537.295 263ZM517.719 259.142L517.558 260.129L527.19 261.697L527.351 260.71L527.511 259.723L517.879 258.155L517.719 259.142ZM527.351 260.71L528.349 260.773C528.366 260.499 528.377 260.218 528.377 259.93L527.377 259.93L526.377 259.93C526.377 260.167 526.368 260.405 526.353 260.647L527.351 260.71ZM527.377 259.93H528.377C528.377 257.098 527.483 254.473 525.969 252.321L525.151 252.896L524.333 253.471C525.619 255.3 526.377 257.525 526.377 259.93H527.377ZM525.151 252.896L524.508 252.13L517.075 258.376L517.719 259.142L518.362 259.907L525.795 253.661L525.151 252.896Z" fill="black"/>
<path d="M486.334 303.152V320H482.23V309.896L478.462 320H475.15L471.358 309.872V320H467.254V303.152H472.102L476.83 314.816L481.51 303.152H486.334ZM501.909 313.088C501.909 313.472 501.885 313.872 501.837 314.288H492.549C492.613 315.12 492.877 315.76 493.341 316.208C493.821 316.64 494.405 316.856 495.093 316.856C496.117 316.856 496.829 316.424 497.229 315.56H501.597C501.373 316.44 500.965 317.232 500.373 317.936C499.797 318.64 499.069 319.192 498.189 319.592C497.309 319.992 496.325 320.192 495.237 320.192C493.925 320.192 492.757 319.912 491.733 319.352C490.709 318.792 489.909 317.992 489.333 316.952C488.757 315.912 488.469 314.696 488.469 313.304C488.469 311.912 488.749 310.696 489.309 309.656C489.885 308.616 490.685 307.816 491.709 307.256C492.733 306.696 493.909 306.416 495.237 306.416C496.533 306.416 497.685 306.688 498.693 307.232C499.701 307.776 500.485 308.552 501.045 309.56C501.621 310.568 501.909 311.744 501.909 313.088ZM497.709 312.008C497.709 311.304 497.469 310.744 496.989 310.328C496.509 309.912 495.909 309.704 495.189 309.704C494.501 309.704 493.917 309.904 493.437 310.304C492.973 310.704 492.685 311.272 492.573 312.008H497.709ZM511.538 316.52V320H509.45C507.962 320 506.802 319.64 505.97 318.92C505.138 318.184 504.722 316.992 504.722 315.344V310.016H503.09V306.608H504.722V303.344H508.826V306.608H511.514V310.016H508.826V315.392C508.826 315.792 508.922 316.08 509.114 316.256C509.306 316.432 509.626 316.52 510.074 316.52H511.538ZM518.094 313.28C518.094 311.904 518.35 310.696 518.862 309.656C519.39 308.616 520.102 307.816 520.998 307.256C521.894 306.696 522.894 306.416 523.998 306.416C524.878 306.416 525.678 306.6 526.398 306.968C527.134 307.336 527.71 307.832 528.126 308.456V302.24H532.23V320H528.126V318.08C527.742 318.72 527.19 319.232 526.47 319.616C525.766 320 524.942 320.192 523.998 320.192C522.894 320.192 521.894 319.912 520.998 319.352C520.102 318.776 519.39 317.968 518.862 316.928C518.35 315.872 518.094 314.656 518.094 313.28ZM528.126 313.304C528.126 312.28 527.838 311.472 527.262 310.88C526.702 310.288 526.014 309.992 525.198 309.992C524.382 309.992 523.686 310.288 523.11 310.88C522.55 311.456 522.27 312.256 522.27 313.28C522.27 314.304 522.55 315.12 523.11 315.728C523.686 316.32 524.382 316.616 525.198 316.616C526.014 316.616 526.702 316.32 527.262 315.728C527.838 315.136 528.126 314.328 528.126 313.304ZM547.823 313.088C547.823 313.472 547.799 313.872 547.751 314.288H538.463C538.527 315.12 538.791 315.76 539.255 316.208C539.735 316.64 540.319 316.856 541.007 316.856C542.031 316.856 542.743 316.424 543.143 315.56H547.511C547.287 316.44 546.879 317.232 546.287 317.936C545.711 318.64 544.983 319.192 544.103 319.592C543.223 319.992 542.239 320.192 541.151 320.192C539.839 320.192 538.671 319.912 537.647 319.352C536.623 318.792 535.823 317.992 535.247 316.952C534.671 315.912 534.383 314.696 534.383 313.304C534.383 311.912 534.663 310.696 535.223 309.656C535.799 308.616 536.599 307.816 537.623 307.256C538.647 306.696 539.823 306.416 541.151 306.416C542.447 306.416 543.599 306.688 544.607 307.232C545.615 307.776 546.399 308.552 546.959 309.56C547.535 310.568 547.823 311.744 547.823 313.088ZM543.623 312.008C543.623 311.304 543.383 310.744 542.903 310.328C542.423 309.912 541.823 309.704 541.103 309.704C540.415 309.704 539.831 309.904 539.351 310.304C538.887 310.704 538.599 311.272 538.487 312.008H543.623ZM561.794 310.016H559.586V320H555.482V310.016H553.994V306.608H555.482V306.224C555.482 304.576 555.954 303.328 556.898 302.48C557.842 301.616 559.226 301.184 561.05 301.184C561.354 301.184 561.578 301.192 561.722 301.208V304.688C560.938 304.64 560.386 304.752 560.066 305.024C559.746 305.296 559.586 305.784 559.586 306.488V306.608H561.794V310.016ZM565.786 305.216C565.066 305.216 564.474 305.008 564.01 304.592C563.562 304.16 563.338 303.632 563.338 303.008C563.338 302.368 563.562 301.84 564.01 301.424C564.474 300.992 565.066 300.776 565.786 300.776C566.49 300.776 567.066 300.992 567.514 301.424C567.978 301.84 568.21 302.368 568.21 303.008C568.21 303.632 567.978 304.16 567.514 304.592C567.066 305.008 566.49 305.216 565.786 305.216ZM567.826 306.608V320H563.722V306.608H567.826ZM583.424 313.088C583.424 313.472 583.401 313.872 583.353 314.288H574.065C574.129 315.12 574.393 315.76 574.857 316.208C575.337 316.64 575.921 316.856 576.609 316.856C577.633 316.856 578.345 316.424 578.745 315.56H583.113C582.889 316.44 582.481 317.232 581.889 317.936C581.313 318.64 580.585 319.192 579.705 319.592C578.825 319.992 577.841 320.192 576.753 320.192C575.441 320.192 574.273 319.912 573.249 319.352C572.225 318.792 571.425 317.992 570.849 316.952C570.273 315.912 569.985 314.696 569.985 313.304C569.985 311.912 570.265 310.696 570.825 309.656C571.401 308.616 572.201 307.816 573.225 307.256C574.249 306.696 575.425 306.416 576.753 306.416C578.049 306.416 579.201 306.688 580.209 307.232C581.217 307.776 582.001 308.552 582.561 309.56C583.137 310.568 583.424 311.744 583.424 313.088ZM579.225 312.008C579.225 311.304 578.985 310.744 578.505 310.328C578.025 309.912 577.425 309.704 576.705 309.704C576.017 309.704 575.433 309.904 574.953 310.304C574.489 310.704 574.201 311.272 574.089 312.008H579.225ZM593.054 316.52V320H590.966C589.478 320 588.318 319.64 587.486 318.92C586.654 318.184 586.238 316.992 586.238 315.344V310.016H584.606V306.608H586.238V303.344H590.342V306.608H593.03V310.016H590.342V315.392C590.342 315.792 590.438 316.08 590.63 316.256C590.822 316.432 591.142 316.52 591.59 316.52H593.054ZM600.788 320.192C599.62 320.192 598.58 319.992 597.668 319.592C596.756 319.192 596.036 318.648 595.508 317.96C594.98 317.256 594.684 316.472 594.62 315.608H598.676C598.724 316.072 598.94 316.448 599.324 316.736C599.708 317.024 600.18 317.168 600.74 317.168C601.252 317.168 601.644 317.072 601.916 316.88C602.204 316.672 602.348 316.408 602.348 316.088C602.348 315.704 602.148 315.424 601.748 315.248C601.348 315.056 600.7 314.848 599.804 314.624C598.844 314.4 598.044 314.168 597.404 313.928C596.764 313.672 596.212 313.28 595.748 312.752C595.284 312.208 595.052 311.48 595.052 310.568C595.052 309.8 595.26 309.104 595.676 308.48C596.108 307.84 596.732 307.336 597.548 306.968C598.38 306.6 599.364 306.416 600.5 306.416C602.18 306.416 603.5 306.832 604.46 307.664C605.436 308.496 605.996 309.6 606.14 310.976H602.348C602.284 310.512 602.076 310.144 601.724 309.872C601.388 309.6 600.94 309.464 600.38 309.464C599.9 309.464 599.532 309.56 599.276 309.752C599.02 309.928 598.892 310.176 598.892 310.496C598.892 310.88 599.092 311.168 599.492 311.36C599.908 311.552 600.548 311.744 601.412 311.936C602.404 312.192 603.212 312.448 603.836 312.704C604.46 312.944 605.004 313.344 605.468 313.904C605.948 314.448 606.196 315.184 606.212 316.112C606.212 316.896 605.988 317.6 605.54 318.224C605.108 318.832 604.476 319.312 603.644 319.664C602.828 320.016 601.876 320.192 600.788 320.192Z" fill="black"/>
<path d="M238.188 346.138C244.724 325.093 227.707 303.146 197.419 306.305C175.037 308.662 151.736 322.419 156.667 346.138C161.147 367.684 175.839 387.057 197.419 385.954C222.108 384.7 231.017 369.188 238.171 346.138" fill="#E1FB41"/>
<path d="M210 326H186C184.409 326 182.883 326.632 181.757 327.757C180.632 328.883 180 330.409 180 332V356C180.003 357.238 180.39 358.444 181.106 359.454C181.822 360.464 182.833 361.227 184 361.64V364C184 364.53 184.211 365.039 184.586 365.414C184.961 365.789 185.47 366 186 366C186.53 366 187.039 365.789 187.414 365.414C187.789 365.039 188 364.53 188 364V362H208V364C208 364.53 208.211 365.039 208.586 365.414C208.961 365.789 209.47 366 210 366C210.53 366 211.039 365.789 211.414 365.414C211.789 365.039 212 364.53 212 364V361.64C213.167 361.227 214.178 360.464 214.894 359.454C215.61 358.444 215.997 357.238 216 356V332C216 330.409 215.368 328.883 214.243 327.757C213.117 326.632 211.591 326 210 326ZM184 338H196V346H184V338ZM212 356C212 356.53 211.789 357.039 211.414 357.414C211.039 357.789 210.53 358 210 358H186C185.47 358 184.961 357.789 184.586 357.414C184.211 357.039 184 356.53 184 356V350H212V356ZM212 346H200V338H212V346ZM212 334H184V332C184 331.47 184.211 330.961 184.586 330.586C184.961 330.211 185.47 330 186 330H210C210.53 330 211.039 330.211 211.414 330.586C211.789 330.961 212 331.47 212 332V334ZM205.24 355.84C205.48 355.942 205.739 355.997 206 356C206.53 356 207.039 355.789 207.414 355.414C207.789 355.039 208 354.53 208 354C208.01 353.867 208.01 353.733 208 353.6C207.978 353.475 207.938 353.353 207.88 353.24C207.836 353.113 207.776 352.991 207.7 352.88C207.626 352.775 207.546 352.675 207.46 352.58L207.16 352.34C207.049 352.264 206.927 352.204 206.8 352.16C206.677 352.084 206.541 352.03 206.4 352C206.076 351.932 205.74 351.946 205.422 352.04C205.104 352.135 204.815 352.306 204.58 352.54C204.494 352.635 204.414 352.735 204.34 352.84C204.264 352.951 204.204 353.073 204.16 353.2C204.102 353.313 204.062 353.435 204.04 353.56C204.03 353.693 204.03 353.827 204.04 353.96C204.042 354.485 204.251 354.987 204.62 355.36C204.793 355.559 205.004 355.722 205.24 355.84ZM189.24 355.84C189.48 355.942 189.739 355.997 190 356C190.53 356 191.039 355.789 191.414 355.414C191.789 355.039 192 354.53 192 354C192.01 353.867 192.01 353.733 192 353.6C191.978 353.475 191.938 353.353 191.88 353.24C191.836 353.113 191.776 352.991 191.7 352.88C191.626 352.775 191.546 352.675 191.46 352.58L191.16 352.34L190.8 352.16L190.4 352C190.076 351.932 189.74 351.946 189.422 352.04C189.104 352.135 188.815 352.306 188.58 352.54C188.494 352.635 188.414 352.735 188.34 352.84C188.264 352.951 188.204 353.073 188.16 353.2C188.102 353.313 188.062 353.435 188.04 353.56C188.03 353.693 188.03 353.827 188.04 353.96C188.042 354.485 188.251 354.987 188.62 355.36C188.793 355.559 189.004 355.722 189.24 355.84V355.84Z" fill="black"/>
<path d="M144.831 412.168C143.247 412.168 141.791 411.8 140.463 411.064C139.151 410.328 138.103 409.304 137.319 407.992C136.551 406.664 136.167 405.176 136.167 403.528C136.167 401.88 136.551 400.4 137.319 399.088C138.103 397.776 139.151 396.752 140.463 396.016C141.791 395.28 143.247 394.912 144.831 394.912C146.415 394.912 147.863 395.28 149.175 396.016C150.503 396.752 151.543 397.776 152.295 399.088C153.063 400.4 153.447 401.88 153.447 403.528C153.447 405.176 153.063 406.664 152.295 407.992C151.527 409.304 150.487 410.328 149.175 411.064C147.863 411.8 146.415 412.168 144.831 412.168ZM144.831 408.424C146.175 408.424 147.247 407.976 148.047 407.08C148.863 406.184 149.271 405 149.271 403.528C149.271 402.04 148.863 400.856 148.047 399.976C147.247 399.08 146.175 398.632 144.831 398.632C143.471 398.632 142.383 399.072 141.567 399.952C140.767 400.832 140.367 402.024 140.367 403.528C140.367 405.016 140.767 406.208 141.567 407.104C142.383 407.984 143.471 408.424 144.831 408.424ZM159.834 400.504C160.234 399.88 160.786 399.376 161.49 398.992C162.194 398.608 163.018 398.416 163.962 398.416C165.066 398.416 166.066 398.696 166.962 399.256C167.858 399.816 168.562 400.616 169.074 401.656C169.602 402.696 169.866 403.904 169.866 405.28C169.866 406.656 169.602 407.872 169.074 408.928C168.562 409.968 167.858 410.776 166.962 411.352C166.066 411.912 165.066 412.192 163.962 412.192C163.034 412.192 162.21 412 161.49 411.616C160.786 411.232 160.234 410.736 159.834 410.128V418.384H155.73V398.608H159.834V400.504ZM165.69 405.28C165.69 404.256 165.402 403.456 164.826 402.88C164.266 402.288 163.57 401.992 162.738 401.992C161.922 401.992 161.226 402.288 160.65 402.88C160.09 403.472 159.81 404.28 159.81 405.304C159.81 406.328 160.09 407.136 160.65 407.728C161.226 408.32 161.922 408.616 162.738 408.616C163.554 408.616 164.25 408.32 164.826 407.728C165.402 407.12 165.69 406.304 165.69 405.28ZM184.643 405.088C184.643 405.472 184.619 405.872 184.571 406.288H175.283C175.347 407.12 175.611 407.76 176.075 408.208C176.555 408.64 177.139 408.856 177.827 408.856C178.851 408.856 179.563 408.424 179.963 407.56H184.331C184.107 408.44 183.699 409.232 183.107 409.936C182.531 410.64 181.803 411.192 180.923 411.592C180.043 411.992 179.059 412.192 177.971 412.192C176.659 412.192 175.491 411.912 174.467 411.352C173.443 410.792 172.643 409.992 172.067 408.952C171.491 407.912 171.203 406.696 171.203 405.304C171.203 403.912 171.483 402.696 172.043 401.656C172.619 400.616 173.419 399.816 174.443 399.256C175.467 398.696 176.643 398.416 177.971 398.416C179.267 398.416 180.419 398.688 181.427 399.232C182.435 399.776 183.219 400.552 183.779 401.56C184.355 402.568 184.643 403.744 184.643 405.088ZM180.443 404.008C180.443 403.304 180.203 402.744 179.723 402.328C179.243 401.912 178.643 401.704 177.923 401.704C177.235 401.704 176.651 401.904 176.171 402.304C175.707 402.704 175.419 403.272 175.307 404.008H180.443ZM194.968 398.464C196.536 398.464 197.784 398.976 198.712 400C199.656 401.008 200.128 402.4 200.128 404.176V412H196.048V404.728C196.048 403.832 195.816 403.136 195.352 402.64C194.888 402.144 194.264 401.896 193.48 401.896C192.696 401.896 192.072 402.144 191.608 402.64C191.144 403.136 190.912 403.832 190.912 404.728V412H186.808V398.608H190.912V400.384C191.328 399.792 191.888 399.328 192.592 398.992C193.296 398.64 194.088 398.464 194.968 398.464ZM207.084 400.504C207.468 399.88 208.02 399.376 208.74 398.992C209.46 398.608 210.284 398.416 211.212 398.416C212.316 398.416 213.316 398.696 214.212 399.256C215.108 399.816 215.812 400.616 216.324 401.656C216.852 402.696 217.116 403.904 217.116 405.28C217.116 406.656 216.852 407.872 216.324 408.928C215.812 409.968 215.108 410.776 214.212 411.352C213.316 411.912 212.316 412.192 211.212 412.192C210.268 412.192 209.444 412.008 208.74 411.64C208.036 411.256 207.484 410.752 207.084 410.128V412H202.98V394.24H207.084V400.504ZM212.94 405.28C212.94 404.256 212.652 403.456 212.076 402.88C211.516 402.288 210.82 401.992 209.988 401.992C209.172 401.992 208.476 402.288 207.9 402.88C207.34 403.472 207.06 404.28 207.06 405.304C207.06 406.328 207.34 407.136 207.9 407.728C208.476 408.32 209.172 408.616 209.988 408.616C210.804 408.616 211.5 408.32 212.076 407.728C212.652 407.12 212.94 406.304 212.94 405.28ZM218.453 405.28C218.453 403.904 218.709 402.696 219.221 401.656C219.749 400.616 220.461 399.816 221.357 399.256C222.253 398.696 223.253 398.416 224.357 398.416C225.301 398.416 226.125 398.608 226.829 398.992C227.549 399.376 228.101 399.88 228.485 400.504V398.608H232.589V412H228.485V410.104C228.085 410.728 227.525 411.232 226.805 411.616C226.101 412 225.277 412.192 224.333 412.192C223.245 412.192 222.253 411.912 221.357 411.352C220.461 410.776 219.749 409.968 219.221 408.928C218.709 407.872 218.453 406.656 218.453 405.28ZM228.485 405.304C228.485 404.28 228.197 403.472 227.621 402.88C227.061 402.288 226.373 401.992 225.557 401.992C224.741 401.992 224.045 402.288 223.469 402.88C222.909 403.456 222.629 404.256 222.629 405.28C222.629 406.304 222.909 407.12 223.469 407.728C224.045 408.32 224.741 408.616 225.557 408.616C226.373 408.616 227.061 408.32 227.621 407.728C228.197 407.136 228.485 406.328 228.485 405.304ZM234.742 405.28C234.742 403.904 234.998 402.696 235.51 401.656C236.038 400.616 236.75 399.816 237.646 399.256C238.542 398.696 239.542 398.416 240.646 398.416C241.59 398.416 242.414 398.608 243.118 398.992C243.838 399.376 244.39 399.88 244.774 400.504V398.608H248.878V412H244.774V410.104C244.374 410.728 243.814 411.232 243.094 411.616C242.39 412 241.566 412.192 240.622 412.192C239.534 412.192 238.542 411.912 237.646 411.352C236.75 410.776 236.038 409.968 235.51 408.928C234.998 407.872 234.742 406.656 234.742 405.28ZM244.774 405.304C244.774 404.28 244.486 403.472 243.91 402.88C243.35 402.288 242.662 401.992 241.846 401.992C241.03 401.992 240.334 402.288 239.758 402.88C239.198 403.456 238.918 404.256 238.918 405.28C238.918 406.304 239.198 407.12 239.758 407.728C240.334 408.32 241.03 408.616 241.846 408.616C242.662 408.616 243.35 408.32 243.91 407.728C244.486 407.136 244.774 406.328 244.774 405.304ZM255.951 400.84C256.431 400.104 257.031 399.528 257.751 399.112C258.471 398.68 259.271 398.464 260.151 398.464V402.808H259.023C257.999 402.808 257.231 403.032 256.719 403.48C256.207 403.912 255.951 404.68 255.951 405.784V412H251.847V398.608H255.951V400.84ZM157.793 444.16L160.697 434.608H165.065L160.313 448H155.249L150.497 434.608H154.889L157.793 444.16ZM179.417 441.088C179.417 441.472 179.393 441.872 179.345 442.288H170.057C170.121 443.12 170.385 443.76 170.849 444.208C171.329 444.64 171.913 444.856 172.601 444.856C173.625 444.856 174.337 444.424 174.737 443.56H179.105C178.881 444.44 178.473 445.232 177.881 445.936C177.305 446.64 176.577 447.192 175.697 447.592C174.817 447.992 173.833 448.192 172.745 448.192C171.433 448.192 170.265 447.912 169.241 447.352C168.217 446.792 167.417 445.992 166.841 444.952C166.265 443.912 165.977 442.696 165.977 441.304C165.977 439.912 166.257 438.696 166.817 437.656C167.393 436.616 168.193 435.816 169.217 435.256C170.241 434.696 171.417 434.416 172.745 434.416C174.041 434.416 175.193 434.688 176.201 435.232C177.209 435.776 177.993 436.552 178.553 437.56C179.129 438.568 179.417 439.744 179.417 441.088ZM175.217 440.008C175.217 439.304 174.977 438.744 174.497 438.328C174.017 437.912 173.417 437.704 172.697 437.704C172.009 437.704 171.425 437.904 170.945 438.304C170.481 438.704 170.193 439.272 170.081 440.008H175.217ZM185.686 436.84C186.166 436.104 186.766 435.528 187.486 435.112C188.206 434.68 189.006 434.464 189.886 434.464V438.808H188.758C187.734 438.808 186.966 439.032 186.454 439.48C185.942 439.912 185.686 440.68 185.686 441.784V448H181.582V434.608H185.686V436.84ZM197.871 444.16L200.775 434.608H205.143L200.391 448H195.327L190.575 434.608H194.967L197.871 444.16ZM212.967 448.192C211.655 448.192 210.471 447.912 209.415 447.352C208.375 446.792 207.551 445.992 206.943 444.952C206.351 443.912 206.055 442.696 206.055 441.304C206.055 439.928 206.359 438.72 206.967 437.68C207.575 436.624 208.407 435.816 209.463 435.256C210.519 434.696 211.703 434.416 213.015 434.416C214.327 434.416 215.511 434.696 216.567 435.256C217.623 435.816 218.455 436.624 219.063 437.68C219.671 438.72 219.975 439.928 219.975 441.304C219.975 442.68 219.663 443.896 219.039 444.952C218.431 445.992 217.591 446.792 216.519 447.352C215.463 447.912 214.279 448.192 212.967 448.192ZM212.967 444.64C213.751 444.64 214.415 444.352 214.959 443.776C215.519 443.2 215.799 442.376 215.799 441.304C215.799 440.232 215.527 439.408 214.983 438.832C214.455 438.256 213.799 437.968 213.015 437.968C212.215 437.968 211.551 438.256 211.023 438.832C210.495 439.392 210.231 440.216 210.231 441.304C210.231 442.376 210.487 443.2 210.999 443.776C211.527 444.352 212.183 444.64 212.967 444.64ZM234.776 441.088C234.776 441.472 234.752 441.872 234.704 442.288H225.416C225.48 443.12 225.744 443.76 226.208 444.208C226.688 444.64 227.272 444.856 227.96 444.856C228.984 444.856 229.696 444.424 230.096 443.56H234.464C234.24 444.44 233.832 445.232 233.24 445.936C232.664 446.64 231.936 447.192 231.056 447.592C230.176 447.992 229.192 448.192 228.104 448.192C226.792 448.192 225.624 447.912 224.6 447.352C223.576 446.792 222.776 445.992 222.2 444.952C221.624 443.912 221.336 442.696 221.336 441.304C221.336 439.912 221.616 438.696 222.176 437.656C222.752 436.616 223.552 435.816 224.576 435.256C225.6 434.696 226.776 434.416 228.104 434.416C229.4 434.416 230.552 434.688 231.56 435.232C232.568 435.776 233.352 436.552 233.912 437.56C234.488 438.568 234.776 439.744 234.776 441.088ZM230.576 440.008C230.576 439.304 230.336 438.744 229.856 438.328C229.376 437.912 228.776 437.704 228.056 437.704C227.368 437.704 226.784 437.904 226.304 438.304C225.84 438.704 225.552 439.272 225.44 440.008H230.576ZM241.045 436.84C241.525 436.104 242.125 435.528 242.845 435.112C243.565 434.68 244.365 434.464 245.245 434.464V438.808H244.117C243.093 438.808 242.325 439.032 241.813 439.48C241.301 439.912 241.045 440.68 241.045 441.784V448H236.941V434.608H241.045V436.84Z" fill="black"/>
<path d="M336.188 585.138C342.724 564.093 325.707 542.146 295.419 545.305C273.037 547.662 249.736 561.419 254.667 585.138C259.147 606.684 273.839 626.057 295.419 624.954C320.108 623.7 329.017 608.188 336.171 585.138" fill="#E1FB41"/>
<path d="M313.85 582.333H313.034L309.847 574.013C309.277 572.534 308.298 571.266 307.035 570.373C305.772 569.48 304.282 569.002 302.757 569H287.457C285.686 568.995 283.968 569.633 282.596 570.805C281.224 571.977 280.283 573.61 279.935 575.427L278.609 582.333H278.15C276.121 582.333 274.175 583.176 272.741 584.676C271.306 586.177 270.5 588.212 270.5 590.333V598.333C270.5 599.041 270.769 599.719 271.247 600.219C271.725 600.719 272.374 601 273.05 601H275.6C275.6 603.122 276.406 605.157 277.841 606.657C279.275 608.157 281.221 609 283.25 609C285.279 609 287.225 608.157 288.659 606.657C290.094 605.157 290.9 603.122 290.9 601H301.1C301.1 603.122 301.906 605.157 303.341 606.657C304.775 608.157 306.721 609 308.75 609C310.779 609 312.725 608.157 314.159 606.657C315.594 605.157 316.4 603.122 316.4 601H318.95C319.626 601 320.275 600.719 320.753 600.219C321.231 599.719 321.5 599.041 321.5 598.333V590.333C321.5 588.212 320.694 586.177 319.259 584.676C317.825 583.176 315.879 582.333 313.85 582.333V582.333ZM298.55 574.333H302.757C303.264 574.338 303.757 574.5 304.175 574.8C304.593 575.099 304.916 575.521 305.103 576.013L307.526 582.333H298.55V574.333ZM284.933 576.467C285.052 575.855 285.373 575.307 285.839 574.917C286.305 574.527 286.886 574.321 287.483 574.333H293.45V582.333H283.811L284.933 576.467ZM283.25 603.667C282.746 603.667 282.253 603.51 281.833 603.217C281.414 602.924 281.087 602.508 280.894 602.02C280.701 601.533 280.651 600.997 280.749 600.48C280.847 599.962 281.09 599.487 281.447 599.114C281.804 598.741 282.258 598.487 282.753 598.385C283.247 598.282 283.76 598.334 284.226 598.536C284.692 598.738 285.09 599.08 285.37 599.518C285.65 599.957 285.8 600.473 285.8 601C285.8 601.707 285.531 602.386 285.053 602.886C284.575 603.386 283.926 603.667 283.25 603.667ZM308.75 603.667C308.246 603.667 307.753 603.51 307.333 603.217C306.914 602.924 306.587 602.508 306.394 602.02C306.201 601.533 306.151 600.997 306.249 600.48C306.347 599.962 306.59 599.487 306.947 599.114C307.303 598.741 307.758 598.487 308.253 598.385C308.747 598.282 309.26 598.334 309.726 598.536C310.192 598.738 310.59 599.08 310.87 599.518C311.15 599.957 311.3 600.473 311.3 601C311.3 601.707 311.031 602.386 310.553 602.886C310.075 603.386 309.426 603.667 308.75 603.667ZM316.4 595.667H314.411C313.694 594.842 312.82 594.183 311.845 593.732C310.87 593.281 309.816 593.048 308.75 593.048C307.684 593.048 306.63 593.281 305.655 593.732C304.68 594.183 303.806 594.842 303.089 595.667H288.911C288.194 594.842 287.32 594.183 286.345 593.732C285.37 593.281 284.316 593.048 283.25 593.048C282.184 593.048 281.13 593.281 280.155 593.732C279.18 594.183 278.306 594.842 277.589 595.667H275.6V590.333C275.6 589.626 275.869 588.948 276.347 588.448C276.825 587.948 277.474 587.667 278.15 587.667H313.85C314.526 587.667 315.175 587.948 315.653 588.448C316.131 588.948 316.4 589.626 316.4 590.333V595.667Z" fill="black"/>
<path d="M231.929 646.552C231.929 644.888 232.289 643.408 233.009 642.112C233.729 640.8 234.729 639.784 236.009 639.064C237.305 638.328 238.769 637.96 240.401 637.96C242.401 637.96 244.113 638.488 245.537 639.544C246.961 640.6 247.913 642.04 248.393 643.864H243.881C243.545 643.16 243.065 642.624 242.441 642.256C241.833 641.888 241.137 641.704 240.353 641.704C239.089 641.704 238.065 642.144 237.281 643.024C236.497 643.904 236.105 645.08 236.105 646.552C236.105 648.024 236.497 649.2 237.281 650.08C238.065 650.96 239.089 651.4 240.353 651.4C241.137 651.4 241.833 651.216 242.441 650.848C243.065 650.48 243.545 649.944 243.881 649.24H248.393C247.913 651.064 246.961 652.504 245.537 653.56C244.113 654.6 242.401 655.12 240.401 655.12C238.769 655.12 237.305 654.76 236.009 654.04C234.729 653.304 233.729 652.288 233.009 650.992C232.289 649.696 231.929 648.216 231.929 646.552ZM250.09 648.28C250.09 646.904 250.346 645.696 250.858 644.656C251.386 643.616 252.098 642.816 252.994 642.256C253.89 641.696 254.89 641.416 255.994 641.416C256.938 641.416 257.762 641.608 258.466 641.992C259.186 642.376 259.738 642.88 260.122 643.504V641.608H264.226V655H260.122V653.104C259.722 653.728 259.162 654.232 258.442 654.616C257.738 655 256.914 655.192 255.97 655.192C254.882 655.192 253.89 654.912 252.994 654.352C252.098 653.776 251.386 652.968 250.858 651.928C250.346 650.872 250.09 649.656 250.09 648.28ZM260.122 648.304C260.122 647.28 259.834 646.472 259.258 645.88C258.698 645.288 258.01 644.992 257.194 644.992C256.378 644.992 255.682 645.288 255.106 645.88C254.546 646.456 254.266 647.256 254.266 648.28C254.266 649.304 254.546 650.12 255.106 650.728C255.682 651.32 256.378 651.616 257.194 651.616C258.01 651.616 258.698 651.32 259.258 650.728C259.834 650.136 260.122 649.328 260.122 648.304ZM271.299 643.84C271.779 643.104 272.379 642.528 273.099 642.112C273.819 641.68 274.619 641.464 275.499 641.464V645.808H274.371C273.347 645.808 272.579 646.032 272.067 646.48C271.555 646.912 271.299 647.68 271.299 648.784V655H267.195V641.608H271.299V643.84ZM281.565 643.504C281.965 642.88 282.517 642.376 283.221 641.992C283.925 641.608 284.749 641.416 285.693 641.416C286.797 641.416 287.797 641.696 288.693 642.256C289.589 642.816 290.293 643.616 290.805 644.656C291.333 645.696 291.597 646.904 291.597 648.28C291.597 649.656 291.333 650.872 290.805 651.928C290.293 652.968 289.589 653.776 288.693 654.352C287.797 654.912 286.797 655.192 285.693 655.192C284.765 655.192 283.941 655 283.221 654.616C282.517 654.232 281.965 653.736 281.565 653.128V661.384H277.461V641.608H281.565V643.504ZM287.421 648.28C287.421 647.256 287.133 646.456 286.557 645.88C285.997 645.288 285.301 644.992 284.469 644.992C283.653 644.992 282.957 645.288 282.381 645.88C281.821 646.472 281.541 647.28 281.541 648.304C281.541 649.328 281.821 650.136 282.381 650.728C282.957 651.32 283.653 651.616 284.469 651.616C285.285 651.616 285.981 651.32 286.557 650.728C287.133 650.12 287.421 649.304 287.421 648.28ZM299.846 655.192C298.534 655.192 297.35 654.912 296.294 654.352C295.254 653.792 294.43 652.992 293.822 651.952C293.23 650.912 292.934 649.696 292.934 648.304C292.934 646.928 293.238 645.72 293.846 644.68C294.454 643.624 295.286 642.816 296.342 642.256C297.398 641.696 298.582 641.416 299.894 641.416C301.206 641.416 302.39 641.696 303.446 642.256C304.502 642.816 305.334 643.624 305.942 644.68C306.55 645.72 306.854 646.928 306.854 648.304C306.854 649.68 306.542 650.896 305.918 651.952C305.31 652.992 304.47 653.792 303.398 654.352C302.342 654.912 301.158 655.192 299.846 655.192ZM299.846 651.64C300.63 651.64 301.294 651.352 301.838 650.776C302.398 650.2 302.678 649.376 302.678 648.304C302.678 647.232 302.406 646.408 301.862 645.832C301.334 645.256 300.678 644.968 299.894 644.968C299.094 644.968 298.43 645.256 297.902 645.832C297.374 646.392 297.11 647.216 297.11 648.304C297.11 649.376 297.366 650.2 297.878 650.776C298.406 651.352 299.062 651.64 299.846 651.64ZM315.127 655.192C313.815 655.192 312.631 654.912 311.575 654.352C310.535 653.792 309.711 652.992 309.103 651.952C308.511 650.912 308.215 649.696 308.215 648.304C308.215 646.928 308.519 645.72 309.127 644.68C309.735 643.624 310.567 642.816 311.623 642.256C312.679 641.696 313.863 641.416 315.175 641.416C316.487 641.416 317.671 641.696 318.727 642.256C319.783 642.816 320.615 643.624 321.223 644.68C321.831 645.72 322.135 646.928 322.135 648.304C322.135 649.68 321.823 650.896 321.199 651.952C320.591 652.992 319.751 653.792 318.679 654.352C317.623 654.912 316.439 655.192 315.127 655.192ZM315.127 651.64C315.911 651.64 316.575 651.352 317.119 650.776C317.679 650.2 317.959 649.376 317.959 648.304C317.959 647.232 317.687 646.408 317.143 645.832C316.615 645.256 315.959 644.968 315.175 644.968C314.375 644.968 313.711 645.256 313.183 645.832C312.655 646.392 312.391 647.216 312.391 648.304C312.391 649.376 312.647 650.2 313.159 650.776C313.687 651.352 314.343 651.64 315.127 651.64ZM328.416 637.24V655H324.312V637.24H328.416ZM344.014 648.088C344.014 648.472 343.99 648.872 343.942 649.288H334.654C334.718 650.12 334.982 650.76 335.446 651.208C335.926 651.64 336.51 651.856 337.198 651.856C338.222 651.856 338.934 651.424 339.334 650.56H343.702C343.478 651.44 343.07 652.232 342.478 652.936C341.902 653.64 341.174 654.192 340.294 654.592C339.414 654.992 338.43 655.192 337.342 655.192C336.03 655.192 334.862 654.912 333.838 654.352C332.814 653.792 332.014 652.992 331.438 651.952C330.862 650.912 330.574 649.696 330.574 648.304C330.574 646.912 330.854 645.696 331.414 644.656C331.99 643.616 332.79 642.816 333.814 642.256C334.838 641.696 336.014 641.416 337.342 641.416C338.638 641.416 339.79 641.688 340.798 642.232C341.806 642.776 342.59 643.552 343.15 644.56C343.726 645.568 344.014 646.744 344.014 648.088ZM339.814 647.008C339.814 646.304 339.574 645.744 339.094 645.328C338.614 644.912 338.014 644.704 337.294 644.704C336.606 644.704 336.022 644.904 335.542 645.304C335.078 645.704 334.79 646.272 334.678 647.008H339.814ZM354.339 641.464C355.907 641.464 357.155 641.976 358.083 643C359.027 644.008 359.499 645.4 359.499 647.176V655H355.419V647.728C355.419 646.832 355.187 646.136 354.723 645.64C354.259 645.144 353.635 644.896 352.851 644.896C352.067 644.896 351.443 645.144 350.979 645.64C350.515 646.136 350.283 646.832 350.283 647.728V655H346.179V641.608H350.283V643.384C350.699 642.792 351.259 642.328 351.963 641.992C352.667 641.64 353.459 641.464 354.339 641.464Z" fill="black"/>
<path d="M23 607C10.2843 607 0 617.016 0 629.4C0 646.2 23 671 23 671C23 671 46 646.2 46 629.4C46 617.016 35.7157 607 23 607ZM23 637.4C18.4657 637.4 14.7857 633.816 14.7857 629.4C14.7857 624.984 18.4657 621.4 23 621.4C27.5343 621.4 31.2143 624.984 31.2143 629.4C31.2143 633.816 27.5343 637.4 23 637.4Z" fill="#007F73"/>
<path d="M603 33C575.667 46.5 514.7 87.7 489.5 144.5C458 215.5 252.5 635 55.5 635" stroke="#007F73" stroke-width="3" stroke-linecap="round" stroke-dasharray="12 12"/>
<path d="M632 0C619.284 0 609 10.016 609 22.4C609 39.2 632 64 632 64C632 64 655 39.2 655 22.4C655 10.016 644.716 0 632 0ZM632 30.4C627.466 30.4 623.786 26.816 623.786 22.4C623.786 17.984 627.466 14.4 632 14.4C636.534 14.4 640.214 17.984 640.214 22.4C640.214 26.816 636.534 30.4 632 30.4Z" fill="#007F73"/>
</svg>
