<?xml version="1.0" encoding="UTF-8"?>
<svg id="Layer_1" data-name="Layer 1" xmlns="http://www.w3.org/2000/svg" viewBox="0 0 14.97 10">
  <defs>
    <style>
      .cls-1 {
        fill: #00ffab;
      }
    </style>
  </defs>
  <path class="cls-1" d="M6.16,6.25c-.19-.95-.83-1.72-1.66-2.15l.37-.86s0,0,0-.02v-.02l.14-.31,1.91,3.36h-.77ZM9.44,2.5l-1.96,3.42-1.96-3.42h3.92ZM11.85,3.76c-.28,0-.55.05-.81.12l-1.24-3.24h.79c.17,0,.32-.14.32-.32s-.14-.32-.32-.32h-1.25c-.1,0-.2.05-.25.14-.05.09-.07.19-.04.29l.55,1.45h-4v-.63h.63c.17,0,.32-.14.32-.32s-.14-.32-.32-.32h-1.88c-.17,0-.32.14-.32.32s.14.32.32.32h.63v.63h-.02s-.02,0-.02,0c-.05,0-.08.02-.13.05,0,0-.03.02-.04.03-.05.04-.07.06-.09.12l-.27.64c-1.23-.38-2.61-.21-3.69.5-.15.09-.18.29-.09.43.05.09.15.14.26.14.05,0,.12-.02.17-.05.91-.59,2.07-.74,3.11-.44l-.24.59c-.26-.07-.53-.13-.81-.13-1.72,0-3.12,1.41-3.12,3.12s1.41,3.12,3.12,3.12,3.12-1.41,3.12-3.12h1.23s0,0,.02,0c.05,0,.09-.02.14-.04.05-.03.09-.06.12-.12l2.22-3.9.49,1.27c-1.03.51-1.72,1.56-1.72,2.78,0,1.72,1.41,3.12,3.12,3.12s3.12-1.41,3.12-3.12-1.4-3.1-3.12-3.1"/>
</svg>