<?xml version="1.0" encoding="UTF-8"?>
<svg id="Layer_1" xmlns="http://www.w3.org/2000/svg" version="1.1" viewBox="0 0 25 19">
  <!-- Generator: Adobe Illustrator 29.6.1, SVG Export Plug-In . SVG Version: 2.1.1 Build 9)  -->
  <defs>
    <style>
      .st0 {
        fill: #d7fc19;
      }
    </style>
  </defs>
  <path class="st0" d="M6.8,5.7c1.5,0,2.8-1.3,2.8-2.8s-1.2-2.8-2.8-2.8-2.8,1.3-2.8,2.8c0,1.6,1.3,2.8,2.8,2.8Z"/>
  <path class="st0" d="M18.2,5.7c1.5,0,2.8-1.3,2.8-2.8s-1.2-2.8-2.8-2.8-2.8,1.3-2.8,2.8,1.2,2.8,2.8,2.8Z"/>
  <path class="st0" d="M24.7,4.4c.5-.5.3-1.3-.3-1.7-.5-.3-1.1-.2-1.5.3l-2.6,3c-.3.3-.7.5-1.1.5h-2.3c-.4,0-.8-.2-1.1-.5l-2.6-3s-.3-.4-.9-.4-.8.4-.9.4l-2.6,3c-.3.3-.7.5-1.1.5h-2.3c-.4,0-.8-.2-1.1-.5L2,3c-.4-.4-1-.6-1.5-.3-.6.4-.7,1.2-.3,1.7l3.1,3.7c.3.3.4.7.3,1.1-.3,1.9-1.2,7.9-1.2,8.6,0,.7.4,1.1.9,1.1.7.1,1.1-.4,1.3-1.1l1.1-4c.1-.5.5-.8,1-.8s.9.3,1,.8c.3,1.2,1,3.5,1.1,3.9.2.6.4,1.1.9,1.1.7.1,1.4-.2,1.3-1.1-.1-.7-.9-6.7-1.2-8.6,0-.4,0-.8.3-1.1l2.3-2.7,2.3,2.7c.3.3.4.7.3,1.1-.3,1.9-1.2,7.9-1.2,8.6,0,.7.4,1.1.9,1.1.7.1,1.1-.4,1.3-1.1l1.1-4c.1-.5.5-.8,1-.8s.9.3,1,.8c.3,1.2,1,3.5,1.1,3.9.2.6.4,1.1.9,1.1.7.1,1.4-.2,1.3-1.1-.1-.7-1-6.7-1.2-8.6,0-.4,0-.8.3-1.1l3.1-3.7h0ZM6.8,11.4c-.3,0-.5-.2-.5-.5s.2-.5.5-.5.5.2.5.5c0,.3-.2.5-.5.5ZM6.8,9.3c-.3,0-.5-.2-.5-.5s.2-.5.5-.5.5.2.5.5c0,.3-.2.5-.5.5ZM18.2,11.4c-.3,0-.5-.2-.5-.5s.2-.5.5-.5.5.2.5.5-.2.5-.5.5ZM18.2,9.3c-.3,0-.5-.2-.5-.5s.2-.5.5-.5.5.2.5.5-.2.5-.5.5Z"/>
</svg>