<svg width="27" height="20" viewBox="0 0 27 20" fill="none" xmlns="http://www.w3.org/2000/svg">
<path d="M23.625 5.55556V4.44444L20.25 6.66667L16.875 4.44444V5.55556L20.25 7.77778L23.625 5.55556ZM24.75 0H2.25C1.0125 0 0 1 0 2.22222V17.7778C0 19 1.0125 20 2.25 20H24.75C25.9875 20 26.9888 19 26.9888 17.7778L27 2.22222C27 1 25.9875 0 24.75 0ZM9 3.33333C10.8675 3.33333 12.375 4.82222 12.375 6.66667C12.375 8.51111 10.8675 10 9 10C7.1325 10 5.625 8.51111 5.625 6.66667C5.625 4.82222 7.1325 3.33333 9 3.33333ZM15.75 16.6667H2.25V15.5556C2.25 13.3333 6.75 12.1111 9 12.1111C11.25 12.1111 15.75 13.3333 15.75 15.5556V16.6667ZM24.75 10H15.75V3.33333H24.75V10Z" fill="#D7FC19"/>
</svg>
