<svg width="85" height="80" viewBox="0 0 85 80" fill="none" xmlns="http://www.w3.org/2000/svg">
<path d="M84.5 29C83 3 58 0 47.5 0C21.5 0 0 13 0 32.5C4.8 77.7 36 82.3333 51 79C69 74 84.5 52 84.5 29Z" fill="#E1FB41"/>
<rect x="16.2063" y="11.8999" width="55.7809" height="55.7809" rx="27.8905" fill="#1FAB89"/>
<g clip-path="url(#clip0_62_792)">
<path fill-rule="evenodd" clip-rule="evenodd" d="M44.0965 27.5186C39.5764 27.5186 35.9153 31.1797 35.9153 35.6999C35.9153 40.22 39.5764 43.8811 44.0965 43.8811C48.6166 43.8811 52.2777 40.22 52.2777 35.6999C52.2777 31.1797 48.6166 27.5186 44.0965 27.5186Z" fill="#00FFAB"/>
<path fill-rule="evenodd" clip-rule="evenodd" d="M44.0966 19.3374C32.8065 19.3374 23.6436 28.5004 23.6436 39.7905C23.6436 51.0806 32.8065 60.2436 44.0966 60.2436C55.3867 60.2436 64.5497 51.0806 64.5497 39.7905C64.5497 28.5004 55.3867 19.3374 44.0966 19.3374ZM27.7342 39.7905C27.7342 30.7502 35.0564 23.428 44.0966 23.428C53.1369 23.428 60.4591 30.7502 60.4591 39.7905C60.4591 43.9425 58.9047 47.7263 56.3685 50.6102C53.1164 47.7058 48.8213 45.9264 44.0966 45.9264C39.372 45.9264 35.0768 47.7058 31.8248 50.6102C29.2886 47.7263 27.7342 43.9425 27.7342 39.7905Z" fill="#00FFAB"/>
</g>
<defs>
<clipPath id="clip0_62_792">
<rect width="40.9062" height="40.9062" fill="white" transform="translate(23.6436 19.3374)"/>
</clipPath>
</defs>
</svg>
