<?xml version="1.0" encoding="UTF-8"?>
<svg id="Layer_1" data-name="Layer 1" xmlns="http://www.w3.org/2000/svg" viewBox="0 0 10 10">
  <defs>
    <style>
      .cls-1 {
        fill: #007f73;
      }

      .cls-2 {
        fill: #00ffab;
      }

      .cls-3 {
        fill: #fff;
      }
    </style>
  </defs>
  <path class="cls-2" d="M10,5c0,2.76-2.24,5-5,5S0,7.76,0,5,2.24,0,5,0s5,2.24,5,5"/>
  <path class="cls-1" d="M5.03,7.67s-.06,0-.09-.02c-.63-.31-2.13-1.18-2.47-2.66,0-.03-.01-.07-.02-.1-.01-.06-.02-.11-.02-.17,0-.04,0-.07,0-.11,0-.84.63-1.52,1.41-1.52.5,0,.96.29,1.2.73.24-.44.7-.72,1.2-.73.78,0,1.41.68,1.41,1.51,0,.04,0,.11,0,.11,0,0,0,.04-.01.11-.01.08-.03.16-.05.23-.16.6-.68,1.73-2.45,2.59-.03.01-.06.02-.09.02Z"/>
  <path class="cls-1" d="M7.58,7.42s-.03.03-.05.03c-.02,0-.04,0-.06-.02-.02-.01-.03-.03-.03-.05,0-.02,0-.04.02-.06l.26-.32s.07-.04.11-.01c0,0,0,0,0,0l.58.47s.03.03.03.05c0,.02,0,.04-.02.06-.01.02-.03.03-.05.03-.02,0-.04,0-.06-.02l-.54-.44h.03s-.23.27-.23.27Z"/>
  <path class="cls-1" d="M7.79,6.97s0,0,0,0c-.02,0-.04.01-.05.03l-.26.33s-.02.04-.02.06c0,.02.01.04.03.05.01.01.03.02.05.02,0,0,0,0,0,0,.02,0,.04-.01.05-.03l.21-.26h-.02s.03-.02.03-.02l-.02.02.52.42s.03.02.05.02c0,0,0,0,.01,0,.02,0,.04-.01.05-.03.01-.02.02-.04.02-.06,0-.02-.01-.04-.03-.05l-.58-.47s-.03-.02-.05-.02"/>
  <path class="cls-1" d="M7.22,8s.06.06.09.07c.03.01.07.02.1.01.07-.01.13-.06.15-.13.01-.03.01-.07,0-.1,0-.04-.03-.07-.05-.1-.02-.03-.06-.05-.09-.07-.03-.01-.07-.02-.1-.01-.07.01-.13.06-.15.13-.01.03-.01.07,0,.1,0,.04.03.07.05.1h0ZM7.1,8.1s-.07-.11-.08-.17c-.01-.06,0-.12.02-.18.05-.12.15-.2.27-.23.06-.01.12,0,.18.02.12.05.21.16.24.29.01.06,0,.12-.02.18-.05.12-.15.2-.27.23-.06.01-.12,0-.18-.02-.06-.02-.11-.06-.15-.11"/>
  <path class="cls-1" d="M7.39,8.09s-.05,0-.08-.01c-.04-.02-.07-.04-.09-.07-.03-.03-.04-.07-.05-.1,0-.03,0-.07,0-.1.02-.07.08-.11.15-.13,0,0,.02,0,.03,0,.03,0,.05,0,.08.01.04.01.07.04.09.07.03.03.04.07.05.1,0,.03,0,.07,0,.1-.02.07-.08.11-.15.13,0,0-.02,0-.03,0ZM7.37,7.52s-.04,0-.06,0c-.12.02-.23.11-.27.23-.02.06-.03.12-.02.18.03.13.11.24.24.29.18.07.38-.03.45-.21.02-.06.03-.12.02-.18-.03-.13-.11-.24-.24-.29-.04-.01-.08-.02-.12-.02"/>
  <path class="cls-1" d="M7.15,8.47s-.03.01-.05.01c-.02,0-.03,0-.04-.02l-.37-.29.02-.03.04.48s0,.06-.04.08c-.02,0-.04.01-.06,0-.02,0-.03-.02-.04-.03,0,0,0-.01,0-.02,0,0,0-.01,0-.02l-.04-.58s0-.06.03-.07c.01,0,.03-.02.05-.01.02,0,.04,0,.05.02l.46.35s0,0,.01.01c0,0,.01.01.01.02,0,.02,0,.03,0,.05,0,.02-.02.04-.04.05"/>
  <path class="cls-1" d="M6.64,7.97s-.03,0-.04.01c-.03.02-.04.04-.03.07l.04.58s0,.01,0,.02c0,0,0,.01,0,.02,0,.02.02.03.04.03,0,0,.01,0,.02,0,.01,0,.03,0,.04,0,.03-.01.04-.04.04-.08l-.04-.44-.02-.02.02-.03v.04s.35.27.35.27c.01.01.03.02.04.02h0s.03,0,.04-.01c.02,0,.03-.03.04-.05,0-.02,0-.03,0-.05,0,0,0-.01-.01-.02,0,0,0,0-.01-.01l-.46-.35s-.03-.02-.05-.02h0Z"/>
  <path class="cls-1" d="M5.99,8.22c.06-.02.13-.03.19-.01.06.01.11.04.16.08.04.04.08.1.09.16.02.07.03.13.01.2-.01.06-.04.11-.08.16-.04.04-.09.07-.14.09-.04.01-.08.02-.13.01-.04,0-.08-.02-.12-.04-.04-.02-.07-.05-.1-.08-.03-.03-.05-.07-.06-.12,0-.02,0-.04,0-.06.01-.02.03-.03.05-.03l.47-.15.08.11-.45.14.02-.03v.03s.03.04.06.06c.02.01.05.02.07.03.03,0,.05,0,.08,0,.02,0,.05-.02.07-.03.02-.01.03-.03.04-.05.01-.02.02-.05.02-.07,0-.04,0-.07-.02-.1-.01-.04-.03-.08-.06-.1-.05-.05-.13-.06-.19-.04-.02,0-.05.02-.07.03-.01,0-.03.02-.04.03,0,.01-.02.02-.02.03-.01.01-.02.02-.04.02-.03.01-.07,0-.08-.04,0,0,0,0,0,0,0-.02,0-.05.02-.07.02-.03.05-.06.08-.08.03-.03.07-.04.11-.06Z"/>
  <path class="cls-1" d="M6.11,8.2s-.08,0-.12.02c-.04.01-.08.03-.11.06-.03.02-.05.05-.08.08-.02.02-.02.05-.02.07,0,.02.02.03.03.04,0,0,.02,0,.03,0,0,0,.01,0,.02,0,.01,0,.03-.01.04-.02,0,0,.02-.02.02-.03.01-.01.02-.02.04-.03.02-.01.05-.02.07-.03.02,0,.04,0,.06,0,.01,0,.03,0,.04,0,.06.01.11.05.14.1l.06-.02.07.11-.1.03s0,.02,0,.03c0,.03,0,.05-.02.07-.01.02-.03.04-.04.05-.02.01-.04.02-.07.03-.02,0-.03,0-.05,0,0,0-.02,0-.03,0-.03,0-.05-.01-.07-.03-.02-.01-.04-.03-.05-.06h0s-.03,0-.03,0l.02-.03v.02s.33-.1.33-.1c0-.02,0-.05-.02-.07,0-.02-.01-.03-.02-.05l-.41.13s-.04.02-.05.03c-.01.02-.01.04,0,.06.01.04.04.08.06.12.03.03.06.06.1.08.04.02.08.03.12.04.01,0,.03,0,.04,0,.03,0,.06,0,.09-.01.05-.02.1-.05.14-.09.04-.04.07-.1.08-.16.01-.07,0-.14-.01-.2-.02-.06-.05-.11-.09-.16-.04-.04-.1-.07-.16-.08-.02,0-.05,0-.07,0h0Z"/>
  <path class="cls-1" d="M5.24,9.14s.04,0,.06.01c.01.01.02.03.02.05v.02s0,.04-.02.05c-.02.01-.04.02-.06.02-.02,0-.04,0-.06-.01-.01-.01-.02-.03-.02-.05v-.02s0-.04.02-.05c.02-.01.04-.02.06-.02ZM5.12,8.45s0-.04.02-.06c.03-.03.08-.03.11,0,.02.01.02.03.02.05l.03.53s0,.04-.02.06c-.03.03-.08.03-.11,0-.02-.01-.02-.03-.02-.05l-.03-.53Z"/>
  <path class="cls-1" d="M5.25,9.14s0,0-.01,0c-.02,0-.04,0-.06.02-.01.01-.02.03-.02.05v.02s0,.04.02.05c.02,0,.03.01.05.01,0,0,0,0,.01,0,.02,0,.04,0,.06-.02.01-.01.02-.03.02-.05v-.02s0-.04-.02-.05c-.02,0-.03-.01-.05-.01h0ZM5.2,8.37h0s-.04,0-.05.03-.02.04-.02.06l.03.53s0,.04.02.05c.01.01.03.02.05.02h0s.04,0,.05-.03c.01-.02.02-.04.02-.06l-.03-.53s0-.04-.03-.05c-.01-.01-.03-.02-.05-.02Z"/>
  <path class="cls-1" d="M5.06,8.49s.01.03,0,.05c0,.02-.02.04-.04.05-.01,0-.03.01-.04,0-.02,0-.03-.01-.04-.03-.02-.03-.05-.05-.07-.06-.03-.02-.07-.03-.1-.03-.01,0-.03,0-.04,0-.02,0-.03,0-.04.02-.01.01-.02.03-.02.05,0,.02,0,.03.02.05.01.01.03.02.05.03.02,0,.04.02.07.03.03,0,.05.02.08.03.03.01.05.02.07.04.02.02.04.04.05.06.01.03.02.06.02.1,0,.04-.02.08-.04.11-.03.03-.06.05-.1.06-.04.01-.08.02-.12.02-.03,0-.06,0-.08-.02-.03,0-.06-.02-.08-.04-.02-.02-.05-.04-.06-.06,0-.01-.01-.03-.01-.05,0-.02.01-.04.03-.05.01,0,.03-.01.05-.01.02,0,.03,0,.04.02.01.02.03.04.06.05.03.01.05.02.08.02.01,0,.03,0,.04,0,.01,0,.03,0,.04-.02.02-.03.03-.07,0-.09-.01-.01-.03-.02-.05-.03-.02,0-.04-.02-.07-.03-.03,0-.05-.02-.08-.03-.03-.01-.05-.03-.07-.04-.02-.02-.04-.04-.05-.06-.01-.03-.02-.06-.01-.09,0-.04.02-.08.05-.11.03-.03.06-.05.1-.06.04-.01.08-.02.12-.02.05,0,.1.02.15.04.05.02.09.06.12.1"/>
  <path class="cls-1" d="M4.77,8.35s-.07,0-.1.02c-.04.01-.07.03-.1.06-.03.03-.04.07-.05.11,0,.03,0,.06.01.09.01.02.03.05.05.06.02.02.05.03.07.04.03.01.05.02.08.03.02,0,.05.02.07.03.02,0,.04.02.05.03.02.03.02.07,0,.09-.01,0-.03.01-.04.02-.01,0-.02,0-.03,0,0,0,0,0-.01,0-.03,0-.06,0-.08-.02-.02-.01-.04-.03-.06-.05-.01-.01-.03-.02-.04-.02,0,0,0,0-.01,0-.01,0-.03,0-.04.01-.02,0-.03.03-.03.05,0,.02,0,.03.01.05.02.02.04.04.06.06.03.02.05.03.08.04.03,0,.05.01.08.02,0,0,.01,0,.02,0,.03,0,.07,0,.1-.02.04-.01.07-.03.1-.06.03-.03.04-.07.04-.11,0-.03,0-.07-.02-.1-.01-.03-.03-.05-.05-.06-.02-.02-.05-.03-.07-.04-.03-.01-.05-.02-.08-.03-.03,0-.05-.02-.07-.03-.02,0-.03-.02-.05-.03-.01-.01-.02-.03-.02-.05,0-.02,0-.04.02-.05.01,0,.03-.02.04-.02.01,0,.03,0,.04,0h0s.07.01.1.03c.03.02.05.04.07.06.01.01.03.02.04.03,0,0,0,0,.01,0,.01,0,.02,0,.03,0,.02,0,.03-.03.04-.05,0-.02,0-.03,0-.05-.03-.05-.07-.08-.12-.1-.05-.02-.1-.03-.15-.04,0,0-.01,0-.02,0h0Z"/>
  <path class="cls-1" d="M3.59,8.22s-.04-.02-.05-.04c0-.02,0-.04,0-.06,0-.02.02-.03.04-.04.02,0,.04,0,.06,0l.39.15s.06.06.05.1c0,0,0,0,0,0l-.26.7s-.02.04-.04.04c-.02,0-.04,0-.06,0-.02,0-.03-.02-.04-.04,0-.02-.01-.04,0-.06l.24-.65.02.03-.34-.13Z"/>
  <path class="cls-1" d="M3.61,8.08s-.02,0-.03,0c-.02,0-.03.02-.04.04,0,.02,0,.04,0,.06,0,.02.03.03.05.04l.31.12v-.02s.03.03.03.03h-.03s-.24.62-.24.62c0,.02,0,.04,0,.06,0,.02.02.03.04.04.01,0,.02,0,.03,0,.01,0,.02,0,.03,0,.02,0,.03-.02.04-.04l.26-.7s0-.08-.04-.1c0,0,0,0,0,0l-.39-.15s-.02,0-.03,0h0Z"/>
  <path class="cls-1" d="M2.92,8.06s-.03.07-.04.11c0,.03,0,.07.02.1.03.06.1.1.17.1.04,0,.07,0,.1-.03.07-.04.11-.11.12-.19,0-.03,0-.07-.02-.1-.03-.06-.1-.1-.17-.1-.04,0-.07,0-.1.03-.03.02-.06.05-.08.08h0ZM2.79,7.98c.03-.06.08-.1.14-.13.05-.03.11-.04.17-.04.13,0,.24.08.3.19.03.05.04.11.04.17,0,.13-.08.25-.2.32-.05.03-.11.04-.17.04-.13,0-.24-.08-.3-.19-.03-.05-.04-.11-.04-.17,0-.07.02-.13.06-.18"/>
  <path class="cls-1" d="M3.07,8.38h0c-.07,0-.13-.04-.17-.1-.02-.03-.02-.07-.02-.1,0-.04.02-.08.04-.11.02-.03.05-.06.08-.08.03-.02.06-.03.1-.03h0c.07,0,.13.04.17.1.02.03.02.07.02.1,0,.08-.05.15-.12.19-.03.02-.06.03-.1.03h0ZM3.09,7.81c-.06,0-.11.01-.16.04-.11.07-.19.18-.2.32,0,.06.01.12.04.17.06.11.18.18.3.19h.01c.06,0,.11-.01.16-.04.11-.07.19-.18.2-.32,0-.06-.01-.12-.04-.17-.06-.11-.18-.18-.3-.19h-.01,0Z"/>
  <path class="cls-1" d="M2.46,8.15s-.02-.02-.02-.04c0-.02,0-.03,0-.05l.16-.44h.03s-.44.2-.44.2c-.03.02-.06.01-.08-.01-.01-.01-.02-.03-.02-.05,0-.02,0-.04.02-.05,0,0,0,0,.02-.01,0,0,.01,0,.02,0l.54-.22s.06-.01.08,0c.01,0,.02.02.03.04,0,.02,0,.04,0,.05l-.19.55s0,.01,0,.02c0,0,0,.01-.01.02-.01.01-.03.02-.05.02-.02,0-.04,0-.06-.02"/>
  <path class="cls-1" d="M2.7,7.45s-.02,0-.04,0l-.54.22s-.01,0-.02,0c0,0-.01,0-.02.01-.01.01-.02.03-.02.05,0,.02,0,.04.02.05.01.01.03.02.05.02.01,0,.03,0,.04,0l.41-.18v-.03s.04,0,.04,0l-.04.02-.15.42s0,.03,0,.05c0,.02.01.03.02.04.01.01.03.02.05.02h0s.03,0,.05-.02c0,0,.01-.01.01-.02,0,0,0-.01,0-.02l.19-.55s0-.04,0-.05c0-.02-.01-.03-.03-.04-.01-.01-.03-.02-.05-.02h0Z"/>
  <path class="cls-1" d="M2.32,6.97c.04.05.07.12.07.18,0,.06,0,.12-.03.17-.03.06-.07.1-.12.14-.05.04-.12.07-.19.08-.06,0-.12,0-.17-.03-.05-.02-.1-.06-.13-.1-.03-.03-.04-.07-.05-.12,0-.04,0-.09,0-.13,0-.04.02-.08.05-.12.02-.04.05-.07.09-.1.02-.01.04-.01.06,0,.02,0,.04.02.05.03l.29.4-.08.11-.28-.38h.04s-.03.03-.03.03c-.02.02-.03.04-.04.06,0,.02,0,.05,0,.08,0,.03.01.05.03.07.01.02.03.04.05.05.02.01.04.02.06.03.03,0,.05,0,.08,0,.03-.01.06-.03.09-.05.03-.02.06-.06.08-.09.03-.06.02-.14-.02-.2-.01-.02-.03-.04-.05-.06-.01-.01-.03-.02-.04-.03-.01,0-.02-.01-.03-.01-.01,0-.03-.02-.03-.03-.02-.03-.02-.07.01-.09,0,0,0,0,0,0,.02-.01.05-.02.07,0,.03,0,.07.03.1.05.03.02.07.05.09.09"/>
  <path class="cls-1" d="M2.1,6.83s-.03,0-.04.01c-.03.02-.03.06-.01.09,0,0,0,0,0,0,0,.01.02.02.04.03,0,0,.02,0,.03.01.02,0,.03.02.04.03.02.02.04.04.05.06.06.08.05.18-.02.25l.04.05-.08.11-.06-.09s-.02,0-.03.01c-.02,0-.04,0-.05,0,0,0-.01,0-.02,0-.02,0-.04-.01-.06-.03-.02-.01-.04-.03-.05-.05-.02-.02-.03-.05-.03-.07,0-.03,0-.05,0-.08,0-.02.02-.04.04-.06h0s-.02-.03-.02-.03h.04s-.02.02-.02.02l.2.27s.04-.02.06-.04c.01-.01.03-.02.04-.04l-.25-.34s-.03-.03-.05-.03c0,0-.01,0-.02,0-.01,0-.03,0-.04.01-.04.03-.07.06-.09.1-.02.04-.04.08-.05.12,0,.04,0,.09,0,.13,0,.04.03.08.05.12.03.05.08.08.13.1.04.02.09.03.13.03.01,0,.03,0,.04,0,.07,0,.13-.04.19-.08.05-.04.09-.08.12-.14.03-.05.04-.11.03-.17-.02-.11-.08-.21-.16-.27-.03-.02-.06-.04-.1-.05-.01,0-.02,0-.03,0h0Z"/>
  <path class="cls-1" d="M1.82,6.22s.04,0,.06,0c.04.02.06.06.04.1,0,.02-.02.03-.04.04l-.49.2s-.04,0-.06,0c-.04-.02-.06-.06-.04-.1,0-.02.02-.03.04-.04l.5-.2ZM1.21,6.55s.01.04,0,.06c0,.02-.02.03-.04.04h-.02s-.04.02-.05,0c-.02-.01-.03-.03-.04-.05,0-.02-.01-.04,0-.06,0-.02.02-.03.04-.04h.02s.04-.02.05,0c.02.01.03.03.04.05"/>
  <path class="cls-1" d="M1.15,6.49s-.02,0-.03,0h-.02s-.03.03-.04.04c0,.02,0,.04.01.06,0,.02.02.04.03.05,0,0,.02,0,.02,0,.01,0,.02,0,.03,0h.02s.03-.03.04-.04c0-.02,0-.04,0-.06,0-.02-.02-.04-.04-.05,0,0-.01,0-.02,0h0ZM1.86,6.22s-.02,0-.03,0l-.49.19s-.04.02-.04.04c-.02.04,0,.09.04.1,0,0,.02,0,.03,0,.01,0,.02,0,.03,0l.49-.19s.04-.02.04-.04c.02-.04,0-.09-.04-.1,0,0-.02,0-.03,0h0Z"/>
  <path class="cls-1" d="M1.77,6.17s-.03.02-.04.02c-.02,0-.04,0-.06-.02-.01-.01-.02-.02-.02-.04,0-.02,0-.04.01-.05.02-.03.03-.06.04-.09,0-.03,0-.07,0-.1,0-.01-.01-.03-.02-.04,0-.01-.02-.03-.03-.03-.02,0-.04-.01-.05,0-.02,0-.03.01-.04.03,0,.02-.01.04-.01.06,0,.02,0,.05,0,.07,0,.03,0,.06,0,.09,0,.03,0,.06-.02.08,0,.03-.02.05-.04.07-.02.02-.05.04-.09.04-.04.01-.08,0-.12,0-.04-.02-.07-.04-.09-.07-.03-.03-.04-.07-.05-.11,0-.03-.01-.06-.01-.08,0-.03,0-.06,0-.09,0-.03.02-.06.04-.08.01-.01.02-.02.04-.03.02,0,.04,0,.05.01.01,0,.02.02.02.04,0,.02,0,.03,0,.05-.02.02-.02.04-.03.07,0,.03,0,.06,0,.09,0,.01,0,.03.02.04,0,.01.02.02.03.03.03.02.07,0,.09-.03,0-.02.01-.04.01-.06,0-.02,0-.05,0-.07,0-.03,0-.05,0-.08,0-.03,0-.05.02-.08,0-.03.02-.05.04-.07.02-.02.05-.04.09-.04.04-.01.08,0,.12,0,.04.02.07.04.09.08.02.03.04.07.05.11.01.05.02.1.01.15,0,.05-.02.1-.06.15Z"/>
  <path class="cls-1" d="M1.6,5.67s-.1.02-.13.05c-.02.02-.03.04-.04.07,0,.03-.02.05-.02.08,0,.03,0,.06,0,.08,0,.03,0,.05,0,.07,0,.02,0,.04-.01.06,0,.02-.02.03-.04.03,0,0-.01,0-.02,0,0,0-.02,0-.03,0-.01,0-.02-.02-.03-.03,0-.01-.01-.03-.01-.04,0-.03,0-.06,0-.09,0-.02.01-.05.03-.07,0-.01,0-.03,0-.05,0-.02-.01-.03-.02-.04-.01,0-.02-.01-.04-.01,0,0-.01,0-.02,0-.02,0-.03.02-.04.03-.02.02-.03.05-.04.08,0,.03,0,.06,0,.09,0,.03,0,.06.01.08.01.04.03.08.05.11.02.03.06.06.09.07.02,0,.04.01.07.01.02,0,.03,0,.05,0,.03,0,.06-.02.09-.05.02-.02.03-.04.04-.07,0-.03.01-.06.02-.08,0-.03,0-.06,0-.09,0-.03,0-.05,0-.07,0-.02,0-.04.01-.06,0-.02.02-.03.04-.03,0,0,.02,0,.02,0,0,0,.02,0,.03,0,.01,0,.02.02.03.03,0,.01.01.03.02.04.01.03.01.07,0,.1,0,.03-.02.06-.04.09,0,.01-.01.03-.01.05,0,.02.01.03.02.04.01.01.03.02.05.02,0,0,0,0,.01,0,.02,0,.03-.01.04-.02.03-.04.05-.09.06-.15,0-.05,0-.1-.01-.15-.01-.04-.03-.08-.05-.11-.02-.03-.06-.06-.09-.08-.02-.01-.05-.02-.07-.02h0Z"/>
  <path class="cls-1" d="M1.55,4.69s0-.04.02-.06c.01-.01.03-.02.06-.02.02,0,.04,0,.05.02.01.02.02.04.02.06v.42s-.05.08-.09.08c0,0,0,0,0,0l-.74-.03s-.04,0-.06-.02c-.01-.02-.02-.04-.02-.06,0-.02,0-.04.02-.05.01-.01.04-.02.06-.02l.69.02-.02.03v-.36Z"/>
  <path class="cls-1" d="M1.63,4.61s-.04,0-.05.02c-.01.01-.02.03-.02.06v.34s.01,0,.01,0l-.02.03v-.03s-.67-.02-.67-.02h0s-.04,0-.05.02c-.01.01-.02.03-.02.05,0,.02,0,.04.02.06.01.02.03.02.06.02l.74.03h0s.08-.03.08-.08v-.42s0-.04,0-.06c-.01-.02-.03-.02-.05-.02h0Z"/>
  <path class="cls-1" d="M1.49,4.01s-.08-.01-.12,0c-.03,0-.06.03-.09.05-.05.05-.07.12-.05.19.01.03.03.06.06.09.03.03.07.04.1.05.04.01.08.01.12,0,.03,0,.07-.03.09-.05.05-.05.07-.12.05-.19-.01-.03-.03-.06-.06-.09-.03-.03-.07-.04-.1-.05h0ZM1.53,3.86c.06.01.12.04.17.09.04.04.08.09.09.15.03.12,0,.25-.08.34-.04.04-.09.08-.15.09-.13.03-.26,0-.36-.09-.04-.04-.08-.09-.09-.15-.03-.12,0-.25.08-.34.04-.04.09-.08.15-.09.06-.02.13-.02.19,0"/>
  <path class="cls-1" d="M1.46,4.4s-.04,0-.06,0c-.04,0-.07-.03-.1-.05-.03-.02-.05-.05-.06-.09-.02-.07,0-.14.05-.19.02-.02.06-.04.09-.05.02,0,.04,0,.05,0,.02,0,.04,0,.06,0,.04,0,.07.03.1.05.03.02.05.05.06.09.02.07,0,.14-.05.19-.02.02-.06.04-.09.05-.02,0-.04,0-.05,0h0ZM1.43,3.85s-.07,0-.1.01c-.06.02-.11.05-.15.09-.08.09-.12.22-.08.34.02.06.05.11.09.15.05.04.11.07.17.09.03,0,.06.01.09.01.03,0,.07,0,.1-.01.06-.02.11-.05.15-.09.08-.09.11-.22.08-.34-.02-.06-.05-.11-.09-.15-.05-.04-.11-.08-.17-.09-.03,0-.06-.01-.09-.01Z"/>
  <path class="cls-1" d="M1.27,3.6s.02-.03.03-.04c.01,0,.03-.01.05-.01h.47v.04l-.32-.36s-.03-.05-.02-.08c0-.02.02-.03.04-.04.02,0,.04,0,.05,0,0,0,.01,0,.02.01,0,0,0,0,.01.01l.38.44s.03.05.02.08c0,.02-.01.03-.03.04-.01.01-.03.02-.05.01h-.58s-.01,0-.02,0c0,0-.02,0-.02,0-.02,0-.03-.02-.03-.04,0-.02,0-.04,0-.06"/>
  <path class="cls-1" d="M1.54,3.1s-.02,0-.02,0c-.02,0-.03.02-.04.04-.01.03,0,.06.02.08l.3.33h.03v.03l-.03-.03h-.44s0,0,0,0c-.02,0-.03,0-.04.01-.01,0-.02.02-.03.04,0,.02-.01.04,0,.06,0,.02.02.03.03.04,0,0,.02,0,.02,0,0,0,.01,0,.02,0h.58s0,0,0,0c.02,0,.03,0,.05-.01.01,0,.02-.02.03-.04.01-.03,0-.06-.02-.08l-.38-.44s0,0-.01-.01c0,0-.01,0-.02-.01,0,0-.02,0-.03,0h0Z"/>
  <path class="cls-1" d="M2.34,3.09c-.04.05-.09.1-.15.13-.05.03-.11.04-.17.03-.06,0-.12-.03-.17-.07-.06-.04-.1-.09-.13-.15-.03-.05-.04-.11-.03-.17,0-.06.02-.11.06-.16.02-.04.06-.06.09-.09.04-.02.08-.04.12-.04.04,0,.09,0,.13,0,.04,0,.09.03.12.05.02.01.03.03.03.05,0,.02,0,.04-.02.06l-.29.4-.13-.04.27-.38v.04s-.02-.02-.02-.02c-.02-.01-.05-.02-.07-.02-.03,0-.05,0-.07.02-.02.01-.04.03-.06.05-.01.02-.03.04-.03.06,0,.02,0,.04,0,.07,0,.03.02.05.03.07.02.03.05.05.08.07.03.03.07.04.11.04.07,0,.14-.03.18-.08.02-.02.03-.04.04-.07,0-.02,0-.03.01-.05,0-.01,0-.03,0-.04,0-.02,0-.03.02-.04.02-.03.06-.04.09-.02h0s.03.04.03.07c0,.04,0,.07-.01.11-.01.04-.03.08-.06.11"/>
  <path class="cls-1" d="M2.01,2.57s-.03,0-.05,0c-.04,0-.08.02-.12.04-.04.02-.07.05-.09.09-.03.05-.05.1-.06.16,0,.06,0,.12.03.17.03.06.08.11.13.15.05.04.11.06.17.07.06,0,.12,0,.17-.03.06-.03.11-.07.15-.13.02-.03.04-.07.06-.11.01-.03.02-.07.01-.11,0-.03-.01-.05-.03-.07-.01,0-.02-.01-.04-.01,0,0,0,0-.01,0-.02,0-.03.01-.04.03,0,.01-.01.03-.02.04,0,.01,0,.02,0,.04,0,.02,0,.03-.01.05,0,.02-.02.05-.04.07-.02.03-.05.05-.08.06-.03.01-.06.02-.09.02,0,0-.01,0-.02,0-.02,0-.05,0-.07-.02l-.04.05-.13-.04.06-.09s-.01-.02-.02-.02c-.02-.02-.03-.04-.03-.07,0-.02,0-.05,0-.07,0-.02.02-.04.03-.06.02-.02.03-.04.06-.05.02-.01.05-.02.07-.02h0s.04,0,.06.02h0s.02-.02.02-.02v.04s-.02-.01-.02-.01l-.2.27s.04.03.06.05c.01.01.03.02.05.03l.25-.35s.02-.04.02-.06c0-.02-.01-.04-.03-.05-.04-.03-.08-.04-.12-.05-.03,0-.05,0-.08,0h0Z"/>
  <path class="cls-1" d="M2.89,2.38s.02.04.02.06c0,.04-.04.07-.08.07-.02,0-.04-.01-.05-.03l-.34-.41s-.02-.04-.02-.06c0-.04.04-.07.08-.07.02,0,.04.01.05.03l.34.41ZM2.38,1.9s-.03.03-.06.03c-.02,0-.04-.01-.05-.03l-.02-.02s-.02-.03-.02-.05c0-.02.02-.04.04-.05.02-.02.04-.03.06-.03.02,0,.04.01.05.03l.02.02s.02.03.02.05c0,.02-.02.04-.04.05"/>
  <path class="cls-1" d="M2.49,1.95s-.07.03-.08.07c0,.02,0,.04.02.06l.34.41s.03.03.05.03c0,0,0,0,0,0,.04,0,.07-.03.08-.07,0-.02,0-.04-.02-.06l-.34-.41s-.03-.03-.05-.03c0,0,0,0,0,0h0ZM2.34,1.75h0s-.04.01-.06.03c-.02.01-.03.03-.04.05,0,.02,0,.04.02.05l.02.02s.03.02.04.03h0s.04-.01.06-.03c.02-.01.03-.03.04-.05,0-.02,0-.04-.02-.05l-.02-.02s-.03-.03-.04-.03h0Z"/>
  <path class="cls-1" d="M2.92,2.31s-.03-.02-.04-.03c0-.02,0-.04,0-.06,0-.01.02-.03.03-.03.02,0,.03,0,.05,0,.03,0,.06,0,.1,0,.04,0,.07-.02.1-.04.01,0,.02-.02.03-.03.01-.01.02-.02.02-.04,0-.02,0-.04-.01-.05,0-.01-.02-.02-.04-.03-.02,0-.04,0-.06,0-.02,0-.05.01-.07.02-.03,0-.05.02-.08.02-.03,0-.06.01-.08.01-.03,0-.06,0-.08-.02-.03-.02-.05-.04-.07-.07-.02-.03-.03-.07-.03-.11,0-.04.02-.08.04-.11.02-.03.05-.06.09-.09.02-.02.05-.03.08-.04.03-.01.06-.02.09-.02.03,0,.06,0,.09.01.02,0,.03.02.04.03.01.02.01.04,0,.05,0,.02-.02.03-.03.04-.01,0-.03.01-.05,0-.02,0-.05,0-.07,0-.03,0-.06.02-.08.03-.01,0-.02.02-.03.03-.01.01-.02.02-.02.04,0,.04.02.07.05.08.02,0,.04,0,.06,0,.02,0,.05-.01.07-.02.03,0,.05-.02.08-.02.03,0,.05,0,.08,0,.03,0,.05,0,.08.02.03.02.05.04.07.07.02.03.03.07.03.12,0,.04-.02.08-.04.11-.02.03-.05.06-.09.08-.04.03-.09.05-.14.06-.05.01-.11,0-.16,0"/>
  <path class="cls-1" d="M3,1.61s-.01,0-.02,0c-.03,0-.06,0-.09.02-.03,0-.05.02-.08.04-.03.02-.06.05-.09.09-.02.03-.04.07-.04.11,0,.04,0,.08.03.11.02.03.04.05.07.07.02.01.05.02.08.02h0s.06,0,.08-.01c.03,0,.06-.01.08-.02.03,0,.05-.01.07-.02.01,0,.03,0,.04,0,0,0,.01,0,.02,0,.02,0,.03.01.04.03.01.01.02.03.01.05,0,.01-.01.03-.02.04-.01,0-.02.02-.03.03-.03.02-.06.03-.1.04-.01,0-.02,0-.03,0-.02,0-.04,0-.07,0,0,0-.01,0-.02,0-.01,0-.02,0-.03,0-.01,0-.02.02-.03.03-.01.02-.01.04,0,.06,0,.01.02.03.04.03.03.01.06.02.09.02.02,0,.04,0,.06,0,.05-.01.1-.03.14-.06.03-.02.06-.05.09-.08.02-.03.04-.07.04-.11,0-.04,0-.08-.03-.11-.02-.03-.04-.05-.07-.07-.02-.01-.05-.02-.08-.02h0s-.05,0-.07,0c-.03,0-.05.01-.08.02-.03,0-.05.01-.07.02-.01,0-.03,0-.04,0,0,0-.01,0-.02,0-.03,0-.06-.04-.05-.08,0-.01.01-.03.02-.04,0,0,.02-.02.03-.03.02-.02.05-.03.08-.03,0,0,.02,0,.03,0,.02,0,.03,0,.05,0,0,0,0,0,.01,0,.01,0,.02,0,.03,0,.01,0,.03-.02.03-.04,0-.02,0-.04,0-.05-.01-.01-.02-.02-.04-.03-.02,0-.04-.01-.07-.01h0Z"/>
  <path class="cls-1" d="M4.26,1.64s.04,0,.06,0c.02,0,.03.03.04.05,0,.02,0,.04,0,.06-.01.02-.03.03-.05.04l-.4.12s-.08,0-.1-.05c0,0,0,0,0,0l-.21-.71s0-.04,0-.06c.01-.02.03-.03.05-.04.02,0,.04,0,.06,0,.02,0,.03.03.04.05l.2.67h-.03s.35-.12.35-.12Z"/>
  <path class="cls-1" d="M3.67,1.03s-.01,0-.02,0c-.02,0-.04.02-.05.04-.01.02-.01.04,0,.06l.21.71s.02.04.04.05c.01,0,.02,0,.04,0,0,0,.02,0,.02,0l.4-.12s.04-.02.05-.04c.01-.02.01-.04,0-.06,0-.02-.02-.04-.04-.05-.01,0-.02,0-.03,0,0,0-.02,0-.03,0l-.32.1v.02s-.03-.01-.03-.01h.03s-.19-.65-.19-.65c0-.02-.02-.04-.04-.05-.01,0-.02,0-.04,0h0Z"/>
  <path class="cls-1" d="M4.88,1.36s-.02-.08-.04-.11c-.02-.03-.05-.05-.08-.07-.06-.03-.14-.02-.2.02-.03.02-.05.05-.06.08-.02.04-.02.08-.02.12,0,.04.02.08.04.11.02.03.05.05.08.07.06.03.14.02.2-.02.03-.02.05-.05.06-.08.01-.04.02-.08.02-.11M5.04,1.35c0,.06,0,.13-.03.19-.03.05-.06.1-.11.14-.1.07-.24.08-.35.03-.06-.02-.1-.06-.14-.11-.07-.11-.09-.25-.03-.37.03-.05.06-.1.11-.14.1-.07.24-.08.35-.03.06.03.1.06.14.11.04.05.06.12.06.18Z"/>
  <path class="cls-1" d="M4.69,1.6s-.06,0-.08-.02c-.03-.02-.06-.04-.08-.07-.02-.03-.03-.07-.04-.11,0-.04,0-.08.02-.12.01-.03.04-.06.06-.08.03-.02.06-.03.1-.04,0,0,.01,0,.02,0,.03,0,.06,0,.08.02.03.02.06.04.08.07.04.07.05.15.02.23-.01.03-.04.06-.06.08-.03.02-.06.03-.1.04,0,0-.01,0-.02,0h0ZM4.69,1.02s-.02,0-.04,0c-.06,0-.12.03-.17.06-.05.03-.09.08-.11.14-.05.12-.04.26.03.37.03.05.08.09.14.11.05.02.09.03.14.03.01,0,.02,0,.04,0,.06,0,.12-.03.17-.06.05-.03.09-.08.11-.14.05-.12.04-.26-.03-.37-.06-.09-.17-.15-.28-.14h0Z"/>
  <path class="cls-1" d="M5.2,1.02s.03,0,.04.02c.01,0,.02.02.03.04l.14.45h-.03s.24-.41.24-.41c.01-.03.04-.05.07-.04.02,0,.04.01.05.02.01.01.02.03.01.05,0,0,0,.01,0,.02,0,0,0,.01,0,.02l-.3.5s-.04.04-.07.04c-.02,0-.03,0-.05-.01-.01-.01-.02-.03-.03-.04l-.18-.55s0-.01,0-.02c0,0,0-.02,0-.02,0-.02.01-.03.03-.04.02-.01.04-.02.06-.02"/>
  <path class="cls-1" d="M5.19,1.02s-.07.03-.07.06c0,0,0,.02,0,.02,0,0,0,.01,0,.02l.18.55s.02.03.03.04c.01,0,.03.01.04.01h0s.05-.02.07-.04l.3-.5s0-.01,0-.02c0,0,0-.01,0-.02,0-.02,0-.04-.01-.05-.01-.01-.03-.02-.05-.02-.03,0-.06.01-.07.04l-.22.38v.03s-.02,0-.02,0l.02-.04-.13-.42s-.01-.03-.03-.04c-.01,0-.03-.02-.04-.02,0,0,0,0-.01,0h0Z"/>
  <path class="cls-1" d="M6.02,1.88c-.06-.02-.12-.05-.17-.1-.04-.04-.07-.1-.08-.15-.01-.06,0-.12.01-.18.02-.07.05-.13.1-.17.04-.04.1-.07.15-.08.06-.01.11-.01.17,0,.04.01.08.03.11.06.03.03.06.06.08.1.02.04.03.08.04.12,0,.04,0,.09-.01.13,0,.02-.02.03-.04.04-.02,0-.04,0-.06,0l-.47-.14v-.13s.45.14.45.14l-.03.02v-.03s.01-.05,0-.07c0-.02-.02-.05-.04-.06-.02-.02-.04-.03-.07-.04-.02,0-.05-.01-.07-.01-.02,0-.05,0-.07.02-.02.01-.04.03-.06.05-.02.03-.03.06-.04.1-.01.04-.02.08,0,.12.02.07.07.12.14.14.02,0,.05.01.08.01.02,0,.03,0,.05,0,.01,0,.03,0,.04,0,.01,0,.03,0,.05,0,.03.01.05.05.04.08h0s-.03.04-.05.05c-.03.01-.07.02-.1.02-.04,0-.09,0-.13-.02"/>
  <path class="cls-1" d="M6.12,1.17c-.09,0-.17.03-.23.09-.05.05-.08.11-.1.17-.02.06-.02.12-.01.18.01.06.04.11.08.15.07.07.17.12.28.12h.02s.07,0,.1-.02c.02,0,.04-.03.05-.05.01-.03,0-.07-.04-.08h0s-.02,0-.02,0c0,0-.01,0-.02,0-.01,0-.02,0-.04,0-.01,0-.03,0-.04,0h0s-.05,0-.07-.01c-.07-.02-.12-.08-.14-.14,0-.02,0-.05,0-.07l-.06-.02v-.13s.1.03.1.03c0,0,.01-.02.02-.03.01-.02.03-.04.06-.05.02-.01.04-.02.07-.02.02,0,.05,0,.07.01.02,0,.05.02.07.04.02.02.03.04.04.06,0,.02.01.05,0,.07h0s.03.02.03.02l-.03.02v-.02s-.32-.1-.32-.1c-.01.02-.02.05-.03.07,0,.02,0,.03-.01.05l.41.13s.02,0,.03,0c.01,0,.02,0,.03,0,.02,0,.03-.02.04-.04.01-.04.02-.09.01-.13,0-.04-.02-.09-.04-.12-.02-.04-.05-.07-.08-.1-.03-.03-.07-.05-.11-.06-.03,0-.06-.01-.09-.01h0Z"/>
  <path class="cls-1" d="M7.16,1.54s-.04-.02-.05-.04c0-.02,0-.04.01-.05v-.02s.04-.03.06-.03c.02,0,.04,0,.06.02.02,0,.04.03.05.04,0,.02,0,.04-.01.05v.02s-.04.03-.06.03c-.02,0-.04,0-.06-.02M6.87,2.17s-.03.03-.05.04c-.04,0-.08-.02-.09-.06,0-.02,0-.04.01-.06l.28-.45s.03-.03.05-.04c.04,0,.08.02.09.06,0,.02,0,.04-.01.06l-.28.45Z"/>
  <path class="cls-1" d="M7.08,1.6s-.01,0-.02,0c-.02,0-.04.02-.05.04l-.28.45s-.02.04-.01.06c0,.02.02.04.04.05.01,0,.03.01.04.01,0,0,.01,0,.02,0,.02,0,.04-.02.05-.04l.28-.45s.02-.04.01-.06c0-.02-.02-.04-.04-.05-.01,0-.03-.01-.04-.01h0ZM7.19,1.39h0s-.04.02-.04.03v.02s-.03.03-.02.05c0,.02.03.03.05.04.02.01.04.02.06.02h0s.03-.02.04-.03v-.02s.03-.03.02-.05c-.01-.02-.03-.04-.05-.04-.02-.01-.04-.02-.06-.02h0Z"/>
  <path class="cls-1" d="M6.95,2.18s0-.03.02-.04c.01-.02.04-.02.06-.02.02,0,.03,0,.04.02.01.01.02.03.02.05,0,.03.01.06.03.09.02.03.04.06.07.08.01,0,.02.02.04.02.01,0,.03.01.04,0,.02,0,.03-.01.04-.03.01-.01.02-.03.01-.05,0-.02-.01-.04-.02-.05-.01-.02-.03-.04-.04-.06-.02-.02-.03-.05-.05-.07-.02-.02-.03-.05-.04-.08,0-.03-.01-.05,0-.08,0-.03.02-.06.04-.09.02-.03.06-.05.1-.06.04,0,.08,0,.12,0,.04.01.08.03.11.06.02.02.04.04.06.06.02.02.03.05.05.08.01.03.02.06.02.09,0,.02,0,.03-.02.05-.01.02-.03.02-.05.02-.02,0-.03,0-.04-.02-.01-.01-.02-.02-.02-.04,0-.02,0-.05-.02-.07-.01-.03-.03-.05-.06-.07-.01,0-.02-.02-.04-.02-.01,0-.03,0-.04,0-.04,0-.06.04-.06.08,0,.02.01.04.02.05.01.02.03.04.04.06.02.02.03.04.05.07.01.02.03.05.03.08,0,.03,0,.05,0,.08,0,.03-.02.06-.04.09-.02.03-.06.06-.1.06-.04,0-.08,0-.12,0-.04-.01-.08-.03-.11-.05-.04-.03-.08-.07-.1-.11-.03-.05-.04-.1-.04-.15"/>
  <path class="cls-1" d="M7.35,1.81s-.03,0-.05,0c-.04,0-.07.03-.1.06-.02.02-.04.06-.04.09,0,.03,0,.06,0,.08,0,.03.02.05.04.08.02.02.03.05.05.07.02.02.03.04.04.06.01.02.02.03.02.05,0,.02,0,.03-.01.05-.01.02-.03.03-.04.03h0s-.03,0-.04,0c-.01,0-.03-.01-.04-.02-.03-.02-.05-.05-.07-.08-.01-.03-.02-.06-.03-.09,0-.02,0-.03-.02-.05-.01-.01-.03-.02-.04-.02,0,0,0,0-.01,0-.02,0-.03,0-.05.02-.01.01-.02.03-.02.04,0,.05.01.11.04.15.03.04.06.08.1.11.03.02.07.04.11.05.02,0,.05,0,.07,0,.02,0,.03,0,.05,0,.04,0,.08-.03.1-.06.02-.02.04-.05.04-.09,0-.03,0-.05,0-.08,0-.03-.02-.05-.03-.07-.01-.02-.03-.05-.05-.07-.02-.02-.03-.04-.04-.06-.01-.02-.02-.03-.02-.05,0-.04.02-.07.06-.08h0s.03,0,.04,0c.01,0,.02.01.04.02.02.02.04.04.06.07.01.02.02.05.02.07,0,.02.01.03.02.04.01.01.03.02.04.02h0s.04,0,.05-.02c0-.01.01-.03.02-.05,0-.03,0-.06-.02-.09-.01-.03-.03-.05-.05-.08-.02-.02-.04-.04-.06-.06-.03-.03-.07-.04-.11-.06-.02,0-.04,0-.07,0h0Z"/>
  <path class="cls-1" d="M8.01,3.23s.02.04.01.06c0,.02-.01.04-.03.05-.02.01-.04.02-.06.01-.02,0-.04-.02-.05-.03l-.24-.34s-.02-.08.02-.11c0,0,0,0,0,0l.61-.43s.04-.02.06-.01c.02,0,.04.02.05.04.01.02.02.04.01.06,0,.02-.01.04-.03.05l-.57.4v-.04s.21.3.21.3Z"/>
  <path class="cls-1" d="M8.32,2.42s-.03,0-.04.01l-.61.43s-.04.07-.02.11c0,0,0,0,0,0l.24.34s.04.04.06.04c.04,0,.07-.03.07-.06,0-.02,0-.04-.01-.06l-.19-.27h-.02s0-.02,0-.02l.02.02.55-.39s.03-.03.03-.05c0-.02,0-.04-.01-.06-.01-.02-.04-.04-.07-.04Z"/>
  <path class="cls-1" d="M8.47,3.74s.07-.04.09-.07c.02-.03.04-.06.04-.1,0-.07-.02-.14-.08-.18-.03-.02-.06-.03-.1-.03-.04,0-.08,0-.11.02-.04.01-.07.04-.09.07-.02.03-.04.06-.04.1,0,.07.02.14.08.18.03.02.06.03.1.03.04,0,.08,0,.11-.02h0ZM8.53,3.88c-.06.03-.12.04-.19.03-.06,0-.12-.03-.17-.06-.1-.08-.15-.2-.14-.32,0-.06.03-.12.06-.17.08-.1.21-.16.34-.15.06,0,.12.03.17.06.1.08.15.2.14.32,0,.06-.03.12-.06.17-.04.05-.09.09-.15.12"/>
  <path class="cls-1" d="M8.37,3.76s-.01,0-.02,0c-.03,0-.07-.01-.1-.03-.06-.04-.09-.11-.08-.18,0-.03.02-.07.04-.1.02-.03.06-.05.09-.07.03-.01.06-.02.1-.02,0,0,.01,0,.02,0,.03,0,.07.01.1.03.06.04.09.11.08.18,0,.03-.02.07-.04.1-.02.03-.06.05-.09.07-.03.01-.06.02-.1.02h0ZM8.4,3.21c-.05,0-.1.01-.15.03-.06.02-.11.07-.15.12-.04.05-.06.11-.06.17-.01.13.04.25.14.32.05.04.11.06.17.06.01,0,.02,0,.04,0,.05,0,.1-.01.15-.03.06-.03.11-.07.15-.12.04-.05.06-.11.06-.17.01-.13-.04-.25-.14-.32-.05-.04-.11-.06-.17-.06-.01,0-.02,0-.04,0"/>
  <path class="cls-1" d="M8.9,3.93s0,.03,0,.05c0,.02-.02.03-.03.04l-.38.28-.02-.02.48.09s.06.03.06.06c0,.02,0,.04,0,.06,0,.02-.03.03-.04.03,0,0-.01,0-.02,0,0,0-.01,0-.02,0l-.57-.12s-.05-.02-.06-.05c0-.02,0-.03,0-.05,0-.02.02-.03.03-.04l.47-.35s0,0,.01,0c0,0,.02,0,.02,0,.02,0,.03,0,.05.01.02.01.03.03.03.05Z"/>
  <path class="cls-1" d="M8.83,3.87s0,0-.01,0c0,0-.02,0-.02,0,0,0-.01,0-.02,0l-.47.35s-.03.02-.03.04c0,.02,0,.03,0,.05,0,.03.03.05.06.05l.57.12s.01,0,.02,0h0s0,0,.01,0c.02,0,.03-.01.04-.03.01-.02.01-.04,0-.06,0-.03-.03-.05-.06-.06l-.43-.08-.02.02-.02-.02h.04s.36-.25.36-.25c.01,0,.02-.02.03-.04,0-.01,0-.03,0-.05,0-.02-.02-.04-.03-.05-.01,0-.02-.01-.04-.01h0Z"/>
  <path class="cls-1" d="M8.35,4.98c0-.07.01-.13.04-.19.03-.05.07-.1.12-.13.05-.03.11-.05.18-.05.07,0,.14.01.2.04.05.03.1.07.13.12.03.05.05.1.05.16,0,.04,0,.09-.02.12-.02.04-.04.08-.07.11-.03.03-.07.06-.11.07-.04.02-.09.03-.13.03-.02,0-.04,0-.05-.02-.01-.01-.02-.03-.02-.05v-.49s.11-.04.11-.04v.47s-.01-.03-.01-.03h.03s.05-.01.07-.03c.02-.02.03-.04.05-.06.01-.02.02-.05.02-.08,0-.02,0-.05-.01-.07,0-.02-.02-.04-.04-.06-.02-.02-.04-.03-.07-.04-.03,0-.07-.01-.1-.01-.04,0-.08.01-.12.03-.06.04-.1.1-.09.17,0,.03,0,.05,0,.08,0,.02.01.03.02.05,0,.01.01.02.02.03,0,.01.01.03.01.04,0,.04-.03.07-.06.07,0,0,0,0,0,0-.03,0-.05-.01-.06-.03-.02-.03-.04-.06-.05-.09-.01-.04-.02-.08-.02-.12Z"/>
  <path class="cls-1" d="M8.7,4.62h-.02c-.06,0-.12.02-.18.05-.05.03-.09.07-.12.13-.05.1-.05.21-.02.32.01.03.03.07.05.09.01.02.04.03.06.03h0s.06-.03.06-.07h0s0-.03-.01-.04c0,0-.01-.02-.02-.03,0-.01-.02-.03-.02-.05,0-.02,0-.05,0-.08,0-.07.03-.14.09-.17.02-.01.04-.02.06-.03v-.07s.13-.04.13-.04v.11s.02,0,.03,0c.02,0,.05.02.07.04.02.02.03.04.04.06,0,.02.01.05.01.07,0,.03,0,.05-.02.08-.01.02-.03.04-.05.06-.02.02-.04.03-.07.03h0v.03s-.03-.03-.03-.03h.03s0-.34,0-.34c-.02,0-.04,0-.06,0h-.01s-.04,0-.05,0v.42s.02.04.03.05c.01.01.03.02.05.02.05,0,.09-.01.13-.03.04-.02.08-.04.11-.07.03-.03.05-.07.07-.11.02-.04.02-.08.02-.12,0-.06-.02-.11-.05-.16-.03-.05-.08-.09-.13-.12-.06-.03-.12-.04-.18-.04h0Z"/>
  <path class="cls-1" d="M9.03,5.96s.01-.04.03-.06c.02-.01.04-.01.05,0h.02s.04.02.05.04c0,.02,0,.04,0,.06,0,.02-.01.04-.03.06-.02.01-.04.01-.05,0h-.02s-.04-.02-.05-.04c0-.02,0-.04,0-.06h0ZM8.33,5.88s-.04-.02-.05-.03c-.02-.04-.01-.08.02-.11.02-.01.04-.01.06,0l.52.12s.04.02.05.03c.02.04.01.08-.02.11-.02.01-.04.01-.06,0l-.52-.12Z"/>
  <path class="cls-1" d="M9.09,5.89s-.02,0-.03,0c-.02.02-.02.04-.03.06,0,.02,0,.04,0,.06,0,.02.03.03.05.03h.02s.02,0,.02,0c.01,0,.02,0,.03,0,.02-.02.03-.04.03-.06,0-.02,0-.04,0-.06,0-.02-.03-.03-.05-.03h-.02s-.02,0-.02,0h0ZM8.35,5.72s-.03,0-.04.01c-.04.02-.05.07-.03.11.01.02.03.03.05.03l.52.12s.01,0,.02,0c.01,0,.03,0,.04-.01.04-.02.05-.07.02-.11-.01-.02-.03-.03-.05-.03l-.52-.12s-.01,0-.02,0h0Z"/>
  <path class="cls-1" d="M8.35,5.95s.03,0,.05,0c.02,0,.03.03.03.05,0,.02,0,.03,0,.04,0,.02-.02.03-.04.03-.03.01-.06.03-.08.05-.02.03-.04.06-.05.09,0,.01,0,.03,0,.04,0,.02,0,.03,0,.05,0,.02.02.03.04.03.02,0,.03,0,.05,0,.02-.01.03-.02.04-.04.01-.02.03-.04.04-.06.02-.02.03-.05.05-.07.02-.02.04-.04.06-.06.02-.02.05-.03.08-.03.03,0,.07,0,.1.01.04.01.07.04.09.07.02.03.03.07.03.11,0,.04,0,.08-.02.12,0,.03-.02.05-.04.08-.02.03-.04.05-.06.07-.02.02-.05.03-.08.04-.02,0-.03,0-.05,0-.02,0-.03-.02-.04-.04,0-.02,0-.03,0-.05,0-.01.02-.03.03-.03.02,0,.05-.02.06-.04.02-.02.03-.05.04-.07,0-.01,0-.03,0-.04,0-.01,0-.03,0-.04-.02-.03-.06-.04-.09-.03-.02,0-.03.02-.04.04-.01.02-.03.04-.04.06-.02.02-.03.04-.05.07-.02.02-.04.04-.06.06-.02.02-.05.03-.07.03-.03,0-.06,0-.09-.01-.04-.01-.07-.04-.09-.07-.02-.03-.03-.07-.03-.11,0-.04,0-.08.02-.12.02-.05.04-.09.08-.13.03-.04.08-.07.13-.09Z"/>
  <path class="cls-1" d="M8.37,5.95s-.01,0-.02,0c-.05.02-.1.05-.13.09-.03.04-.06.09-.08.13-.01.04-.02.08-.02.12,0,.04.01.08.03.11.02.04.05.06.09.07.02,0,.05.01.07.01,0,0,.02,0,.02,0,.03,0,.05-.01.07-.03.02-.02.04-.04.06-.06.02-.02.03-.04.05-.07.01-.02.03-.04.04-.06.01-.02.03-.03.04-.04,0,0,.02,0,.03,0,0,0,.02,0,.02,0,.02,0,.03.02.04.03,0,.01,0,.03,0,.04,0,.01,0,.03,0,.04,0,.03-.02.05-.04.07-.02.02-.04.03-.06.04-.01,0-.02.02-.03.03,0,.01,0,.03,0,.05,0,.02.02.03.04.04,0,0,.02,0,.03,0,0,0,.02,0,.02,0,.03,0,.05-.02.08-.04.02-.02.04-.04.06-.07.02-.02.03-.05.04-.08.01-.04.02-.08.02-.12,0-.04-.01-.08-.03-.11-.02-.03-.05-.06-.09-.07-.02,0-.05-.01-.07-.01,0,0-.02,0-.03,0-.03,0-.05.02-.08.03-.02.02-.04.04-.06.06-.02.02-.04.05-.05.07-.02.02-.03.04-.04.06-.01.02-.03.03-.04.04,0,0-.02,0-.03,0,0,0-.02,0-.02,0-.02,0-.03-.02-.04-.03,0-.01,0-.03,0-.05,0-.01,0-.03,0-.04.01-.03.03-.06.05-.09.02-.02.05-.04.08-.05.02,0,.03-.02.04-.03,0-.01,0-.03,0-.04,0-.02-.02-.04-.03-.05,0,0-.02,0-.03,0h0Z"/>
  <path class="cls-3" d="M3.53,3.61c.17.09.18.44,0,.78-.17.35-.45.56-.62.47-.17-.09-.18-.44,0-.78.17-.35.45-.56.62-.47"/>
</svg>