<?xml version="1.0" encoding="UTF-8"?>
<svg id="Layer_1" data-name="Layer 1" xmlns="http://www.w3.org/2000/svg" viewBox="0 0 10.61 10">
  <defs>
    <style>
      .cls-1 {
        fill: #00ffab;
      }
    </style>
  </defs>
  <path class="cls-1" d="M9.84,5.32l-.38-.57c-.04-.06-.11-.1-.19-.1h-.44c-.06,0-.12.02-.16.07l-.16.16h-.48s-1.05-1.05-1.05-1.05c-.04-.04-.1-.07-.16-.07h-1.33s0-.22,0-.22c0-.37.3-.67.67-.67h.44c.06,0,.12-.02.16-.07l.38-.38h1.02c.06,0,.12-.02.16-.07l.35-.35c.91.79,1.49,1.95,1.49,3.25,0,.02,0,.04,0,.06h-.32ZM5.88.52c-.4,0-.8.05-1.19.15l.11.43c.35-.09.71-.14,1.08-.14.9,0,1.74.28,2.44.76l-.25.25h-1.02c-.06,0-.12.02-.16.07l-.38.38h-.35c-.61,0-1.11.5-1.11,1.11v.45c0,.12.1.22.22.22h1.46s1.05,1.05,1.05,1.05c.04.04.1.07.16.07h.67c.06,0,.12-.02.16-.07l.16-.16h.23s.38.57.38.57c.04.06.11.1.19.1h.41c-.25,2.13-2.06,3.79-4.25,3.79-2.36,0-4.28-1.92-4.28-4.29,0-1.29.57-2.49,1.56-3.31l-.28-.34c-.88.73-1.45,1.73-1.65,2.83-.49-.36-1.06-1.02-.63-1.95.21-.46.84-.75,1.51-1.05.54-.24,1.1-.5,1.53-.88.58.84.57,2.12-.04,3.15-.41.69-1.18.8-1.6.8h0v.45s0,0,0,0c.52,0,1.46-.13,1.98-1.01.76-1.27.69-2.89-.15-3.86-.04-.05-.1-.08-.17-.08h0c-.06,0-.12.03-.17.07-.37.42-.98.69-1.56.96-.74.33-1.44.65-1.73,1.27-.45.97-.09,1.95.96,2.63l.02-.03c0,.12-.01.24-.01.37,0,2.61,2.12,4.74,4.73,4.74,2.61,0,4.73-2.13,4.73-4.74,0-2.61-2.12-4.74-4.73-4.74"/>
  <path class="cls-1" d="M6.1,6.06s-.1-.07-.16-.07h-.67s0-.35,0-.35l.54-.54h.93s.98.98.98.98v1.15s-.76.76-.76.76h-.35s0-1.34,0-1.34c0-.06-.02-.12-.07-.16l-.44-.45ZM6.38,8.44h.67c.06,0,.12-.02.16-.07l.89-.89s.07-.1.07-.16v-1.34c0-.06-.02-.12-.07-.16l-1.11-1.11s-.1-.07-.16-.07h-1.11c-.06,0-.12.02-.16.07l-.67.67s-.07.1-.07.16v.67s0,0,0,0c0,.12.1.22.22.22h.8s.31.31.31.31v1.47c0,.12.1.22.22.22"/>
</svg>