<svg width="307" height="114" viewBox="0 0 307 114" fill="none" xmlns="http://www.w3.org/2000/svg">
<path d="M150.811 9.75391C150.749 9.90133 150.221 11.9406 149.62 14.3115L148.527 18.611L148.49 14.4589L148.465 10.319H145.395H142.325V26.6819L142.313 43.0571L141.601 45.8826C140.999 48.2658 140.876 48.6466 140.803 48.278C140.766 48.0446 140.152 43.4011 139.439 37.9591C138.74 32.5171 137.659 24.2005 137.045 19.4709C136.431 14.7414 135.903 10.749 135.878 10.5893L135.817 10.319H132.194H128.572L128.51 10.5893C128.486 10.749 127.859 15.7119 127.147 21.6207C126.423 27.5296 125.33 36.5095 124.716 41.583L123.586 50.7964L126.288 50.8332C127.761 50.8455 129.001 50.8332 129.038 50.7964C129.075 50.7718 129.272 49.052 129.468 46.9882L129.849 43.2414H132.084H134.331L134.405 43.6345C134.442 43.8556 134.601 45.3666 134.773 46.9882C134.945 48.6097 135.117 50.1453 135.154 50.391L135.227 50.8578H137.782H140.336L139.378 54.6291C138.85 56.7175 137.389 62.4789 136.124 67.4418C134.036 75.6847 132.55 81.5199 132.243 82.6992C132.121 83.1537 132.108 83.166 131.556 83.166H130.991L131.077 82.6377C131.494 80.0703 135.817 52.7987 135.817 52.7496C135.817 52.725 133.938 52.7005 131.642 52.7005C129.345 52.7005 127.466 52.7373 127.466 52.7742C127.466 52.8479 123.635 77.1097 121.83 88.4483L121.376 91.3352L126.644 91.372C130.77 91.3966 131.9 91.4334 131.85 91.5563C131.814 91.63 130.451 93.6569 128.817 96.0401C127.184 98.4233 125.87 100.426 125.895 100.487C125.944 100.622 135.903 107.489 136.05 107.489C136.112 107.489 139.157 103.104 142.816 97.7477C146.476 92.4039 149.534 87.9569 149.607 87.8955C149.681 87.8095 149.706 88.3869 149.656 89.5785L149.583 91.3966H153.611H157.638L157.712 88.0429C157.761 86.2125 157.835 82.6623 157.884 80.1809L157.958 75.6602L160.659 71.7291L163.349 67.7981L163.717 68.572C164.331 69.8742 164.871 70.6727 167.057 73.5104C169.611 76.8149 169.931 77.2571 170.287 78.1293C170.643 78.9893 170.655 79.972 170.324 81.8024C169.943 83.9031 169.489 84.5787 168.445 84.5787C167.733 84.5787 167.376 84.1119 167.376 83.1905C167.376 82.6377 167.831 79.3455 168.175 77.4783L168.236 77.1466H164.135H160.045L159.53 80.3037C158.965 83.8048 158.891 85.414 159.21 86.6671C159.837 89.0871 161.322 90.6227 163.877 91.4949C164.847 91.8143 164.896 91.8265 168.236 91.8265C171.404 91.8265 171.674 91.8143 172.595 91.544C174.057 91.114 175.174 90.4752 176.169 89.4925C177.9 87.7727 178.772 85.6597 179.423 81.569C179.755 79.4315 179.706 77.1712 179.288 75.8567C178.613 73.7315 177.2 71.4712 174.204 67.6875C173.099 66.2994 172.104 64.9112 171.834 64.383C171.392 63.5108 171.367 63.4248 171.38 62.3561C171.404 60.9925 171.711 59.4938 172.031 59.1744C172.153 59.0393 172.497 58.9164 172.792 58.8796C173.467 58.8059 173.971 59.1498 174.069 59.7395C174.106 59.9606 173.971 61.1031 173.787 62.2824L173.443 64.4321L177.372 64.469C179.976 64.4813 181.327 64.4567 181.376 64.3707C181.425 64.297 181.634 63.044 181.867 61.5821C182.186 59.4692 182.26 58.7076 182.198 57.8722C181.953 54.322 179.73 52.5039 175.211 52.1477L174.143 52.0617L174.45 51.5949C174.744 51.1526 174.806 51.1281 175.162 51.2018C175.371 51.2509 176.451 51.2878 177.569 51.2878C179.828 51.2755 180.614 51.1281 181.977 50.477C183.66 49.6539 184.912 47.8358 185.465 45.4281C185.723 44.3102 185.723 44.0276 185.76 31.2272C185.809 17.0018 185.784 16.3753 185.133 14.508C184.704 13.2796 184.286 12.5916 183.463 11.7931C182.677 11.0192 181.756 10.5278 180.43 10.1839C179.079 9.8399 175.678 9.85219 174.327 10.1962C171.699 10.8718 170.09 12.5548 169.317 15.4785C169.047 16.5104 169.047 16.6455 168.973 27.0259L168.911 37.5291L168.113 38.7207C167.671 39.3841 167.278 39.9246 167.229 39.9246C167.168 39.9246 167.131 39.6052 167.131 39.2121C167.131 38.2171 166.812 36.2761 166.517 35.3671C165.891 33.5121 165.142 32.3451 162.072 28.3649C160.893 26.8416 159.886 25.5272 159.837 25.4412C159.775 25.3552 159.923 24.5567 160.144 23.6722L160.561 22.0507L160.598 22.8123L160.635 23.5862H163.57H166.517V19.4341C166.517 16.3015 166.468 15.0854 166.333 14.4589C165.829 12.0388 164.405 10.6384 161.973 10.1224C160.672 9.85219 156.607 9.9259 155.465 10.2453L154.667 10.4664L152.788 9.98732C150.921 9.50822 150.897 9.50822 150.811 9.75391ZM153.463 11.1175C153.488 11.1298 153.169 11.4615 152.776 11.8668C151.977 12.7022 151.412 13.7587 151.081 15.0608C150.811 16.1418 150.774 20.9205 151.032 22.3578C151.548 25.2324 152.419 26.9031 155.416 30.7235L156.926 32.6399L156.681 33.6104C156.546 34.1386 156.374 34.7897 156.312 35.0354L156.189 35.5022H153.377H150.553V40.3914C150.553 44.8261 150.577 45.3789 150.786 46.2143C151.081 47.3321 151.634 48.4869 152.211 49.1134L152.628 49.5802L152.235 51.1158L151.842 52.639L149.976 52.6759L148.097 52.7127L147.925 53.3515C147.814 53.6955 146.709 57.6388 145.457 62.0981C144.192 66.5574 142.645 72.0362 142.018 74.2843C141.38 76.5324 140.79 78.4979 140.704 78.6576C140.618 78.8173 139.894 79.8983 139.096 81.0531L137.647 83.166H135.375C134.135 83.166 133.115 83.1291 133.115 83.0923C133.115 83.0431 133.692 80.7459 134.405 77.9574C138.224 62.9334 140.225 55.0591 141.11 51.5334C141.65 49.3714 142.141 47.4673 142.202 47.2953C142.264 47.0987 142.313 47.6638 142.313 48.9168L142.325 50.8578H145.395H148.465V36.7184V22.5912L149.89 16.9772C150.663 13.8938 151.351 11.1912 151.425 10.9824L151.535 10.6015L152.493 10.8472C153.009 10.9824 153.451 11.1052 153.463 11.1175ZM159.701 15.5276C160.217 15.7487 160.512 16.2893 160.586 17.2106C160.647 17.8125 160.537 18.4268 159.886 21.0311C159.456 22.7386 159.075 24.1882 159.026 24.2373C158.879 24.397 157.81 22.5789 157.467 21.5962C157.221 20.8837 157.135 20.38 157.086 19.1638C157 16.9158 157.307 15.7979 158.093 15.4785C158.498 15.3188 159.235 15.3434 159.701 15.5276ZM178.404 16.0436C178.895 16.3261 179.141 16.7315 179.349 17.5423C179.509 18.1688 179.534 19.9623 179.509 30.7972C179.485 37.7011 179.435 43.3765 179.399 43.4134C179.362 43.4625 178.404 42.8729 177.286 42.1112L175.248 40.7231L175.273 29.0528C175.297 17.6528 175.297 17.3703 175.543 16.8912C175.911 16.1664 176.464 15.847 177.348 15.847C177.802 15.847 178.207 15.9207 178.404 16.0436ZM132.378 24.8884C132.501 26.0923 132.833 29.1634 133.115 31.694C133.385 34.2246 133.631 36.4849 133.668 36.6938L133.742 37.0992H132.133C131.261 37.0992 130.536 37.05 130.536 36.9886C130.536 36.9272 130.868 33.7332 131.273 29.8882C131.679 26.0554 132.01 22.8369 132.01 22.7386C132.01 22.6403 132.035 22.5912 132.071 22.6281C132.108 22.6526 132.243 23.6722 132.378 24.8884ZM158.449 34.6177C159.505 36.0796 159.996 36.9518 160.291 37.8977C160.524 38.6593 160.561 39.0278 160.561 41.0916C160.561 43.7082 160.438 44.3716 159.873 44.9121C159.259 45.4895 157.945 45.5018 157.319 44.9244C156.705 44.3593 156.644 44.0031 156.595 40.8705L156.546 37.9468L157.074 35.797C157.368 34.6177 157.638 33.6595 157.688 33.6595C157.724 33.6595 158.068 34.0895 158.449 34.6177ZM169.255 45.2069C169.857 47.8235 170.987 49.4819 172.817 50.4401C173.308 50.6858 173.725 50.9069 173.75 50.9315C173.774 50.9438 173.615 51.2018 173.406 51.5089L173.013 52.0371L171.392 52.1845C168.531 52.4425 167.045 53.0321 165.596 54.4817C164.11 55.9559 163.447 57.6143 162.907 61.0785C162.538 63.4125 162.514 64.1742 162.771 65.6606L162.956 66.7293L160.537 70.2673C159.21 72.2205 158.093 73.7929 158.056 73.7684C158.007 73.7069 158.24 60.4274 158.363 56.6684L158.437 54.4326L159.566 52.811L160.684 51.1772L161.482 51.0175C162.722 50.7718 163.754 50.1944 164.749 49.2117C166.198 47.7621 166.934 45.8334 167.094 43.0571L167.168 41.7058L168.04 40.4406L168.911 39.163L168.997 41.7918C169.034 43.3888 169.145 44.7155 169.255 45.2069ZM176.893 42.9466C177.741 43.524 178.428 44.0276 178.428 44.0768C178.428 44.1259 178.244 44.4207 178.036 44.7524C177.643 45.3421 177.618 45.3421 177.09 45.2929C176.022 45.1824 175.383 44.3102 175.273 42.8115C175.236 42.3078 175.236 41.8901 175.285 41.8901C175.322 41.8901 176.058 42.3692 176.893 42.9466ZM154.126 50.5384C155.195 51.0052 156.423 51.2263 157.97 51.2263C158.756 51.2263 159.394 51.2632 159.394 51.3246C159.394 51.3737 159.198 51.7054 158.965 52.0617L158.523 52.7005H155.723C154.188 52.7005 152.898 52.6759 152.862 52.639C152.812 52.5899 153.377 50.2436 153.439 50.2436C153.463 50.2436 153.77 50.3787 154.126 50.5384ZM150.614 70.8324C150.504 72.9821 150.381 75.5005 150.332 76.4095L150.246 78.0679L149.116 78.1048C148.416 78.1293 147.974 78.0925 147.974 78.0188C147.974 77.7731 150.7 66.8153 150.749 66.8645C150.786 66.889 150.713 68.6826 150.614 70.8324ZM139.476 83.2888C139.206 84.2716 138.948 85.1192 138.899 85.1684C138.776 85.2912 137.659 85.0209 137.659 84.8735C137.659 84.8121 138.101 84.1242 138.641 83.3502C139.182 82.564 139.673 81.8147 139.759 81.6796C140.029 81.1636 139.968 81.5567 139.476 83.2888ZM149.779 85.8931C149.73 86.0283 136.001 106.126 135.878 106.249C135.817 106.298 127.098 100.327 127.098 100.241C127.098 100.205 128.449 98.2145 130.094 95.819L133.078 91.458L134.81 91.4212C136.492 91.3966 136.554 91.3843 136.615 91.114C136.64 90.9666 136.848 89.7259 137.057 88.35C137.352 86.4828 137.487 85.8686 137.61 85.9177C137.696 85.9546 137.966 86.016 138.199 86.0651C138.445 86.102 138.641 86.1634 138.641 86.2002C138.641 86.274 137.315 90.9789 137.229 91.2369C137.192 91.3597 137.966 91.3966 140.889 91.3966H144.597L145.26 88.7186C145.616 87.2567 145.923 85.9791 145.96 85.8931C145.985 85.7826 146.488 85.7457 147.925 85.7457C149.411 85.7457 149.828 85.7826 149.779 85.8931Z" fill="black"/>
<path d="M101.187 30.588V50.8574H103.95H106.713L106.726 38.0447C106.738 31.0057 106.787 25.4408 106.836 25.6742C106.885 25.9076 107.72 31.6691 108.69 38.4747L110.459 50.8574H111.662C112.509 50.8574 112.878 50.8083 112.915 50.6977C112.939 50.624 113.75 44.9609 114.695 38.143C115.653 31.3128 116.476 25.6251 116.537 25.49C116.599 25.3548 116.648 30.8951 116.648 38.0447L116.66 50.8574H119.546H122.432V30.588V10.3186L118.723 10.3432L115.015 10.3801L114.13 16.7066C113.651 20.1831 112.976 24.9372 112.657 27.2712C112.264 30.1212 112.043 31.3865 111.981 31.1285C111.945 30.9197 111.281 26.141 110.508 20.527L109.108 10.3186H105.154H101.187V30.588Z" fill="black"/>
<path d="M188.13 30.588V50.8574H190.893H193.656L193.668 39.3346C193.668 32.3938 193.717 27.9223 193.778 28.0697C193.84 28.2048 195.117 33.1801 196.603 39.1257C198.101 45.0714 199.378 50.1449 199.44 50.3906L199.562 50.8574H202.067H204.585V30.588V10.3186H201.76H198.936L198.911 20.9938L198.875 31.6691L196.296 21.0184L193.705 10.3801L190.917 10.3432L188.13 10.3186V30.588Z" fill="black"/>
<path d="M112.964 52.2088C109.66 52.5897 107.536 53.9655 106.308 56.5084C105.669 57.8106 105.375 58.9284 104.982 61.4836C104.515 64.4933 104.834 66.594 106.112 69.0386C106.824 70.4022 107.364 71.1638 109.967 74.5052C111.024 75.8565 112.055 77.306 112.264 77.736C112.78 78.7679 112.841 79.7998 112.509 81.667C112.116 83.8414 111.638 84.5784 110.606 84.5784C109.881 84.5784 109.538 84.1116 109.538 83.1657C109.538 82.5638 110.115 78.3871 110.336 77.4166L110.397 77.1463H106.283C104.024 77.1463 102.17 77.1709 102.17 77.2078C102.17 77.2446 101.949 78.645 101.666 80.3157C100.929 84.861 100.991 86.4088 102.01 88.3621C102.784 89.8239 104.147 90.8681 106.161 91.5315C106.934 91.7772 107.303 91.814 109.992 91.8631C112.436 91.9 113.16 91.8754 113.983 91.7034C116.857 91.1261 118.76 89.6642 120.037 87.0353C120.725 85.6595 121.093 84.345 121.498 81.9373C122.112 78.3134 121.904 76.5198 120.528 73.7681C119.644 71.9869 118.932 70.9672 116.439 67.8101C113.983 64.7144 113.467 63.8177 113.467 62.6506C113.467 61.9627 113.811 59.7269 113.958 59.4567C114.315 58.8056 115.297 58.6336 115.874 59.1373C116.169 59.383 116.218 59.5181 116.206 60.0218C116.193 60.55 115.788 63.4246 115.616 64.2108L115.555 64.4933H119.546H123.537L123.586 64.2108C123.819 63.1666 124.396 58.9776 124.396 58.4002C124.396 57.3438 124.102 56.1153 123.647 55.2677C122.886 53.855 121.326 52.8231 119.3 52.3931C118.146 52.1474 114.401 52.0491 112.964 52.2088Z" fill="black"/>
<path d="M185.305 52.8232C185.305 52.9583 179.313 90.8805 179.239 91.1876C179.19 91.3842 179.423 91.3965 183.377 91.3719L187.565 91.3351L188.695 84.0872C189.321 80.0948 189.861 76.606 189.91 76.3111L189.984 75.7952H191.458C192.55 75.7952 192.919 75.832 192.919 75.9426C192.919 76.0286 192.366 79.542 191.715 83.7555L190.512 91.3965L194.687 91.3719L198.862 91.3351L201.908 72.1713C203.578 61.6312 204.941 52.9338 204.953 52.8478C204.953 52.7372 204.045 52.7004 200.778 52.7004C197.991 52.7004 196.603 52.7372 196.603 52.8232C196.603 52.9952 194.54 66.0659 194.454 66.4221C194.392 66.6924 194.343 66.7047 192.907 66.7047H191.421L191.494 66.3607C191.58 65.943 193.656 52.9215 193.656 52.7986C193.656 52.7372 191.777 52.7004 189.48 52.7004C186.877 52.7004 185.305 52.7495 185.305 52.8232Z" fill="black"/>
</svg>
