<svg width="421" height="70" viewBox="0 0 421 70" fill="none" xmlns="http://www.w3.org/2000/svg">
<g clip-path="url(#clip0_624_1092)">
<path d="M20.5374 0.000396729H0V69.999H20.5374V0.000396729ZM19.6246 0.909035V69.0904H0.912675V0.909035H19.6246Z" fill="black"/>
<path d="M421 0.000389099H19.6901V70H421V0.000389099ZM420.088 0.909027V69.0911H20.6028V0.909027H420.088Z" fill="black"/>
<path d="M30.072 34.9996C30.072 29.7566 25.8033 25.5062 20.5374 25.5062C15.2713 25.5062 11.0024 29.7566 11.0024 34.9996C11.0024 40.2428 15.2713 44.4932 20.5374 44.4932C25.8033 44.4932 30.072 40.2428 30.072 34.9996Z" fill="black"/>
<path d="M30.072 34.9996C30.072 29.7566 25.8033 25.5062 20.5374 25.5062C15.2713 25.5062 11.0024 29.7566 11.0024 34.9996C11.0024 40.2428 15.2713 44.4932 20.5374 44.4932C25.8033 44.4932 30.072 40.2428 30.072 34.9996Z" stroke="black" stroke-width="1.33323" stroke-miterlimit="10"/>
<path d="M46.4258 20.2297V45.0824H68.8615V49.8926H41.1076V20.2297H46.4258Z" fill="black"/>
<path d="M46.4258 20.2297V45.0824H68.8615V49.8926H41.1076V20.2297H46.4258Z" stroke="black" stroke-width="1.33323" stroke-miterlimit="10"/>
<path d="M94.3306 24.7023L86.3532 38.8374H102.308L94.3306 24.7023ZM114.606 49.8926H108.581L104.967 43.479H83.7359L80.1211 49.8926H74.0553L90.9652 20.2297H97.6958L114.606 49.8926Z" fill="black"/>
<path d="M94.3306 24.7023L86.3532 38.8374H102.308L94.3306 24.7023ZM114.606 49.8926H108.581L104.967 43.479H83.7359L80.1211 49.8926H74.0553L90.9652 20.2297H97.6958L114.606 49.8926Z" stroke="black" stroke-width="1.33323" stroke-miterlimit="10"/>
<path d="M124.64 23.2517C127.811 20.6042 132.319 19.2802 138.164 19.2802C143.592 19.2802 147.865 20.3767 150.981 22.569C154.097 24.7618 155.876 27.9261 156.32 32.063H145.268C145.019 30.9603 144.298 30.0017 143.108 29.1877C141.916 28.3747 140.268 27.9676 138.164 27.9676C135.615 27.9676 133.732 28.6087 132.513 29.891C131.294 31.1736 130.685 32.8633 130.685 34.9584C130.685 37.0825 131.294 38.7923 132.513 40.0883C133.732 41.3846 135.615 42.0325 138.164 42.0325C140.268 42.0325 141.916 41.6189 143.108 40.7914C144.298 39.9638 145.019 38.9856 145.268 37.8545H156.32C155.876 42.0189 154.097 45.2043 150.981 47.4101C147.865 49.617 143.592 50.7197 138.164 50.7197C132.319 50.7197 127.811 49.3895 124.64 46.7276C121.468 44.0666 119.883 40.1437 119.883 34.9584C119.883 29.8022 121.468 25.8993 124.64 23.2517Z" fill="black"/>
<path d="M124.64 23.2517C127.811 20.6042 132.319 19.2802 138.164 19.2802C143.592 19.2802 147.865 20.3767 150.981 22.569C154.097 24.7618 155.876 27.9262 156.32 32.063H145.268C145.019 30.9603 144.298 30.0017 143.108 29.1877C141.916 28.3747 140.268 27.9676 138.164 27.9676C135.615 27.9676 133.732 28.6087 132.513 29.891C131.294 31.1736 130.685 32.8633 130.685 34.9584C130.685 37.0825 131.294 38.7923 132.513 40.0883C133.732 41.3846 135.615 42.0325 138.164 42.0325C140.268 42.0325 141.916 41.6189 143.108 40.7914C144.298 39.9638 145.019 38.9856 145.268 37.8545H156.32C155.876 42.0189 154.097 45.2043 150.981 47.4101C147.865 49.617 143.592 50.7197 138.164 50.7197C132.319 50.7197 127.811 49.3895 124.64 46.7276C121.468 44.0666 119.883 40.1437 119.883 34.9584C119.883 29.8022 121.468 25.8993 124.64 23.2517Z" stroke="black" stroke-width="1.33323" stroke-miterlimit="10"/>
<path d="M177.634 27.2233L172.897 37.2341H182.37L177.634 27.2233ZM199.364 49.8926H188.312L185.86 44.6803H169.407L166.956 49.8926H155.904L170.239 20.108H185.029L199.364 49.8926Z" fill="black"/>
<path d="M177.634 27.2233L172.897 37.2341H182.37L177.634 27.2233ZM199.364 49.8926H188.312L185.86 44.6803H169.407L166.956 49.8926H155.904L170.239 20.108H185.029L199.364 49.8926Z" stroke="black" stroke-width="1.33323" stroke-miterlimit="10"/>
<path d="M223.877 34.0074C224.707 34.0074 225.365 33.9662 225.849 33.8832C226.334 33.8006 226.736 33.573 227.055 33.2007C227.373 32.8285 227.533 32.2287 227.533 31.4011C227.533 30.5739 227.373 29.9741 227.055 29.6017C226.736 29.2296 226.334 29.0019 225.849 28.9192C225.365 28.8366 224.707 28.7952 223.877 28.7952H213.073V34.0074H223.877ZM235.157 23.1071C237.276 25.1071 238.334 27.8716 238.334 31.4011C238.334 34.9316 237.276 37.696 235.157 39.6953C233.037 41.6954 230.109 42.6946 226.369 42.6946H213.073V49.8926H202.688V20.108H226.369C230.109 20.108 233.037 21.108 235.157 23.1071Z" fill="black"/>
<path d="M223.877 34.0074C224.707 34.0074 225.365 33.9662 225.849 33.8832C226.334 33.8006 226.736 33.5731 227.055 33.2007C227.373 32.8285 227.533 32.2287 227.533 31.4011C227.533 30.5739 227.373 29.9741 227.055 29.6017C226.736 29.2296 226.334 29.0019 225.849 28.9192C225.365 28.8366 224.707 28.7952 223.877 28.7952H213.073V34.0074H223.877ZM235.157 23.1071C237.276 25.1071 238.334 27.8716 238.334 31.4011C238.334 34.9316 237.276 37.6961 235.157 39.6953C233.037 41.6954 230.109 42.6946 226.369 42.6946H213.073V49.8926H202.688V20.108H226.369C230.109 20.108 233.037 21.108 235.157 23.1071Z" stroke="black" stroke-width="1.33323" stroke-miterlimit="10"/>
<path d="M242.489 20.108H252.876V49.8926H242.489V20.108Z" fill="black"/>
<path d="M242.489 20.108H252.876V49.8926H242.489V20.108Z" stroke="black" stroke-width="1.33323" stroke-miterlimit="10"/>
<path d="M292.763 20.108V28.7952H280.09V49.8926H269.703V28.7952H257.031V20.108H292.763Z" fill="black"/>
<path d="M292.763 20.108V28.7952H280.09V49.8926H269.703V28.7952H257.031V20.108H292.763Z" stroke="black" stroke-width="1.33323" stroke-miterlimit="10"/>
<path d="M311.168 27.2233L306.432 37.2341H315.905L311.168 27.2233ZM332.898 49.8926H321.845L319.395 44.6803H302.941L300.49 49.8926H289.439L303.771 20.108H318.563L332.898 49.8926Z" fill="black"/>
<path d="M311.168 27.2233L306.432 37.2341H315.905L311.168 27.2233ZM332.898 49.8926H321.845L319.395 44.6803H302.941L300.49 49.8926H289.439L303.771 20.108H318.563L332.898 49.8926Z" stroke="black" stroke-width="1.33323" stroke-miterlimit="10"/>
<path d="M346.608 20.108V41.2052H366.136V49.8926H336.22V20.108H346.608Z" fill="black"/>
<path d="M346.608 20.108V41.2052H366.136V49.8926H336.22V20.108H346.608Z" stroke="black" stroke-width="1.33323" stroke-miterlimit="10"/>
<path d="M401.036 20.108V27.9678H380.678V31.0706H400.204V38.9302H380.678V42.0327H401.036V49.8926H370.29V20.108H401.036Z" fill="black"/>
<path d="M401.036 20.108V27.9678H380.678V31.0706H400.204V38.9302H380.678V42.0327H401.036V49.8926H370.29V20.108H401.036Z" stroke="black" stroke-width="1.33323" stroke-miterlimit="10"/>
</g>
<defs>
<clipPath id="clip0_624_1092">
<rect width="421" height="70" fill="white"/>
</clipPath>
</defs>
</svg>
