<svg width="221" height="70" viewBox="0 0 221 70" fill="none" xmlns="http://www.w3.org/2000/svg">
<g clip-path="url(#clip0_622_2366)">
<path d="M195.206 29.5572C187.252 40.4405 200.074 47.2825 205.894 30.9827C206.606 28.9876 208.742 12.5987 190.787 9.17871C174.254 7.75447 189.503 24.8531 195.206 29.5572Z" stroke="black" stroke-width="3.585"/>
<path d="M214.873 23.0041C223.568 30.8405 218.295 39.8189 206.672 29.3085C205.102 27.8859 196.085 14.4505 210.597 3.33768C226.133 -6.92518 219.15 16.8746 214.873 23.0041Z" stroke="black" stroke-width="3.1042"/>
<path d="M195.206 29.5572C187.252 40.4405 200.074 47.2825 205.894 30.9827C206.606 28.9876 208.742 12.5987 190.787 9.17871C174.254 7.75447 189.503 24.8531 195.206 29.5572Z" stroke="black" stroke-width="4.1051"/>
<path d="M214.873 23.0041C223.568 30.8405 218.295 39.8189 206.672 29.3085C205.102 27.8859 196.085 14.4505 210.597 3.33768C226.133 -6.92518 219.15 16.8746 214.873 23.0041Z" stroke="black" stroke-width="4.1051"/>
<path d="M21.4778 51.2825L35.0272 25.209H43.6302L24.9636 59.1486C23.6139 61.5095 21.6273 62.6889 19.0039 62.6889C16.4173 62.6889 14.9555 61.5095 14.6185 59.1486L10.4014 25.209H19.0039L21.4778 51.2825Z" fill="black"/>
<path d="M43.8676 62.5425H37.2438L43.6849 32.2119H50.3087L43.8676 62.5425Z" fill="black"/>
<path d="M62.1644 53.4134L73.1737 32.2119H80.1626L64.9963 59.81C63.8995 61.7293 62.2859 62.6886 60.154 62.6886C58.0527 62.6886 56.865 61.7293 56.5909 59.81L53.1652 32.2119H60.154L62.1644 53.4134Z" fill="black"/>
<path d="M84.295 34.8642C84.7518 33.9507 85.5132 33.205 86.5795 32.6264C87.5235 32.1391 88.5434 31.8955 89.6401 31.8955C90.7669 31.8955 91.6653 32.1391 92.3353 32.6264C93.1572 33.1441 93.614 33.8898 93.7058 34.8642L96.538 62.5432H89.5944L88.9092 56.0525H80.047L76.6213 62.5432H69.6777L84.295 34.8642ZM87.4927 41.9487L83.3357 49.8054H88.2697L87.4927 41.9487Z" fill="black"/>
<path d="M106.847 62.5421C104.71 62.5421 103.043 61.7742 101.843 60.2371C100.606 58.7004 100.231 56.8452 100.719 54.6705L105.33 33.0239C105.779 30.9255 106.922 29.0885 108.759 27.514C110.633 25.9773 112.639 25.209 114.775 25.209H131.53L129.786 33.3589H115.225C114.737 33.3589 114.269 33.5373 113.819 33.8934C113.369 34.2495 113.088 34.6902 112.976 35.215L109.321 52.4803C109.208 53.0058 109.302 53.4556 109.603 53.8308C109.903 54.206 110.296 54.3926 110.783 54.3926H125.345L123.602 62.5425L106.847 62.5421Z" fill="black"/>
<path d="M133.286 62.5425H126.662L133.103 32.2119H139.727L133.286 62.5425Z" fill="black"/>
<path d="M148.909 62.5425H142.284L147.31 38.8248H140.869L142.284 32.2119H161.79L160.375 38.8248H153.934L148.909 62.5425Z" fill="black"/>
<path d="M164.029 62.5425C162.263 62.5425 160.892 61.9183 159.918 60.6697C158.913 59.452 158.624 57.9446 159.05 56.1475L162.795 38.5612C163.161 36.8258 164.075 35.3333 165.537 34.0847C167.059 32.8366 168.704 32.2119 170.471 32.2119H184.038L182.622 38.8248H170.835C170.409 38.8248 170.021 38.97 169.671 39.2601C169.321 39.5502 169.1 39.909 169.009 40.3365L168.232 44.0466H181.526L180.109 50.6595H166.816L166.04 54.3719C165.948 54.7998 166.017 55.1664 166.245 55.4717C166.473 55.7774 166.801 55.9301 167.228 55.9301H179.014L177.597 62.5429L164.029 62.5425Z" fill="black"/>
<path d="M173.198 28.9894L174.08 30.8614L181.394 28.8157L179.699 25.5908L173.198 28.9894Z" fill="black"/>
</g>
<defs>
<clipPath id="clip0_622_2366">
<rect width="221" height="70" fill="white"/>
</clipPath>
</defs>
</svg>
