<svg width="308" height="70" viewBox="0 0 308 70" fill="none" xmlns="http://www.w3.org/2000/svg">
<g clip-path="url(#clip0_623_2444)">
<path d="M287.86 25.5531V0.629349H307.395V69.2983H287.86V45.1299V25.5531ZM287.179 45.1227V69.2983L0.604556 69.2456V0.629608L287.179 0.629349V25.5597V45.1227ZM287.255 0L0 0.000259399V69.9471L287.255 70H287.481H287.783H308V0H287.255Z" fill="black"/>
<path d="M256.601 34.9577C256.601 39.5951 253.919 41.8491 248.403 41.8491C242.887 41.8491 240.205 39.5951 240.205 34.9577C240.205 32.8655 240.82 31.1911 242.034 29.9805C243.252 28.7663 245.394 28.1509 248.403 28.1509C251.411 28.1509 253.553 28.7663 254.772 29.9805C255.986 31.192 256.601 32.8665 256.601 34.9577ZM258.781 20.5716C255.91 19.311 252.419 18.6718 248.403 18.6718C244.362 18.6718 240.863 19.304 238.005 20.5507C235.128 21.8058 232.897 23.6745 231.373 26.1047C229.849 28.535 229.077 31.5137 229.077 34.9577C229.077 38.4017 229.849 41.3872 231.371 43.831C232.895 46.2762 235.128 48.1595 238.004 49.4278C240.863 50.6887 244.362 51.3281 248.403 51.3281C252.417 51.3281 255.909 50.6889 258.781 49.428C261.671 48.1595 263.91 46.2766 265.434 43.8313L265.435 43.831C266.956 41.3885 267.728 38.4029 267.728 34.9577C267.728 31.5402 266.956 28.5758 265.434 26.1468C263.908 23.7169 261.671 21.8411 258.781 20.5716Z" fill="black"/>
<path d="M84.5774 34.5358C84.5774 36.5262 84.0237 38.1933 82.9321 39.4905C81.8506 40.7757 79.9183 41.4272 77.1892 41.4272C74.4589 41.4272 72.5267 40.7824 71.4452 39.5105C70.3542 38.2278 69.8011 36.5542 69.8011 34.5358V19.0929H59.0774V34.9571C59.0774 40.2542 60.5556 44.2824 63.4714 46.9303C66.374 49.5685 70.9893 50.9062 77.1892 50.9062C83.3613 50.9062 87.9696 49.5613 90.8871 46.9094C93.8158 44.2465 95.3011 40.225 95.3011 34.9571V19.0929H84.5774V34.5358Z" fill="black"/>
<path d="M196.292 50.4854H207.016V42.2679H224.42V32.7892H207.016V28.9937H226.849V19.5149H196.292V50.4854Z" fill="black"/>
<path d="M48.2722 31.8898C45.9758 31.3698 42.681 30.9216 38.4813 30.5568C36.176 30.3336 34.4474 30.1223 33.3429 29.9277C32.0081 29.6938 31.4497 29.4477 31.2152 29.282C30.9195 29.0737 30.7821 28.8014 30.7821 28.4258C30.7821 28.2612 30.7821 27.7602 31.8393 27.3516C32.6386 27.0429 34.1829 26.8866 36.4292 26.8866C39.002 26.8866 40.9041 27.0936 42.0813 27.5027C43.168 27.8798 43.6964 28.4711 43.6964 29.3109V29.6257H54.8451L54.8238 29.2901C54.6013 25.821 52.8946 23.1478 49.7503 21.3445C46.6553 19.5711 42.1739 18.6718 36.4292 18.6718C31.3039 18.6718 27.1979 19.4994 24.2261 21.1313C21.1918 22.7985 19.6533 25.2385 19.6533 28.3837C19.6533 30.7006 20.285 32.6141 21.5307 34.0714C22.7626 35.5133 24.6477 36.6359 27.1348 37.4085C29.5878 38.1703 32.8441 38.7133 36.8123 39.0219C39.41 39.2176 41.2808 39.4079 42.3729 39.588C43.6888 39.8055 44.2431 40.0474 44.4762 40.2119C44.7686 40.4189 44.9107 40.7542 44.9107 41.2367C44.9107 41.6206 44.7738 41.9278 44.491 42.1768C44.2804 42.3627 43.7726 42.6293 42.5518 42.8436C41.5364 43.0228 40.0215 43.1134 38.0486 43.1134C32.958 43.1134 30.377 42.1275 30.377 40.1832V39.8686H19.2324L19.2489 40.1992C19.4425 44.1509 21.1935 47.0328 24.453 48.7651C27.6514 50.4658 32.3617 51.3281 38.4535 51.3281C44.1693 51.3281 48.5596 50.5295 51.5032 48.9545C54.5127 47.3442 56.0387 44.6058 56.0387 40.8153C56.0387 38.1528 55.3186 36.1047 53.8988 34.7272C52.502 33.3747 50.6088 32.4202 48.2722 31.8898Z" fill="black"/>
<path d="M181.316 38.9111L167.931 19.5149H152.497V50.4854H163.221V31.0893L176.605 50.4854H192.04V19.5149H181.316V38.9111Z" fill="black"/>
<path d="M116.451 41.0064H109.873V28.9937H116.451C117.826 28.9937 118.975 29.0975 119.867 29.3024C120.707 29.4952 121.436 30.0216 122.037 30.8676C122.642 31.7211 122.949 33.1116 122.949 35.0001C122.949 36.8894 122.642 38.2797 122.037 39.1328C121.438 39.9781 120.707 40.5049 119.867 40.6979C118.976 40.9025 117.827 41.0064 116.451 41.0064ZM127.218 21.216C125.171 20.0872 122.912 19.5149 120.499 19.5149H99.1491V50.4854H120.499C122.913 50.4854 125.174 49.9129 127.218 48.7841C129.27 47.6507 130.946 45.9006 132.196 43.5826C133.445 41.2697 134.078 38.3822 134.078 35.0001C134.078 31.6181 133.445 28.7306 132.196 26.4181C130.946 24.1007 129.272 22.3505 127.218 21.216Z" fill="black"/>
<path d="M137.52 50.4854H148.245V19.5149H137.52V50.4854Z" fill="black"/>
<path d="M278.212 35.0005C278.212 29.6489 282.379 25.3107 287.519 25.3107C292.66 25.3107 296.826 29.6489 296.826 35.0005C296.826 40.3521 292.66 44.6904 287.519 44.6904C282.379 44.6904 278.212 40.3521 278.212 35.0005Z" fill="black"/>
</g>
<defs>
<clipPath id="clip0_623_2444">
<rect width="308" height="70" fill="white"/>
</clipPath>
</defs>
</svg>
