<svg width="252" height="70" viewBox="0 0 252 70" fill="none" xmlns="http://www.w3.org/2000/svg">
<path d="M197.322 34.0029H207.046V69.7309H197.322V34.0029ZM230.182 34.0169C225.499 34.0998 221.036 36.0184 217.754 39.3595C214.471 42.7006 212.632 47.1971 212.632 51.8809C212.632 56.5647 214.471 61.0612 217.754 64.4023C221.036 67.7435 225.499 69.662 230.182 69.7449C232.529 69.7449 234.852 69.2826 237.019 68.3845C239.187 67.4863 241.156 66.1699 242.814 64.5104C244.473 62.8509 245.788 60.8809 246.685 58.7129C247.581 56.5449 248.042 54.2215 248.041 51.8753C248.041 49.53 247.579 47.2076 246.682 45.0408C245.785 42.8739 244.469 40.9051 242.811 39.2467C241.153 37.5883 239.184 36.2729 237.017 35.3756C234.85 34.4782 232.528 34.0166 230.182 34.0169ZM230.182 61.4765C228.921 61.4773 227.672 61.2293 226.507 60.7469C225.341 60.2645 224.282 59.5571 223.391 58.6651C222.499 57.7731 221.792 56.714 221.31 55.5485C220.828 54.383 220.58 53.1338 220.581 51.8725C220.581 50.6115 220.829 49.3627 221.312 48.1976C221.794 47.0326 222.502 45.9741 223.394 45.0826C224.286 44.1912 225.345 43.4843 226.51 43.0024C227.675 42.5205 228.924 42.273 230.185 42.2741C231.446 42.2738 232.695 42.5219 233.859 43.0043C235.024 43.4867 236.083 44.1939 236.974 45.0856C237.865 45.9773 238.572 47.0359 239.055 48.2009C239.537 49.3659 239.784 50.6145 239.784 51.8753C239.779 54.4201 238.766 56.8593 236.966 58.6585C235.167 60.4577 232.727 61.4728 230.182 61.4765Z" fill="black"/>
<path d="M128.12 21.2995H117.522H117.55C117.164 21.317 116.787 21.1868 116.494 20.9355C116.361 20.81 116.257 20.6577 116.188 20.4887C116.119 20.3197 116.087 20.1379 116.094 19.9555V13.1375H128.092C128.492 13.1375 128.965 13.0815 129.366 12.6951C129.54 12.5322 129.677 12.3347 129.771 12.1152C129.864 11.8958 129.91 11.6594 129.906 11.4211C129.909 11.1774 129.862 10.9357 129.766 10.7115C129.671 10.4873 129.53 10.2855 129.352 10.1191C129.185 9.9411 128.983 9.79986 128.759 9.70439C128.535 9.60892 128.293 9.56133 128.05 9.56467H116.094V7.09787C116.096 6.62661 115.912 6.17352 115.581 5.83787C115.416 5.66351 115.216 5.52544 114.994 5.43241C114.772 5.33939 114.534 5.29344 114.293 5.29747C114.051 5.29484 113.811 5.34138 113.587 5.43426C113.363 5.52714 113.16 5.66445 112.991 5.83787C112.814 6.00517 112.674 6.20713 112.578 6.43114C112.483 6.65514 112.435 6.8964 112.437 7.13987V21.4759C112.437 23.7635 113.543 24.8863 115.816 24.8863L128.173 24.8723C128.66 24.8723 129.088 24.7043 129.45 24.3599C129.625 24.1951 129.764 23.9952 129.857 23.7733C129.95 23.5514 129.995 23.3124 129.99 23.0719C129.992 22.8346 129.944 22.5996 129.848 22.3824C129.752 22.1652 129.612 21.9707 129.436 21.8119C129.262 21.6424 129.056 21.5097 128.83 21.4217C128.604 21.3337 128.362 21.2921 128.12 21.2995ZM148.098 9.57867H139.493C139.065 9.57867 138.606 9.63467 138.219 9.99307C138.049 10.1613 137.915 10.3621 137.825 10.5834C137.734 10.8047 137.689 11.042 137.693 11.2811C137.69 11.5233 137.737 11.7636 137.83 11.9874C137.922 12.2112 138.06 12.4139 138.233 12.5831C138.402 12.7575 138.605 12.8964 138.828 12.9916C139.052 13.0868 139.292 13.1364 139.535 13.1375H146.434C146.863 13.1375 147.196 13.2635 147.445 13.5127C147.697 13.7619 147.82 14.0951 147.82 14.4955L147.834 19.9555C147.845 20.1357 147.816 20.316 147.748 20.4835C147.681 20.651 147.577 20.8015 147.445 20.9243C147.157 21.1818 146.779 21.3164 146.392 21.2995H137.637C137.242 21.3187 136.854 21.1842 136.556 20.9243C136.423 20.8015 136.318 20.6513 136.248 20.4841C136.179 20.3168 136.146 20.1365 136.153 19.9555L136.142 7.08387C136.144 6.84917 136.098 6.6165 136.007 6.39993C135.917 6.18337 135.784 5.9874 135.615 5.82387C135.452 5.64953 135.254 5.51137 135.034 5.41829C134.814 5.3252 134.577 5.27928 134.338 5.28347C134.093 5.28458 133.851 5.33413 133.625 5.42928C133.399 5.52442 133.194 5.66328 133.022 5.83787C132.847 6.00629 132.707 6.20846 132.612 6.43221C132.517 6.65596 132.468 6.89667 132.468 7.13987V21.4367C132.468 23.7215 133.647 24.8863 135.96 24.8863H147.986C150.298 24.8863 151.463 23.7215 151.463 21.4507V12.9303C151.491 10.6987 150.382 9.60387 148.098 9.57867ZM108.254 9.53667H98.3472C98.1792 9.53667 98.028 9.52267 97.958 9.52267C97.8426 9.5293 97.7278 9.50277 97.6271 9.4462C97.5263 9.38963 97.4439 9.3054 97.3896 9.20347C97.0452 8.73307 96.3256 8.55107 95.7684 8.55107C95.4985 8.55109 95.2315 8.60652 94.984 8.71392C94.7364 8.82133 94.5135 8.97842 94.3292 9.17547C93.982 9.55067 93.912 9.96507 93.912 10.4495V12.5999C93.898 12.6979 93.898 12.7959 93.898 12.8911V23.0439C93.8974 23.285 93.9463 23.5238 94.0417 23.7453C94.137 23.9669 94.2768 24.1665 94.4524 24.3319C94.6216 24.5053 94.8242 24.6426 95.048 24.7355C95.2718 24.8284 95.5121 24.8749 95.7544 24.8723C96.2528 24.8723 96.684 24.7043 97.0312 24.3459C97.202 24.1784 97.3369 23.9777 97.4274 23.7562C97.5179 23.5347 97.5622 23.2971 97.5576 23.0579V14.4815C97.5576 14.0531 97.7088 13.6919 97.958 13.4567C98.2478 13.2106 98.6166 13.0774 98.9968 13.0815H108.293C108.523 13.0925 108.752 13.0579 108.968 12.9795C109.185 12.9012 109.383 12.7807 109.553 12.6251C109.727 12.4624 109.866 12.265 109.959 12.0456C110.053 11.8262 110.099 11.5896 110.096 11.3511C110.096 11.1079 110.047 10.8672 109.952 10.6434C109.857 10.4197 109.717 10.2175 109.542 10.0491C109.372 9.88176 109.171 9.7502 108.95 9.66218C108.728 9.57416 108.492 9.53148 108.254 9.53667ZM170.985 9.46667H157.517C155.274 9.50867 154.151 10.6427 154.165 12.8183C154.165 12.8603 154.095 17.5587 154.095 18.2503V23.0859C154.095 23.5703 154.274 23.9987 154.636 24.3599C154.798 24.5301 154.994 24.6657 155.21 24.7586C155.427 24.8514 155.66 24.8996 155.896 24.9003C156.136 24.9043 156.375 24.8583 156.596 24.7653C156.818 24.6723 157.018 24.5342 157.184 24.3599C157.355 24.1943 157.492 23.9966 157.588 23.778C157.683 23.5594 157.734 23.3242 157.738 23.0859V19.8995L157.752 16.4359L157.766 13.9439C157.766 13.3447 158.046 13.0535 158.598 13.0535L171.01 13.0423C171.441 13.0423 171.898 13.0003 172.27 12.6251C172.441 12.4597 172.577 12.2617 172.67 12.0429C172.764 11.8242 172.812 11.5889 172.813 11.3511C172.818 11.1072 172.771 10.8651 172.675 10.6407C172.58 10.4163 172.438 10.2147 172.259 10.0491C172.104 9.86213 171.909 9.71263 171.689 9.61176C171.468 9.5109 171.227 9.4613 170.985 9.46667Z" fill="black"/>
<path d="M167.77 16.6567C167.368 16.3031 166.85 16.1107 166.314 16.1163H162.795C162.259 16.1107 161.741 16.3031 161.339 16.6567C161.138 16.8269 160.979 17.0396 160.871 17.2794C160.764 17.5192 160.711 17.78 160.717 18.0427C160.717 18.5971 160.924 19.0507 161.342 19.4287C161.74 19.7881 162.261 19.9814 162.798 19.9691H166.314C166.851 19.9814 167.372 19.7881 167.77 19.4287C167.97 19.2577 168.129 19.0448 168.236 18.8052C168.344 18.5656 168.397 18.3053 168.392 18.0427C168.401 17.7796 168.35 17.5178 168.242 17.2775C168.134 17.0372 167.973 16.8248 167.77 16.6567Z" fill="black"/>
<path d="M127.19 33.9893V54.8801C127.19 59.5365 128.786 63.2073 131.942 65.8001C135.114 68.4041 138.981 69.7313 143.441 69.7313C147.876 69.7313 151.754 68.4013 154.927 65.7973C158.085 63.2073 159.678 59.5365 159.678 54.8801V33.9921H150.839V54.8801C150.839 56.9325 150.091 58.5509 148.624 59.6737C147.196 60.7825 145.452 61.3369 143.444 61.3369C141.434 61.3369 139.686 60.7825 138.247 59.6737C136.777 58.5397 136.03 56.9297 136.03 54.8801V33.9921H127.19V33.9893ZM170.915 61.1157L163.682 34.0033H172.81L178.438 54.9641L183.994 34.0173H192.998L185.766 61.1297C184.962 64.1621 184.131 66.3517 183.26 67.7097C182.4 69.0677 180.695 69.7453 178.161 69.7453C175.93 69.7453 174.35 68.9977 173.393 67.4745C172.413 65.9513 171.592 63.8317 170.915 61.1157ZM113.142 34.0033V36.8033C110.511 35.132 107.487 34.181 104.373 34.0453C104.115 34.0292 103.856 34.0198 103.597 34.0173C101.252 34.0169 98.9295 34.4786 96.7626 35.3759C94.5958 36.2732 92.6269 37.5887 90.9686 39.247C89.3102 40.9054 87.9947 42.8743 87.0974 45.0411C86.2001 47.208 85.7384 49.5304 85.7388 51.8757V51.8897C85.7387 55.0872 86.5967 58.2261 88.2232 60.979C89.8498 63.7319 92.1853 65.9978 94.9861 67.5404C97.787 69.083 100.95 69.8456 104.146 69.7488C107.343 69.652 110.454 68.6993 113.156 66.9901V69.7173H121.47V34.0033H113.142ZM113.17 51.8757C113.171 53.1365 112.923 54.385 112.44 55.5499C111.958 56.7148 111.251 57.7732 110.359 58.6646C109.467 59.556 108.409 60.2629 107.244 60.745C106.079 61.227 104.83 61.4748 103.569 61.4741C102.308 61.4748 101.06 61.227 99.8947 60.745C98.7297 60.2629 97.6711 59.556 96.7794 58.6646C95.8878 57.7732 95.1805 56.7148 94.6981 55.5499C94.2157 54.385 93.9676 53.1365 93.968 51.8757C93.9669 50.6141 94.2145 49.3648 94.6968 48.1991C95.179 47.0333 95.8864 45.9742 96.7785 45.0821C97.6705 44.1901 98.7297 43.4827 99.8954 43.0005C101.061 42.5182 102.31 42.2706 103.572 42.2717C104.833 42.2713 106.082 42.5195 107.247 43.0021C108.412 43.4847 109.47 44.1922 110.362 45.0841C111.253 45.9761 111.96 47.035 112.442 48.2004C112.924 49.3657 113.171 50.6146 113.17 51.8757Z" fill="black"/>
<path d="M59.0828 10.534C59.2088 10.73 59.486 11.2536 59.5952 11.4356C51.0748 11.1556 41.0592 14.0396 31.8052 20.1212C21.8008 26.6872 15.0976 35.762 12.2696 44.3664C11.55 43.5488 11.1608 43.1176 10.6764 42.3168C8.26835 38.2288 8.03035 32.7828 9.97075 27.5048C12.88 22.4088 18.228 16.3664 26.5804 11.2956C31.2507 8.46761 36.0303 5.91961 40.8099 4.68761C48.6499 3.66281 55.6892 5.27001 59.0828 10.534Z" fill="black"/>
<path d="M79.1728 10.6454C72.3968 0.24057 57.8928 -2.53143 41.6528 3.10777C50.008 1.94297 57.3664 4.16057 60.9812 9.72977C66.9956 18.9558 59.318 34.3222 45.2732 43.5622C31.2228 52.8022 14.9576 52.8162 8.95719 43.5762C6.17399 39.2922 6.09279 33.7678 8.19839 28.1706C0.951994 39.183 -0.820405 51.083 4.73199 59.6174C13.5156 73.1274 37.3156 73.1274 57.862 59.6034C78.4224 46.0682 87.9704 24.1526 79.1728 10.6454Z" fill="black"/>
</svg>
