<svg width="194" height="70" viewBox="0 0 194 70" fill="none" xmlns="http://www.w3.org/2000/svg">
<g clip-path="url(#clip0_622_2406)">
<path fill-rule="evenodd" clip-rule="evenodd" d="M32.3333 48.125C29.9083 48.125 28.615 47.3148 28.615 44.3981V15.2314H19.7233V46.0185C19.7233 53.6342 23.765 57.037 28.615 57.037C33.465 57.037 34.435 55.7407 34.435 51.8518V47.9629H32.495" fill="black"/>
<path fill-rule="evenodd" clip-rule="evenodd" d="M36.86 28.0324H35.405C33.1417 28.0324 32.01 26.25 31.6867 23.1713L30.8783 15.2314H37.83L36.86 28.0324Z" fill="black"/>
<path fill-rule="evenodd" clip-rule="evenodd" d="M155.362 17.8237C155.362 20.9024 153.26 23.333 150.512 23.333C147.763 23.333 145.662 20.9024 145.662 17.8237C145.662 14.745 147.763 12.3145 150.512 12.3145C153.26 12.3145 155.362 14.745 155.362 17.8237Z" fill="black"/>
<path fill-rule="evenodd" clip-rule="evenodd" d="M46.3983 46.8287C46.3983 44.7223 47.6917 43.588 51.2483 43.588H53.0267V49.5834C53.0267 49.5834 53.0267 49.9074 49.955 49.9074C46.8833 49.9074 46.3983 48.9352 46.3983 46.8287ZM49.47 24.1436C41.8717 24.1436 38.4767 28.0324 38.6383 31.9213V35.8102H38.9617C40.74 33.7037 42.68 32.2454 47.53 32.2454C52.38 32.2454 53.1883 33.0556 53.1883 35.6482V36.9445H51.5717C42.0333 36.9445 37.83 40.5093 37.83 47.6389C37.83 54.9306 44.135 57.6852 49.3083 57.6852H49.7933C57.5533 57.6852 61.7567 55.5787 61.7567 55.5787V38.0787C61.7567 28.6806 56.9067 24.3056 49.6317 24.3056L49.47 24.1436Z" fill="black"/>
<path fill-rule="evenodd" clip-rule="evenodd" d="M85.0366 24.9531H80.8333C80.025 32.0827 77.7616 41.1568 76.145 44.8836C72.75 35.6475 70.81 24.9531 70.81 24.9531H62.08C63.2117 34.1892 66.93 46.0179 70.4866 52.6614C71.9416 55.5781 73.3967 57.1984 76.3067 57.1984H79.54C82.6117 52.9855 85.845 42.129 87.4616 36.1336C88.1083 33.8651 88.5933 31.4345 88.5933 29.166C88.5933 26.5734 87.1383 24.791 84.875 24.791" fill="black"/>
<path fill-rule="evenodd" clip-rule="evenodd" d="M102.173 32.2454C99.1017 32.2454 97.8083 34.676 97.485 37.7547H100.88C105.083 37.7547 105.892 36.9445 105.892 35.4861C105.892 33.8658 104.76 32.0834 102.173 32.0834V32.2454ZM101.688 44.8843H97.8083C98.2933 48.125 100.395 49.5834 104.113 49.5834C107.832 49.5834 110.742 48.7732 112.197 47.6389H112.52V50.2315C112.52 54.2824 109.933 57.8473 102.658 57.8473C95.3833 57.8473 89.0783 50.3936 88.9167 41.6436C88.9167 32.0834 94.09 24.1436 102.012 24.1436C109.933 24.1436 113.975 28.8426 114.137 36.9445C114.137 43.2639 110.257 45.0463 101.688 45.0463V44.8843Z" fill="black"/>
<path fill-rule="evenodd" clip-rule="evenodd" d="M129.333 24.1435C129.172 24.1435 129.01 24.1435 128.687 24.1435C128.04 24.1435 127.555 24.1435 126.908 24.1435C121.735 24.7916 116.4 27.3842 116.4 27.3842V56.7129H125.292V33.8657C127.232 33.2176 128.525 32.8935 129.01 32.8935C132.082 32.8935 133.213 34.8379 133.213 39.0509V50.0694C133.213 54.9305 134.668 56.7129 138.548 56.7129H142.105V39.375C142.105 29.9768 138.225 23.9814 129.172 23.9814" fill="black"/>
<path fill-rule="evenodd" clip-rule="evenodd" d="M155.038 24.9531H146.147V48.9346C146.147 48.9346 146.147 50.0689 146.147 51.0411C146.147 53.7957 146.632 56.8744 151.482 56.8744H155.038V24.9531Z" fill="black"/>
<path fill-rule="evenodd" clip-rule="evenodd" d="M167.81 23.9814C163.283 23.9814 158.757 27.2222 158.757 27.2222V56.7129H167.325V37.7546C167.325 33.8657 168.78 32.5694 170.882 32.5694C172.983 32.5694 172.822 32.5694 173.953 33.2176H174.277V29.1666C174.277 26.25 172.175 23.9814 167.648 23.9814" fill="black"/>
</g>
<defs>
<clipPath id="clip0_622_2406">
<rect width="194" height="70" fill="white"/>
</clipPath>
</defs>
</svg>
