<svg width="431" height="70" viewBox="0 0 431 70" fill="none" xmlns="http://www.w3.org/2000/svg">
<g clip-path="url(#clip0_622_2348)">
<path d="M91.3452 6.9209V17.0181H99.9584V62.0587H110.838V17.0181H119.565V6.9209H91.3452Z" fill="black"/>
<path d="M123.871 6.9209V62.0587H145.858V51.9614H134.751V39.4817H144.384V29.1575H134.751V17.1316H145.858V6.9209H123.871Z" fill="black"/>
<path d="M153.224 6.9209V62.0587H175.551V51.7345H164.104V6.9209H153.224Z" fill="black"/>
<path d="M180.537 6.9209V62.0587H202.637V51.9614H191.304V39.4817H201.05V29.1575H191.304V17.1316H202.41V6.9209H180.537Z" fill="black"/>
<path d="M232.556 8.849C229.61 7.03376 226.323 6.0127 222.81 6.0127C218.503 6.0127 214.537 7.82793 211.93 11.2315C209.663 14.5216 208.417 18.379 208.53 22.3498C208.53 29.1569 210.91 34.6026 219.183 38.6869C224.737 41.4098 224.963 44.473 224.963 46.5151C224.963 50.1456 222.583 52.6415 218.73 52.6415C214.877 52.6415 213.857 51.8474 210.683 49.5783V60.0159C213.517 61.9446 216.803 62.9657 220.203 62.8522C224.51 62.8522 228.703 61.1505 231.536 57.8603C234.37 54.5702 235.956 50.259 235.843 45.9479C235.843 42.7712 235.05 39.4811 233.35 36.7582C231.99 34.8296 219.977 27.7955 219.297 20.9884C219.07 17.8117 221.563 15.6561 224.737 15.6561C227.91 15.6561 229.383 16.5637 232.67 19.2866V8.849H232.556Z" fill="black"/>
<path d="M262.249 6.9209H250.916L238.11 62.0587H248.989L250.916 52.869H261.909L263.836 62.0587H275.282L262.136 6.9209H262.249ZM252.503 44.2467C252.503 44.2467 255.676 26.5481 256.129 21.1024C256.696 26.8885 260.323 44.2467 260.323 44.2467H252.616H252.503Z" fill="black"/>
<path d="M282.989 6.9209L278.002 62.0587H289.789L291.489 22.4638L298.742 62.0587H307.129C307.129 62.0587 313.248 27.3423 313.702 22.4638L316.422 62.0587H327.642L321.748 6.9209H307.129L302.595 39.4817L297.382 6.9209H283.102H282.989Z" fill="black"/>
<path d="M355.521 33.8091C359.828 30.519 361.414 27.5692 361.414 22.4638C361.414 18.7199 360.168 15.0895 357.788 12.1397C355.408 9.07649 351.555 6.9209 345.321 6.9209H333.535V62.0587H345.095C350.535 62.0587 355.181 60.3569 358.128 57.5206C360.848 54.5708 362.321 50.7134 362.321 46.7426C362.321 43.3391 362.321 37.553 355.521 33.8091ZM344.641 15.8836C348.835 15.8836 350.988 18.1527 350.988 22.6908C350.988 27.2288 348.948 29.271 344.641 29.6113V15.8836ZM344.641 52.6421V38.0068C349.175 38.0068 351.555 40.8431 351.555 45.3812C351.555 49.9193 349.061 52.6421 344.641 52.6421Z" fill="black"/>
<path d="M392.127 36.9857C397.567 33.5822 400.06 29.271 400.06 23.0311C400.06 16.7912 398.927 13.8415 394.281 10.3245C391.447 8.28233 387.367 6.9209 381.587 6.9209H369.574V62.0587H380.454V36.6454L390.201 62.0587H401.647L392.014 36.9857H392.127ZM380.454 30.6324V15.6567C389.407 14.8626 389.294 19.741 389.294 23.0311C389.294 28.023 386.914 30.519 380.454 30.6324Z" fill="black"/>
<path d="M408.787 6.9209V62.0587H431V51.9614H419.78V39.4817H429.413V29.1575H419.78V17.1316H430.66V6.9209H408.787Z" fill="black"/>
<path d="M84.6587 62.0582H45.3326C52.2459 60.3564 63.4657 56.6125 68.9056 53.2089H76.7255V14.8621H35.2461C35.2461 14.8621 42.386 7.60115 84.6587 6.58008V61.9447V62.0582Z" fill="black"/>
<path d="M8.27321 53.0959V14.8625H11.3332C11.3332 14.8625 15.8664 9.75713 31.0529 5.67285H0V61.8317C14.8464 60.6972 29.4662 57.7474 43.6327 53.0959H8.27321Z" fill="black"/>
<path d="M-6.15418e-06 70C14.1664 67.2771 39.4394 63.3063 56.6658 57.0664C60.5191 55.705 64.1457 54.0032 67.659 51.9611C71.3989 49.4652 73.6655 46.7423 73.5522 43.6791C73.4389 40.2755 70.8322 37.6661 67.0923 35.624C58.4791 30.859 43.406 28.363 33.9995 25.2998C29.1262 23.9384 25.9529 22.1232 25.9529 20.3079C25.9529 17.5851 27.9929 15.2026 32.5262 12.9335C41.026 8.84927 57.1191 5.89951 84.8853 3.97083V0C61.4257 1.36143 42.8393 4.08428 29.5795 8.05511C25.2729 9.18963 21.193 10.8914 17.2264 12.9335C12.9198 15.316 10.5398 18.0389 10.5398 20.9887C10.5398 23.9384 13.2598 25.7536 17.4531 27.6823C26.5196 31.6532 42.046 34.4895 50.5459 38.3468C54.5125 40.1621 56.7791 41.9773 56.6658 44.2464C56.3258 47.3096 54.1725 49.919 49.9792 52.3015C41.366 57.0664 25.2729 60.5835 -0.226669 65.3485V70H-6.15418e-06Z" fill="black"/>
</g>
<defs>
<clipPath id="clip0_622_2348">
<rect width="431" height="70" fill="white"/>
</clipPath>
</defs>
</svg>
