<svg width="200" height="70" viewBox="0 0 200 70" fill="none" xmlns="http://www.w3.org/2000/svg">
<g clip-path="url(#clip0_622_2421)">
<path d="M113.796 58.6384V31.918H105.808V32.9932L108.095 34.0327V60.7352H116.083V59.6599L113.796 58.6384Z" fill="black"/>
<path d="M43.1737 49.2477H41.3867C40.386 57.0613 37.0801 58.0828 30.4325 58.0828H24.9821V15.9502H15.4932V16.8642L18.4596 18.3337V60.7351H42.3517L43.1737 49.2477Z" fill="black"/>
<path d="M103.717 49.2477H101.948C100.929 57.0613 97.6412 58.0828 90.9936 58.0828H85.5432V15.9502H76.0543V16.8642L79.0207 18.3337V60.7351H102.913L103.717 49.2477Z" fill="black"/>
<path d="M110.954 26.4694C112.938 26.4694 114.51 24.534 114.51 22.1146C114.51 19.6773 112.938 17.7598 110.954 17.7598C108.971 17.7598 107.398 19.6952 107.398 22.1146C107.398 24.534 108.971 26.4694 110.954 26.4694Z" fill="black"/>
<path d="M163.313 36.165V31.9177C162.652 31.6668 161.991 31.5234 161.347 31.5234C159.31 31.5234 157.076 33.2439 154.896 38.9428V31.9177H146.909V32.993L149.214 34.0324V60.7349H157.202V59.6596L154.914 58.6381V41.3263C155.808 39.8568 158.363 36.7385 163.313 36.165Z" fill="black"/>
<path d="M59.0958 56.2541C58.1844 57.0785 56.8085 57.4369 55.5397 57.4369C53.3774 57.4369 52.0551 55.6269 52.0551 52.7954C52.0551 50.0176 54.7177 47.5445 59.0958 46.971V56.2541ZM51.4654 41.2721C50.2323 36.5409 52.9128 34.3724 55.1466 34.3724C57.005 34.3724 59.0779 35.8778 59.0779 39.462L59.1137 45.2685C50.0536 46.6484 45.9614 49.1932 45.9614 54.6592C45.9614 57.7416 47.6591 61.1108 51.5011 61.1108C55.0572 61.1108 57.148 60.0893 59.1315 57.9387V60.7165H67.1194V59.6412L64.832 58.6197V40.5194C64.832 34.5337 60.8292 32.0068 57.0408 32.0068C52.0551 32.0068 46.4797 34.9817 46.4797 40.2506C46.4797 41.0749 46.6941 42.0427 47.1587 42.7058C48.5347 42.0068 50.1072 41.523 51.4654 41.2721Z" fill="black"/>
<path d="M131.112 59.2655C129.396 59.2655 127.52 58.477 126.358 57.2942V36.7565C127.716 35.9322 129.182 35.5738 130.593 35.5738C135.633 35.5738 138.617 41.882 138.617 48.5666C138.617 57.1329 133.774 59.2655 131.112 59.2655ZM134.471 31.9178C132.166 31.9178 130.093 32.3479 126.358 34.8748V12.3838H117.673V13.2978L120.64 14.7673V58.9429C123.124 60.1974 127.734 61.1293 130.432 61.1293C140.797 61.1293 144.157 50.6813 144.157 44.8927C144.157 36.4519 140.243 31.9178 134.471 31.9178Z" fill="black"/>
<path d="M136.222 21.0752C136.044 21.0752 135.847 21.1111 135.668 21.1469V23.4229C135.776 23.4408 135.919 23.4408 136.008 23.4408C136.919 23.4408 137.688 23.1362 137.688 22.2401C137.688 21.3082 137.116 21.0752 136.222 21.0752ZM136.169 18.4767C135.99 18.4767 135.847 18.4946 135.668 18.5125V20.3405C136.615 20.2509 137.348 20.0537 137.348 19.2831C137.348 18.6021 136.794 18.4767 136.169 18.4767ZM138.206 23.6021C137.634 24.0681 136.883 24.2294 136.008 24.2294C135.615 24.2294 135.007 24.2114 134.596 24.1756V17.7598C135.061 17.724 135.543 17.7061 136.097 17.7061C137.152 17.7061 138.402 17.7777 138.402 19.1039C138.402 19.7849 137.938 20.3046 137.33 20.5555C138.188 20.681 138.813 21.3082 138.813 22.1684C138.813 22.8136 138.581 23.2795 138.206 23.6021Z" fill="black"/>
<path d="M141.351 24.1755V17.7598H145.068L144.818 18.5662H142.423V20.3225H144.514L144.264 21.0931H142.423V23.3691H145.211V24.1755H141.351Z" fill="black"/>
<path d="M147.57 24.1755V17.7598H148.642V23.2436H151.43V24.1755H147.57Z" fill="black"/>
<path d="M155.897 24.2832C153.985 24.2832 153.074 22.9212 153.074 21.147C153.074 19.1219 154.039 17.6523 156.326 17.6523C156.898 17.6523 157.595 17.8136 158.041 17.9928L157.72 18.7993C157.291 18.6201 156.737 18.4588 156.272 18.4588C154.771 18.4588 154.217 19.5341 154.217 21.129C154.217 22.5269 154.807 23.4946 156.094 23.4946C156.469 23.4946 157.005 23.3513 157.237 23.2258V21.1828L158.292 20.914V23.638C157.72 23.9785 156.898 24.2832 155.897 24.2832Z" fill="black"/>
<path d="M162.08 17.7598H161.008V24.1755H162.08V17.7598Z" fill="black"/>
<path d="M167.638 18.4588C166.422 18.4588 165.761 19.4624 165.761 20.9857C165.761 22.3477 166.19 23.4946 167.512 23.4946C168.674 23.4946 169.389 22.5807 169.389 20.9498C169.407 19.8746 169.121 18.4588 167.638 18.4588ZM170.014 25.2151C169.335 25.2151 168.674 24.9104 167.977 24.2473L167.709 24.2652C167.62 24.2832 167.53 24.2832 167.441 24.2832C165.547 24.2832 164.635 22.8674 164.635 21.147C164.635 19.1577 165.69 17.6523 167.709 17.6523C169.657 17.6523 170.533 19.1219 170.533 20.7527C170.533 22.2222 169.996 23.405 168.942 23.9427C169.299 24.2115 169.746 24.3549 170.211 24.3549C170.318 24.3549 170.515 24.3549 170.693 24.3369V25.1613C170.425 25.1971 170.282 25.2151 170.014 25.2151Z" fill="black"/>
<path d="M175.375 24.2831C173.642 24.2831 172.981 23.5841 172.981 21.6487V17.7598H174.053V21.577C174.053 22.5626 174.107 23.5304 175.375 23.5304C176.269 23.5304 176.823 23.2616 176.823 21.7203V17.7598H177.752V21.6307C177.77 23.5841 177.091 24.2831 175.375 24.2831Z" fill="black"/>
<path d="M180.45 24.1755V17.7598H184.167L183.917 18.5662H181.523V20.3225H183.613L183.363 21.0931H181.523V23.3691H184.31V24.1755H180.45Z" fill="black"/>
<path d="M174.214 34.1936C177.77 34.1936 178.324 37.7062 178.324 43.6739H169.621C169.693 38.5843 170.3 34.1936 174.214 34.1936ZM177.484 58.2796C173.999 58.2796 169.693 54.785 169.639 45.5556H184.453C184.453 35.018 179.235 31.9355 175.357 31.9355C169.425 31.9355 163.492 36.5234 163.492 47.1327C163.492 54.4087 167.209 61.0753 175.393 61.0753C178.86 61.0753 182.005 60.0717 184.167 58.19L184.06 56.6488C182.059 57.7599 180.093 58.2796 177.484 58.2796Z" fill="black"/>
</g>
<defs>
<clipPath id="clip0_622_2421">
<rect width="200" height="70" fill="white"/>
</clipPath>
</defs>
</svg>
