<?xml version="1.0" encoding="UTF-8"?>
<svg id="Layer_1" xmlns="http://www.w3.org/2000/svg" version="1.1" viewBox="0 0 141.7 141.7">
  <!-- Generator: Adobe Illustrator 29.2.1, SVG Export Plug-In . SVG Version: 2.1.0 Build 116)  -->
  <defs>
    <style>
      .st0 {
        fill: #e1001a;
      }

      .st1 {
        fill: #051f3a;
      }

      .st2 {
        fill: #fff;
      }
    </style>
  </defs>
  <rect class="st2" y="-.5" width="141.7" height="141.7"/>
  <g>
    <polygon class="st1" points="74.3 96.3 22.7 100.9 17.5 41.7 69.1 37.1 74.3 96.3"/>
    <path class="st2" d="M65.5,67.1c-.6-6.7-3-12-7-15.3-3.6-3-8.5-4.4-14-3.9l-17.3,1.5,3.7,42.1c1.4-.1,17.3-1.5,17.3-1.5,3.1-.3,5.9-1.1,8.3-2.4,2.3-1.2,4.2-2.9,5.6-5,2.8-4,4-9.4,3.5-15.6ZM54,78.6c-1.7,2.2-4.2,3.6-7.1,3.8l-7.6.6-2.3-26.9,5.9-.5c4.1-.4,7.2.3,9.4,2.1,2.3,2,3.7,5.2,4.1,10.2.4,4.3-.5,8-2.4,10.6Z"/>
    <rect class="st0" x="72.4" y="44.2" width="51.8" height="59.4"/>
    <path class="st2" d="M81.3,52.7h9.4v16.1h15.3v-16.1h9.4v42.4h-9.4v-18.3h-15.3v18.3h-9.4v-42.4Z"/>
  </g>
</svg>