<?xml version="1.0" encoding="UTF-8"?>
<svg id="Layer_1" data-name="Layer 1" xmlns="http://www.w3.org/2000/svg" xmlns:xlink="http://www.w3.org/1999/xlink" viewBox="0 0 50 50">
  <defs>
    <style>
      .cls-1 {
        fill: #fff;
      }

      .cls-2 {
        fill: url(#Degradado_sin_nombre_3);
      }
    </style>
    <linearGradient id="Degradado_sin_nombre_3" data-name="Degradado sin nombre 3" x1="8.1486" y1="8.1486" x2="41.8514" y2="41.8514" gradientUnits="userSpaceOnUse">
      <stop offset=".0011" stop-color="#ffe185"/>
      <stop offset=".2094" stop-color="#ffbb36"/>
      <stop offset=".3765" stop-color="#ff5176"/>
      <stop offset=".5238" stop-color="#f63395"/>
      <stop offset=".7394" stop-color="#a436d2"/>
      <stop offset="1" stop-color="#5f4eed"/>
    </linearGradient>
  </defs>
  <circle class="cls-2" cx="25" cy="25" r="23.8315"/>
  <g>
    <path class="cls-1" d="M31.5665,17.0269c-.803,0-1.4541.6511-1.4541,1.4541s.6511,1.4542,1.4541,1.4542,1.4542-.6511,1.4542-1.4542-.6511-1.4541-1.4542-1.4541Z"/>
    <path class="cls-1" d="M25.1019,18.8917c-3.3682,0-6.1085,2.7401-6.1085,6.1083s2.7403,6.1083,6.1085,6.1083,6.1083-2.7403,6.1083-6.1083-2.7403-6.1083-6.1083-6.1083ZM25.1019,28.9128c-2.1576,0-3.9129-1.7551-3.9129-3.9128s1.7553-3.9128,3.9129-3.9128,3.9126,1.7551,3.9126,3.9128-1.7551,3.9128-3.9126,3.9128Z"/>
    <path class="cls-1" d="M29.9512,37.4019h-9.9028c-4.1081,0-7.4503-3.3422-7.4503-7.4503v-9.9032c0-4.1083,3.3422-7.4503,7.4503-7.4503h9.9028c4.1081,0,7.4507,3.342,7.4507,7.4503v9.9032c0,4.1081-3.3426,7.4503-7.4507,7.4503ZM20.0484,14.9317c-2.8216,0-5.1168,2.2951-5.1168,5.1167v9.9032c0,2.8216,2.2952,5.1168,5.1168,5.1168h9.9028c2.8216,0,5.1171-2.2952,5.1171-5.1168v-9.9032c0-2.8216-2.2955-5.1167-5.1171-5.1167h-9.9028Z"/>
  </g>
</svg>