<?xml version="1.0" encoding="UTF-8"?>
<svg id="Layer_1" xmlns="http://www.w3.org/2000/svg" version="1.1" viewBox="0 0 25 20">
  <!-- Generator: Adobe Illustrator 29.6.1, SVG Export Plug-In . SVG Version: 2.1.1 Build 9)  -->
  <defs>
    <style>
      .st0 {
        fill: #d7fc19;
      }
    </style>
  </defs>
  <path class="st0" d="M17.7,1c-1.3-1.3-3.4-1.3-4.7,0l-.4.4-.5-.4c-1.3-1.3-3.4-1.3-4.7,0-1.3,1.3-1.3,3.4,0,4.7l5.2,5.1,5.2-5.1c1.3-1.3,1.3-3.4,0-4.7Z"/>
  <path class="st0" d="M24.9.8c0,0,0-.2-.2-.2-1.4,0-2.5,1-2.7,2.4l-.4,3.8-.2.6c.6,0,1.1.3,1.5.7l.2.2-2.8,2.8c-.1.1-.3.1-.4,0-.1-.1-.1-.3,0-.4l2.3-2.3c-.3-.2-.7-.3-1.1-.3,0,0-1.3,0-1.8.6l-1.6,1.7s-4.6.9-4.6,6.1v3.6c.1,0,5.2,0,5.2,0v-1.7c0-.6.2-1.1.6-1.6l5.3-5.6c.4-.4.6-1,.6-1.5V.9c0,0,0,0,0,0Z"/>
  <path class="st0" d="M7.1,10.3h0l-1.7-1.7c-.5-.5-1.8-.6-1.8-.6-.4,0-.8.1-1.1.3l2.3,2.3c.1.1.1.3,0,.4s-.3.1-.4,0l-2.8-2.8.2-.2c.4-.4,1-.7,1.5-.7l-.2-.6-.4-3.8C2.8,1.7,1.6.7.2.7S0,.8,0,.9v8.7c0,.6.2,1.1.6,1.5l5.3,5.7c.4.4.6,1,.6,1.6v1.7h5.1s.1-3.6.1-3.6c0-5.1-4.6-6.1-4.6-6.1h0Z"/>
</svg>