<?xml version="1.0" encoding="UTF-8"?>
<svg id="Layer_1" xmlns="http://www.w3.org/2000/svg" version="1.1" viewBox="0 0 19 25">
  <!-- Generator: Adobe Illustrator 29.6.1, SVG Export Plug-In . SVG Version: 2.1.1 Build 9)  -->
  <defs>
    <style>
      .st0 {
        fill: #d7fc19;
      }
    </style>
  </defs>
  <polygon class="st0" points="10.6 8.3 9.5 5 8.4 8.3 5.1 8.3 7.8 10.5 6.8 13.9 9.5 11.8 12.2 13.9 11.2 10.5 13.9 8.3 10.6 8.3"/>
  <path class="st0" d="M9.5,0C4.2,0,0,4.3,0,9.5s.9,4.6,2.4,6.3v9.2l7.1-2.4,7.1,2.4v-9.2c1.5-1.7,2.4-3.9,2.4-6.3C19,4.3,14.8,0,9.5,0ZM9.5,16.7c-3.9,0-7.1-3.2-7.1-7.1s3.2-7.1,7.1-7.1,7.1,3.2,7.1,7.1-3.2,7.1-7.1,7.1Z"/>
</svg>