<?xml version="1.0" encoding="UTF-8"?>
<svg id="Layer_1" data-name="Layer 1" xmlns="http://www.w3.org/2000/svg" viewBox="0 0 7.88 10">
  <defs>
    <style>
      .cls-1 {
        fill: #00ffab;
      }
    </style>
  </defs>
  <rect class="cls-1" x="1.66" y="6.25" width="1.04" height=".42"/>
  <rect class="cls-1" x="5.18" y="6.25" width="1.04" height=".42"/>
  <path class="cls-1" d="M6.22,7.92H1.66c-.23,0-.41-.19-.41-.42v-1.88h5.39v1.88c0,.23-.19.42-.41.42M6.08,8.96H1.91l.34-.63h3.48l.35.63ZM6.63,5.21H1.24v-2.71h5.39v2.71ZM1.66,1.46h4.56c.23,0,.41.19.41.42v.21H1.24v-.21c0-.23.19-.42.41-.42M2.85.42h2.17l-.37.62h-1.42l-.37-.62ZM7.79,3.17l-.75-.55v-.74c0-.46-.37-.83-.83-.83h-1.09l.43-.73c.04-.06.04-.14,0-.21-.04-.07-.11-.11-.18-.11h-2.9c-.07,0-.14.04-.18.11-.04.07-.04.15,0,.21l.43.73h-1.09c-.46,0-.83.37-.83.83v.73L.08,3.17c-.05.04-.08.1-.08.17v1.25h.41v-1.15l.41-.31v4.38c0,.46.37.83.83.83h.12l-.74,1.36c-.06.1-.02.23.08.28.03.02.07.03.1.03.08,0,.15-.04.18-.11l.28-.52h4.64l.29.52c.04.07.11.11.18.11.04,0,.07,0,.1-.03.1-.06.13-.18.08-.28l-.77-1.36h.01c.46,0,.83-.37.83-.83V3.13l.41.31v1.14h.41v-1.25c0-.07-.03-.13-.08-.17"/>
</svg>