<?xml version="1.0" encoding="UTF-8"?>
<svg id="Layer_1" data-name="Layer 1" xmlns="http://www.w3.org/2000/svg" viewBox="0 0 10 10">
  <defs>
    <style>
      .cls-1 {
        fill: #007f73;
      }

      .cls-2 {
        fill: #00ffab;
      }
    </style>
  </defs>
  <path class="cls-2" d="M9.86,5c0,2.68-2.18,4.86-4.86,4.86S.14,7.68.14,5,2.32.14,5,.14s4.86,2.18,4.86,4.86"/>
  <path class="cls-2" d="M5,10C2.24,10,0,7.76,0,5S2.24,0,5,0s5,2.24,5,5-2.24,5-5,5ZM5,.28C2.4.28.28,2.4.28,5s2.12,4.72,4.72,4.72,4.72-2.12,4.72-4.72S7.6.28,5,.28Z"/>
  <path class="cls-1" d="M3.85,9.4l-.09-.11s-.02.01-.03.02c-.02.06.07.13.12.09"/>
  <path class="cls-1" d="M5.41,5.93c-.06-.05-.14-.08-.21-.11-.19-.09-.34-.24-.43-.43-.04-.08-.07-.17-.13-.24-.12-.12-.3-.12-.45-.18-.17-.07-.31-.24-.5-.26-.14-.02-.27.04-.4.08-.13.04-.29.05-.39-.05.07-.16-.06-.38-.23-.4.08-.09.09-.25,0-.34-.08-.09-.24-.11-.34-.03-.15-.1-.17-.34-.06-.48.11-.15.3-.21.48-.21.05,0,.1,0,.15.03.04.02.07.06.1.09.17.13.41.05.59-.06.18-.11.35-.27.56-.28.05,0,.1,0,.16-.01.05-.01.1-.05.14-.08.11-.08.23-.18.26-.32,0-.03,0-.07.03-.1.04-.04.1-.02.15-.01.21.05.44,0,.6-.14.04-.16.02-.34-.06-.48-.08-.14-.23-.24-.39-.24-.14,0-.27.07-.4.14-.12.07-.25.15-.39.15-.14,0-.3-.08-.32-.22,0-.04,0-.08.03-.11.04-.03.09-.03.14-.03.11-.02.19-.11.28-.16.29-.18.67-.02,1.02-.05.07,0,.14-.02.18-.08.03-.04.03-.1.01-.15-.04-.11-.14-.2-.25-.24-.11-.04-.24-.04-.36-.04h-.59c0-.11,0-.21.04-.31-.23-.08-.49-.01-.73-.04-.13-.01-.26-.05-.38-.11-1.05.39-1.93,1.12-2.49,2.07.06.02.13.03.18.07.09.07.1.2.09.32l-.02.53c0,.1,0,.2.03.29s.12.17.21.17c.14,0,.24-.15.38-.16l.03.39c0,.06.01.13.06.17.06.05.14.05.21.08.09.05.12.15.17.24.12.24.37.42.64.46.03,0,.07.01.09.04.01.02.01.04.01.05,0,.21-.28.34-.3.56-.02.24.25.37.39.57.24.34,0,.81.08,1.22.04.21.17.41.14.62-.01.1-.06.2-.06.3,0,.11.08.2.14.28l.47.6c.05-.02.11-.04.17-.04l-.03-.79c0-.05,0-.1.01-.15.05-.17.27-.23.4-.36.09-.09.14-.23.21-.34.05-.08.12-.14.18-.21l.78-.78s.07-.07.09-.12c.02-.05.01-.11,0-.16-.02-.15-.05-.32-.17-.42Z"/>
  <path class="cls-1" d="M8.54,3.81s.03-.05.04-.08c.05-.11.24-.11.29,0,.01.03.02.06.04.09.03.05.1.07.16.08l.49.1s.08.02.12,0c.03,0,.05-.03.07-.05-.17-.78-.53-1.51-1.05-2.12-.09.04-.18.11-.27.15-.11.04-.26.06-.31.19-.06.14.06.29.13.44.01.03.02.06.01.08-.01.03-.05.05-.09.05-.09.02-.19.02-.28.01l-.07-.53s-.02-.1-.06-.12c-.06-.04-.13.02-.18.07-.05.06-.1.12-.12.2-.02.08,0,.17.07.21.06.03.13.03.18.06.09.06.09.19.03.28-.06.09-.15.14-.24.2-.13.09-.25.2-.34.32-.08.1-.14.27-.03.34.11.07.23-.05.34-.12.2-.14.47-.11.71-.08.04,0,.08.01.11.03.05.03.07.09.1.14.03.05.1.08.15.04"/>
  <path class="cls-1" d="M9.53,4.53c-.16-.06-.33-.08-.49-.13-.24-.06-.47-.17-.68-.32-.08-.06-.16-.13-.26-.16-.15-.05-.31,0-.47.01-.13,0-.27-.03-.4-.03-.17,0-.31.11-.46.18-.14.06-.35.14-.29.35.01.05.04.09.03.14-.01.04-.05.06-.08.09-.07.08-.05.19-.04.29.04.22.08.45.2.64.11.19.32.35.54.35.12,0,.24-.05.36-.06.12-.01.27.02.32.13.05.1,0,.22,0,.33,0,.25.25.47.19.71-.02.1-.1.19-.11.29,0,.06.01.11.03.16.11.35.25.68.43,1,.92-.88,1.49-2.11,1.5-3.49,0-.09,0-.18,0-.27-.08-.11-.2-.18-.33-.23"/>
</svg>