<?xml version="1.0" encoding="UTF-8"?><svg id="Layer_1" xmlns="http://www.w3.org/2000/svg" viewBox="0 0 25 25"><defs><style>.cls-1{fill:#007f73;}.cls-2{fill:#d7fc19;}</style></defs><path class="cls-1" d="M12.5,0h0c6.9,0,12.5,5.6,12.5,12.5h0c0,6.9-5.6,12.5-12.5,12.5h0C5.6,25,0,19.4,0,12.5h0C0,5.6,5.6,0,12.5,0Z"/><path class="cls-2" d="M8.92,14.49h1.28c.18,0,.33.15.33.33v.66c0,.18-.15.33-.33.33h-1.28c-.18,0-.33-.15-.33-.33v-.66c0-.18.15-.33.33-.33Z"/><path class="cls-2" d="M8.92,13.38h1.28c.18,0,.33-.15.33-.33v-.67c0-.18-.15-.33-.33-.33h-1.28c-.18,0-.33.15-.33.33v.66c-.01.18.15.34.33.34Z"/><path class="cls-2" d="M14.74,15.81h1.28c.18,0,.33-.15.33-.33v-.66c0-.18-.15-.33-.33-.33h-1.28c-.18,0-.33.15-.33.33v.66c-.01.18.13.33.33.33Z"/><path class="cls-2" d="M14.74,13.38h1.28c.18,0,.33-.15.33-.33v-.67c0-.18-.15-.33-.33-.33h-1.28c-.18,0-.33.15-.33.33v.66c-.01.18.13.34.33.34Z"/><path class="cls-2" d="M11.83,14.49h1.28c.18,0,.33.15.33.33v.66c0,.18-.15.33-.33.33h-1.28c-.18,0-.33-.15-.33-.33v-.66c0-.18.15-.33.33-.33Z"/><path class="cls-2" d="M11.83,12.04h1.28c.18,0,.33.15.33.33v.67c0,.18-.15.33-.33.33h-1.28c-.18,0-.33-.15-.33-.33v-.68c0-.18.15-.33.33-.33Z"/><path class="cls-2" d="M17.03,8.14h-1.22v.49c0,.43-.35.78-.78.78s-.78-.34-.78-.78v-.49h-3.59v.49c0,.43-.34.78-.78.78s-.78-.34-.78-.78v-.49h-1.22c-.67,0-1.22.55-1.22,1.22v7.12c0,.67.55,1.22,1.22,1.22h9.14c.67,0,1.22-.55,1.22-1.22v-7.12c.01-.67-.54-1.22-1.21-1.22ZM17.58,16.48c0,.31-.24.55-.55.55H7.9c-.3,0-.55-.25-.55-.55v-5.67h10.23v5.67Z"/><path class="cls-2" d="M9.9,8.97c.18,0,.33-.15.33-.33v-1.02c0-.18-.15-.33-.33-.33s-.33.15-.33.33v1.02c-.01.18.15.33.33.33Z"/><path class="cls-2" d="M15.04,8.97c.18,0,.33-.15.33-.33v-1.02c0-.18-.15-.33-.33-.33s-.33.15-.33.33v1.02c0,.18.15.33.33.33Z"/></svg>