<svg width="85" height="80" viewBox="0 0 85 80" fill="none" xmlns="http://www.w3.org/2000/svg">
<path d="M84.5 29C83 3 58 0 47.5 0C21.5 0 0 13 0 32.5C4.8 77.7 36 82.3333 51 79C69 74 84.5 52 84.5 29Z" fill="#E1FB41"/>
<rect x="14.4622" y="10.8999" width="55.7809" height="55.7809" rx="27.8905" fill="#1FAB89"/>
<g clip-path="url(#clip0_62_777)">
<path d="M42.6172 18.3374C34.4564 18.3374 27.8501 24.9437 27.8501 33.1045C27.8501 35.8656 28.6273 38.5654 30.0795 40.9175L42.6172 59.2434L55.1549 40.9175C59.4705 34.0044 57.3433 24.8824 50.4302 20.5668C48.0781 19.1146 45.3783 18.3374 42.6172 18.3374ZM42.6172 38.545C39.6106 38.545 37.1767 36.1111 37.1767 33.1045C37.1767 30.0979 39.6106 27.664 42.6172 27.664C45.6238 27.664 48.0577 30.0979 48.0577 33.1045C48.0577 36.1111 45.6238 38.545 42.6172 38.545Z" fill="#00FFAB"/>
</g>
<defs>
<clipPath id="clip0_62_777">
<rect width="29.5342" height="40.906" fill="white" transform="translate(27.8501 18.3374)"/>
</clipPath>
</defs>
</svg>
