<?xml version="1.0" encoding="UTF-8"?><svg id="Layer_1" xmlns="http://www.w3.org/2000/svg" viewBox="0 0 25 25"><defs><style>.cls-1{fill:#007f73;}.cls-2{fill:#d7fc19;}</style></defs><path class="cls-1" d="M12.5,0h0c6.9,0,12.5,5.6,12.5,12.5h0c0,6.9-5.6,12.5-12.5,12.5h0C5.6,25,0,19.4,0,12.5h0C0,5.6,5.6,0,12.5,0Z"/><path class="cls-2" d="M17.03,13.45c.72-1.31,1.62-2.99,1.62-3.85-.01-1.27-1.05-2.3-2.32-2.32-1.3-.01-2.36,1.02-2.37,2.31,0,.86.9,2.54,1.62,3.85-.67.06-1.93.25-1.93.87,0,.3.29.53.87.69.43.12.98.19,1.56.21v.68c0,.38-.31.69-.69.69h-3.9c-.25-.45-1.28-.6-1.87-.66.72-1.31,1.62-2.99,1.62-3.85-.01-1.27-1.05-2.3-2.32-2.31-1.3-.01-2.36,1.02-2.37,2.31,0,.86.9,2.54,1.62,3.85-.67.06-1.93.25-1.93.87,0,.32.31.56.93.72.46.11,1.07.17,1.73.17.56,0,2.28-.05,2.6-.67h3.89c.62,0,1.12-.5,1.12-1.12v-.68c.59-.01,1.14-.09,1.56-.21.58-.16.87-.4.87-.69,0-.62-1.26-.81-1.93-.87ZM8.08,12.1c0-.45.37-.82.83-.82.46,0,.82.37.83.82,0,.45-.37.82-.83.82s-.83-.37-.83-.82ZM10.53,17.11c-.42.1-1.01.16-1.62.16s-1.2-.06-1.62-.16c-.48-.12-.59-.26-.6-.29.04-.11.58-.39,1.72-.46.12.21.22.4.3.56.04.07.11.12.19.12s.16-.04.19-.12c.08-.16.19-.35.3-.56,1.14.07,1.69.35,1.72.46,0,.03-.11.17-.6.29ZM15.48,9.61c0-.45.37-.82.82-.82.46,0,.83.37.83.82,0,.45-.37.82-.82.82-.46,0-.83-.37-.83-.82ZM17.91,14.62c-.43.11-.98.17-1.57.18-.01,0-.02,0-.03,0s-.02,0-.03,0c-.59,0-1.14-.06-1.57-.18-.46-.12-.6-.25-.62-.29.04-.11.58-.39,1.72-.46.12.21.22.4.3.56.04.07.11.12.19.12s.16-.04.19-.12c.08-.16.19-.35.3-.56,1.14.07,1.68.34,1.72.46-.02.04-.16.17-.62.29Z"/></svg>