<?xml version="1.0" encoding="UTF-8"?><svg id="Layer_1" xmlns="http://www.w3.org/2000/svg" viewBox="0 0 25 19"><defs><style>.cls-1{fill:#6b7280;}</style></defs><path class="cls-1" d="M6.8,5.68c1.52,0,2.79-1.26,2.79-2.84s-1.24-2.84-2.79-2.84-2.79,1.26-2.79,2.84c.03,1.58,1.26,2.84,2.79,2.84Z"/><path class="cls-1" d="M18.21,5.68c1.52,0,2.79-1.26,2.79-2.84s-1.24-2.84-2.79-2.84-2.79,1.26-2.79,2.84,1.24,2.84,2.79,2.84Z"/><path class="cls-1" d="M24.73,4.44c.45-.51.34-1.31-.26-1.69-.47-.29-1.08-.16-1.45.27l-2.58,3.05c-.29.32-.68.51-1.1.51h-2.29c-.42,0-.84-.19-1.1-.51l-2.58-3.05s-.34-.43-.87-.43-.84.4-.87.43l-2.58,3.05c-.29.32-.68.51-1.1.51h-2.29c-.42,0-.84-.19-1.1-.51L1.99,3.02c-.37-.43-.97-.56-1.45-.27-.6.37-.71,1.18-.26,1.69l3.13,3.72c.26.3.37.7.32,1.1-.29,1.95-1.16,7.95-1.21,8.57-.08.72.37,1.07.92,1.15.68.11,1.08-.35,1.29-1.1l1.1-3.99c.13-.46.53-.78,1-.78s.87.32,1,.78c.34,1.23.97,3.51,1.1,3.93.18.59.37,1.07.92,1.15.68.11,1.39-.24,1.29-1.1-.11-.72-.95-6.67-1.21-8.62-.05-.4.05-.8.32-1.1l2.26-2.73,2.31,2.73c.26.3.37.7.32,1.1-.29,1.95-1.16,7.95-1.21,8.57-.08.72.37,1.07.92,1.15.68.11,1.08-.35,1.29-1.1l1.1-3.99c.13-.46.53-.78,1-.78s.87.32,1,.78c.34,1.23.97,3.51,1.1,3.93.18.59.37,1.07.92,1.15.68.11,1.39-.24,1.29-1.1-.11-.72-.95-6.67-1.21-8.62-.05-.4.05-.8.32-1.1l3.08-3.72ZM6.8,11.35c-.29,0-.53-.24-.53-.54s.24-.54.53-.54.53.24.53.54c.03.27-.21.54-.53.54ZM6.8,9.26c-.29,0-.53-.24-.53-.54s.24-.54.53-.54.53.24.53.54c.03.29-.21.54-.53.54ZM18.21,11.35c-.29,0-.53-.24-.53-.54s.24-.54.53-.54.53.24.53.54c0,.27-.24.54-.53.54ZM18.21,9.26c-.29,0-.53-.24-.53-.54s.24-.54.53-.54.53.24.53.54-.24.54-.53.54Z"/></svg>