<?xml version="1.0" encoding="UTF-8"?><svg id="Layer_1" xmlns="http://www.w3.org/2000/svg" viewBox="0 0 19 25"><defs><style>.cls-1{fill:#6b7280;}</style></defs><path class="cls-1" d="M16.63,8.33h-1.19v-2.38c0-3.29-2.66-5.95-5.94-5.95S3.56,2.67,3.56,5.95v2.38h-1.19C1.07,8.33,0,9.41,0,10.71v11.91C0,23.93,1.07,25,2.38,25h14.25c1.31,0,2.38-1.07,2.38-2.38v-11.91c0-1.31-1.07-2.38-2.38-2.38ZM9.5,19.05c-1.31,0-2.38-1.07-2.38-2.38s1.07-2.38,2.38-2.38,2.38,1.07,2.38,2.38-1.07,2.38-2.38,2.38ZM13.18,8.33h-7.36v-2.38c0-2.04,1.65-3.69,3.68-3.69s3.68,1.65,3.68,3.69v2.38Z"/></svg>