<?xml version="1.0" encoding="UTF-8"?>
<svg id="Layer_1" data-name="Layer 1" xmlns="http://www.w3.org/2000/svg" viewBox="0 0 13.86 10">
  <defs>
    <style>
      .cls-1 {
        fill: #00ffab;
      }
    </style>
  </defs>
  <path class="cls-1" d="M10.93,2.33c-.94-.79-2.34.61-1.73,1.84.21.42.27.78.23.94-.08.57-1.12,1.15-2.23,1.11-1.28-.07-2.42.08-2.88.88-.27.47-.32.9,0,1.35.29.42.85.79,1.6.56,2.16-.76,3.94-1.61,5.23-2.15.6-.28,1.71-1.05,1.49-2-.3-1.05-1.1-2.05-1.7-2.53Z"/>
  <path class="cls-1" d="M12.13,1.62c.38-.4.46-.95.18-1.22-.29-.27-.83-.17-1.21.23-.38.4-.46.95-.18,1.22.29.27.83.17,1.21-.23"/>
  <path class="cls-1" d="M11.98,2.61c.14.2.46.21.72.03.26-.18.35-.49.21-.69-.14-.2-.46-.21-.72-.03-.26.18-.35.49-.21.69"/>
  <path class="cls-1" d="M13.38,2.88c-.11-.16-.38-.17-.6-.01-.22.15-.3.41-.19.57.11.16.38.17.6.01.22-.15.3-.41.19-.57"/>
  <path class="cls-1" d="M13.45,4.29c.19-.13.25-.36.15-.51-.1-.15-.34-.16-.53-.03-.19.13-.25.36-.15.51.1.15.34.16.53.03"/>
  <path class="cls-1" d="M13.81,4.61c-.1-.15-.34-.16-.52-.03-.18.13-.24.35-.14.5.1.15.34.16.52.03.18-.13.24-.35.14-.5"/>
  <path class="cls-1" d="M6.27,2.72c-.53-.55-1.59-1.27-2.66-1.48-.96-.14-1.64,1.03-1.86,1.66-.43,1.33-1.13,3.17-1.7,5.39-.17.76.25,1.29.69,1.55.48.28.9.19,1.35-.11.76-.52.81-1.67.63-2.94-.14-1.11.35-2.19.91-2.32.16-.06.52-.03.96.14,1.28.5,2.56-1.01,1.69-1.88"/>
  <path class="cls-1" d="M6.75,2.69c.3.26.84.14,1.2-.28.37-.42.42-.97.13-1.23-.3-.26-.84-.14-1.2.28-.37.42-.42.97-.13,1.23Z"/>
  <path class="cls-1" d="M5.9,1.7c.21.12.51,0,.67-.27.16-.27.12-.59-.09-.72-.21-.12-.51,0-.67.27-.16.27-.12.59.09.72"/>
  <path class="cls-1" d="M5.02,1.16c.17.1.42,0,.55-.24.14-.23.11-.5-.06-.6s-.42,0-.55.24c-.14.23-.11.5.06.6"/>
  <path class="cls-1" d="M4.17.89c.16.09.38,0,.49-.19.12-.2.08-.43-.07-.52-.16-.09-.38,0-.49.19-.12.2-.08.43.07.52"/>
  <path class="cls-1" d="M3.34.73c.16.09.37,0,.49-.18.11-.19.08-.42-.08-.51-.16-.09-.37,0-.49.18-.11.19-.08.42.08.51"/>
</svg>