<?xml version="1.0" encoding="UTF-8"?>
<svg id="Layer_1" data-name="Layer 1" xmlns="http://www.w3.org/2000/svg" viewBox="0 0 16 10">
  <defs>
    <style>
      .cls-1 {
        fill: #00ffab;
      }
    </style>
  </defs>
  <path class="cls-1" d="M12.06,6.15c-1.05,0-1.9.86-1.9,1.92,0,.04,0,.09,0,.13h-4.33s0-.09,0-.13c0-1.06-.85-1.92-1.9-1.92s-1.9.86-1.9,1.92c0,.04,0,.09,0,.13H.76v-3.33h7.75c.77,0,1.4-.63,1.4-1.41V.77h1.27v2.69h0c0,.78.63,1.41,1.4,1.41h2.67v3.33h-1.27s0-.09,0-.13c0-1.06-.85-1.92-1.9-1.92M12.06,9.23c-.63,0-1.14-.52-1.14-1.15s.51-1.15,1.14-1.15,1.14.52,1.14,1.15c0,.64-.51,1.15-1.14,1.15M3.94,9.23c-.63,0-1.14-.52-1.14-1.15s.51-1.15,1.14-1.15,1.14.52,1.14,1.15-.51,1.15-1.14,1.15M.76.77h3.81v3.33H.76V.77ZM9.14,3.46c0,.35-.28.64-.64.64h-3.17V.77h3.81v2.69ZM15.22,4.1h-2.65c-.35,0-.64-.29-.64-.64V.79c1.73.18,3.1,1.57,3.28,3.31M11.56,0s0,0,0,0H.38c-.21,0-.38.17-.38.38v8.21c0,.21.17.38.38.38h1.87c.32.61.95,1.03,1.68,1.03s1.36-.42,1.68-1.03h4.76c.32.61.95,1.03,1.68,1.03s1.36-.42,1.68-1.03h1.87c.21,0,.38-.17.38-.38v-4.1C16,2.01,14.01,0,11.56,0"/>
</svg>