<?xml version="1.0" encoding="UTF-8"?>
<svg id="Layer_1" data-name="Layer 1" xmlns="http://www.w3.org/2000/svg" viewBox="0 0 10 10">
  <defs>
    <style>
      .cls-1 {
        fill: #007f73;
      }

      .cls-2 {
        fill: #00ffab;
      }
    </style>
  </defs>
  <path class="cls-2" d="M6.51,7.23c-.31.13-.64.22-.97.22-1.08,0-1.99-.7-2.31-1.65h-.75c-.1,0-.18-.1-.18-.2s.08-.2.18-.2h.66c-.02-.05-.04-.25-.04-.39,0-.08,0-.06.01-.21h-.63c-.1,0-.18-.1-.18-.2s.08-.2.18-.2h.7c.26-1,1.22-1.84,2.36-1.84.34,0,.66.08.97.21.09.04.13.15.1.23-.04.09-.15.13-.23.09-.27-.11-.54-.18-.83-.18-.94,0-1.73.63-1.99,1.48h1.63c.1,0,.18.1.18.2s-.08.2-.18.2h-1.71c-.01.15-.01.13-.01.21,0,.13.01.34.04.39h1.67c.1,0,.18.1.18.2s-.08.2-.18.2h-1.56c.3.75,1.05,1.3,1.92,1.3.28,0,.56-.08.83-.19.09-.04.2,0,.23.09.04.09,0,.2-.08.24M5,0C2.24,0,0,2.24,0,5s2.24,5,5,5,5-2.24,5-5S7.76,0,5,0"/>
  <path class="cls-1" d="M6.51,7.23c-.31.13-.64.22-.97.22-1.08,0-1.99-.7-2.31-1.65h-.75c-.1,0-.18-.1-.18-.2s.08-.2.18-.2h.66c-.02-.05-.04-.25-.04-.39,0-.08,0-.06.01-.21h-.63c-.1,0-.18-.1-.18-.2s.08-.2.18-.2h.7c.26-1,1.22-1.84,2.36-1.84.34,0,.66.08.97.21.09.04.13.15.09.23-.04.09-.15.13-.23.09-.27-.11-.54-.18-.83-.18-.94,0-1.73.63-1.99,1.48h1.63c.1,0,.18.1.18.2s-.08.2-.18.2h-1.71c-.01.15-.01.13-.01.21,0,.13.01.34.04.39h1.67c.1,0,.18.1.18.2s-.08.2-.18.2h-1.56c.3.75,1.05,1.3,1.92,1.3.28,0,.56-.08.83-.19.09-.04.2,0,.23.09.04.09,0,.2-.08.24"/>
</svg>